<?xml version="1.0" encoding="UTF-8"?>
<svg xmlns="http://www.w3.org/2000/svg" xmlns:xlink="http://www.w3.org/1999/xlink" width="300pt" height="300pt" viewBox="0 0 300 300" version="1.1">
<defs>
<clipPath id="clip1">
  <path d="M 0 148 L 298.269531 148 L 298.269531 150 L 0 150 Z M 0 148 "/>
</clipPath>
<clipPath id="clip2">
  <path d="M 148 0 L 150 0 L 150 298.269531 L 148 298.269531 Z M 148 0 "/>
</clipPath>
</defs>
<g id="surface1">
<g clip-path="url(#clip1)" clip-rule="nonzero">
<path style="fill:none;stroke-width:0.3985;stroke-linecap:butt;stroke-linejoin:miter;stroke:rgb(0%,0%,0%);stroke-opacity:1;stroke-miterlimit:10;" d="M -79.37305 0.00051226 L 79.369942 0.00051226 " transform="matrix(1.874271,0,0,-1.874271,149.133773,149.133773)"/>
</g>
<g clip-path="url(#clip2)" clip-rule="nonzero">
<path style="fill:none;stroke-width:0.3985;stroke-linecap:butt;stroke-linejoin:miter;stroke:rgb(0%,0%,0%);stroke-opacity:1;stroke-miterlimit:10;" d="M -0.00051226 -79.369942 L -0.00051226 79.37305 " transform="matrix(1.874271,0,0,-1.874271,149.133773,149.133773)"/>
</g>
<path style="fill:none;stroke-width:0.3985;stroke-linecap:butt;stroke-linejoin:miter;stroke:rgb(0%,0%,0%);stroke-opacity:1;stroke-miterlimit:10;" d="M 59.528891 0.00051226 C 59.528891 32.875799 32.876859 59.527832 -0.00051226 59.527832 C -32.875799 59.527832 -59.527832 32.875799 -59.527832 0.00051226 C -59.527832 -32.876859 -32.875799 -59.528891 -0.00051226 -59.528891 C 32.876859 -59.528891 59.528891 -32.876859 59.528891 0.00051226 Z M 59.528891 0.00051226 " transform="matrix(1.874271,0,0,-1.874271,149.133773,149.133773)"/>
<path style="fill:none;stroke-width:0.3985;stroke-linecap:butt;stroke-linejoin:miter;stroke:rgb(0%,0%,0%);stroke-opacity:1;stroke-miterlimit:10;" d="M -0.00051226 0.00051226 L 51.550788 29.766256 " transform="matrix(1.874271,0,0,-1.874271,149.133773,149.133773)"/>
<path style="fill:none;stroke-width:0.3985;stroke-linecap:butt;stroke-linejoin:miter;stroke:rgb(0%,0%,0%);stroke-opacity:1;stroke-miterlimit:10;" d="M 51.550788 29.766256 L 51.563293 0.00051226 " transform="matrix(1.874271,0,0,-1.874271,149.133773,149.133773)"/>
<path style="fill:none;stroke-width:0.3985;stroke-linecap:butt;stroke-linejoin:miter;stroke:rgb(0%,0%,0%);stroke-opacity:1;stroke-miterlimit:10;" d="M 19.840538 0.00051226 C 19.840538 3.483117 18.925599 6.903197 17.183255 9.921037 " transform="matrix(1.874271,0,0,-1.874271,149.133773,149.133773)"/>
<path style=" stroke:none;fill-rule:nonzero;fill:rgb(0%,0%,0%);fill-opacity:1;" d="M 197.363281 134.59375 C 197.363281 133.207031 196.832031 131.738281 195.566406 131.738281 C 193.59375 131.738281 191.503906 135.242188 191.503906 138.242188 C 191.503906 139.804688 192.09375 141.070312 193.300781 141.070312 C 195.300781 141.070312 197.363281 137.507812 197.363281 134.59375 Z M 192.976562 136.183594 C 193.652344 133.355469 194.773438 132.121094 195.539062 132.121094 C 196.390625 132.121094 196.390625 133.5625 196.390625 133.828125 C 196.390625 134.328125 196.273438 135.09375 196.007812 136.183594 Z M 195.890625 136.652344 C 195.507812 138.066406 195.214844 138.773438 194.832031 139.421875 C 194.417969 140.097656 193.886719 140.71875 193.328125 140.71875 C 192.59375 140.71875 192.476562 139.714844 192.476562 139.007812 C 192.476562 138.15625 192.738281 137.125 192.859375 136.652344 Z M 195.890625 136.652344 "/>
<path style="fill:none;stroke-width:0.3985;stroke-linecap:butt;stroke-linejoin:miter;stroke:rgb(0%,0%,0%);stroke-opacity:1;stroke-miterlimit:10;" d="M 3.231995 -3.967698 L 48.326618 -3.967698 " transform="matrix(1.874271,0,0,-1.874271,149.133773,149.133773)"/>
<path style="fill:none;stroke-width:0.3985;stroke-linecap:round;stroke-linejoin:round;stroke:rgb(0%,0%,0%);stroke-opacity:1;stroke-miterlimit:10;" d="M -2.071552 2.389443 C -1.694322 0.955552 -0.850243 0.276121 0.00217145 -0.00106993 C -0.850243 -0.280345 -1.694322 -0.955608 -2.071552 -2.389499 " transform="matrix(-1.874271,0,0,1.874271,154.820476,156.572318)"/>
<path style="fill:none;stroke-width:0.3985;stroke-linecap:round;stroke-linejoin:round;stroke:rgb(0%,0%,0%);stroke-opacity:1;stroke-miterlimit:10;" d="M -2.074744 2.389499 C -1.693345 0.955608 -0.849267 0.280345 -0.00102033 0.00106993 C -0.849267 -0.276121 -1.693345 -0.955552 -2.074744 -2.389443 " transform="matrix(1.874271,0,0,-1.874271,240.08785,156.572318)"/>
<path style=" stroke:none;fill-rule:nonzero;fill:rgb(0%,0%,0%);fill-opacity:1;" d="M 187.515625 167.035156 C 187.28125 167.121094 187.132812 167.328125 187.132812 167.59375 C 187.132812 167.945312 187.398438 168.210938 187.753906 168.210938 C 188.105469 168.210938 188.371094 168.003906 188.371094 167.5625 C 188.371094 166.414062 186.574219 166.414062 186.191406 166.414062 C 184.25 166.414062 183.011719 167.917969 183.011719 169.417969 C 183.011719 171.066406 184.425781 172.363281 186.132812 172.363281 C 188.074219 172.363281 188.546875 170.832031 188.546875 170.683594 C 188.546875 170.507812 188.371094 170.507812 188.3125 170.507812 C 188.136719 170.507812 188.136719 170.566406 188.074219 170.742188 C 187.78125 171.539062 187.105469 171.949219 186.28125 171.949219 C 185.398438 171.949219 184.21875 171.304688 184.21875 169.417969 C 184.21875 167.742188 185.015625 166.828125 186.25 166.828125 C 186.398438 166.828125 187.046875 166.828125 187.515625 167.035156 Z M 187.515625 167.035156 "/>
<path style=" stroke:none;fill-rule:nonzero;fill:rgb(0%,0%,0%);fill-opacity:1;" d="M 195.980469 169.449219 C 195.980469 167.828125 194.566406 166.414062 192.769531 166.414062 C 190.976562 166.414062 189.5625 167.828125 189.5625 169.449219 C 189.5625 171.066406 191.003906 172.363281 192.769531 172.363281 C 194.539062 172.363281 195.980469 171.066406 195.980469 169.449219 Z M 192.769531 171.949219 C 192.300781 171.949219 191.59375 171.804688 191.152344 171.15625 C 190.796875 170.625 190.769531 169.949219 190.769531 169.332031 C 190.769531 168.769531 190.769531 168.003906 191.238281 167.445312 C 191.5625 167.0625 192.09375 166.769531 192.769531 166.769531 C 193.535156 166.769531 194.097656 167.152344 194.390625 167.5625 C 194.742188 168.0625 194.773438 168.710938 194.773438 169.332031 C 194.773438 169.976562 194.742188 170.65625 194.359375 171.183594 C 194.007812 171.6875 193.417969 171.949219 192.769531 171.949219 Z M 192.769531 171.949219 "/>
<path style=" stroke:none;fill-rule:nonzero;fill:rgb(0%,0%,0%);fill-opacity:1;" d="M 201.453125 166.769531 C 201.453125 166.535156 201.453125 166.414062 201.273438 166.414062 C 201.214844 166.414062 201.1875 166.414062 201.011719 166.5625 C 200.980469 166.59375 200.863281 166.710938 200.773438 166.769531 C 200.390625 166.503906 199.890625 166.414062 199.421875 166.414062 C 197.535156 166.414062 197.09375 167.386719 197.09375 168.035156 C 197.09375 168.476562 197.269531 168.800781 197.59375 169.066406 C 198.09375 169.507812 198.59375 169.59375 199.390625 169.714844 C 200.039062 169.832031 201.097656 170.035156 201.097656 170.890625 C 201.097656 171.421875 200.746094 172.011719 199.507812 172.011719 C 198.242188 172.011719 197.800781 171.183594 197.566406 170.300781 C 197.507812 170.125 197.507812 170.066406 197.328125 170.066406 C 197.09375 170.066406 197.09375 170.15625 197.09375 170.417969 L 197.09375 172.039062 C 197.09375 172.246094 197.09375 172.363281 197.269531 172.363281 C 197.386719 172.363281 197.652344 172.097656 197.917969 171.804688 C 198.476562 172.363281 199.183594 172.363281 199.507812 172.363281 C 201.1875 172.363281 201.835938 171.449219 201.835938 170.539062 C 201.835938 170.035156 201.597656 169.65625 201.273438 169.332031 C 200.773438 168.859375 200.15625 168.769531 199.714844 168.683594 C 198.65625 168.507812 197.800781 168.359375 197.800781 167.652344 C 197.800781 167.238281 198.152344 166.738281 199.421875 166.738281 C 200.921875 166.738281 200.980469 167.800781 201.011719 168.152344 C 201.039062 168.300781 201.1875 168.300781 201.246094 168.300781 C 201.453125 168.300781 201.453125 168.210938 201.453125 167.976562 Z M 201.453125 166.769531 "/>
<path style=" stroke:none;fill-rule:nonzero;fill:rgb(0%,0%,0%);fill-opacity:1;" d="M 211.652344 165.886719 C 211.652344 164.5 211.125 163.03125 209.859375 163.03125 C 207.886719 163.03125 205.792969 166.535156 205.792969 169.535156 C 205.792969 171.097656 206.382812 172.363281 207.589844 172.363281 C 209.59375 172.363281 211.652344 168.800781 211.652344 165.886719 Z M 207.265625 167.476562 C 207.945312 164.648438 209.0625 163.414062 209.828125 163.414062 C 210.683594 163.414062 210.683594 164.855469 210.683594 165.121094 C 210.683594 165.621094 210.566406 166.386719 210.300781 167.476562 Z M 210.183594 167.945312 C 209.800781 169.359375 209.503906 170.066406 209.121094 170.714844 C 208.710938 171.390625 208.179688 172.011719 207.621094 172.011719 C 206.882812 172.011719 206.765625 171.007812 206.765625 170.300781 C 206.765625 169.449219 207.03125 168.417969 207.148438 167.945312 Z M 210.183594 167.945312 "/>
</g>
</svg>
