<?xml version="1.0" encoding="UTF-8"?>
<svg xmlns="http://www.w3.org/2000/svg" xmlns:xlink="http://www.w3.org/1999/xlink" width="300px" height="300px" viewBox="0 0 300 300" version="1.1">
<defs>
<clipPath id="clip1">
  <path d="M 0 148 L 298.386719 148 L 298.386719 150 L 0 150 Z M 0 148 "/>
</clipPath>
<clipPath id="clip2">
  <path d="M 148 0 L 150 0 L 150 298.386719 L 148 298.386719 Z M 148 0 "/>
</clipPath>
</defs>
<g id="surface1">
<g clip-path="url(#clip1)" clip-rule="nonzero">
<path style="fill:none;stroke-width:0.3985;stroke-linecap:butt;stroke-linejoin:miter;stroke:rgb(0%,0%,0%);stroke-opacity:1;stroke-miterlimit:10;" d="M -79.373125 0.000247556 L 79.368463 0.000247556 " transform="matrix(1.875001,0,0,-1.875001,149.19187,149.19187)"/>
</g>
<g clip-path="url(#clip2)" clip-rule="nonzero">
<path style="fill:none;stroke-width:0.3985;stroke-linecap:butt;stroke-linejoin:miter;stroke:rgb(0%,0%,0%);stroke-opacity:1;stroke-miterlimit:10;" d="M -0.000247556 -79.368463 L -0.000247556 79.373125 " transform="matrix(1.875001,0,0,-1.875001,149.19187,149.19187)"/>
</g>
<path style="fill:none;stroke-width:0.3985;stroke-linecap:butt;stroke-linejoin:miter;stroke:rgb(0%,0%,0%);stroke-opacity:1;stroke-miterlimit:10;" d="M 59.52889 0.000247556 C 59.52889 32.875231 32.87682 59.527302 -0.000247556 59.527302 C -32.875231 59.527302 -59.527302 32.875231 -59.527302 0.000247556 C -59.527302 -32.87682 -32.875231 -59.52889 -0.000247556 -59.52889 C 32.87682 -59.52889 59.52889 -32.87682 59.52889 0.000247556 Z M 59.52889 0.000247556 " transform="matrix(1.875001,0,0,-1.875001,149.19187,149.19187)"/>
<path style="fill:none;stroke-width:0.3985;stroke-linecap:butt;stroke-linejoin:miter;stroke:rgb(0%,0%,0%);stroke-opacity:1;stroke-miterlimit:10;" d="M -0.000247556 0.000247556 L 51.55181 29.764816 " transform="matrix(1.875001,0,0,-1.875001,149.19187,149.19187)"/>
<path style="fill:none;stroke-width:0.3985;stroke-linecap:butt;stroke-linejoin:miter;stroke:rgb(0%,0%,0%);stroke-opacity:1;stroke-miterlimit:10;" d="M 51.55181 29.764816 L 51.562227 0.000247556 " transform="matrix(1.875001,0,0,-1.875001,149.19187,149.19187)"/>
<path style="fill:none;stroke-width:0.3985;stroke-linecap:butt;stroke-linejoin:miter;stroke:rgb(0%,0%,0%);stroke-opacity:1;stroke-miterlimit:10;" d="M 19.841409 0.000247556 C 19.841409 3.483579 18.926826 6.904411 17.183077 9.921076 " transform="matrix(1.875001,0,0,-1.875001,149.19187,149.19187)"/>
<path style=" stroke:none;fill-rule:nonzero;fill:rgb(0%,0%,0%);fill-opacity:1;" d="M 197.441406 134.644531 C 197.441406 133.261719 196.910156 131.789062 195.644531 131.789062 C 193.667969 131.789062 191.578125 135.292969 191.578125 138.296875 C 191.578125 139.859375 192.167969 141.125 193.375 141.125 C 195.378906 141.125 197.441406 137.5625 197.441406 134.644531 Z M 193.050781 136.234375 C 193.726562 133.40625 194.847656 132.171875 195.613281 132.171875 C 196.46875 132.171875 196.46875 133.613281 196.46875 133.878906 C 196.46875 134.378906 196.351562 135.144531 196.085938 136.234375 Z M 195.964844 136.707031 C 195.582031 138.121094 195.289062 138.828125 194.90625 139.476562 C 194.492188 140.152344 193.964844 140.773438 193.402344 140.773438 C 192.667969 140.773438 192.550781 139.769531 192.550781 139.0625 C 192.550781 138.210938 192.816406 137.179688 192.933594 136.707031 Z M 195.964844 136.707031 "/>
<path style="fill:none;stroke-width:0.3985;stroke-linecap:butt;stroke-linejoin:miter;stroke:rgb(0%,0%,0%);stroke-opacity:1;stroke-miterlimit:10;" d="M 3.233084 -3.966417 L 48.326812 -3.966417 " transform="matrix(1.875001,0,0,-1.875001,149.19187,149.19187)"/>
<path style="fill:none;stroke-width:0.3985;stroke-linecap:round;stroke-linejoin:round;stroke:rgb(0%,0%,0%);stroke-opacity:1;stroke-miterlimit:10;" d="M -2.071909 2.389315 C -1.694826 0.955983 -0.851077 0.276816 0.00100636 -0.00235032 C -0.851077 -0.281517 -1.694826 -0.956517 -2.071909 -2.389849 " transform="matrix(-1.875001,0,0,1.875001,154.880793,156.633313)"/>
<path style="fill:none;stroke-width:0.3985;stroke-linecap:round;stroke-linejoin:round;stroke:rgb(0%,0%,0%);stroke-opacity:1;stroke-miterlimit:10;" d="M -2.073819 2.389849 C -1.692569 0.956517 -0.84882 0.281517 -0.000903657 0.00235032 C -0.84882 -0.276816 -1.692569 -0.955983 -2.073819 -2.389315 " transform="matrix(1.875001,0,0,-1.875001,240.181382,156.633313)"/>
<path style=" stroke:none;fill-rule:nonzero;fill:rgb(0%,0%,0%);fill-opacity:1;" d="M 187.589844 167.097656 C 187.355469 167.1875 187.207031 167.394531 187.207031 167.660156 C 187.207031 168.011719 187.472656 168.277344 187.824219 168.277344 C 188.179688 168.277344 188.445312 168.070312 188.445312 167.628906 C 188.445312 166.480469 186.648438 166.480469 186.265625 166.480469 C 184.320312 166.480469 183.082031 167.984375 183.082031 169.484375 C 183.082031 171.132812 184.496094 172.429688 186.207031 172.429688 C 188.148438 172.429688 188.621094 170.898438 188.621094 170.75 C 188.621094 170.574219 188.445312 170.574219 188.386719 170.574219 C 188.207031 170.574219 188.207031 170.632812 188.148438 170.808594 C 187.855469 171.605469 187.175781 172.019531 186.351562 172.019531 C 185.46875 172.019531 184.289062 171.371094 184.289062 169.484375 C 184.289062 167.804688 185.085938 166.894531 186.324219 166.894531 C 186.46875 166.894531 187.117188 166.894531 187.589844 167.097656 Z M 187.589844 167.097656 "/>
<path style=" stroke:none;fill-rule:nonzero;fill:rgb(0%,0%,0%);fill-opacity:1;" d="M 196.058594 169.515625 C 196.058594 167.894531 194.644531 166.480469 192.847656 166.480469 C 191.050781 166.480469 189.636719 167.894531 189.636719 169.515625 C 189.636719 171.132812 191.078125 172.429688 192.847656 172.429688 C 194.613281 172.429688 196.058594 171.132812 196.058594 169.515625 Z M 192.847656 172.019531 C 192.375 172.019531 191.667969 171.871094 191.226562 171.222656 C 190.871094 170.691406 190.84375 170.015625 190.84375 169.394531 C 190.84375 168.835938 190.84375 168.070312 191.316406 167.511719 C 191.640625 167.128906 192.167969 166.832031 192.847656 166.832031 C 193.613281 166.832031 194.171875 167.214844 194.464844 167.628906 C 194.820312 168.128906 194.847656 168.777344 194.847656 169.394531 C 194.847656 170.042969 194.820312 170.722656 194.4375 171.253906 C 194.082031 171.753906 193.496094 172.019531 192.847656 172.019531 Z M 192.847656 172.019531 "/>
<path style=" stroke:none;fill-rule:nonzero;fill:rgb(0%,0%,0%);fill-opacity:1;" d="M 201.53125 166.832031 C 201.53125 166.597656 201.53125 166.480469 201.351562 166.480469 C 201.292969 166.480469 201.265625 166.480469 201.089844 166.628906 C 201.058594 166.65625 200.941406 166.773438 200.851562 166.832031 C 200.46875 166.570312 199.96875 166.480469 199.496094 166.480469 C 197.613281 166.480469 197.171875 167.453125 197.171875 168.101562 C 197.171875 168.542969 197.347656 168.867188 197.671875 169.132812 C 198.171875 169.574219 198.671875 169.660156 199.46875 169.78125 C 200.117188 169.898438 201.175781 170.101562 201.175781 170.957031 C 201.175781 171.488281 200.824219 172.078125 199.585938 172.078125 C 198.320312 172.078125 197.878906 171.253906 197.640625 170.367188 C 197.582031 170.191406 197.582031 170.132812 197.40625 170.132812 C 197.171875 170.132812 197.171875 170.222656 197.171875 170.484375 L 197.171875 172.105469 C 197.171875 172.3125 197.171875 172.429688 197.347656 172.429688 C 197.464844 172.429688 197.730469 172.164062 197.996094 171.871094 C 198.554688 172.429688 199.261719 172.429688 199.585938 172.429688 C 201.265625 172.429688 201.914062 171.515625 201.914062 170.605469 C 201.914062 170.101562 201.675781 169.71875 201.351562 169.394531 C 200.851562 168.925781 200.234375 168.835938 199.792969 168.75 C 198.730469 168.570312 197.878906 168.425781 197.878906 167.71875 C 197.878906 167.304688 198.230469 166.804688 199.496094 166.804688 C 201 166.804688 201.058594 167.863281 201.089844 168.21875 C 201.117188 168.367188 201.265625 168.367188 201.324219 168.367188 C 201.53125 168.367188 201.53125 168.277344 201.53125 168.042969 Z M 201.53125 166.832031 "/>
<path style=" stroke:none;fill-rule:nonzero;fill:rgb(0%,0%,0%);fill-opacity:1;" d="M 211.738281 165.949219 C 211.738281 164.566406 211.207031 163.09375 209.941406 163.09375 C 207.964844 163.09375 205.875 166.597656 205.875 169.601562 C 205.875 171.164062 206.464844 172.429688 207.671875 172.429688 C 209.675781 172.429688 211.738281 168.867188 211.738281 165.949219 Z M 207.347656 167.539062 C 208.023438 164.714844 209.144531 163.476562 209.910156 163.476562 C 210.765625 163.476562 210.765625 164.917969 210.765625 165.183594 C 210.765625 165.683594 210.648438 166.449219 210.382812 167.539062 Z M 210.261719 168.011719 C 209.878906 169.425781 209.585938 170.132812 209.203125 170.78125 C 208.789062 171.457031 208.261719 172.078125 207.699219 172.078125 C 206.964844 172.078125 206.847656 171.074219 206.847656 170.367188 C 206.847656 169.515625 207.113281 168.484375 207.230469 168.011719 Z M 210.261719 168.011719 "/>
</g>
</svg>
