<?xml version="1.0" encoding="UTF-8"?>
<svg xmlns="http://www.w3.org/2000/svg" xmlns:xlink="http://www.w3.org/1999/xlink" width="300px" height="300px" viewBox="0 0 300 300" version="1.1">
<defs>
<clipPath id="clip1">
  <path d="M 239 38 L 297.363281 38 L 297.363281 112 L 239 112 Z M 239 38 "/>
</clipPath>
<clipPath id="clip2">
  <path d="M 0 0 L 297.363281 0 L 297.363281 297.363281 L 0 297.363281 Z M 0 0 "/>
</clipPath>
</defs>
<g id="surface1">
<path style="fill-rule:nonzero;fill:rgb(0%,0%,0%);fill-opacity:1;stroke-width:0.3985;stroke-linecap:butt;stroke-linejoin:miter;stroke:rgb(0%,0%,0%);stroke-opacity:1;stroke-miterlimit:10;" d="M 1.410469 0.000260154 C 1.410469 0.776614 0.776094 1.410989 -0.000260154 1.410989 C -0.776614 1.410989 -1.410989 0.776614 -1.410989 0.000260154 C -1.410989 -0.776094 -0.776614 -1.410469 -0.000260154 -1.410469 C 0.776094 -1.410469 1.410469 -0.776094 1.410469 0.000260154 Z M 1.410469 0.000260154 " transform="matrix(5.172414,0,0,-5.172414,148.681033,148.681033)"/>
<path style=" stroke:none;fill-rule:nonzero;fill:rgb(0%,0%,0%);fill-opacity:1;" d="M 282.949219 75.378906 C 282.949219 71.34375 279.6875 68.082031 275.652344 68.082031 C 271.636719 68.082031 268.375 71.34375 268.375 75.378906 C 268.375 79.394531 271.636719 82.65625 275.652344 82.65625 C 279.6875 82.65625 282.949219 79.394531 282.949219 75.378906 Z M 282.949219 75.378906 "/>
<g clip-path="url(#clip1)" clip-rule="nonzero">
<path style="fill:none;stroke-width:0.3985;stroke-linecap:butt;stroke-linejoin:miter;stroke:rgb(0%,0%,0%);stroke-opacity:1;stroke-miterlimit:10;" d="M 25.958514 14.171743 C 25.958514 14.951874 25.327915 15.582472 24.547785 15.582472 C 23.771431 15.582472 23.140832 14.951874 23.140832 14.171743 C 23.140832 13.395389 23.771431 12.76479 24.547785 12.76479 C 25.327915 12.76479 25.958514 13.395389 25.958514 14.171743 Z M 25.958514 14.171743 " transform="matrix(5.172414,0,0,-5.172414,148.681033,148.681033)"/>
</g>
<g clip-path="url(#clip2)" clip-rule="nonzero">
<path style="fill:none;stroke-width:0.79701;stroke-linecap:butt;stroke-linejoin:miter;stroke:rgb(100%,0%,0%);stroke-opacity:1;stroke-miterlimit:10;" d="M 28.346482 0.000260154 C 28.346482 15.657238 15.657473 28.347003 -0.000260154 28.347003 C -15.657238 28.347003 -28.347003 15.657238 -28.347003 0.000260154 C -28.347003 -15.657473 -15.657238 -28.346482 -0.000260154 -28.346482 C 15.657473 -28.346482 28.346482 -15.657473 28.346482 0.000260154 Z M 28.346482 0.000260154 " transform="matrix(5.172414,0,0,-5.172414,148.681033,148.681033)"/>
</g>
</g>
</svg>
