<?xml version="1.0" encoding="UTF-8"?>
<svg xmlns="http://www.w3.org/2000/svg" xmlns:xlink="http://www.w3.org/1999/xlink" width="399px" height="300px" viewBox="0 0 399 300" version="1.1">
<defs>
<clipPath id="clip1">
  <path d="M 0 199 L 397.78125 199 L 397.78125 201 L 0 201 Z M 0 199 "/>
</clipPath>
<clipPath id="clip2">
  <path d="M 99 0.53125 L 100.640625 0.53125 L 100.640625 299.371094 L 99 299.371094 Z M 99 0.53125 "/>
</clipPath>
</defs>
<g id="surface1">
<g clip-path="url(#clip1)" clip-rule="nonzero">
<path style="fill:none;stroke-width:0.3985;stroke-linecap:butt;stroke-linejoin:miter;stroke:rgb(0%,0%,0%);stroke-opacity:1;stroke-miterlimit:10;" d="M -42.519761 -0.00152699 L 127.559406 -0.00152699 " transform="matrix(2.333334,0,0,-2.335527,99.677663,199.601902)"/>
</g>
<g clip-path="url(#clip2)" clip-rule="nonzero">
<path style="fill:none;stroke-width:0.3985;stroke-linecap:butt;stroke-linejoin:miter;stroke:rgb(0%,0%,0%);stroke-opacity:1;stroke-miterlimit:10;" d="M 0.000867565 -42.520699 L 0.000867565 85.040161 " transform="matrix(2.333334,0,0,-2.335527,99.677663,199.601902)"/>
</g>
<path style=" stroke:none;fill-rule:nonzero;fill:rgb(0%,0%,0%);fill-opacity:1;" d="M 312.117188 75.765625 C 309.007812 77.960938 308.203125 81.402344 308.203125 83.890625 C 308.203125 86.199219 308.898438 89.785156 312.117188 92.054688 C 312.261719 92.054688 312.445312 92.054688 312.445312 91.835938 C 312.445312 91.761719 312.410156 91.726562 312.261719 91.617188 C 310.105469 89.640625 309.300781 86.894531 309.300781 83.929688 C 309.300781 79.535156 310.984375 77.375 312.335938 76.167969 C 312.410156 76.09375 312.445312 76.058594 312.445312 75.984375 C 312.445312 75.765625 312.261719 75.765625 312.117188 75.765625 Z M 312.117188 75.765625 "/>
<path style=" stroke:none;fill-rule:nonzero;fill:rgb(0%,0%,0%);fill-opacity:1;" d="M 320.480469 81.769531 C 320.113281 81.21875 319.566406 80.816406 318.796875 80.816406 C 316.714844 80.816406 314.59375 83.085938 314.59375 85.464844 C 314.59375 87.039062 315.652344 88.136719 317.042969 88.136719 C 317.921875 88.136719 318.722656 87.664062 319.382812 87.003906 C 319.675781 87.992188 320.625 88.136719 321.027344 88.136719 C 321.613281 88.136719 322.050781 87.808594 322.34375 87.296875 C 322.675781 86.675781 322.894531 85.722656 322.894531 85.648438 C 322.894531 85.464844 322.675781 85.464844 322.636719 85.464844 C 322.417969 85.464844 322.382812 85.503906 322.273438 85.941406 C 322.089844 86.746094 321.761719 87.699219 321.101562 87.699219 C 320.664062 87.699219 320.554688 87.332031 320.554688 86.894531 C 320.554688 86.636719 320.699219 86.050781 320.808594 85.613281 C 320.917969 85.171875 321.066406 84.515625 321.136719 84.148438 L 321.46875 82.902344 C 321.578125 82.5 321.761719 81.730469 321.761719 81.621094 C 321.761719 81.292969 321.46875 81.109375 321.210938 81.109375 C 320.957031 81.109375 320.554688 81.328125 320.480469 81.769531 Z M 319.417969 85.941406 C 319.308594 86.417969 318.945312 86.746094 318.613281 87.039062 C 318.46875 87.1875 317.808594 87.699219 317.117188 87.699219 C 316.492188 87.699219 315.910156 87.257812 315.910156 86.125 C 315.910156 85.246094 316.382812 83.453125 316.75 82.792969 C 317.519531 81.511719 318.320312 81.257812 318.796875 81.257812 C 319.929688 81.257812 320.261719 82.5 320.261719 82.683594 C 320.261719 82.757812 320.222656 82.867188 320.1875 82.902344 Z M 319.417969 85.941406 "/>
<path style=" stroke:none;fill-rule:nonzero;fill:rgb(0%,0%,0%);fill-opacity:1;" d="M 327.125 87.734375 C 327.125 88.613281 326.941406 89.675781 325.847656 90.699219 C 325.773438 90.773438 325.738281 90.808594 325.738281 90.921875 C 325.738281 91.03125 325.882812 91.140625 325.957031 91.140625 C 326.210938 91.140625 327.566406 89.820312 327.566406 87.882812 C 327.566406 86.894531 327.199219 86.125 326.429688 86.125 C 325.917969 86.125 325.515625 86.527344 325.515625 87.039062 C 325.515625 87.550781 325.882812 87.992188 326.46875 87.992188 C 326.832031 87.992188 327.089844 87.734375 327.125 87.734375 Z M 327.125 87.734375 "/>
<path style=" stroke:none;fill-rule:nonzero;fill:rgb(0%,0%,0%);fill-opacity:1;" d="M 333.488281 77.195312 C 333.523438 77.15625 333.5625 76.9375 333.5625 76.902344 C 333.5625 76.828125 333.488281 76.679688 333.304688 76.679688 C 332.976562 76.679688 331.625 76.828125 331.222656 76.863281 C 331.113281 76.863281 330.855469 76.902344 330.855469 77.230469 C 330.855469 77.449219 331.113281 77.449219 331.292969 77.449219 C 332.0625 77.449219 332.0625 77.558594 332.0625 77.707031 C 332.0625 77.816406 331.914062 78.472656 331.804688 78.839844 L 331.441406 80.339844 C 331.292969 80.890625 330.378906 84.441406 330.378906 84.660156 C 330.269531 85.0625 330.269531 85.28125 330.269531 85.464844 C 330.269531 87.113281 331.332031 88.136719 332.683594 88.136719 C 334.695312 88.136719 336.890625 85.941406 336.890625 83.527344 C 336.890625 81.621094 335.574219 80.816406 334.4375 80.816406 C 333.597656 80.816406 332.867188 81.292969 332.390625 81.695312 Z M 332.683594 87.699219 C 331.878906 87.699219 331.441406 87.003906 331.441406 86.050781 C 331.441406 85.429688 331.585938 84.878906 332.027344 83.050781 C 332.136719 82.722656 332.136719 82.683594 332.464844 82.355469 C 333.050781 81.621094 333.78125 81.257812 334.402344 81.257812 C 335.023438 81.257812 335.574219 81.730469 335.574219 82.832031 C 335.574219 83.527344 335.207031 85.171875 334.730469 86.125 C 334.328125 86.929688 333.523438 87.699219 332.683594 87.699219 Z M 332.683594 87.699219 "/>
<path style=" stroke:none;fill-rule:nonzero;fill:rgb(0%,0%,0%);fill-opacity:1;" d="M 338.847656 75.765625 C 338.738281 75.765625 338.554688 75.765625 338.554688 75.984375 C 338.554688 76.058594 338.589844 76.09375 338.699219 76.207031 C 340.089844 77.484375 341.664062 79.683594 341.664062 83.890625 C 341.664062 87.296875 340.601562 89.894531 338.847656 91.46875 C 338.554688 91.761719 338.554688 91.761719 338.554688 91.835938 C 338.554688 91.945312 338.589844 92.054688 338.738281 92.054688 C 338.957031 92.054688 340.492188 90.957031 341.550781 88.945312 C 342.285156 87.589844 342.757812 85.832031 342.757812 83.929688 C 342.757812 81.621094 342.066406 78.070312 338.847656 75.765625 Z M 338.847656 75.765625 "/>
<path style="fill:none;stroke-width:0.3985;stroke-linecap:butt;stroke-linejoin:miter;stroke:rgb(0%,0%,100%);stroke-opacity:1;stroke-miterlimit:10;" d="M 85.050496 56.700737 L 85.050496 -14.172912 " transform="matrix(2.333334,0,0,-2.335527,99.677663,199.601902)"/>
<path style="fill:none;stroke-width:0.3985;stroke-linecap:butt;stroke-linejoin:miter;stroke:rgb(0%,0%,100%);stroke-opacity:1;stroke-miterlimit:10;" d="M 99.223481 42.524335 L -14.175466 42.524335 " transform="matrix(2.333334,0,0,-2.335527,99.677663,199.601902)"/>
<path style="fill:none;stroke-width:0.3985;stroke-linecap:butt;stroke-linejoin:miter;stroke:rgb(74.901962%,0%,25.098041%);stroke-opacity:1;stroke-miterlimit:10;" d="M 3.233567 -4.251437 L 81.817796 -4.251437 " transform="matrix(2.333334,0,0,-2.335527,99.677663,199.601902)"/>
<path style="fill:none;stroke-width:0.3985;stroke-linecap:round;stroke-linejoin:round;stroke:rgb(74.901962%,0%,25.098041%);stroke-opacity:1;stroke-miterlimit:10;" d="M -2.072803 2.389228 C -1.692781 0.955866 -0.850705 0.278489 -0.000259302 -0.000824185 C -0.850705 -0.278465 -1.692781 -0.955841 -2.072803 -2.390876 " transform="matrix(-2.333334,0,0,2.335527,106.757207,209.533175)"/>
<path style="fill:none;stroke-width:0.3985;stroke-linecap:round;stroke-linejoin:round;stroke:rgb(74.901962%,0%,25.098041%);stroke-opacity:1;stroke-miterlimit:10;" d="M -2.072187 2.390876 C -1.695513 0.955841 -0.848415 0.278465 0.00203066 0.000824185 C -0.848415 -0.278489 -1.695513 -0.955866 -2.072187 -2.389228 " transform="matrix(2.333334,0,0,-2.335527,291.049949,209.533175)"/>
<path style=" stroke:none;fill-rule:nonzero;fill:rgb(74.901962%,0%,25.098041%);fill-opacity:1;" d="M 191.484375 218.402344 C 191.484375 218.144531 191.484375 217.742188 191.117188 217.742188 C 190.714844 217.742188 190.714844 218.109375 190.714844 218.402344 L 190.714844 233.410156 C 190.714844 233.664062 190.714844 234.03125 191.082031 234.03125 C 191.484375 234.03125 191.484375 233.664062 191.484375 233.410156 Z M 191.484375 218.402344 "/>
<path style=" stroke:none;fill-rule:nonzero;fill:rgb(74.901962%,0%,25.098041%);fill-opacity:1;" d="M 200.734375 223.746094 C 200.371094 223.195312 199.820312 222.792969 199.054688 222.792969 C 196.96875 222.792969 194.847656 225.0625 194.847656 227.441406 C 194.847656 229.015625 195.910156 230.113281 197.296875 230.113281 C 198.175781 230.113281 198.980469 229.640625 199.636719 228.980469 C 199.929688 229.96875 200.882812 230.113281 201.285156 230.113281 C 201.871094 230.113281 202.308594 229.785156 202.601562 229.273438 C 202.929688 228.652344 203.148438 227.699219 203.148438 227.625 C 203.148438 227.441406 202.929688 227.441406 202.894531 227.441406 C 202.671875 227.441406 202.636719 227.480469 202.527344 227.917969 C 202.34375 228.722656 202.015625 229.675781 201.355469 229.675781 C 200.917969 229.675781 200.808594 229.308594 200.808594 228.871094 C 200.808594 228.613281 200.953125 228.027344 201.066406 227.589844 C 201.175781 227.148438 201.320312 226.492188 201.394531 226.125 L 201.722656 224.878906 C 201.832031 224.476562 202.015625 223.710938 202.015625 223.597656 C 202.015625 223.269531 201.722656 223.085938 201.46875 223.085938 C 201.210938 223.085938 200.808594 223.304688 200.734375 223.746094 Z M 199.675781 227.917969 C 199.566406 228.394531 199.199219 228.722656 198.871094 229.015625 C 198.722656 229.164062 198.066406 229.675781 197.371094 229.675781 C 196.75 229.675781 196.164062 229.234375 196.164062 228.101562 C 196.164062 227.222656 196.640625 225.429688 197.003906 224.769531 C 197.773438 223.488281 198.578125 223.234375 199.054688 223.234375 C 200.1875 223.234375 200.515625 224.476562 200.515625 224.660156 C 200.515625 224.734375 200.480469 224.84375 200.441406 224.878906 Z M 199.675781 227.917969 "/>
<path style=" stroke:none;fill-rule:nonzero;fill:rgb(74.901962%,0%,25.098041%);fill-opacity:1;" d="M 207.085938 218.402344 C 207.085938 218.144531 207.085938 217.742188 206.722656 217.742188 C 206.320312 217.742188 206.320312 218.109375 206.320312 218.402344 L 206.320312 233.410156 C 206.320312 233.664062 206.320312 234.03125 206.683594 234.03125 C 207.085938 234.03125 207.085938 233.664062 207.085938 233.410156 Z M 207.085938 218.402344 "/>
<path style="fill:none;stroke-width:0.3985;stroke-linecap:butt;stroke-linejoin:miter;stroke:rgb(74.901962%,0%,25.098041%);stroke-opacity:1;stroke-miterlimit:10;" d="M -4.253037 3.231482 L -4.253037 39.291326 " transform="matrix(2.333334,0,0,-2.335527,99.677663,199.601902)"/>
<path style="fill:none;stroke-width:0.3985;stroke-linecap:round;stroke-linejoin:round;stroke:rgb(74.901962%,0%,25.098041%);stroke-opacity:1;stroke-miterlimit:10;" d="M -2.070632 2.393193 C -1.694311 0.955135 -0.848009 0.280471 -0.00170655 -0.000779363 C -0.848009 -0.280355 -1.694311 -0.956694 -2.070632 -2.391403 " transform="matrix(0,2.335527,2.333334,0,89.755725,192.515704)"/>
<path style="fill:none;stroke-width:0.3985;stroke-linecap:round;stroke-linejoin:round;stroke:rgb(74.901962%,0%,25.098041%);stroke-opacity:1;stroke-miterlimit:10;" d="M -2.073184 2.391403 C -1.693519 0.956694 -0.850562 0.280355 -0.00091401 0.000779363 C -0.850562 -0.280471 -1.693519 -0.955135 -2.073184 -2.393193 " transform="matrix(0,-2.335527,-2.333334,0,89.755725,107.368959)"/>
<path style=" stroke:none;fill-rule:nonzero;fill:rgb(74.901962%,0%,25.098041%);fill-opacity:1;" d="M 65.46875 142.449219 C 65.46875 142.191406 65.46875 141.789062 65.105469 141.789062 C 64.703125 141.789062 64.703125 142.15625 64.703125 142.449219 L 64.703125 157.457031 C 64.703125 157.710938 64.703125 158.078125 65.070312 158.078125 C 65.46875 158.078125 65.46875 157.710938 65.46875 157.457031 Z M 65.46875 142.449219 "/>
<path style=" stroke:none;fill-rule:nonzero;fill:rgb(74.901962%,0%,25.098041%);fill-opacity:1;" d="M 72.125 143.214844 C 72.160156 143.179688 72.199219 142.960938 72.199219 142.921875 C 72.199219 142.851562 72.125 142.703125 71.941406 142.703125 C 71.613281 142.703125 70.261719 142.851562 69.859375 142.886719 C 69.746094 142.886719 69.492188 142.921875 69.492188 143.253906 C 69.492188 143.472656 69.746094 143.472656 69.929688 143.472656 C 70.699219 143.472656 70.699219 143.582031 70.699219 143.730469 C 70.699219 143.839844 70.550781 144.496094 70.441406 144.863281 L 70.078125 146.363281 C 69.929688 146.914062 69.015625 150.464844 69.015625 150.683594 C 68.90625 151.085938 68.90625 151.304688 68.90625 151.488281 C 68.90625 153.136719 69.96875 154.160156 71.320312 154.160156 C 73.332031 154.160156 75.527344 151.964844 75.527344 149.550781 C 75.527344 147.644531 74.210938 146.839844 73.074219 146.839844 C 72.234375 146.839844 71.503906 147.316406 71.027344 147.71875 Z M 71.320312 153.722656 C 70.515625 153.722656 70.078125 153.027344 70.078125 152.074219 C 70.078125 151.453125 70.222656 150.902344 70.664062 149.074219 C 70.773438 148.742188 70.773438 148.707031 71.101562 148.378906 C 71.6875 147.644531 72.417969 147.28125 73.039062 147.28125 C 73.660156 147.28125 74.210938 147.753906 74.210938 148.855469 C 74.210938 149.550781 73.84375 151.195312 73.367188 152.148438 C 72.964844 152.953125 72.160156 153.722656 71.320312 153.722656 Z M 71.320312 153.722656 "/>
<path style=" stroke:none;fill-rule:nonzero;fill:rgb(74.901962%,0%,25.098041%);fill-opacity:1;" d="M 79.167969 142.449219 C 79.167969 142.191406 79.167969 141.789062 78.800781 141.789062 C 78.398438 141.789062 78.398438 142.15625 78.398438 142.449219 L 78.398438 157.457031 C 78.398438 157.710938 78.398438 158.078125 78.765625 158.078125 C 79.167969 158.078125 79.167969 157.710938 79.167969 157.457031 Z M 79.167969 142.449219 "/>
<path style="fill-rule:nonzero;fill:rgb(0%,0%,0%);fill-opacity:1;stroke-width:0.3985;stroke-linecap:butt;stroke-linejoin:miter;stroke:rgb(0%,0%,0%);stroke-opacity:1;stroke-miterlimit:10;" d="M 2.11359 -0.00152699 C 2.11359 1.167575 1.169394 2.114229 0.000867565 2.114229 C -1.165985 2.114229 -2.113529 1.167575 -2.113529 -0.00152699 C -2.113529 -1.168956 -1.165985 -2.112266 0.000867565 -2.112266 C 1.169394 -2.112266 2.11359 -1.168956 2.11359 -0.00152699 Z M 2.11359 -0.00152699 " transform="matrix(2.333334,0,0,-2.335527,99.677663,199.601902)"/>
<path style="fill-rule:nonzero;fill:rgb(0%,0%,100%);fill-opacity:1;stroke-width:0.3985;stroke-linecap:butt;stroke-linejoin:miter;stroke:rgb(0%,0%,100%);stroke-opacity:1;stroke-miterlimit:10;" d="M 87.163218 42.524335 C 87.163218 43.691764 86.219022 44.640091 85.050496 44.640091 C 83.883644 44.640091 82.939448 43.691764 82.939448 42.524335 C 82.939448 41.360251 83.883644 40.411924 85.050496 40.411924 C 86.219022 40.411924 87.163218 41.360251 87.163218 42.524335 Z M 87.163218 42.524335 " transform="matrix(2.333334,0,0,-2.335527,99.677663,199.601902)"/>
<path style="fill-rule:nonzero;fill:rgb(74.901962%,0%,25.098041%);fill-opacity:1;stroke-width:0.3985;stroke-linecap:butt;stroke-linejoin:miter;stroke:rgb(74.901962%,0%,25.098041%);stroke-opacity:1;stroke-miterlimit:10;" d="M 87.163218 -0.00152699 C 87.163218 1.167575 86.219022 2.114229 85.050496 2.114229 C 83.883644 2.114229 82.939448 1.167575 82.939448 -0.00152699 C 82.939448 -1.168956 83.883644 -2.112266 85.050496 -2.112266 C 86.219022 -2.112266 87.163218 -1.168956 87.163218 -0.00152699 Z M 87.163218 -0.00152699 " transform="matrix(2.333334,0,0,-2.335527,99.677663,199.601902)"/>
<path style="fill-rule:nonzero;fill:rgb(74.901962%,0%,25.098041%);fill-opacity:1;stroke-width:0.3985;stroke-linecap:butt;stroke-linejoin:miter;stroke:rgb(74.901962%,0%,25.098041%);stroke-opacity:1;stroke-miterlimit:10;" d="M 2.11359 42.524335 C 2.11359 43.691764 1.169394 44.640091 0.000867565 44.640091 C -1.165985 44.640091 -2.113529 43.691764 -2.113529 42.524335 C -2.113529 41.360251 -1.165985 40.411924 0.000867565 40.411924 C 1.169394 40.411924 2.11359 41.360251 2.11359 42.524335 Z M 2.11359 42.524335 " transform="matrix(2.333334,0,0,-2.335527,99.677663,199.601902)"/>
</g>
</svg>
