<?xml version="1.0" encoding="UTF-8"?>
<svg xmlns="http://www.w3.org/2000/svg" xmlns:xlink="http://www.w3.org/1999/xlink" width="399pt" height="300pt" viewBox="0 0 399 300" version="1.1">
<defs>
<clipPath id="clip1">
  <path d="M 0 199 L 397.960938 199 L 397.960938 201 L 0 201 Z M 0 199 "/>
</clipPath>
<clipPath id="clip2">
  <path d="M 99 0.410156 L 100.6875 0.410156 L 100.6875 299.386719 L 99 299.386719 Z M 99 0.410156 "/>
</clipPath>
</defs>
<g id="surface1">
<g clip-path="url(#clip1)" clip-rule="nonzero">
<path style="fill:none;stroke-width:0.3985;stroke-linecap:butt;stroke-linejoin:miter;stroke:rgb(0%,0%,0%);stroke-opacity:1;stroke-miterlimit:10;" d="M -42.519851 -0.000123043 L 127.559462 -0.000123043 " transform="matrix(2.334389,0,0,-2.336583,99.722709,199.573931)"/>
</g>
<g clip-path="url(#clip2)" clip-rule="nonzero">
<path style="fill:none;stroke-width:0.3985;stroke-linecap:butt;stroke-linejoin:miter;stroke:rgb(0%,0%,0%);stroke-opacity:1;stroke-miterlimit:10;" d="M 0.00165065 -42.521821 L 0.00165065 85.039929 " transform="matrix(2.334389,0,0,-2.336583,99.722709,199.573931)"/>
</g>
<path style=" stroke:none;fill-rule:nonzero;fill:rgb(0%,0%,0%);fill-opacity:1;" d="M 312.257812 75.683594 C 309.148438 77.878906 308.34375 81.320312 308.34375 83.8125 C 308.34375 86.117188 309.039062 89.707031 312.257812 91.976562 C 312.402344 91.976562 312.585938 91.976562 312.585938 91.757812 C 312.585938 91.683594 312.550781 91.648438 312.402344 91.539062 C 310.246094 89.5625 309.441406 86.816406 309.441406 83.847656 C 309.441406 79.453125 311.125 77.292969 312.476562 76.085938 C 312.550781 76.011719 312.585938 75.976562 312.585938 75.902344 C 312.585938 75.683594 312.402344 75.683594 312.257812 75.683594 Z M 312.257812 75.683594 "/>
<path style=" stroke:none;fill-rule:nonzero;fill:rgb(0%,0%,0%);fill-opacity:1;" d="M 320.625 81.6875 C 320.257812 81.136719 319.710938 80.734375 318.941406 80.734375 C 316.855469 80.734375 314.734375 83.007812 314.734375 85.386719 C 314.734375 86.960938 315.796875 88.058594 317.183594 88.058594 C 318.0625 88.058594 318.867188 87.582031 319.527344 86.925781 C 319.820312 87.914062 320.769531 88.058594 321.171875 88.058594 C 321.757812 88.058594 322.199219 87.730469 322.492188 87.21875 C 322.820312 86.59375 323.039062 85.644531 323.039062 85.570312 C 323.039062 85.386719 322.820312 85.386719 322.785156 85.386719 C 322.5625 85.386719 322.527344 85.421875 322.417969 85.863281 C 322.234375 86.667969 321.90625 87.621094 321.246094 87.621094 C 320.808594 87.621094 320.699219 87.253906 320.699219 86.816406 C 320.699219 86.558594 320.84375 85.972656 320.953125 85.53125 C 321.0625 85.09375 321.210938 84.433594 321.285156 84.066406 L 321.613281 82.824219 C 321.722656 82.421875 321.90625 81.652344 321.90625 81.542969 C 321.90625 81.210938 321.613281 81.027344 321.355469 81.027344 C 321.101562 81.027344 320.699219 81.25 320.625 81.6875 Z M 319.5625 85.863281 C 319.453125 86.339844 319.089844 86.667969 318.757812 86.960938 C 318.613281 87.109375 317.953125 87.621094 317.257812 87.621094 C 316.636719 87.621094 316.050781 87.179688 316.050781 86.046875 C 316.050781 85.167969 316.527344 83.371094 316.894531 82.714844 C 317.660156 81.429688 318.464844 81.175781 318.941406 81.175781 C 320.074219 81.175781 320.40625 82.421875 320.40625 82.601562 C 320.40625 82.675781 320.367188 82.785156 320.332031 82.824219 Z M 319.5625 85.863281 "/>
<path style=" stroke:none;fill-rule:nonzero;fill:rgb(0%,0%,0%);fill-opacity:1;" d="M 327.273438 87.65625 C 327.273438 88.535156 327.089844 89.597656 325.992188 90.625 C 325.921875 90.695312 325.882812 90.734375 325.882812 90.84375 C 325.882812 90.953125 326.03125 91.0625 326.101562 91.0625 C 326.359375 91.0625 327.714844 89.746094 327.714844 87.804688 C 327.714844 86.816406 327.347656 86.046875 326.578125 86.046875 C 326.066406 86.046875 325.664062 86.449219 325.664062 86.960938 C 325.664062 87.472656 326.03125 87.914062 326.617188 87.914062 C 326.980469 87.914062 327.238281 87.65625 327.273438 87.65625 Z M 327.273438 87.65625 "/>
<path style=" stroke:none;fill-rule:nonzero;fill:rgb(0%,0%,0%);fill-opacity:1;" d="M 333.640625 77.109375 C 333.675781 77.074219 333.710938 76.855469 333.710938 76.816406 C 333.710938 76.742188 333.640625 76.597656 333.457031 76.597656 C 333.125 76.597656 331.773438 76.742188 331.371094 76.78125 C 331.261719 76.78125 331.003906 76.816406 331.003906 77.148438 C 331.003906 77.367188 331.261719 77.367188 331.445312 77.367188 C 332.210938 77.367188 332.210938 77.476562 332.210938 77.621094 C 332.210938 77.734375 332.066406 78.390625 331.957031 78.757812 L 331.589844 80.257812 C 331.445312 80.808594 330.527344 84.359375 330.527344 84.582031 C 330.417969 84.984375 330.417969 85.203125 330.417969 85.386719 C 330.417969 87.035156 331.480469 88.058594 332.835938 88.058594 C 334.847656 88.058594 337.042969 85.863281 337.042969 83.445312 C 337.042969 81.542969 335.722656 80.734375 334.589844 80.734375 C 333.75 80.734375 333.015625 81.210938 332.542969 81.613281 Z M 332.835938 87.621094 C 332.03125 87.621094 331.589844 86.925781 331.589844 85.972656 C 331.589844 85.351562 331.738281 84.800781 332.175781 82.96875 C 332.285156 82.640625 332.285156 82.601562 332.613281 82.273438 C 333.199219 81.542969 333.933594 81.175781 334.554688 81.175781 C 335.175781 81.175781 335.722656 81.652344 335.722656 82.75 C 335.722656 83.445312 335.359375 85.09375 334.882812 86.046875 C 334.480469 86.851562 333.675781 87.621094 332.835938 87.621094 Z M 332.835938 87.621094 "/>
<path style=" stroke:none;fill-rule:nonzero;fill:rgb(0%,0%,0%);fill-opacity:1;" d="M 339 75.683594 C 338.890625 75.683594 338.707031 75.683594 338.707031 75.902344 C 338.707031 75.976562 338.742188 76.011719 338.851562 76.121094 C 340.242188 77.402344 341.816406 79.601562 341.816406 83.8125 C 341.816406 87.21875 340.753906 89.816406 339 91.390625 C 338.707031 91.683594 338.707031 91.683594 338.707031 91.757812 C 338.707031 91.867188 338.742188 91.976562 338.890625 91.976562 C 339.109375 91.976562 340.644531 90.878906 341.707031 88.867188 C 342.4375 87.511719 342.914062 85.753906 342.914062 83.847656 C 342.914062 81.542969 342.21875 77.988281 339 75.683594 Z M 339 75.683594 "/>
<path style="fill:none;stroke-width:0.3985;stroke-linecap:butt;stroke-linejoin:miter;stroke:rgb(0%,0%,100%);stroke-opacity:1;stroke-miterlimit:10;" d="M 85.051347 56.699932 L 85.051347 -14.173465 " transform="matrix(2.334389,0,0,-2.336583,99.722709,199.573931)"/>
<path style="fill:none;stroke-width:0.3985;stroke-linecap:butt;stroke-linejoin:miter;stroke:rgb(0%,0%,100%);stroke-opacity:1;stroke-miterlimit:10;" d="M 99.22295 42.523247 L -14.174972 42.523247 " transform="matrix(2.334389,0,0,-2.336583,99.722709,199.573931)"/>
<path style="fill:none;stroke-width:0.3985;stroke-linecap:butt;stroke-linejoin:miter;stroke:rgb(74.901961%,0%,25.098039%);stroke-opacity:1;stroke-miterlimit:10;" d="M 3.234563 -4.251457 L 81.818435 -4.251457 " transform="matrix(2.334389,0,0,-2.336583,99.722709,199.573931)"/>
<path style="fill:none;stroke-width:0.3985;stroke-linecap:round;stroke-linejoin:round;stroke:rgb(74.901961%,0%,25.098039%);stroke-opacity:1;stroke-miterlimit:10;" d="M -2.072954 2.389842 C -1.693103 0.955456 -0.849735 0.278386 0.000327053 -0.000801451 C -0.849735 -0.278317 -1.693103 -0.955387 -2.072954 -2.389774 " transform="matrix(-2.334389,0,0,2.336583,106.805451,209.509685)"/>
<path style="fill:none;stroke-width:0.3985;stroke-linecap:round;stroke-linejoin:round;stroke:rgb(74.901961%,0%,25.098039%);stroke-opacity:1;stroke-miterlimit:10;" d="M -2.070704 2.389774 C -1.695874 0.955387 -0.849158 0.278317 0.000903447 0.000801451 C -0.849158 -0.278386 -1.695874 -0.955456 -2.070704 -2.389842 " transform="matrix(2.334389,0,0,-2.336583,291.181485,209.509685)"/>
<path style=" stroke:none;fill-rule:nonzero;fill:rgb(74.901961%,0%,25.098039%);fill-opacity:1;" d="M 191.570312 218.382812 C 191.570312 218.125 191.570312 217.722656 191.207031 217.722656 C 190.804688 217.722656 190.804688 218.089844 190.804688 218.382812 L 190.804688 233.398438 C 190.804688 233.652344 190.804688 234.019531 191.167969 234.019531 C 191.570312 234.019531 191.570312 233.652344 191.570312 233.398438 Z M 191.570312 218.382812 "/>
<path style=" stroke:none;fill-rule:nonzero;fill:rgb(74.901961%,0%,25.098039%);fill-opacity:1;" d="M 200.828125 223.730469 C 200.460938 223.179688 199.910156 222.777344 199.144531 222.777344 C 197.058594 222.777344 194.9375 225.046875 194.9375 227.425781 C 194.9375 229.003906 195.996094 230.101562 197.386719 230.101562 C 198.265625 230.101562 199.070312 229.625 199.730469 228.964844 C 200.019531 229.953125 200.972656 230.101562 201.375 230.101562 C 201.960938 230.101562 202.398438 229.769531 202.691406 229.257812 C 203.019531 228.636719 203.242188 227.683594 203.242188 227.609375 C 203.242188 227.425781 203.019531 227.425781 202.984375 227.425781 C 202.765625 227.425781 202.730469 227.464844 202.617188 227.902344 C 202.4375 228.710938 202.105469 229.660156 201.449219 229.660156 C 201.007812 229.660156 200.898438 229.296875 200.898438 228.855469 C 200.898438 228.597656 201.046875 228.011719 201.15625 227.574219 C 201.265625 227.132812 201.410156 226.476562 201.484375 226.109375 L 201.8125 224.863281 C 201.925781 224.460938 202.105469 223.691406 202.105469 223.582031 C 202.105469 223.253906 201.8125 223.070312 201.558594 223.070312 C 201.300781 223.070312 200.898438 223.289062 200.828125 223.730469 Z M 199.765625 227.902344 C 199.65625 228.378906 199.289062 228.710938 198.960938 229.003906 C 198.8125 229.148438 198.15625 229.660156 197.460938 229.660156 C 196.839844 229.660156 196.253906 229.222656 196.253906 228.085938 C 196.253906 227.207031 196.730469 225.414062 197.09375 224.753906 C 197.863281 223.472656 198.667969 223.214844 199.144531 223.214844 C 200.277344 223.214844 200.605469 224.460938 200.605469 224.644531 C 200.605469 224.71875 200.570312 224.828125 200.535156 224.863281 Z M 199.765625 227.902344 "/>
<path style=" stroke:none;fill-rule:nonzero;fill:rgb(74.901961%,0%,25.098039%);fill-opacity:1;" d="M 207.179688 218.382812 C 207.179688 218.125 207.179688 217.722656 206.816406 217.722656 C 206.414062 217.722656 206.414062 218.089844 206.414062 218.382812 L 206.414062 233.398438 C 206.414062 233.652344 206.414062 234.019531 206.777344 234.019531 C 207.179688 234.019531 207.179688 233.652344 207.179688 233.398438 Z M 207.179688 218.382812 "/>
<path style="fill:none;stroke-width:0.3985;stroke-linecap:butt;stroke-linejoin:miter;stroke:rgb(74.901961%,0%,25.098039%);stroke-opacity:1;stroke-miterlimit:10;" d="M -4.253679 3.231426 L -4.253679 39.291698 " transform="matrix(2.334389,0,0,-2.336583,99.722709,199.573931)"/>
<path style="fill:none;stroke-width:0.3985;stroke-linecap:round;stroke-linejoin:round;stroke:rgb(74.901961%,0%,25.098039%);stroke-opacity:1;stroke-miterlimit:10;" d="M -2.071402 2.393144 C -1.695251 0.954062 -0.847659 0.281376 -0.00173932 -0.00142047 C -0.847659 -0.279197 -1.695251 -0.956903 -2.071402 -2.390965 " transform="matrix(0,2.336583,2.334389,0,89.796285,192.484533)"/>
<path style="fill:none;stroke-width:0.3985;stroke-linecap:round;stroke-linejoin:round;stroke:rgb(74.901961%,0%,25.098039%);stroke-opacity:1;stroke-miterlimit:10;" d="M -2.073638 2.390965 C -1.692472 0.956903 -0.849895 0.279197 -0.000631598 0.00142047 C -0.849895 -0.281376 -1.692472 -0.954062 -2.073638 -2.393144 " transform="matrix(0,-2.336583,-2.334389,0,89.796285,107.299305)"/>
<path style=" stroke:none;fill-rule:nonzero;fill:rgb(74.901961%,0%,25.098039%);fill-opacity:1;" d="M 65.5 142.394531 C 65.5 142.136719 65.5 141.734375 65.132812 141.734375 C 64.730469 141.734375 64.730469 142.101562 64.730469 142.394531 L 64.730469 157.410156 C 64.730469 157.664062 64.730469 158.03125 65.097656 158.03125 C 65.5 158.03125 65.5 157.664062 65.5 157.410156 Z M 65.5 142.394531 "/>
<path style=" stroke:none;fill-rule:nonzero;fill:rgb(74.901961%,0%,25.098039%);fill-opacity:1;" d="M 72.15625 143.164062 C 72.195312 143.125 72.230469 142.90625 72.230469 142.871094 C 72.230469 142.796875 72.15625 142.648438 71.976562 142.648438 C 71.644531 142.648438 70.292969 142.796875 69.890625 142.832031 C 69.78125 142.832031 69.523438 142.871094 69.523438 143.199219 C 69.523438 143.417969 69.78125 143.417969 69.960938 143.417969 C 70.730469 143.417969 70.730469 143.527344 70.730469 143.675781 C 70.730469 143.785156 70.585938 144.445312 70.476562 144.8125 L 70.109375 146.3125 C 69.960938 146.863281 69.046875 150.414062 69.046875 150.632812 C 68.9375 151.035156 68.9375 151.257812 68.9375 151.4375 C 68.9375 153.085938 70 154.113281 71.351562 154.113281 C 73.363281 154.113281 75.558594 151.914062 75.558594 149.5 C 75.558594 147.59375 74.242188 146.789062 73.109375 146.789062 C 72.265625 146.789062 71.535156 147.265625 71.058594 147.667969 Z M 71.351562 153.671875 C 70.546875 153.671875 70.109375 152.976562 70.109375 152.023438 C 70.109375 151.402344 70.253906 150.851562 70.695312 149.023438 C 70.804688 148.691406 70.804688 148.65625 71.132812 148.328125 C 71.71875 147.59375 72.449219 147.226562 73.074219 147.226562 C 73.695312 147.226562 74.242188 147.703125 74.242188 148.800781 C 74.242188 149.5 73.878906 151.144531 73.402344 152.097656 C 73 152.902344 72.195312 153.671875 71.351562 153.671875 Z M 71.351562 153.671875 "/>
<path style=" stroke:none;fill-rule:nonzero;fill:rgb(74.901961%,0%,25.098039%);fill-opacity:1;" d="M 79.203125 142.394531 C 79.203125 142.136719 79.203125 141.734375 78.835938 141.734375 C 78.433594 141.734375 78.433594 142.101562 78.433594 142.394531 L 78.433594 157.410156 C 78.433594 157.664062 78.433594 158.03125 78.800781 158.03125 C 79.203125 158.03125 79.203125 157.664062 79.203125 157.410156 Z M 79.203125 142.394531 "/>
<path style="fill-rule:nonzero;fill:rgb(0%,0%,0%);fill-opacity:1;stroke-width:0.3985;stroke-linecap:butt;stroke-linejoin:miter;stroke:rgb(0%,0%,0%);stroke-opacity:1;stroke-miterlimit:10;" d="M 2.113419 -0.000123043 C 2.113419 1.166779 1.169649 2.114677 0.00165065 2.114677 C -1.166348 2.114677 -2.115137 1.166779 -2.115137 -0.000123043 C -2.115137 -1.168697 -1.166348 -2.113252 0.00165065 -2.113252 C 1.169649 -2.113252 2.113419 -1.168697 2.113419 -0.000123043 Z M 2.113419 -0.000123043 " transform="matrix(2.334389,0,0,-2.336583,99.722709,199.573931)"/>
<path style="fill-rule:nonzero;fill:rgb(0%,0%,100%);fill-opacity:1;stroke-width:0.3985;stroke-linecap:butt;stroke-linejoin:miter;stroke:rgb(0%,0%,100%);stroke-opacity:1;stroke-miterlimit:10;" d="M 87.163115 42.523247 C 87.163115 43.69182 86.217672 44.639719 85.051347 44.639719 C 83.883349 44.639719 82.939579 43.69182 82.939579 42.523247 C 82.939579 41.359689 83.883349 40.41179 85.051347 40.41179 C 86.217672 40.41179 87.163115 41.359689 87.163115 42.523247 Z M 87.163115 42.523247 " transform="matrix(2.334389,0,0,-2.336583,99.722709,199.573931)"/>
<path style="fill-rule:nonzero;fill:rgb(74.901961%,0%,25.098039%);fill-opacity:1;stroke-width:0.3985;stroke-linecap:butt;stroke-linejoin:miter;stroke:rgb(74.901961%,0%,25.098039%);stroke-opacity:1;stroke-miterlimit:10;" d="M 87.163115 -0.000123043 C 87.163115 1.166779 86.217672 2.114677 85.051347 2.114677 C 83.883349 2.114677 82.939579 1.166779 82.939579 -0.000123043 C 82.939579 -1.168697 83.883349 -2.113252 85.051347 -2.113252 C 86.217672 -2.113252 87.163115 -1.168697 87.163115 -0.000123043 Z M 87.163115 -0.000123043 " transform="matrix(2.334389,0,0,-2.336583,99.722709,199.573931)"/>
<path style="fill-rule:nonzero;fill:rgb(74.901961%,0%,25.098039%);fill-opacity:1;stroke-width:0.3985;stroke-linecap:butt;stroke-linejoin:miter;stroke:rgb(74.901961%,0%,25.098039%);stroke-opacity:1;stroke-miterlimit:10;" d="M 2.113419 42.523247 C 2.113419 43.69182 1.169649 44.639719 0.00165065 44.639719 C -1.166348 44.639719 -2.115137 43.69182 -2.115137 42.523247 C -2.115137 41.359689 -1.166348 40.41179 0.00165065 40.41179 C 1.169649 40.41179 2.113419 41.359689 2.113419 42.523247 Z M 2.113419 42.523247 " transform="matrix(2.334389,0,0,-2.336583,99.722709,199.573931)"/>
</g>
</svg>
