<?xml version="1.0" encoding="UTF-8"?>
<svg xmlns="http://www.w3.org/2000/svg" xmlns:xlink="http://www.w3.org/1999/xlink" width="401pt" height="300pt" viewBox="0 0 401 300" version="1.1">
<defs>
<clipPath id="clip1">
  <path d="M 305 0 L 399.097656 0 L 399.097656 250 L 305 250 Z M 305 0 "/>
</clipPath>
<clipPath id="clip2">
  <path d="M 78 70.679688 L 139 70.679688 L 139 298.722656 L 78 298.722656 Z M 78 70.679688 "/>
</clipPath>
<clipPath id="clip3">
  <path d="M 92 8 L 399.097656 8 L 399.097656 127 L 92 127 Z M 92 8 "/>
</clipPath>
</defs>
<g id="surface1">
<path style="fill-rule:nonzero;fill:rgb(0%,0%,0%);fill-opacity:1;stroke-width:0.3985;stroke-linecap:butt;stroke-linejoin:miter;stroke:rgb(0%,0%,0%);stroke-opacity:1;stroke-miterlimit:10;" d="M 2.114438 0.00198363 C 2.114438 1.16895 1.168779 2.11173 0.00120006 2.11173 C -1.166379 2.11173 -2.114037 1.16895 -2.114037 0.00198363 C -2.114037 -1.164983 -1.166379 -2.111767 0.00120006 -2.111767 C 1.168779 -2.111767 2.114438 -1.164983 2.114438 0.00198363 Z M 2.114438 0.00198363 " transform="matrix(1.953829,0,0,-1.951508,108.32578,190.847621)"/>
<path style="fill-rule:nonzero;fill:rgb(0%,0%,0%);fill-opacity:1;stroke-width:0.3985;stroke-linecap:butt;stroke-linejoin:miter;stroke:rgb(0%,0%,0%);stroke-opacity:1;stroke-miterlimit:10;" d="M -39.766461 7.382094 C -39.766461 8.54906 -40.714119 9.495844 -41.879699 9.495844 C -43.047278 9.495844 -43.994936 8.54906 -43.994936 7.382094 C -43.994936 6.215128 -43.047278 5.272347 -41.879699 5.272347 C -40.714119 5.272347 -39.766461 6.215128 -39.766461 7.382094 Z M -39.766461 7.382094 " transform="matrix(1.953829,0,0,-1.951508,108.32578,190.847621)"/>
<path style="fill-rule:nonzero;fill:rgb(0%,0%,0%);fill-opacity:1;stroke-width:0.3985;stroke-linecap:butt;stroke-linejoin:miter;stroke:rgb(0%,0%,0%);stroke-opacity:1;stroke-miterlimit:10;" d="M 129.690437 42.52319 C 129.690437 43.692158 128.742779 44.638942 127.5752 44.638942 C 126.407621 44.638942 125.461962 43.692158 125.461962 42.52319 C 125.461962 41.356224 126.407621 40.413443 127.5752 40.413443 C 128.742779 40.413443 129.690437 41.356224 129.690437 42.52319 Z M 129.690437 42.52319 " transform="matrix(1.953829,0,0,-1.951508,108.32578,190.847621)"/>
<path style="fill:none;stroke-width:0.3985;stroke-linecap:butt;stroke-linejoin:miter;stroke:rgb(0%,0%,0%);stroke-opacity:1;stroke-miterlimit:10;" d="M -3.185651 0.560446 L -38.692848 6.819628 " transform="matrix(1.953829,0,0,-1.951508,108.32578,190.847621)"/>
<path style="fill:none;stroke-width:0.3985;stroke-linecap:round;stroke-linejoin:round;stroke:rgb(0%,0%,0%);stroke-opacity:1;stroke-miterlimit:10;" d="M -2.070842 2.391269 C -1.693974 0.955237 -0.848559 0.277918 0.00123945 0.00135441 C -0.849467 -0.280593 -1.695765 -0.955655 -2.073816 -2.38874 " transform="matrix(1.926202,0.339173,0.339576,-1.923913,102.481528,189.818592)"/>
<path style="fill:none;stroke-width:0.3985;stroke-linecap:round;stroke-linejoin:round;stroke:rgb(0%,0%,0%);stroke-opacity:1;stroke-miterlimit:10;" d="M -2.070111 2.39153 C -1.693578 0.957472 -0.849778 0.277846 0.00198822 0.00163738 C -0.850681 -0.280664 -1.691071 -0.954692 -2.073042 -2.388472 " transform="matrix(-1.926202,-0.33919,-0.339594,1.923913,32.34423,177.466274)"/>
<path style=" stroke:none;fill-rule:nonzero;fill:rgb(0%,0%,0%);fill-opacity:1;" d="M 48.742188 164.59375 L 47.113281 164.40625 L 47.023438 164.835938 C 47.730469 164.960938 47.820312 165.050781 47.730469 165.511719 L 46.898438 170.265625 C 46.839844 170.574219 46.808594 170.664062 46.191406 170.574219 L 46.007812 170.542969 L 45.949219 170.972656 C 46.347656 171.003906 46.746094 171.066406 47.144531 171.125 C 47.542969 171.21875 47.972656 171.28125 48.34375 171.371094 L 48.40625 170.941406 L 48.21875 170.910156 C 47.636719 170.820312 47.667969 170.726562 47.730469 170.421875 Z M 48.742188 164.59375 "/>
<path style=" stroke:none;fill-rule:nonzero;fill:rgb(0%,0%,0%);fill-opacity:1;" d="M 55.277344 170.488281 C 55.496094 169.320312 54.574219 168.035156 53.039062 167.789062 C 51.53125 167.511719 50.242188 168.402344 50.027344 169.566406 C 49.8125 170.734375 50.734375 171.898438 52.238281 172.175781 C 53.773438 172.421875 55.0625 171.652344 55.277344 170.488281 Z M 52.300781 171.835938 C 50.609375 171.53125 50.886719 170.121094 50.949219 169.628906 C 51.039062 169.199219 51.285156 167.789062 52.976562 168.09375 C 54.664062 168.371094 54.417969 169.78125 54.328125 170.210938 C 54.265625 170.703125 53.988281 172.113281 52.300781 171.835938 Z M 52.300781 171.835938 "/>
<path style=" stroke:none;fill-rule:nonzero;fill:rgb(0%,0%,0%);fill-opacity:1;" d="M 61.808594 170.746094 C 61.992188 169.703125 61.289062 169.304688 60.425781 169.152344 C 59.382812 168.96875 58.769531 169.460938 58.492188 169.796875 L 58.644531 168.847656 L 57.078125 168.660156 L 56.988281 169.089844 C 57.664062 169.214844 57.753906 169.304688 57.664062 169.765625 L 57.265625 172.097656 C 57.203125 172.40625 57.171875 172.496094 56.589844 172.40625 L 56.402344 172.375 L 56.34375 172.804688 C 56.742188 172.832031 57.140625 172.894531 57.570312 172.988281 C 57.96875 173.046875 58.398438 173.109375 58.769531 173.234375 L 58.832031 172.804688 L 58.644531 172.773438 C 58.0625 172.648438 58.09375 172.558594 58.15625 172.25 L 58.429688 170.59375 C 58.617188 169.519531 59.660156 169.335938 60.273438 169.429688 C 61.011719 169.550781 61.074219 170.011719 60.980469 170.59375 L 60.613281 172.679688 C 60.550781 172.988281 60.519531 173.078125 59.875 172.957031 L 59.722656 172.957031 L 59.660156 173.386719 C 60.058594 173.417969 60.488281 173.476562 60.859375 173.570312 C 61.289062 173.632812 61.6875 173.691406 62.117188 173.816406 L 62.179688 173.386719 L 61.992188 173.355469 C 61.347656 173.234375 61.378906 173.140625 61.441406 172.832031 Z M 61.808594 170.746094 "/>
<path style=" stroke:none;fill-rule:nonzero;fill:rgb(0%,0%,0%);fill-opacity:1;" d="M 67.808594 170.972656 C 68.332031 170.757812 68.730469 170.820312 68.882812 170.847656 C 68.851562 170.878906 68.820312 170.941406 68.789062 171.0625 C 68.761719 171.277344 68.851562 171.460938 69.097656 171.492188 C 69.3125 171.523438 69.464844 171.402344 69.496094 171.1875 C 69.527344 170.941406 69.40625 170.605469 68.914062 170.511719 C 68.699219 170.480469 68.207031 170.449219 67.59375 170.757812 C 67.410156 170.605469 67.007812 170.296875 66.425781 170.207031 C 65.289062 169.992188 64.367188 170.542969 64.246094 171.25 C 64.152344 171.769531 64.429688 172.167969 64.582031 172.320312 C 64.277344 172.535156 64.183594 172.84375 64.152344 173.058594 C 64.0625 173.550781 64.335938 173.917969 64.398438 173.976562 C 63.90625 174.039062 63.324219 174.253906 63.230469 174.746094 C 63.078125 175.480469 64.277344 176.21875 65.65625 176.464844 C 66.949219 176.679688 68.390625 176.492188 68.546875 175.695312 C 68.605469 175.265625 68.421875 174.714844 67.992188 174.4375 C 67.4375 174.007812 66.792969 173.917969 65.78125 173.734375 C 65.535156 173.671875 65.105469 173.609375 65.074219 173.578125 C 64.644531 173.425781 64.582031 173.027344 64.613281 172.84375 C 64.644531 172.660156 64.765625 172.535156 64.796875 172.535156 C 64.828125 172.535156 64.859375 172.535156 64.890625 172.597656 C 65.226562 172.84375 65.597656 172.964844 65.933594 173.027344 C 67.039062 173.210938 67.960938 172.691406 68.085938 171.921875 C 68.175781 171.492188 67.929688 171.09375 67.808594 170.972656 Z M 65.996094 172.71875 C 65.136719 172.566406 64.980469 171.953125 65.074219 171.402344 C 65.167969 170.910156 65.535156 170.359375 66.394531 170.511719 C 67.222656 170.664062 67.316406 171.277344 67.222656 171.769531 C 67.132812 172.320312 66.824219 172.875 65.996094 172.71875 Z M 65.6875 174.46875 C 66.640625 174.621094 67.992188 174.867188 67.871094 175.574219 C 67.777344 176.035156 66.855469 176.339844 65.6875 176.15625 C 64.582031 175.941406 63.785156 175.359375 63.875 174.867188 C 63.9375 174.5625 64.335938 174.222656 65.074219 174.347656 Z M 65.6875 174.46875 "/>
<path style=" stroke:none;fill-rule:nonzero;fill:rgb(0%,0%,0%);fill-opacity:1;" d="M 72.742188 169.605469 C 72.800781 169.269531 72.585938 168.960938 72.25 168.902344 C 71.941406 168.839844 71.636719 169.023438 71.574219 169.390625 C 71.511719 169.730469 71.757812 170.035156 72.066406 170.097656 C 72.402344 170.160156 72.679688 169.914062 72.742188 169.605469 Z M 70.867188 171.078125 L 70.777344 171.507812 C 71.421875 171.632812 71.511719 171.722656 71.421875 172.183594 L 71.019531 174.515625 C 70.960938 174.820312 70.929688 174.914062 70.316406 174.820312 L 70.128906 174.789062 L 70.070312 175.21875 C 70.4375 175.25 70.867188 175.3125 71.265625 175.375 C 71.636719 175.464844 72.066406 175.527344 72.371094 175.621094 L 72.433594 175.191406 C 71.820312 175.066406 71.757812 175.066406 71.851562 174.667969 L 72.433594 171.261719 Z M 70.867188 171.078125 "/>
<path style=" stroke:none;fill-rule:nonzero;fill:rgb(0%,0%,0%);fill-opacity:1;" d="M 76.144531 172.464844 L 77.835938 172.742188 L 77.925781 172.3125 L 76.238281 172.035156 L 76.542969 170.285156 L 76.144531 170.195312 C 75.960938 171.117188 75.316406 171.972656 74.332031 171.820312 L 74.273438 172.128906 L 75.285156 172.3125 L 74.855469 174.828125 C 74.671875 175.902344 75.53125 176.269531 76.082031 176.359375 C 76.820312 176.484375 77.464844 176.054688 77.621094 175.289062 L 77.710938 174.765625 L 77.28125 174.703125 L 77.191406 175.195312 C 77.066406 175.902344 76.574219 176.117188 76.238281 176.054688 C 75.53125 175.929688 75.683594 175.195312 75.714844 174.980469 Z M 76.144531 172.464844 "/>
<path style=" stroke:none;fill-rule:nonzero;fill:rgb(0%,0%,0%);fill-opacity:1;" d="M 83.1875 173.257812 L 83.09375 173.6875 C 83.800781 173.808594 83.890625 173.902344 83.800781 174.363281 L 83.523438 175.925781 C 83.371094 176.785156 82.601562 177.183594 81.804688 177.0625 C 80.851562 176.878906 80.882812 176.480469 80.972656 176.019531 L 81.527344 172.859375 L 79.867188 172.675781 L 79.777344 173.105469 C 80.484375 173.226562 80.542969 173.320312 80.453125 173.808594 L 80.082031 175.894531 C 79.992188 177 81.066406 177.246094 81.679688 177.335938 C 82.480469 177.492188 83.0625 177.214844 83.402344 176.816406 L 83.246094 177.613281 L 84.90625 177.828125 L 84.96875 177.398438 C 84.230469 177.277344 84.167969 177.183594 84.261719 176.695312 L 84.8125 173.441406 Z M 83.1875 173.257812 "/>
<path style=" stroke:none;fill-rule:nonzero;fill:rgb(0%,0%,0%);fill-opacity:1;" d="M 90.75 172.070312 L 90.660156 172.5 C 91.363281 172.621094 91.457031 172.746094 91.363281 173.207031 L 91.027344 175.078125 C 90.84375 174.863281 90.382812 174.433594 89.582031 174.28125 C 88.140625 174.035156 86.820312 174.800781 86.605469 175.996094 C 86.390625 177.132812 87.28125 178.328125 88.691406 178.574219 C 89.492188 178.726562 90.105469 178.480469 90.445312 178.296875 L 90.320312 178.882812 L 91.980469 179.066406 L 92.039062 178.636719 C 91.335938 178.511719 91.273438 178.421875 91.363281 177.929688 L 92.347656 172.253906 Z M 90.535156 177.746094 C 89.953125 178.359375 89.183594 178.359375 88.816406 178.296875 C 88.355469 178.207031 87.894531 177.929688 87.679688 177.4375 C 87.402344 177.039062 87.496094 176.488281 87.554688 176.179688 C 87.585938 175.90625 87.710938 175.261719 88.203125 174.921875 C 88.632812 174.617188 89.152344 174.523438 89.613281 174.585938 C 89.890625 174.648438 90.566406 174.832031 90.902344 175.597656 Z M 90.535156 177.746094 "/>
<g clip-path="url(#clip1)" clip-rule="nonzero">
<path style="fill:none;stroke-width:1.19553;stroke-linecap:butt;stroke-linejoin:miter;stroke:rgb(0%,0%,0%);stroke-opacity:1;stroke-miterlimit:10;" d="M 117.722752 -13.367086 L 137.423648 98.373433 " transform="matrix(1.953829,0,0,-1.951508,108.32578,190.847621)"/>
</g>
<path style="fill:none;stroke-width:0.3985;stroke-linecap:butt;stroke-linejoin:miter;stroke:rgb(0%,0%,100%);stroke-opacity:1;stroke-miterlimit:10;" d="M -13.459946 -4.485732 L 141.036346 47.012908 " transform="matrix(1.953829,0,0,-1.951508,108.32578,190.847621)"/>
<path style="fill:none;stroke-width:0.3985;stroke-linecap:butt;stroke-linejoin:miter;stroke:rgb(0%,0%,100%);stroke-opacity:1;stroke-miterlimit:10;" d="M 42.519869 0.00198363 C 42.519869 23.483426 23.482733 42.519187 0.00120006 42.519187 C -23.484332 42.519187 -42.521467 23.483426 -42.521467 0.00198363 C -42.521467 -23.483462 -23.484332 -42.519223 0.00120006 -42.519223 C 23.482733 -42.519223 42.519869 -23.483462 42.519869 0.00198363 Z M 42.519869 0.00198363 " transform="matrix(1.953829,0,0,-1.951508,108.32578,190.847621)"/>
<g clip-path="url(#clip2)" clip-rule="nonzero">
<path style="fill:none;stroke-width:0.3985;stroke-linecap:butt;stroke-linejoin:miter;stroke:rgb(55.294118%,52.54902%,0%);stroke-opacity:1;stroke-miterlimit:10;" d="M -9.851247 -55.890294 L 9.84565 55.846221 " transform="matrix(1.953829,0,0,-1.951508,108.32578,190.847621)"/>
</g>
<g clip-path="url(#clip3)" clip-rule="nonzero">
<path style="fill:none;stroke-width:0.3985;stroke-linecap:butt;stroke-linejoin:miter;stroke:rgb(74.901961%,50.196078%,25.098039%);stroke-opacity:1;stroke-miterlimit:10;" d="M 144.517091 87.592507 L -2.553879 38.565914 " transform="matrix(1.953829,0,0,-1.951508,108.32578,190.847621)"/>
</g>
<path style="fill:none;stroke-width:0.3985;stroke-linecap:butt;stroke-linejoin:miter;stroke:rgb(74.901961%,50.196078%,25.098039%);stroke-opacity:1;stroke-miterlimit:10;" d="M 133.635015 5.126226 L -20.843284 -46.36841 " transform="matrix(1.953829,0,0,-1.951508,108.32578,190.847621)"/>
<path style="fill:none;stroke-width:0.3985;stroke-linecap:butt;stroke-linejoin:miter;stroke:rgb(100%,0%,0%);stroke-opacity:1;stroke-miterlimit:10;" d="M 123.88453 44.863128 L 130.146273 80.36252 " transform="matrix(1.953829,0,0,-1.951508,108.32578,190.847621)"/>
<path style="fill:none;stroke-width:0.3985;stroke-linecap:round;stroke-linejoin:round;stroke:rgb(100%,0%,0%);stroke-opacity:1;stroke-miterlimit:10;" d="M -2.07141 2.392146 C -1.694345 0.955909 -0.850225 0.279351 0.00110516 -0.000483605 C -0.851357 -0.278536 -1.69192 -0.958053 -2.074554 -2.392354 " transform="matrix(-0.339594,1.923913,1.926202,0.33919,350.309901,103.681632)"/>
<path style="fill:none;stroke-width:0.3985;stroke-linecap:round;stroke-linejoin:round;stroke:rgb(100%,0%,0%);stroke-opacity:1;stroke-miterlimit:10;" d="M -2.072003 2.392374 C -1.694938 0.956137 -0.850818 0.279579 0.000512363 -0.00025558 C -0.851949 -0.278308 -1.692513 -0.957825 -2.073178 -2.391779 " transform="matrix(0.339594,-1.923913,-1.926202,-0.33919,362.675115,33.637618)"/>
<path style=" stroke:none;fill-rule:nonzero;fill:rgb(100%,0%,0%);fill-opacity:1;" d="M 337.414062 87.308594 L 337.230469 88.9375 L 337.660156 89.027344 C 337.78125 88.324219 337.875 88.230469 338.335938 88.324219 L 343.097656 89.152344 C 343.402344 89.210938 343.496094 89.242188 343.402344 89.855469 L 343.371094 90.039062 L 343.800781 90.101562 C 343.832031 89.703125 343.894531 89.304688 343.957031 88.90625 C 344.046875 88.507812 344.109375 88.078125 344.203125 87.707031 L 343.773438 87.648438 L 343.742188 87.832031 C 343.648438 88.414062 343.554688 88.382812 343.25 88.324219 Z M 337.414062 87.308594 "/>
<path style=" stroke:none;fill-rule:nonzero;fill:rgb(100%,0%,0%);fill-opacity:1;" d="M 343.316406 80.78125 C 342.148438 80.566406 340.859375 81.488281 340.613281 83.019531 C 340.335938 84.523438 341.226562 85.8125 342.394531 86.027344 C 343.5625 86.242188 344.730469 85.320312 345.007812 83.816406 C 345.25 82.285156 344.484375 80.996094 343.316406 80.78125 Z M 344.667969 83.757812 C 344.359375 85.445312 342.949219 85.167969 342.457031 85.105469 C 342.027344 85.015625 340.613281 84.769531 340.921875 83.082031 C 341.199219 81.394531 342.609375 81.640625 343.039062 81.730469 C 343.53125 81.792969 344.945312 82.070312 344.667969 83.757812 Z M 344.667969 83.757812 "/>
<path style=" stroke:none;fill-rule:nonzero;fill:rgb(100%,0%,0%);fill-opacity:1;" d="M 343.578125 74.257812 C 342.53125 74.074219 342.132812 74.78125 341.980469 75.640625 C 341.796875 76.683594 342.289062 77.296875 342.625 77.570312 L 341.671875 77.417969 L 341.488281 78.984375 L 341.917969 79.074219 C 342.042969 78.398438 342.132812 78.308594 342.59375 78.398438 L 344.929688 78.796875 C 345.234375 78.859375 345.328125 78.890625 345.234375 79.472656 L 345.203125 79.65625 L 345.636719 79.71875 C 345.664062 79.320312 345.726562 78.921875 345.820312 78.492188 C 345.878906 78.09375 345.941406 77.664062 346.066406 77.296875 L 345.636719 77.234375 L 345.605469 77.417969 C 345.480469 78 345.390625 77.96875 345.082031 77.910156 L 343.421875 77.632812 C 342.347656 77.449219 342.164062 76.40625 342.257812 75.792969 C 342.378906 75.054688 342.839844 74.996094 343.421875 75.085938 L 345.511719 75.453125 C 345.820312 75.515625 345.910156 75.546875 345.789062 76.191406 L 345.789062 76.34375 L 346.21875 76.40625 C 346.25 76.007812 346.3125 75.578125 346.402344 75.210938 C 346.464844 74.78125 346.527344 74.382812 346.648438 73.953125 L 346.21875 73.890625 L 346.1875 74.074219 C 346.066406 74.71875 345.972656 74.6875 345.664062 74.625 Z M 343.578125 74.257812 "/>
<path style=" stroke:none;fill-rule:nonzero;fill:rgb(100%,0%,0%);fill-opacity:1;" d="M 343.800781 68.265625 C 343.585938 67.746094 343.648438 67.347656 343.679688 67.191406 C 343.710938 67.222656 343.769531 67.253906 343.894531 67.285156 C 344.109375 67.316406 344.292969 67.222656 344.324219 66.976562 C 344.355469 66.765625 344.230469 66.609375 344.015625 66.578125 C 343.769531 66.550781 343.433594 66.671875 343.339844 67.164062 C 343.308594 67.378906 343.28125 67.867188 343.585938 68.480469 C 343.433594 68.664062 343.125 69.066406 343.035156 69.648438 C 342.820312 70.78125 343.371094 71.703125 344.078125 71.824219 C 344.601562 71.917969 345 71.640625 345.152344 71.488281 C 345.367188 71.792969 345.675781 71.886719 345.890625 71.917969 C 346.382812 72.007812 346.75 71.734375 346.8125 71.671875 C 346.875 72.164062 347.089844 72.746094 347.578125 72.835938 C 348.316406 72.992188 349.054688 71.792969 349.300781 70.414062 C 349.515625 69.125 349.332031 67.683594 348.53125 67.53125 C 348.101562 67.46875 347.546875 67.652344 347.273438 68.082031 C 346.84375 68.636719 346.75 69.277344 346.566406 70.292969 C 346.503906 70.535156 346.441406 70.964844 346.414062 70.996094 C 346.257812 71.425781 345.859375 71.488281 345.675781 71.457031 C 345.492188 71.425781 345.367188 71.304688 345.367188 71.273438 C 345.367188 71.242188 345.367188 71.210938 345.429688 71.179688 C 345.675781 70.84375 345.796875 70.476562 345.859375 70.136719 C 346.042969 69.035156 345.523438 68.113281 344.753906 67.992188 C 344.324219 67.898438 343.925781 68.144531 343.800781 68.265625 Z M 345.550781 70.078125 C 345.398438 70.9375 344.785156 71.089844 344.230469 70.996094 C 343.742188 70.90625 343.1875 70.535156 343.339844 69.679688 C 343.496094 68.851562 344.109375 68.757812 344.601562 68.851562 C 345.152344 68.941406 345.707031 69.25 345.550781 70.078125 Z M 347.304688 70.382812 C 347.457031 69.433594 347.703125 68.082031 348.410156 68.207031 C 348.871094 68.296875 349.175781 69.21875 348.992188 70.382812 C 348.777344 71.488281 348.195312 72.285156 347.703125 72.195312 C 347.394531 72.132812 347.058594 71.734375 347.179688 70.996094 Z M 347.304688 70.382812 "/>
<path style=" stroke:none;fill-rule:nonzero;fill:rgb(100%,0%,0%);fill-opacity:1;" d="M 342.433594 63.339844 C 342.097656 63.277344 341.789062 63.492188 341.726562 63.832031 C 341.667969 64.136719 341.851562 64.445312 342.21875 64.503906 C 342.558594 64.566406 342.863281 64.320312 342.925781 64.015625 C 342.988281 63.675781 342.742188 63.402344 342.433594 63.339844 Z M 343.910156 65.210938 L 344.339844 65.304688 C 344.460938 64.660156 344.554688 64.566406 345.015625 64.660156 L 347.347656 65.058594 C 347.65625 65.117188 347.746094 65.148438 347.65625 65.761719 L 347.625 65.945312 L 348.054688 66.007812 C 348.085938 65.640625 348.148438 65.210938 348.207031 64.8125 C 348.300781 64.445312 348.363281 64.015625 348.453125 63.707031 L 348.023438 63.644531 C 347.902344 64.261719 347.902344 64.320312 347.503906 64.230469 L 344.09375 63.644531 Z M 343.910156 65.210938 "/>
<path style=" stroke:none;fill-rule:nonzero;fill:rgb(100%,0%,0%);fill-opacity:1;" d="M 345.296875 59.941406 L 345.574219 58.253906 L 345.144531 58.160156 L 344.867188 59.847656 L 343.117188 59.539062 L 343.023438 59.941406 C 343.945312 60.125 344.804688 60.769531 344.652344 61.75 L 344.957031 61.8125 L 345.144531 60.796875 L 347.660156 61.226562 C 348.738281 61.410156 349.105469 60.554688 349.195312 60 C 349.320312 59.265625 348.890625 58.621094 348.121094 58.46875 L 347.601562 58.375 L 347.539062 58.804688 L 348.03125 58.894531 C 348.738281 59.019531 348.953125 59.511719 348.890625 59.847656 C 348.765625 60.554688 348.03125 60.398438 347.816406 60.367188 Z M 345.296875 59.941406 "/>
<path style=" stroke:none;fill-rule:nonzero;fill:rgb(100%,0%,0%);fill-opacity:1;" d="M 346.089844 52.90625 L 346.519531 53 C 346.644531 52.292969 346.734375 52.203125 347.195312 52.292969 L 348.761719 52.570312 C 349.621094 52.722656 350.019531 53.492188 349.898438 54.289062 C 349.714844 55.238281 349.316406 55.207031 348.855469 55.117188 L 345.691406 54.5625 L 345.507812 56.21875 L 345.9375 56.3125 C 346.058594 55.605469 346.152344 55.546875 346.644531 55.636719 L 348.730469 56.003906 C 349.835938 56.097656 350.082031 55.023438 350.175781 54.410156 C 350.328125 53.613281 350.050781 53.03125 349.652344 52.691406 L 350.453125 52.847656 L 350.667969 51.191406 L 350.238281 51.128906 C 350.113281 51.863281 350.019531 51.925781 349.53125 51.832031 L 346.273438 51.28125 Z M 346.089844 52.90625 "/>
<path style=" stroke:none;fill-rule:nonzero;fill:rgb(100%,0%,0%);fill-opacity:1;" d="M 344.902344 45.351562 L 345.332031 45.445312 C 345.453125 44.738281 345.578125 44.644531 346.039062 44.738281 L 347.910156 45.074219 C 347.695312 45.257812 347.265625 45.71875 347.113281 46.515625 C 346.867188 47.960938 347.636719 49.277344 348.832031 49.492188 C 349.96875 49.707031 351.167969 48.816406 351.414062 47.40625 C 351.566406 46.609375 351.320312 45.996094 351.136719 45.660156 L 351.71875 45.78125 L 351.90625 44.125 L 351.472656 44.0625 C 351.351562 44.769531 351.257812 44.828125 350.769531 44.738281 L 345.085938 43.757812 Z M 350.582031 45.566406 C 351.199219 46.148438 351.199219 46.917969 351.136719 47.285156 C 351.042969 47.746094 350.769531 48.203125 350.277344 48.417969 C 349.878906 48.695312 349.324219 48.601562 349.015625 48.542969 C 348.742188 48.511719 348.097656 48.386719 347.757812 47.898438 C 347.449219 47.46875 347.359375 46.945312 347.421875 46.488281 C 347.480469 46.210938 347.664062 45.535156 348.433594 45.199219 Z M 350.582031 45.566406 "/>
<path style="fill:none;stroke-width:0.3985;stroke-linecap:butt;stroke-linejoin:miter;stroke:rgb(100%,0%,0%);stroke-opacity:1;stroke-miterlimit:10;" d="M 122.760936 38.487849 L 116.501193 2.988456 " transform="matrix(1.953829,0,0,-1.951508,108.32578,190.847621)"/>
<path style="fill:none;stroke-width:0.3985;stroke-linecap:round;stroke-linejoin:round;stroke:rgb(100%,0%,0%);stroke-opacity:1;stroke-miterlimit:10;" d="M -2.071681 2.390312 C -1.694964 0.956042 -0.849221 0.281798 0.000486908 -0.000350449 C -0.850006 -0.278055 -1.692885 -0.955953 -2.07355 -2.389907 " transform="matrix(0.339594,-1.923913,-1.926202,-0.33919,348.24916,115.356287)"/>
<path style="fill:none;stroke-width:0.3985;stroke-linecap:round;stroke-linejoin:round;stroke:rgb(100%,0%,0%);stroke-opacity:1;stroke-miterlimit:10;" d="M -2.072976 2.389921 C -1.691973 0.954378 -0.851792 0.277126 -0.00115468 0.00122509 C -0.848985 -0.280066 -1.694526 -0.954378 -2.070213 -2.393538 " transform="matrix(-0.339594,1.923913,1.926202,0.33919,335.883967,185.400243)"/>
<path style=" stroke:none;fill-rule:nonzero;fill:rgb(100%,0%,0%);fill-opacity:1;" d="M 322.988281 169.027344 L 322.804688 170.652344 L 323.234375 170.746094 C 323.355469 170.039062 323.449219 169.949219 323.910156 170.039062 L 328.671875 170.867188 C 328.976562 170.929688 329.070312 170.960938 328.976562 171.574219 L 328.945312 171.757812 L 329.378906 171.820312 C 329.40625 171.421875 329.46875 171.019531 329.53125 170.621094 C 329.621094 170.222656 329.683594 169.792969 329.777344 169.425781 L 329.347656 169.363281 L 329.316406 169.550781 C 329.222656 170.132812 329.132812 170.101562 328.824219 170.039062 Z M 322.988281 169.027344 "/>
<path style=" stroke:none;fill-rule:nonzero;fill:rgb(100%,0%,0%);fill-opacity:1;" d="M 328.890625 162.5 C 327.722656 162.285156 326.433594 163.203125 326.1875 164.738281 C 325.914062 166.242188 326.804688 167.527344 327.96875 167.742188 C 329.136719 167.957031 330.304688 167.039062 330.582031 165.535156 C 330.828125 164 330.058594 162.714844 328.890625 162.5 Z M 330.242188 165.472656 C 329.9375 167.160156 328.523438 166.886719 328.03125 166.824219 C 327.601562 166.730469 326.1875 166.484375 326.496094 164.800781 C 326.773438 163.113281 328.183594 163.355469 328.613281 163.449219 C 329.105469 163.511719 330.519531 163.785156 330.242188 165.472656 Z M 330.242188 165.472656 "/>
<path style=" stroke:none;fill-rule:nonzero;fill:rgb(100%,0%,0%);fill-opacity:1;" d="M 329.152344 155.976562 C 328.109375 155.792969 327.707031 156.496094 327.554688 157.355469 C 327.371094 158.398438 327.863281 159.011719 328.199219 159.289062 L 327.246094 159.136719 L 327.0625 160.699219 L 327.492188 160.792969 C 327.617188 160.117188 327.707031 160.023438 328.167969 160.117188 L 330.503906 160.515625 C 330.8125 160.578125 330.902344 160.609375 330.8125 161.191406 L 330.78125 161.375 L 331.210938 161.4375 C 331.242188 161.039062 331.300781 160.636719 331.394531 160.210938 C 331.457031 159.808594 331.515625 159.378906 331.640625 159.011719 L 331.210938 158.953125 L 331.179688 159.136719 C 331.054688 159.71875 330.964844 159.6875 330.65625 159.625 L 329 159.351562 C 327.921875 159.167969 327.738281 158.121094 327.832031 157.507812 C 327.953125 156.773438 328.414062 156.710938 329 156.804688 L 331.085938 157.171875 C 331.394531 157.234375 331.488281 157.265625 331.363281 157.910156 L 331.363281 158.0625 L 331.792969 158.121094 C 331.824219 157.722656 331.886719 157.292969 331.976562 156.925781 C 332.039062 156.496094 332.101562 156.097656 332.222656 155.667969 L 331.792969 155.609375 L 331.761719 155.792969 C 331.640625 156.4375 331.546875 156.40625 331.242188 156.34375 Z M 329.152344 155.976562 "/>
<path style=" stroke:none;fill-rule:nonzero;fill:rgb(100%,0%,0%);fill-opacity:1;" d="M 329.375 149.984375 C 329.160156 149.460938 329.222656 149.0625 329.253906 148.910156 C 329.285156 148.941406 329.347656 148.972656 329.46875 149.003906 C 329.683594 149.035156 329.867188 148.941406 329.898438 148.695312 C 329.929688 148.480469 329.804688 148.328125 329.589844 148.296875 C 329.347656 148.265625 329.007812 148.390625 328.914062 148.878906 C 328.886719 149.09375 328.855469 149.585938 329.160156 150.199219 C 329.007812 150.382812 328.699219 150.78125 328.609375 151.363281 C 328.394531 152.5 328.945312 153.421875 329.652344 153.542969 C 330.175781 153.636719 330.574219 153.359375 330.726562 153.207031 C 330.941406 153.511719 331.25 153.605469 331.464844 153.636719 C 331.957031 153.726562 332.324219 153.449219 332.386719 153.390625 C 332.449219 153.878906 332.664062 154.464844 333.15625 154.554688 C 333.890625 154.707031 334.628906 153.511719 334.875 152.132812 C 335.089844 150.84375 334.90625 149.402344 334.105469 149.25 C 333.675781 149.1875 333.125 149.371094 332.847656 149.800781 C 332.417969 150.351562 332.324219 150.996094 332.140625 152.007812 C 332.078125 152.253906 332.019531 152.683594 331.988281 152.714844 C 331.832031 153.144531 331.433594 153.207031 331.25 153.175781 C 331.066406 153.144531 330.941406 153.019531 330.941406 152.992188 C 330.941406 152.960938 330.941406 152.929688 331.003906 152.898438 C 331.25 152.5625 331.371094 152.191406 331.433594 151.855469 C 331.617188 150.75 331.097656 149.832031 330.328125 149.707031 C 329.898438 149.617188 329.5 149.863281 329.375 149.984375 Z M 331.128906 151.792969 C 330.972656 152.652344 330.359375 152.808594 329.804688 152.714844 C 329.316406 152.621094 328.761719 152.253906 328.914062 151.394531 C 329.070312 150.566406 329.683594 150.476562 330.175781 150.566406 C 330.726562 150.660156 331.28125 150.964844 331.128906 151.792969 Z M 332.878906 152.101562 C 333.03125 151.148438 333.277344 149.800781 333.984375 149.921875 C 334.445312 150.015625 334.75 150.933594 334.566406 152.101562 C 334.351562 153.207031 333.769531 154.003906 333.277344 153.910156 C 332.96875 153.851562 332.632812 153.449219 332.753906 152.714844 Z M 332.878906 152.101562 "/>
<path style=" stroke:none;fill-rule:nonzero;fill:rgb(100%,0%,0%);fill-opacity:1;" d="M 328.007812 145.058594 C 327.671875 144.996094 327.363281 145.210938 327.304688 145.546875 C 327.242188 145.855469 327.425781 146.160156 327.792969 146.222656 C 328.132812 146.285156 328.4375 146.039062 328.5 145.730469 C 328.5625 145.394531 328.316406 145.117188 328.007812 145.058594 Z M 329.484375 146.929688 L 329.914062 147.019531 C 330.035156 146.375 330.128906 146.285156 330.589844 146.375 L 332.921875 146.773438 C 333.230469 146.835938 333.324219 146.867188 333.230469 147.480469 L 333.199219 147.664062 L 333.628906 147.726562 C 333.660156 147.359375 333.722656 146.929688 333.785156 146.53125 C 333.875 146.160156 333.9375 145.730469 334.027344 145.425781 L 333.597656 145.363281 C 333.476562 145.976562 333.476562 146.039062 333.078125 145.945312 L 329.667969 145.363281 Z M 329.484375 146.929688 "/>
<path style=" stroke:none;fill-rule:nonzero;fill:rgb(100%,0%,0%);fill-opacity:1;" d="M 330.871094 141.65625 L 331.148438 139.96875 L 330.71875 139.878906 L 330.441406 141.566406 L 328.691406 141.257812 L 328.597656 141.65625 C 329.519531 141.839844 330.378906 142.484375 330.226562 143.46875 L 330.535156 143.527344 L 330.71875 142.515625 L 333.238281 142.945312 C 334.3125 143.128906 334.679688 142.269531 334.773438 141.71875 C 334.894531 140.980469 334.464844 140.335938 333.695312 140.183594 L 333.175781 140.09375 L 333.113281 140.523438 L 333.605469 140.613281 C 334.3125 140.738281 334.527344 141.226562 334.464844 141.566406 C 334.34375 142.269531 333.605469 142.117188 333.390625 142.085938 Z M 330.871094 141.65625 "/>
<path style=" stroke:none;fill-rule:nonzero;fill:rgb(100%,0%,0%);fill-opacity:1;" d="M 331.664062 134.625 L 332.09375 134.71875 C 332.21875 134.011719 332.308594 133.917969 332.769531 134.011719 L 334.335938 134.289062 C 335.195312 134.441406 335.597656 135.207031 335.472656 136.003906 C 335.289062 136.957031 334.890625 136.925781 334.429688 136.832031 L 331.265625 136.28125 L 331.082031 137.9375 L 331.511719 138.03125 C 331.632812 137.324219 331.726562 137.261719 332.21875 137.355469 L 334.304688 137.722656 C 335.410156 137.816406 335.65625 136.742188 335.75 136.128906 C 335.902344 135.332031 335.628906 134.746094 335.226562 134.410156 L 336.027344 134.5625 L 336.242188 132.90625 L 335.8125 132.84375 C 335.6875 133.582031 335.597656 133.644531 335.105469 133.550781 L 331.847656 133 Z M 331.664062 134.625 "/>
<path style=" stroke:none;fill-rule:nonzero;fill:rgb(100%,0%,0%);fill-opacity:1;" d="M 330.476562 127.070312 L 330.90625 127.160156 C 331.03125 126.457031 331.152344 126.363281 331.613281 126.457031 L 333.488281 126.792969 C 333.269531 126.976562 332.839844 127.4375 332.6875 128.234375 C 332.441406 129.675781 333.210938 130.996094 334.40625 131.210938 C 335.542969 131.425781 336.742188 130.535156 336.988281 129.125 C 337.140625 128.328125 336.894531 127.714844 336.710938 127.375 L 337.296875 127.5 L 337.480469 125.84375 L 337.050781 125.78125 C 336.925781 126.484375 336.835938 126.546875 336.34375 126.457031 L 330.660156 125.472656 Z M 336.160156 127.285156 C 336.773438 127.867188 336.773438 128.632812 336.710938 129 C 336.621094 129.460938 336.34375 129.921875 335.851562 130.136719 C 335.453125 130.414062 334.898438 130.320312 334.59375 130.257812 C 334.316406 130.230469 333.671875 130.105469 333.332031 129.613281 C 333.027344 129.1875 332.933594 128.664062 332.996094 128.203125 C 333.054688 127.929688 333.242188 127.253906 334.007812 126.914062 Z M 336.160156 127.285156 "/>
<path style="fill-rule:nonzero;fill:rgb(100%,0%,0%);fill-opacity:1;stroke-width:0.3985;stroke-linecap:butt;stroke-linejoin:miter;stroke:rgb(100%,0%,0%);stroke-opacity:1;stroke-miterlimit:10;" d="M 137.089769 84.409872 C 137.089769 85.576838 136.142111 86.523622 134.974532 86.523622 C 133.808952 86.523622 132.861294 85.576838 132.861294 84.409872 C 132.861294 83.242905 133.808952 82.296121 134.974532 82.296121 C 136.142111 82.296121 137.089769 83.242905 137.089769 84.409872 Z M 137.089769 84.409872 " transform="matrix(1.953829,0,0,-1.951508,108.32578,190.847621)"/>
<path style="fill-rule:nonzero;fill:rgb(100%,0%,0%);fill-opacity:1;stroke-width:0.3985;stroke-linecap:butt;stroke-linejoin:miter;stroke:rgb(100%,0%,0%);stroke-opacity:1;stroke-miterlimit:10;" d="M 122.3051 0.638511 C 122.3051 1.805477 121.357442 2.752261 120.191862 2.752261 C 119.024283 2.752261 118.076625 1.805477 118.076625 0.638511 C 118.076625 -0.528456 119.024283 -1.471236 120.191862 -1.471236 C 121.357442 -1.471236 122.3051 -0.528456 122.3051 0.638511 Z M 122.3051 0.638511 " transform="matrix(1.953829,0,0,-1.951508,108.32578,190.847621)"/>
</g>
</svg>
