<?xml version="1.0" encoding="UTF-8"?>
<svg xmlns="http://www.w3.org/2000/svg" xmlns:xlink="http://www.w3.org/1999/xlink" width="401px" height="300px" viewBox="0 0 401 300" version="1.1">
<defs>
<clipPath id="clip1">
  <path d="M 305 0 L 398.652344 0 L 398.652344 250 L 305 250 Z M 305 0 "/>
</clipPath>
<clipPath id="clip2">
  <path d="M 78 70.554688 L 139 70.554688 L 139 298.191406 L 78 298.191406 Z M 78 70.554688 "/>
</clipPath>
<clipPath id="clip3">
  <path d="M 92 8 L 398.652344 8 L 398.652344 127 L 92 127 Z M 92 8 "/>
</clipPath>
</defs>
<g id="surface1">
<path style="fill-rule:nonzero;fill:rgb(0%,0%,0%);fill-opacity:1;stroke-width:0.3985;stroke-linecap:butt;stroke-linejoin:miter;stroke:rgb(0%,0%,0%);stroke-opacity:1;stroke-miterlimit:10;" d="M 2.114354 0.00099053 C 2.114354 1.170026 1.169021 2.112474 0.00137382 2.112474 C -1.166273 2.112474 -2.113609 1.170026 -2.113609 0.00099053 C -2.113609 -1.16604 -1.166273 -2.112498 0.00137382 -2.112498 C 1.169021 -2.112498 2.114354 -1.16604 2.114354 0.00099053 Z M 2.114354 0.00099053 " transform="matrix(1.95037,0,0,-1.948053,108.395758,190.509742)"/>
<path style="fill-rule:nonzero;fill:rgb(0%,0%,0%);fill-opacity:1;stroke-width:0.3985;stroke-linecap:butt;stroke-linejoin:miter;stroke:rgb(0%,0%,0%);stroke-opacity:1;stroke-miterlimit:10;" d="M -39.766718 7.382159 C -39.766718 8.54919 -40.714054 9.497653 -41.879698 9.497653 C -43.047345 9.497653 -43.994681 8.54919 -43.994681 7.382159 C -43.994681 6.215128 -43.047345 5.272681 -41.879698 5.272681 C -40.714054 5.272681 -39.766718 6.215128 -39.766718 7.382159 Z M -39.766718 7.382159 " transform="matrix(1.95037,0,0,-1.948053,108.395758,190.509742)"/>
<path style="fill-rule:nonzero;fill:rgb(0%,0%,0%);fill-opacity:1;stroke-width:0.3985;stroke-linecap:butt;stroke-linejoin:miter;stroke:rgb(0%,0%,0%);stroke-opacity:1;stroke-miterlimit:10;" d="M 129.690295 42.523418 C 129.690295 43.690448 128.742959 44.638912 127.575312 44.638912 C 126.407665 44.638912 125.460329 43.690448 125.460329 42.523418 C 125.460329 41.356387 126.407665 40.41394 127.575312 40.41394 C 128.742959 40.41394 129.690295 41.356387 129.690295 42.523418 Z M 129.690295 42.523418 " transform="matrix(1.95037,0,0,-1.948053,108.395758,190.509742)"/>
<path style="fill:none;stroke-width:0.3985;stroke-linecap:butt;stroke-linejoin:miter;stroke:rgb(0%,0%,0%);stroke-opacity:1;stroke-miterlimit:10;" d="M -3.187123 0.560443 L -38.693204 6.820701 " transform="matrix(1.95037,0,0,-1.948053,108.395758,190.509742)"/>
<path style="fill:none;stroke-width:0.3985;stroke-linecap:round;stroke-linejoin:round;stroke:rgb(0%,0%,0%);stroke-opacity:1;stroke-miterlimit:10;" d="M -2.070633 2.390033 C -1.693444 0.953426 -0.849196 0.278504 0.00210987 0.0014501 C -0.850105 -0.280998 -1.696282 -0.954937 -2.073033 -2.390216 " transform="matrix(1.922791,0.338572,0.338975,-1.920507,102.561858,189.482539)"/>
<path style="fill:none;stroke-width:0.3985;stroke-linecap:round;stroke-linejoin:round;stroke:rgb(0%,0%,0%);stroke-opacity:1;stroke-miterlimit:10;" d="M -2.070227 2.391176 C -1.693722 0.958521 -0.848425 0.277689 0.000563311 0.00226864 C -0.849678 -0.279839 -1.691558 -0.955062 -2.072584 -2.389065 " transform="matrix(-1.922791,-0.33859,-0.338993,1.920507,32.548727,177.152084)"/>
<path style=" stroke:none;fill-rule:nonzero;fill:rgb(0%,0%,0%);fill-opacity:1;" d="M 48.917969 164.300781 L 47.292969 164.117188 L 47.199219 164.546875 C 47.90625 164.667969 47.996094 164.757812 47.90625 165.21875 L 47.078125 169.964844 C 47.015625 170.273438 46.984375 170.363281 46.371094 170.273438 L 46.1875 170.242188 L 46.128906 170.671875 C 46.527344 170.699219 46.925781 170.761719 47.324219 170.824219 C 47.722656 170.914062 48.152344 170.976562 48.519531 171.066406 L 48.582031 170.640625 L 48.398438 170.609375 C 47.8125 170.515625 47.84375 170.425781 47.90625 170.117188 Z M 48.917969 164.300781 "/>
<path style=" stroke:none;fill-rule:nonzero;fill:rgb(0%,0%,0%);fill-opacity:1;" d="M 55.441406 170.1875 C 55.65625 169.023438 54.738281 167.734375 53.203125 167.492188 C 51.703125 167.214844 50.414062 168.101562 50.199219 169.265625 C 49.984375 170.429688 50.90625 171.59375 52.40625 171.871094 C 53.941406 172.113281 55.226562 171.347656 55.441406 170.1875 Z M 52.46875 171.53125 C 50.78125 171.226562 51.058594 169.816406 51.121094 169.328125 C 51.210938 168.898438 51.457031 167.492188 53.144531 167.796875 C 54.828125 168.074219 54.585938 169.480469 54.492188 169.910156 C 54.429688 170.398438 54.15625 171.808594 52.46875 171.53125 Z M 52.46875 171.53125 "/>
<path style=" stroke:none;fill-rule:nonzero;fill:rgb(0%,0%,0%);fill-opacity:1;" d="M 61.960938 170.445312 C 62.144531 169.40625 61.441406 169.007812 60.582031 168.851562 C 59.539062 168.667969 58.925781 169.160156 58.652344 169.496094 L 58.804688 168.546875 L 57.242188 168.363281 L 57.148438 168.792969 C 57.824219 168.914062 57.914062 169.007812 57.824219 169.464844 L 57.425781 171.792969 C 57.363281 172.097656 57.332031 172.191406 56.75 172.097656 L 56.566406 172.070312 L 56.503906 172.496094 C 56.902344 172.527344 57.300781 172.589844 57.730469 172.679688 C 58.128906 172.742188 58.558594 172.804688 58.925781 172.925781 L 58.988281 172.496094 L 58.804688 172.464844 C 58.222656 172.34375 58.253906 172.253906 58.3125 171.945312 L 58.589844 170.292969 C 58.773438 169.21875 59.816406 169.035156 60.429688 169.128906 C 61.164062 169.25 61.226562 169.710938 61.132812 170.292969 L 60.765625 172.375 C 60.703125 172.679688 60.675781 172.773438 60.03125 172.652344 L 59.878906 172.652344 L 59.816406 173.078125 C 60.214844 173.109375 60.644531 173.171875 61.011719 173.261719 C 61.441406 173.324219 61.839844 173.386719 62.269531 173.507812 L 62.328125 173.078125 L 62.144531 173.046875 C 61.503906 172.925781 61.53125 172.835938 61.59375 172.527344 Z M 61.960938 170.445312 "/>
<path style=" stroke:none;fill-rule:nonzero;fill:rgb(0%,0%,0%);fill-opacity:1;" d="M 67.949219 170.667969 C 68.472656 170.453125 68.871094 170.515625 69.023438 170.546875 C 68.992188 170.578125 68.960938 170.640625 68.929688 170.761719 C 68.898438 170.976562 68.992188 171.160156 69.238281 171.191406 C 69.453125 171.21875 69.605469 171.097656 69.636719 170.882812 C 69.667969 170.640625 69.542969 170.300781 69.054688 170.210938 C 68.839844 170.179688 68.347656 170.148438 67.734375 170.453125 C 67.550781 170.300781 67.152344 169.996094 66.570312 169.902344 C 65.4375 169.6875 64.515625 170.242188 64.394531 170.945312 C 64.300781 171.464844 64.578125 171.863281 64.730469 172.015625 C 64.425781 172.230469 64.332031 172.539062 64.300781 172.75 C 64.210938 173.242188 64.484375 173.609375 64.546875 173.671875 C 64.054688 173.730469 63.472656 173.945312 63.382812 174.4375 C 63.226562 175.171875 64.425781 175.90625 65.804688 176.152344 C 67.089844 176.363281 68.53125 176.179688 68.683594 175.386719 C 68.746094 174.957031 68.5625 174.40625 68.132812 174.128906 C 67.582031 173.699219 66.9375 173.609375 65.925781 173.425781 C 65.679688 173.363281 65.25 173.304688 65.222656 173.273438 C 64.792969 173.121094 64.730469 172.722656 64.761719 172.539062 C 64.792969 172.355469 64.914062 172.230469 64.945312 172.230469 C 64.976562 172.230469 65.007812 172.230469 65.035156 172.292969 C 65.375 172.539062 65.742188 172.660156 66.078125 172.722656 C 67.183594 172.90625 68.101562 172.382812 68.226562 171.617188 C 68.316406 171.191406 68.074219 170.792969 67.949219 170.667969 Z M 66.140625 172.414062 C 65.28125 172.261719 65.128906 171.648438 65.222656 171.097656 C 65.3125 170.609375 65.679688 170.058594 66.539062 170.210938 C 67.367188 170.363281 67.460938 170.976562 67.367188 171.464844 C 67.273438 172.015625 66.96875 172.566406 66.140625 172.414062 Z M 65.835938 174.160156 C 66.785156 174.3125 68.132812 174.558594 68.011719 175.261719 C 67.917969 175.722656 67 176.027344 65.835938 175.84375 C 64.730469 175.628906 63.933594 175.046875 64.023438 174.558594 C 64.085938 174.253906 64.484375 173.914062 65.222656 174.039062 Z M 65.835938 174.160156 "/>
<path style=" stroke:none;fill-rule:nonzero;fill:rgb(0%,0%,0%);fill-opacity:1;" d="M 72.875 169.304688 C 72.933594 168.96875 72.722656 168.664062 72.382812 168.601562 C 72.078125 168.539062 71.769531 168.722656 71.710938 169.089844 C 71.648438 169.429688 71.894531 169.734375 72.199219 169.796875 C 72.535156 169.855469 72.8125 169.613281 72.875 169.304688 Z M 71.003906 170.777344 L 70.910156 171.203125 C 71.554688 171.328125 71.648438 171.417969 71.554688 171.878906 L 71.15625 174.207031 C 71.097656 174.511719 71.066406 174.605469 70.453125 174.511719 L 70.269531 174.480469 L 70.207031 174.910156 C 70.574219 174.941406 71.003906 175.003906 71.402344 175.0625 C 71.769531 175.15625 72.199219 175.214844 72.507812 175.308594 L 72.566406 174.878906 C 71.953125 174.757812 71.894531 174.757812 71.984375 174.359375 L 72.566406 170.960938 Z M 71.003906 170.777344 "/>
<path style=" stroke:none;fill-rule:nonzero;fill:rgb(0%,0%,0%);fill-opacity:1;" d="M 76.273438 172.160156 L 77.957031 172.433594 L 78.050781 172.007812 L 76.363281 171.730469 L 76.671875 169.984375 L 76.273438 169.894531 C 76.089844 170.8125 75.445312 171.667969 74.464844 171.515625 L 74.402344 171.824219 L 75.414062 172.007812 L 74.984375 174.519531 C 74.800781 175.589844 75.660156 175.957031 76.210938 176.050781 C 76.945312 176.171875 77.589844 175.742188 77.742188 174.976562 L 77.835938 174.457031 L 77.40625 174.394531 L 77.316406 174.886719 C 77.191406 175.589844 76.703125 175.804688 76.363281 175.742188 C 75.660156 175.621094 75.8125 174.886719 75.84375 174.671875 Z M 76.273438 172.160156 "/>
<path style=" stroke:none;fill-rule:nonzero;fill:rgb(0%,0%,0%);fill-opacity:1;" d="M 83.300781 172.949219 L 83.207031 173.378906 C 83.914062 173.503906 84.003906 173.59375 83.914062 174.054688 L 83.636719 175.613281 C 83.484375 176.472656 82.71875 176.871094 81.921875 176.75 C 80.96875 176.5625 81 176.167969 81.09375 175.707031 L 81.644531 172.554688 L 79.988281 172.367188 L 79.898438 172.796875 C 80.601562 172.921875 80.664062 173.011719 80.570312 173.503906 L 80.203125 175.585938 C 80.113281 176.6875 81.183594 176.933594 81.796875 177.023438 C 82.59375 177.175781 83.175781 176.902344 83.515625 176.503906 L 83.363281 177.300781 L 85.015625 177.515625 L 85.078125 177.085938 C 84.34375 176.960938 84.28125 176.871094 84.375 176.378906 L 84.925781 173.132812 Z M 83.300781 172.949219 "/>
<path style=" stroke:none;fill-rule:nonzero;fill:rgb(0%,0%,0%);fill-opacity:1;" d="M 90.851562 171.765625 L 90.757812 172.195312 C 91.464844 172.316406 91.558594 172.441406 91.464844 172.898438 L 91.128906 174.765625 C 90.945312 174.550781 90.484375 174.125 89.6875 173.972656 C 88.246094 173.726562 86.925781 174.492188 86.710938 175.6875 C 86.496094 176.820312 87.386719 178.011719 88.796875 178.257812 C 89.59375 178.410156 90.207031 178.167969 90.546875 177.984375 L 90.421875 178.5625 L 92.078125 178.75 L 92.140625 178.320312 C 91.433594 178.195312 91.371094 178.105469 91.464844 177.613281 L 92.445312 171.949219 Z M 90.636719 177.429688 C 90.054688 178.042969 89.289062 178.042969 88.921875 177.984375 C 88.460938 177.890625 88 177.613281 87.785156 177.125 C 87.511719 176.726562 87.601562 176.175781 87.664062 175.871094 C 87.695312 175.59375 87.816406 174.949219 88.308594 174.613281 C 88.734375 174.308594 89.257812 174.214844 89.71875 174.277344 C 89.992188 174.339844 90.667969 174.523438 91.003906 175.289062 Z M 90.636719 177.429688 "/>
<g clip-path="url(#clip1)" clip-rule="nonzero">
<path style="fill:none;stroke-width:1.19553;stroke-linecap:butt;stroke-linejoin:miter;stroke:rgb(0%,0%,0%);stroke-opacity:1;stroke-miterlimit:10;" d="M 117.723417 -13.367727 L 137.423202 98.372453 " transform="matrix(1.95037,0,0,-1.948053,108.395758,190.509742)"/>
</g>
<path style="fill:none;stroke-width:0.3985;stroke-linecap:butt;stroke-linejoin:miter;stroke:rgb(0%,0%,100%);stroke-opacity:1;stroke-miterlimit:10;" d="M -13.459612 -4.486664 L 141.036299 47.013077 " transform="matrix(1.95037,0,0,-1.948053,108.395758,190.509742)"/>
<path style="fill:none;stroke-width:0.3985;stroke-linecap:butt;stroke-linejoin:miter;stroke:rgb(0%,0%,100%);stroke-opacity:1;stroke-miterlimit:10;" d="M 42.519344 0.00099053 C 42.519344 23.483974 23.482493 42.519407 0.00137382 42.519407 C -23.483751 42.519407 -42.520602 23.483974 -42.520602 0.00099053 C -42.520602 -23.483998 -23.483751 -42.519432 0.00137382 -42.519432 C 23.482493 -42.519432 42.519344 -23.483998 42.519344 0.00099053 Z M 42.519344 0.00099053 " transform="matrix(1.95037,0,0,-1.948053,108.395758,190.509742)"/>
<g clip-path="url(#clip2)" clip-rule="nonzero">
<path style="fill:none;stroke-width:0.3985;stroke-linecap:butt;stroke-linejoin:miter;stroke:rgb(55.29412%,52.549022%,0%);stroke-opacity:1;stroke-miterlimit:10;" d="M -9.850522 -55.890154 L 9.845258 55.846015 " transform="matrix(1.95037,0,0,-1.948053,108.395758,190.509742)"/>
</g>
<g clip-path="url(#clip3)" clip-rule="nonzero">
<path style="fill:none;stroke-width:0.3985;stroke-linecap:butt;stroke-linejoin:miter;stroke:rgb(74.901962%,50.196081%,25.098041%);stroke-opacity:1;stroke-miterlimit:10;" d="M 144.517208 87.592458 L -2.554231 38.567144 " transform="matrix(1.95037,0,0,-1.948053,108.395758,190.509742)"/>
</g>
<path style="fill:none;stroke-width:0.3985;stroke-linecap:butt;stroke-linejoin:miter;stroke:rgb(74.901962%,50.196081%,25.098041%);stroke-opacity:1;stroke-miterlimit:10;" d="M 133.635861 5.126301 L -20.844028 -46.367424 " transform="matrix(1.95037,0,0,-1.948053,108.395758,190.509742)"/>
<path style="fill:none;stroke-width:0.3985;stroke-linecap:butt;stroke-linejoin:miter;stroke:rgb(100%,0%,0%);stroke-opacity:1;stroke-miterlimit:10;" d="M 123.884106 44.86149 L 130.144937 80.361681 " transform="matrix(1.95037,0,0,-1.948053,108.395758,190.509742)"/>
<path style="fill:none;stroke-width:0.3985;stroke-linecap:round;stroke-linejoin:round;stroke:rgb(100%,0%,0%);stroke-opacity:1;stroke-miterlimit:10;" d="M -2.072347 2.392311 C -1.694961 0.955496 -0.849692 0.279709 0.00117599 -0.000969487 C -0.850825 -0.279167 -1.693226 -0.957919 -2.072941 -2.392098 " transform="matrix(-0.338993,1.920507,1.922791,0.33859,349.951482,103.49807)"/>
<path style="fill:none;stroke-width:0.3985;stroke-linecap:round;stroke-linejoin:round;stroke:rgb(100%,0%,0%);stroke-opacity:1;stroke-miterlimit:10;" d="M -2.071397 2.392572 C -1.695983 0.95541 -0.850714 0.279623 0.000154063 -0.00105551 C -0.851847 -0.279253 -1.692276 -0.957658 -2.073963 -2.392184 " transform="matrix(0.338993,-1.920507,-1.922791,-0.33859,362.294793,33.578063)"/>
<path style=" stroke:none;fill-rule:nonzero;fill:rgb(100%,0%,0%);fill-opacity:1;" d="M 337.078125 87.15625 L 336.894531 88.777344 L 337.324219 88.871094 C 337.445312 88.164062 337.539062 88.074219 338 88.164062 L 342.75 88.992188 C 343.058594 89.054688 343.148438 89.085938 343.058594 89.695312 L 343.027344 89.882812 L 343.457031 89.941406 C 343.484375 89.542969 343.546875 89.144531 343.609375 88.746094 C 343.699219 88.351562 343.761719 87.921875 343.855469 87.554688 L 343.425781 87.492188 L 343.394531 87.675781 C 343.300781 88.257812 343.210938 88.226562 342.902344 88.164062 Z M 337.078125 87.15625 "/>
<path style=" stroke:none;fill-rule:nonzero;fill:rgb(100%,0%,0%);fill-opacity:1;" d="M 342.96875 80.636719 C 341.804688 80.421875 340.519531 81.34375 340.273438 82.875 C 339.996094 84.375 340.886719 85.660156 342.050781 85.875 C 343.214844 86.089844 344.382812 85.171875 344.65625 83.667969 C 344.902344 82.136719 344.136719 80.851562 342.96875 80.636719 Z M 344.320312 83.609375 C 344.011719 85.292969 342.601562 85.015625 342.113281 84.957031 C 341.683594 84.863281 340.273438 84.617188 340.578125 82.933594 C 340.855469 81.25 342.265625 81.496094 342.695312 81.585938 C 343.183594 81.648438 344.59375 81.925781 344.320312 83.609375 Z M 344.320312 83.609375 "/>
<path style=" stroke:none;fill-rule:nonzero;fill:rgb(100%,0%,0%);fill-opacity:1;" d="M 343.230469 74.125 C 342.1875 73.941406 341.789062 74.648438 341.636719 75.503906 C 341.453125 76.546875 341.941406 77.160156 342.28125 77.433594 L 341.328125 77.28125 L 341.144531 78.84375 L 341.574219 78.933594 C 341.699219 78.261719 341.789062 78.167969 342.25 78.261719 L 344.578125 78.660156 C 344.886719 78.71875 344.976562 78.75 344.886719 79.332031 L 344.855469 79.515625 L 345.285156 79.578125 C 345.316406 79.179688 345.375 78.78125 345.46875 78.351562 C 345.53125 77.953125 345.589844 77.527344 345.714844 77.160156 L 345.285156 77.097656 L 345.253906 77.28125 C 345.132812 77.863281 345.039062 77.832031 344.734375 77.769531 L 343.078125 77.496094 C 342.003906 77.3125 341.820312 76.269531 341.914062 75.65625 C 342.035156 74.921875 342.496094 74.863281 343.078125 74.953125 L 345.164062 75.320312 C 345.46875 75.382812 345.5625 75.414062 345.4375 76.054688 L 345.4375 76.210938 L 345.867188 76.269531 C 345.898438 75.871094 345.960938 75.445312 346.050781 75.074219 C 346.113281 74.648438 346.175781 74.25 346.296875 73.820312 L 345.867188 73.757812 L 345.835938 73.941406 C 345.714844 74.585938 345.621094 74.554688 345.316406 74.496094 Z M 343.230469 74.125 "/>
<path style=" stroke:none;fill-rule:nonzero;fill:rgb(100%,0%,0%);fill-opacity:1;" d="M 343.453125 68.144531 C 343.238281 67.625 343.300781 67.226562 343.332031 67.074219 C 343.363281 67.105469 343.425781 67.136719 343.546875 67.167969 C 343.761719 67.195312 343.945312 67.105469 343.976562 66.859375 C 344.007812 66.644531 343.882812 66.492188 343.667969 66.460938 C 343.425781 66.429688 343.085938 66.554688 342.996094 67.042969 C 342.964844 67.257812 342.933594 67.746094 343.238281 68.359375 C 343.085938 68.542969 342.78125 68.941406 342.6875 69.523438 C 342.472656 70.65625 343.027344 71.574219 343.730469 71.699219 C 344.25 71.789062 344.652344 71.515625 344.804688 71.363281 C 345.019531 71.667969 345.324219 71.757812 345.539062 71.789062 C 346.03125 71.882812 346.398438 71.605469 346.460938 71.546875 C 346.519531 72.035156 346.734375 72.617188 347.226562 72.707031 C 347.960938 72.863281 348.699219 71.667969 348.941406 70.289062 C 349.15625 69.003906 348.972656 67.5625 348.175781 67.410156 C 347.746094 67.351562 347.195312 67.535156 346.917969 67.960938 C 346.488281 68.511719 346.398438 69.15625 346.214844 70.167969 C 346.152344 70.414062 346.089844 70.839844 346.0625 70.871094 C 345.90625 71.300781 345.507812 71.363281 345.324219 71.332031 C 345.140625 71.300781 345.019531 71.179688 345.019531 71.148438 C 345.019531 71.117188 345.019531 71.085938 345.078125 71.054688 C 345.324219 70.71875 345.449219 70.351562 345.507812 70.015625 C 345.691406 68.910156 345.171875 67.992188 344.40625 67.871094 C 343.976562 67.777344 343.578125 68.023438 343.453125 68.144531 Z M 345.203125 69.953125 C 345.050781 70.808594 344.4375 70.964844 343.882812 70.871094 C 343.394531 70.78125 342.839844 70.414062 342.996094 69.554688 C 343.148438 68.726562 343.761719 68.636719 344.25 68.726562 C 344.804688 68.820312 345.355469 69.125 345.203125 69.953125 Z M 346.949219 70.257812 C 347.101562 69.308594 347.347656 67.960938 348.054688 68.085938 C 348.511719 68.175781 348.820312 69.09375 348.636719 70.257812 C 348.421875 71.363281 347.839844 72.15625 347.347656 72.066406 C 347.042969 72.003906 346.703125 71.605469 346.828125 70.871094 Z M 346.949219 70.257812 "/>
<path style=" stroke:none;fill-rule:nonzero;fill:rgb(100%,0%,0%);fill-opacity:1;" d="M 342.089844 63.226562 C 341.753906 63.167969 341.445312 63.378906 341.386719 63.71875 C 341.324219 64.023438 341.507812 64.328125 341.875 64.390625 C 342.210938 64.453125 342.519531 64.207031 342.582031 63.902344 C 342.640625 63.5625 342.398438 63.289062 342.089844 63.226562 Z M 343.5625 65.09375 L 343.992188 65.1875 C 344.113281 64.542969 344.207031 64.453125 344.664062 64.542969 L 346.996094 64.941406 C 347.300781 65.003906 347.394531 65.035156 347.300781 65.648438 L 347.269531 65.832031 L 347.699219 65.890625 C 347.730469 65.523438 347.792969 65.09375 347.855469 64.699219 C 347.945312 64.328125 348.007812 63.902344 348.097656 63.59375 L 347.671875 63.535156 C 347.546875 64.144531 347.546875 64.207031 347.148438 64.117188 L 343.746094 63.535156 Z M 343.5625 65.09375 "/>
<path style=" stroke:none;fill-rule:nonzero;fill:rgb(100%,0%,0%);fill-opacity:1;" d="M 344.945312 59.832031 L 345.222656 58.148438 L 344.792969 58.058594 L 344.519531 59.742188 L 342.769531 59.433594 L 342.679688 59.832031 C 343.597656 60.015625 344.457031 60.660156 344.304688 61.640625 L 344.609375 61.703125 L 344.792969 60.691406 L 347.308594 61.121094 C 348.378906 61.304688 348.75 60.445312 348.839844 59.894531 C 348.964844 59.160156 348.535156 58.515625 347.769531 58.363281 L 347.246094 58.273438 L 347.183594 58.699219 L 347.675781 58.792969 C 348.378906 58.914062 348.59375 59.40625 348.535156 59.742188 C 348.410156 60.445312 347.675781 60.292969 347.460938 60.261719 Z M 344.945312 59.832031 "/>
<path style=" stroke:none;fill-rule:nonzero;fill:rgb(100%,0%,0%);fill-opacity:1;" d="M 345.738281 52.8125 L 346.167969 52.90625 C 346.289062 52.203125 346.382812 52.109375 346.84375 52.203125 L 348.40625 52.476562 C 349.265625 52.628906 349.664062 53.394531 349.539062 54.191406 C 349.355469 55.140625 348.957031 55.109375 348.5 55.019531 L 345.339844 54.46875 L 345.15625 56.121094 L 345.585938 56.210938 C 345.707031 55.507812 345.800781 55.449219 346.289062 55.539062 L 348.375 55.90625 C 349.480469 56 349.726562 54.925781 349.816406 54.3125 C 349.96875 53.519531 349.695312 52.9375 349.296875 52.597656 L 350.09375 52.753906 L 350.308594 51.097656 L 349.878906 51.039062 C 349.753906 51.773438 349.664062 51.832031 349.171875 51.742188 L 345.921875 51.191406 Z M 345.738281 52.8125 "/>
<path style=" stroke:none;fill-rule:nonzero;fill:rgb(100%,0%,0%);fill-opacity:1;" d="M 344.554688 45.269531 L 344.980469 45.363281 C 345.105469 44.660156 345.226562 44.566406 345.6875 44.660156 L 347.558594 44.996094 C 347.34375 45.179688 346.914062 45.640625 346.761719 46.433594 C 346.515625 47.875 347.28125 49.191406 348.476562 49.40625 C 349.613281 49.621094 350.808594 48.730469 351.050781 47.324219 C 351.207031 46.527344 350.960938 45.914062 350.777344 45.578125 L 351.359375 45.699219 L 351.542969 44.046875 L 351.113281 43.984375 C 350.992188 44.6875 350.898438 44.75 350.410156 44.660156 L 344.738281 43.679688 Z M 350.226562 45.484375 C 350.839844 46.066406 350.839844 46.832031 350.777344 47.199219 C 350.683594 47.660156 350.410156 48.121094 349.917969 48.332031 C 349.519531 48.609375 348.96875 48.515625 348.660156 48.457031 C 348.386719 48.425781 347.742188 48.304688 347.402344 47.8125 C 347.097656 47.382812 347.003906 46.863281 347.066406 46.40625 C 347.128906 46.128906 347.3125 45.453125 348.078125 45.117188 Z M 350.226562 45.484375 "/>
<path style="fill:none;stroke-width:0.3985;stroke-linecap:butt;stroke-linejoin:miter;stroke:rgb(100%,0%,0%);stroke-opacity:1;stroke-miterlimit:10;" d="M 122.760521 38.488941 L 116.499691 2.988749 " transform="matrix(1.95037,0,0,-1.948053,108.395758,190.509742)"/>
<path style="fill:none;stroke-width:0.3985;stroke-linecap:round;stroke-linejoin:round;stroke:rgb(100%,0%,0%);stroke-opacity:1;stroke-miterlimit:10;" d="M -2.070984 2.389577 C -1.694293 0.956703 -0.849024 0.280916 0.00184413 0.000237468 C -0.850157 -0.27796 -1.692558 -0.956712 -2.072273 -2.390891 " transform="matrix(0.338993,-1.920507,-1.922791,-0.33859,347.894363,115.15206)"/>
<path style="fill:none;stroke-width:0.3985;stroke-linecap:round;stroke-linejoin:round;stroke:rgb(100%,0%,0%);stroke-opacity:1;stroke-miterlimit:10;" d="M -2.072036 2.391355 C -1.692677 0.954889 -0.851353 0.278406 -0.00117972 0.00166771 C -0.848541 -0.279775 -1.693609 -0.954934 -2.070657 -2.392706 " transform="matrix(-0.338993,1.920507,1.922791,0.33859,335.551081,185.072013)"/>
<path style=" stroke:none;fill-rule:nonzero;fill:rgb(100%,0%,0%);fill-opacity:1;" d="M 322.679688 168.726562 L 322.496094 170.351562 L 322.925781 170.441406 C 323.046875 169.738281 323.136719 169.648438 323.597656 169.738281 L 328.351562 170.566406 C 328.65625 170.625 328.75 170.65625 328.65625 171.269531 L 328.625 171.453125 L 329.054688 171.515625 C 329.085938 171.117188 329.148438 170.71875 329.210938 170.320312 C 329.300781 169.921875 329.363281 169.492188 329.453125 169.125 L 329.023438 169.066406 L 328.996094 169.25 C 328.902344 169.832031 328.8125 169.800781 328.503906 169.738281 Z M 322.679688 168.726562 "/>
<path style=" stroke:none;fill-rule:nonzero;fill:rgb(100%,0%,0%);fill-opacity:1;" d="M 328.570312 162.210938 C 327.40625 161.996094 326.117188 162.914062 325.871094 164.445312 C 325.597656 165.945312 326.484375 167.234375 327.652344 167.445312 C 328.816406 167.660156 329.980469 166.742188 330.257812 165.242188 C 330.503906 163.710938 329.734375 162.425781 328.570312 162.210938 Z M 329.921875 165.179688 C 329.613281 166.863281 328.203125 166.589844 327.710938 166.527344 C 327.285156 166.4375 325.871094 166.191406 326.179688 164.507812 C 326.457031 162.824219 327.867188 163.066406 328.296875 163.160156 C 328.785156 163.222656 330.195312 163.496094 329.921875 165.179688 Z M 329.921875 165.179688 "/>
<path style=" stroke:none;fill-rule:nonzero;fill:rgb(100%,0%,0%);fill-opacity:1;" d="M 328.832031 155.699219 C 327.789062 155.515625 327.390625 156.21875 327.238281 157.078125 C 327.054688 158.117188 327.542969 158.730469 327.878906 159.007812 L 326.929688 158.855469 L 326.746094 160.414062 L 327.175781 160.507812 C 327.296875 159.832031 327.390625 159.742188 327.851562 159.832031 L 330.179688 160.230469 C 330.488281 160.292969 330.578125 160.324219 330.488281 160.90625 L 330.457031 161.089844 L 330.886719 161.148438 C 330.914062 160.753906 330.976562 160.355469 331.070312 159.925781 C 331.128906 159.527344 331.191406 159.097656 331.316406 158.730469 L 330.886719 158.667969 L 330.855469 158.855469 C 330.730469 159.433594 330.640625 159.40625 330.332031 159.34375 L 328.679688 159.066406 C 327.605469 158.882812 327.421875 157.84375 327.511719 157.230469 C 327.636719 156.496094 328.09375 156.433594 328.679688 156.527344 L 330.761719 156.894531 C 331.070312 156.953125 331.160156 156.984375 331.039062 157.628906 L 331.039062 157.78125 L 331.46875 157.84375 C 331.5 157.445312 331.558594 157.015625 331.652344 156.648438 C 331.714844 156.21875 331.773438 155.820312 331.898438 155.394531 L 331.46875 155.332031 L 331.4375 155.515625 C 331.316406 156.160156 331.222656 156.128906 330.914062 156.066406 Z M 328.832031 155.699219 "/>
<path style=" stroke:none;fill-rule:nonzero;fill:rgb(100%,0%,0%);fill-opacity:1;" d="M 329.054688 149.71875 C 328.839844 149.199219 328.902344 148.800781 328.933594 148.648438 C 328.964844 148.675781 329.023438 148.707031 329.148438 148.738281 C 329.363281 148.769531 329.546875 148.675781 329.578125 148.433594 C 329.605469 148.21875 329.484375 148.066406 329.269531 148.035156 C 329.023438 148.003906 328.6875 148.125 328.59375 148.617188 C 328.566406 148.832031 328.535156 149.320312 328.839844 149.933594 C 328.6875 150.117188 328.378906 150.515625 328.289062 151.097656 C 328.074219 152.230469 328.625 153.148438 329.332031 153.269531 C 329.851562 153.363281 330.25 153.085938 330.402344 152.933594 C 330.617188 153.242188 330.925781 153.332031 331.140625 153.363281 C 331.628906 153.453125 332 153.179688 332.058594 153.117188 C 332.121094 153.609375 332.335938 154.191406 332.828125 154.28125 C 333.5625 154.433594 334.296875 153.242188 334.542969 151.863281 C 334.757812 150.578125 334.574219 149.136719 333.777344 148.984375 C 333.347656 148.921875 332.796875 149.105469 332.519531 149.535156 C 332.089844 150.085938 332 150.730469 331.816406 151.738281 C 331.753906 151.984375 331.691406 152.414062 331.660156 152.445312 C 331.507812 152.871094 331.109375 152.933594 330.925781 152.902344 C 330.742188 152.871094 330.617188 152.75 330.617188 152.71875 C 330.617188 152.6875 330.617188 152.660156 330.679688 152.628906 C 330.925781 152.292969 331.046875 151.921875 331.109375 151.585938 C 331.292969 150.484375 330.773438 149.566406 330.003906 149.441406 C 329.578125 149.351562 329.179688 149.597656 329.054688 149.71875 Z M 330.804688 151.527344 C 330.648438 152.382812 330.035156 152.535156 329.484375 152.445312 C 328.992188 152.351562 328.441406 151.984375 328.59375 151.128906 C 328.75 150.300781 329.363281 150.207031 329.851562 150.300781 C 330.402344 150.390625 330.957031 150.699219 330.804688 151.527344 Z M 332.550781 151.832031 C 332.703125 150.882812 332.949219 149.535156 333.652344 149.65625 C 334.113281 149.75 334.421875 150.667969 334.238281 151.832031 C 334.023438 152.933594 333.441406 153.730469 332.949219 153.636719 C 332.640625 153.578125 332.304688 153.179688 332.429688 152.445312 Z M 332.550781 151.832031 "/>
<path style=" stroke:none;fill-rule:nonzero;fill:rgb(100%,0%,0%);fill-opacity:1;" d="M 327.691406 144.800781 C 327.351562 144.738281 327.046875 144.953125 326.984375 145.289062 C 326.925781 145.597656 327.109375 145.902344 327.476562 145.964844 C 327.8125 146.023438 328.121094 145.78125 328.179688 145.472656 C 328.242188 145.136719 327.996094 144.863281 327.691406 144.800781 Z M 329.160156 146.667969 L 329.589844 146.761719 C 329.714844 146.117188 329.804688 146.023438 330.265625 146.117188 L 332.597656 146.515625 C 332.902344 146.578125 332.996094 146.605469 332.902344 147.21875 L 332.871094 147.402344 L 333.300781 147.464844 C 333.332031 147.097656 333.394531 146.667969 333.453125 146.269531 C 333.546875 145.902344 333.609375 145.472656 333.699219 145.167969 L 333.269531 145.105469 C 333.148438 145.71875 333.148438 145.78125 332.75 145.6875 L 329.347656 145.105469 Z M 329.160156 146.667969 "/>
<path style=" stroke:none;fill-rule:nonzero;fill:rgb(100%,0%,0%);fill-opacity:1;" d="M 330.546875 141.40625 L 330.824219 139.722656 L 330.394531 139.628906 L 330.117188 141.3125 L 328.371094 141.007812 L 328.277344 141.40625 C 329.199219 141.589844 330.058594 142.234375 329.902344 143.210938 L 330.210938 143.273438 L 330.394531 142.261719 L 332.90625 142.691406 C 333.980469 142.875 334.347656 142.019531 334.441406 141.46875 C 334.5625 140.730469 334.132812 140.089844 333.367188 139.9375 L 332.847656 139.84375 L 332.785156 140.273438 L 333.277344 140.363281 C 333.980469 140.488281 334.195312 140.976562 334.132812 141.3125 C 334.011719 142.019531 333.277344 141.867188 333.0625 141.835938 Z M 330.546875 141.40625 "/>
<path style=" stroke:none;fill-rule:nonzero;fill:rgb(100%,0%,0%);fill-opacity:1;" d="M 331.339844 134.386719 L 331.769531 134.476562 C 331.890625 133.773438 331.984375 133.683594 332.441406 133.773438 L 334.007812 134.050781 C 334.867188 134.203125 335.265625 134.96875 335.140625 135.765625 C 334.957031 136.714844 334.558594 136.683594 334.097656 136.589844 L 330.941406 136.039062 L 330.757812 137.695312 L 331.1875 137.785156 C 331.308594 137.082031 331.402344 137.019531 331.890625 137.113281 L 333.976562 137.480469 C 335.078125 137.570312 335.324219 136.5 335.417969 135.886719 C 335.570312 135.089844 335.292969 134.507812 334.894531 134.171875 L 335.691406 134.324219 L 335.90625 132.671875 L 335.476562 132.609375 C 335.355469 133.34375 335.265625 133.40625 334.773438 133.316406 L 331.523438 132.761719 Z M 331.339844 134.386719 "/>
<path style=" stroke:none;fill-rule:nonzero;fill:rgb(100%,0%,0%);fill-opacity:1;" d="M 330.152344 126.84375 L 330.582031 126.9375 C 330.703125 126.230469 330.828125 126.140625 331.289062 126.230469 L 333.15625 126.570312 C 332.941406 126.753906 332.515625 127.210938 332.359375 128.007812 C 332.117188 129.445312 332.882812 130.765625 334.078125 130.976562 C 335.210938 131.191406 336.40625 130.304688 336.652344 128.894531 C 336.804688 128.097656 336.5625 127.488281 336.378906 127.148438 L 336.960938 127.273438 L 337.144531 125.617188 L 336.714844 125.558594 C 336.589844 126.261719 336.5 126.324219 336.007812 126.230469 L 330.335938 125.25 Z M 335.824219 127.058594 C 336.4375 127.640625 336.4375 128.40625 336.378906 128.773438 C 336.285156 129.234375 336.007812 129.691406 335.519531 129.90625 C 335.121094 130.183594 334.566406 130.089844 334.261719 130.027344 C 333.984375 130 333.339844 129.875 333.003906 129.386719 C 332.699219 128.957031 332.605469 128.4375 332.667969 127.976562 C 332.730469 127.703125 332.914062 127.027344 333.679688 126.691406 Z M 335.824219 127.058594 "/>
<path style="fill-rule:nonzero;fill:rgb(100%,0%,0%);fill-opacity:1;stroke-width:0.3985;stroke-linecap:butt;stroke-linejoin:miter;stroke:rgb(100%,0%,0%);stroke-opacity:1;stroke-miterlimit:10;" d="M 137.088731 84.410194 C 137.088731 85.577225 136.143397 86.523683 134.97575 86.523683 C 133.808103 86.523683 132.860767 85.577225 132.860767 84.410194 C 132.860767 83.243164 133.808103 82.294701 134.97575 82.294701 C 136.143397 82.294701 137.088731 83.243164 137.088731 84.410194 Z M 137.088731 84.410194 " transform="matrix(1.95037,0,0,-1.948053,108.395758,190.509742)"/>
<path style="fill-rule:nonzero;fill:rgb(100%,0%,0%);fill-opacity:1;stroke-width:0.3985;stroke-linecap:butt;stroke-linejoin:miter;stroke:rgb(100%,0%,0%);stroke-opacity:1;stroke-miterlimit:10;" d="M 122.30588 0.638646 C 122.30588 1.805677 121.358544 2.752135 120.190897 2.752135 C 119.02325 2.752135 118.075914 1.805677 118.075914 0.638646 C 118.075914 -0.528384 119.02325 -1.470832 120.190897 -1.470832 C 121.358544 -1.470832 122.30588 -0.528384 122.30588 0.638646 Z M 122.30588 0.638646 " transform="matrix(1.95037,0,0,-1.948053,108.395758,190.509742)"/>
</g>
</svg>
