<?xml version="1.0" encoding="UTF-8"?>
<svg xmlns="http://www.w3.org/2000/svg" xmlns:xlink="http://www.w3.org/1999/xlink" width="503pt" height="300pt" viewBox="0 0 503 300" version="1.1">
<g id="surface1">
<path style=" stroke:none;fill-rule:nonzero;fill:rgb(0%,0%,0%);fill-opacity:1;" d="M 105.46875 41.960938 C 105.796875 40.722656 105.960938 40.144531 106.953125 40.0625 C 107.367188 39.980469 109.097656 39.980469 110.089844 39.980469 C 113.804688 39.980469 119.585938 39.980469 119.585938 45.179688 C 119.585938 46.910156 118.757812 50.542969 116.777344 52.523438 C 115.375 53.925781 112.648438 55.578125 107.945312 55.578125 L 102.082031 55.578125 Z M 112.980469 56.238281 C 118.261719 55.082031 124.453125 51.449219 124.453125 46.167969 C 124.453125 41.710938 119.75 38.328125 112.898438 38.328125 L 98.035156 38.328125 C 97.046875 38.328125 96.550781 38.328125 96.550781 39.402344 C 96.550781 39.980469 97.046875 39.980469 98.035156 39.980469 C 98.121094 39.980469 99.109375 39.980469 100.019531 40.0625 C 100.925781 40.144531 101.421875 40.226562 101.421875 40.886719 C 101.421875 41.132812 101.339844 41.300781 101.175781 41.878906 L 94.15625 69.9375 C 93.660156 71.917969 93.578125 72.328125 89.449219 72.328125 C 88.542969 72.328125 88.046875 72.328125 88.046875 73.402344 C 88.046875 73.980469 88.625 73.980469 88.789062 73.980469 C 90.195312 73.980469 93.910156 73.816406 95.3125 73.816406 C 96.796875 73.816406 100.511719 73.980469 102 73.980469 C 102.414062 73.980469 102.988281 73.980469 102.988281 72.90625 C 102.988281 72.328125 102.578125 72.328125 101.585938 72.328125 C 99.605469 72.328125 98.203125 72.328125 98.203125 71.421875 C 98.203125 71.089844 98.285156 70.84375 98.285156 70.515625 L 101.75 56.730469 L 107.945312 56.730469 C 112.730469 56.730469 113.640625 59.621094 113.640625 61.4375 C 113.640625 62.261719 113.226562 63.828125 112.898438 65.066406 C 112.566406 66.550781 112.070312 68.449219 112.070312 69.523438 C 112.070312 75.136719 118.34375 75.136719 119.007812 75.136719 C 123.464844 75.136719 125.28125 69.855469 125.28125 69.109375 C 125.28125 68.53125 124.703125 68.53125 124.703125 68.53125 C 124.207031 68.53125 124.125 68.863281 123.960938 69.191406 C 122.722656 73.070312 120.410156 73.980469 119.253906 73.980469 C 117.519531 73.980469 117.191406 72.824219 117.191406 70.761719 C 117.191406 69.191406 117.4375 66.550781 117.683594 64.820312 C 117.769531 64.160156 117.851562 63.167969 117.851562 62.425781 C 117.851562 58.382812 114.382812 56.730469 112.980469 56.238281 Z M 112.980469 56.238281 "/>
<path style=" stroke:none;fill-rule:nonzero;fill:rgb(0%,0%,0%);fill-opacity:1;" d="M 411.785156 37.75 C 411.785156 37.585938 411.621094 37.171875 411.207031 37.171875 C 410.960938 37.171875 410.878906 37.253906 410.21875 38 L 407.742188 40.96875 C 406.421875 38.492188 403.695312 37.171875 400.3125 37.171875 C 393.625 37.171875 387.351562 43.199219 387.351562 49.550781 C 387.351562 53.761719 390.15625 56.152344 392.796875 56.898438 L 398.414062 58.382812 C 400.3125 58.878906 403.199219 59.621094 403.199219 63.910156 C 403.199219 68.617188 398.90625 73.484375 393.789062 73.484375 C 390.488281 73.484375 384.707031 72.328125 384.707031 65.890625 C 384.707031 64.65625 384.957031 63.417969 384.957031 63.085938 C 385.039062 62.839844 385.121094 62.839844 385.121094 62.671875 C 385.121094 62.179688 384.707031 62.179688 384.460938 62.179688 C 384.210938 62.179688 384.128906 62.179688 383.964844 62.34375 C 383.71875 62.589844 380.828125 74.476562 380.828125 74.640625 C 380.828125 74.886719 381.074219 75.136719 381.40625 75.136719 C 381.652344 75.136719 381.734375 75.050781 382.3125 74.308594 L 384.875 71.339844 C 387.101562 74.390625 390.652344 75.136719 393.707031 75.136719 C 400.804688 75.136719 406.914062 68.203125 406.914062 61.683594 C 406.914062 58.136719 405.183594 56.320312 404.4375 55.660156 C 403.199219 54.421875 402.457031 54.171875 397.753906 53.019531 C 396.597656 52.6875 394.78125 52.191406 394.285156 52.109375 C 392.882812 51.613281 391.066406 50.128906 391.066406 47.324219 C 391.066406 43.113281 395.273438 38.660156 400.230469 38.660156 C 404.523438 38.660156 407.742188 40.886719 407.742188 46.746094 C 407.742188 48.398438 407.492188 49.386719 407.492188 49.632812 C 407.492188 49.71875 407.492188 50.210938 408.152344 50.210938 C 408.648438 50.210938 408.730469 50.046875 408.980469 49.140625 Z M 411.785156 37.75 "/>
<path style=" stroke:none;fill-rule:nonzero;fill:rgb(0%,0%,0%);fill-opacity:1;" d="M 67.828125 244.945312 C 75.917969 241.890625 83.597656 232.566406 83.597656 222.496094 C 83.597656 214.160156 78.066406 208.46875 70.304688 208.46875 C 58.996094 208.46875 47.519531 220.351562 47.519531 232.480469 C 47.519531 241.148438 53.382812 246.429688 60.894531 246.429688 C 62.214844 246.429688 63.949219 246.183594 66.011719 245.605469 C 65.765625 248.90625 65.765625 248.988281 65.765625 249.648438 C 65.765625 251.296875 65.765625 255.425781 70.140625 255.425781 C 76.332031 255.425781 78.808594 245.851562 78.808594 245.273438 C 78.808594 244.945312 78.476562 244.777344 78.230469 244.777344 C 77.816406 244.777344 77.734375 245.027344 77.652344 245.355469 C 76.332031 249.070312 73.359375 250.308594 71.542969 250.308594 C 69.148438 250.308594 68.324219 248.90625 67.828125 244.945312 Z M 57.921875 244.53125 C 53.875 242.964844 52.144531 238.835938 52.144531 234.132812 C 52.144531 230.585938 53.464844 223.15625 57.425781 217.546875 C 61.222656 212.179688 66.175781 209.789062 69.976562 209.789062 C 75.175781 209.789062 78.972656 213.914062 78.972656 220.847656 C 78.972656 226.046875 76.332031 238.257812 67.582031 243.210938 C 67.25 241.394531 66.753906 237.515625 62.957031 237.515625 C 60.234375 237.515625 57.675781 240.15625 57.675781 242.878906 C 57.675781 243.953125 57.921875 244.53125 57.921875 244.53125 Z M 61.222656 245.109375 C 60.480469 245.109375 58.746094 245.109375 58.746094 242.878906 C 58.746094 240.816406 60.730469 238.671875 62.957031 238.671875 C 65.1875 238.671875 66.175781 239.992188 66.175781 243.128906 C 66.175781 243.953125 66.09375 243.953125 65.597656 244.199219 C 64.195312 244.777344 62.628906 245.109375 61.222656 245.109375 Z M 61.222656 245.109375 "/>
<path style=" stroke:none;fill-rule:nonzero;fill:rgb(0%,0%,0%);fill-opacity:1;" d="M 103.492188 257.816406 C 103.492188 257.652344 103.492188 257.570312 102.582031 256.664062 C 96.0625 250.058594 94.410156 240.238281 94.410156 232.234375 C 94.410156 223.15625 96.390625 214.078125 102.832031 207.558594 C 103.492188 206.898438 103.492188 206.816406 103.492188 206.652344 C 103.492188 206.320312 103.324219 206.15625 102.996094 206.15625 C 102.5 206.15625 97.792969 209.703125 94.65625 216.308594 C 92.015625 222.085938 91.4375 227.859375 91.4375 232.234375 C 91.4375 236.277344 92.015625 242.632812 94.820312 248.492188 C 97.960938 254.929688 102.5 258.3125 102.996094 258.3125 C 103.324219 258.3125 103.492188 258.148438 103.492188 257.816406 Z M 103.492188 257.816406 "/>
<path style=" stroke:none;fill-rule:nonzero;fill:rgb(0%,0%,0%);fill-opacity:1;" d="M 126.105469 213.253906 C 126.433594 212.015625 126.601562 211.4375 127.589844 211.355469 C 128.003906 211.273438 129.738281 211.273438 130.726562 211.273438 C 134.441406 211.273438 140.222656 211.273438 140.222656 216.472656 C 140.222656 218.207031 139.394531 221.835938 137.414062 223.816406 C 136.011719 225.21875 133.289062 226.871094 128.582031 226.871094 L 122.71875 226.871094 Z M 133.617188 227.53125 C 138.902344 226.375 145.09375 222.746094 145.09375 217.460938 C 145.09375 213.007812 140.386719 209.621094 133.535156 209.621094 L 118.675781 209.621094 C 117.683594 209.621094 117.1875 209.621094 117.1875 210.695312 C 117.1875 211.273438 117.683594 211.273438 118.675781 211.273438 C 118.757812 211.273438 119.746094 211.273438 120.65625 211.355469 C 121.5625 211.4375 122.058594 211.519531 122.058594 212.179688 C 122.058594 212.429688 121.976562 212.59375 121.8125 213.171875 L 114.792969 241.230469 C 114.300781 243.210938 114.214844 243.625 110.089844 243.625 C 109.179688 243.625 108.683594 243.625 108.683594 244.695312 C 108.683594 245.273438 109.261719 245.273438 109.429688 245.273438 C 110.832031 245.273438 114.546875 245.109375 115.949219 245.109375 C 117.4375 245.109375 121.152344 245.273438 122.636719 245.273438 C 123.050781 245.273438 123.628906 245.273438 123.628906 244.199219 C 123.628906 243.625 123.214844 243.625 122.226562 243.625 C 120.242188 243.625 118.839844 243.625 118.839844 242.714844 C 118.839844 242.386719 118.921875 242.136719 118.921875 241.808594 L 122.390625 228.027344 L 128.582031 228.027344 C 133.371094 228.027344 134.277344 230.914062 134.277344 232.730469 C 134.277344 233.554688 133.863281 235.125 133.535156 236.359375 C 133.203125 237.847656 132.710938 239.746094 132.710938 240.816406 C 132.710938 246.429688 138.984375 246.429688 139.644531 246.429688 C 144.101562 246.429688 145.917969 241.148438 145.917969 240.40625 C 145.917969 239.828125 145.339844 239.828125 145.339844 239.828125 C 144.84375 239.828125 144.761719 240.15625 144.597656 240.488281 C 143.359375 244.367188 141.046875 245.273438 139.890625 245.273438 C 138.15625 245.273438 137.828125 244.117188 137.828125 242.054688 C 137.828125 240.488281 138.074219 237.847656 138.324219 236.113281 C 138.40625 235.453125 138.488281 234.464844 138.488281 233.71875 C 138.488281 229.675781 135.019531 228.027344 133.617188 227.53125 Z M 133.617188 227.53125 "/>
<path style=" stroke:none;fill-rule:nonzero;fill:rgb(0%,0%,0%);fill-opacity:1;" d="M 161.695312 232.234375 C 161.695312 228.191406 161.117188 221.835938 158.230469 215.976562 C 155.09375 209.539062 150.632812 206.15625 150.054688 206.15625 C 149.808594 206.15625 149.5625 206.402344 149.5625 206.652344 C 149.5625 206.816406 149.5625 206.898438 150.550781 207.890625 C 155.671875 213.007812 158.640625 221.339844 158.640625 232.234375 C 158.640625 241.148438 156.742188 250.308594 150.222656 256.910156 C 149.5625 257.570312 149.5625 257.652344 149.5625 257.816406 C 149.5625 258.066406 149.808594 258.3125 150.054688 258.3125 C 150.632812 258.3125 155.339844 254.765625 158.394531 248.164062 C 161.035156 242.386719 161.695312 236.609375 161.695312 232.234375 Z M 161.695312 232.234375 "/>
<path style=" stroke:none;fill-rule:nonzero;fill:rgb(0%,0%,0%);fill-opacity:1;" d="M 360.027344 244.945312 C 368.117188 241.890625 375.792969 232.566406 375.792969 222.496094 C 375.792969 214.160156 370.261719 208.46875 362.503906 208.46875 C 351.191406 208.46875 339.71875 220.351562 339.71875 232.480469 C 339.71875 241.148438 345.578125 246.429688 353.089844 246.429688 C 354.410156 246.429688 356.144531 246.183594 358.210938 245.605469 C 357.960938 248.90625 357.960938 248.988281 357.960938 249.648438 C 357.960938 251.296875 357.960938 255.425781 362.335938 255.425781 C 368.527344 255.425781 371.003906 245.851562 371.003906 245.273438 C 371.003906 244.945312 370.675781 244.777344 370.429688 244.777344 C 370.015625 244.777344 369.933594 245.027344 369.851562 245.355469 C 368.527344 249.070312 365.558594 250.308594 363.742188 250.308594 C 361.347656 250.308594 360.519531 248.90625 360.027344 244.945312 Z M 350.117188 244.53125 C 346.074219 242.964844 344.339844 238.835938 344.339844 234.132812 C 344.339844 230.585938 345.660156 223.15625 349.625 217.546875 C 353.421875 212.179688 358.375 209.789062 362.171875 209.789062 C 367.375 209.789062 371.171875 213.914062 371.171875 220.847656 C 371.171875 226.046875 368.527344 238.257812 359.777344 243.210938 C 359.449219 241.394531 358.953125 237.515625 355.15625 237.515625 C 352.429688 237.515625 349.871094 240.15625 349.871094 242.878906 C 349.871094 243.953125 350.117188 244.53125 350.117188 244.53125 Z M 353.421875 245.109375 C 352.679688 245.109375 350.945312 245.109375 350.945312 242.878906 C 350.945312 240.816406 352.925781 238.671875 355.15625 238.671875 C 357.382812 238.671875 358.375 239.992188 358.375 243.128906 C 358.375 243.953125 358.292969 243.953125 357.796875 244.199219 C 356.394531 244.777344 354.824219 245.109375 353.421875 245.109375 Z M 353.421875 245.109375 "/>
<path style=" stroke:none;fill-rule:nonzero;fill:rgb(0%,0%,0%);fill-opacity:1;" d="M 395.6875 257.816406 C 395.6875 257.652344 395.6875 257.570312 394.78125 256.664062 C 388.257812 250.058594 386.605469 240.238281 386.605469 232.234375 C 386.605469 223.15625 388.589844 214.078125 395.027344 207.558594 C 395.6875 206.898438 395.6875 206.816406 395.6875 206.652344 C 395.6875 206.320312 395.523438 206.15625 395.191406 206.15625 C 394.699219 206.15625 389.992188 209.703125 386.855469 216.308594 C 384.210938 222.085938 383.636719 227.859375 383.636719 232.234375 C 383.636719 236.277344 384.210938 242.632812 387.019531 248.492188 C 390.15625 254.929688 394.699219 258.3125 395.191406 258.3125 C 395.523438 258.3125 395.6875 258.148438 395.6875 257.816406 Z M 395.6875 257.816406 "/>
<path style=" stroke:none;fill-rule:nonzero;fill:rgb(0%,0%,0%);fill-opacity:1;" d="M 432.425781 209.042969 C 432.425781 208.878906 432.257812 208.46875 431.847656 208.46875 C 431.597656 208.46875 431.515625 208.550781 430.855469 209.292969 L 428.378906 212.261719 C 427.058594 209.789062 424.335938 208.46875 420.949219 208.46875 C 414.261719 208.46875 407.988281 214.492188 407.988281 220.847656 C 407.988281 225.054688 410.792969 227.449219 413.4375 228.191406 L 419.050781 229.675781 C 420.949219 230.171875 423.839844 230.914062 423.839844 235.207031 C 423.839844 239.910156 419.546875 244.777344 414.425781 244.777344 C 411.125 244.777344 405.347656 243.625 405.347656 237.1875 C 405.347656 235.949219 405.59375 234.710938 405.59375 234.378906 C 405.675781 234.132812 405.757812 234.132812 405.757812 233.96875 C 405.757812 233.472656 405.347656 233.472656 405.097656 233.472656 C 404.851562 233.472656 404.769531 233.472656 404.601562 233.636719 C 404.355469 233.886719 401.464844 245.769531 401.464844 245.933594 C 401.464844 246.183594 401.714844 246.429688 402.042969 246.429688 C 402.292969 246.429688 402.375 246.347656 402.953125 245.605469 L 405.511719 242.632812 C 407.742188 245.6875 411.289062 246.429688 414.34375 246.429688 C 421.445312 246.429688 427.554688 239.496094 427.554688 232.976562 C 427.554688 229.429688 425.820312 227.613281 425.078125 226.953125 C 423.839844 225.714844 423.097656 225.46875 418.390625 224.3125 C 417.234375 223.980469 415.417969 223.488281 414.921875 223.40625 C 413.519531 222.910156 411.703125 221.421875 411.703125 218.617188 C 411.703125 214.410156 415.914062 209.953125 420.867188 209.953125 C 425.160156 209.953125 428.378906 212.179688 428.378906 218.039062 C 428.378906 219.691406 428.132812 220.679688 428.132812 220.929688 C 428.132812 221.011719 428.132812 221.507812 428.792969 221.507812 C 429.289062 221.507812 429.371094 221.339844 429.617188 220.433594 Z M 432.425781 209.042969 "/>
<path style=" stroke:none;fill-rule:nonzero;fill:rgb(0%,0%,0%);fill-opacity:1;" d="M 448.875 232.234375 C 448.875 228.191406 448.296875 221.835938 445.40625 215.976562 C 442.269531 209.539062 437.8125 206.15625 437.234375 206.15625 C 436.984375 206.15625 436.738281 206.402344 436.738281 206.652344 C 436.738281 206.816406 436.738281 206.898438 437.726562 207.890625 C 442.847656 213.007812 445.820312 221.339844 445.820312 232.234375 C 445.820312 241.148438 443.921875 250.308594 437.398438 256.910156 C 436.738281 257.570312 436.738281 257.652344 436.738281 257.816406 C 436.738281 258.066406 436.984375 258.3125 437.234375 258.3125 C 437.8125 258.3125 442.515625 254.765625 445.570312 248.164062 C 448.210938 242.386719 448.875 236.609375 448.875 232.234375 Z M 448.875 232.234375 "/>
<path style="fill:none;stroke-width:0.39848;stroke-linecap:butt;stroke-linejoin:miter;stroke:rgb(0%,0%,0%);stroke-opacity:1;stroke-miterlimit:10;" d="M -19.090461 32.698803 L 19.649767 32.698803 " transform="matrix(5.240737,0,0,-5.238829,249.516833,232.229224)"/>
<path style="fill:none;stroke-width:0.39848;stroke-linecap:round;stroke-linejoin:round;stroke:rgb(0%,0%,0%);stroke-opacity:1;stroke-miterlimit:10;" d="M -2.073228 2.391982 C -1.695329 0.954399 -0.848597 0.277363 -0.00186475 0.00147875 C -0.848597 -0.278134 -1.695329 -0.95517 -2.073228 -2.392753 " transform="matrix(5.240737,0,0,-5.238829,353.537116,60.933528)"/>
<path style=" stroke:none;fill-rule:nonzero;fill:rgb(0%,0%,0%);fill-opacity:1;" d="M 254.65625 27.109375 L 258.289062 27.109375 C 259.03125 27.109375 259.445312 27.109375 259.445312 26.285156 C 259.445312 25.789062 259.03125 25.789062 258.371094 25.789062 L 254.902344 25.789062 C 255.8125 21.167969 256.058594 19.433594 256.390625 18.445312 C 256.554688 17.617188 257.378906 16.875 258.207031 16.875 C 258.289062 16.875 259.277344 16.875 259.9375 17.289062 C 258.453125 17.785156 258.371094 19.105469 258.371094 19.269531 C 258.371094 20.09375 258.949219 20.671875 259.773438 20.671875 C 260.765625 20.671875 261.921875 19.765625 261.921875 18.445312 C 261.921875 16.710938 260.105469 15.804688 258.207031 15.804688 C 256.636719 15.804688 254.820312 16.710938 253.828125 18.527344 C 253.085938 19.929688 252.839844 21.582031 252.011719 25.789062 L 249.125 25.789062 C 248.464844 25.789062 247.96875 25.789062 247.96875 26.613281 C 247.96875 27.109375 248.464844 27.109375 249.125 27.109375 L 251.765625 27.109375 C 251.765625 27.355469 249.453125 40.480469 248.546875 44.441406 C 248.382812 45.183594 247.804688 47.988281 245.988281 47.988281 C 245.988281 47.988281 245.078125 47.988281 244.417969 47.574219 C 245.90625 47.082031 245.988281 45.761719 245.988281 45.511719 C 245.988281 44.769531 245.410156 44.191406 244.582031 44.191406 C 243.59375 44.191406 242.4375 45.019531 242.4375 46.421875 C 242.4375 48.070312 244.171875 48.980469 245.988281 48.980469 C 248.382812 48.980469 249.949219 46.585938 250.363281 45.761719 C 251.683594 43.367188 252.589844 38.828125 252.589844 38.414062 Z M 254.65625 27.109375 "/>
<path style="fill:none;stroke-width:0.39848;stroke-linecap:butt;stroke-linejoin:miter;stroke:rgb(0%,0%,0%);stroke-opacity:1;stroke-miterlimit:10;" d="M -27.399765 26.362403 L -27.399765 9.223257 " transform="matrix(5.240737,0,0,-5.238829,249.516833,232.229224)"/>
<path style="fill:none;stroke-width:0.39848;stroke-linecap:round;stroke-linejoin:round;stroke:rgb(0%,0%,0%);stroke-opacity:1;stroke-miterlimit:10;" d="M -2.071807 2.389585 C -1.693771 0.955508 -0.851204 0.278718 -0.000435618 -0.000792884 C -0.851204 -0.281049 -1.693771 -0.957839 -2.071807 -2.391917 " transform="matrix(0,5.238829,5.240737,0,105.92603,184.943688)"/>
<path style=" stroke:none;fill-rule:nonzero;fill:rgb(0%,0%,0%);fill-opacity:1;" d="M 61.214844 126.660156 C 61.214844 126.082031 60.71875 125.253906 59.726562 125.253906 C 58.738281 125.253906 57.664062 126.246094 57.664062 127.320312 C 57.664062 127.898438 58.160156 128.640625 59.148438 128.640625 C 60.222656 128.640625 61.214844 127.648438 61.214844 126.660156 Z M 53.703125 145.226562 C 53.535156 145.722656 53.371094 146.136719 53.371094 146.796875 C 53.371094 148.527344 54.855469 149.847656 56.839844 149.847656 C 60.554688 149.847656 62.121094 144.816406 62.121094 144.320312 C 62.121094 143.824219 61.625 143.824219 61.542969 143.824219 C 61.050781 143.824219 60.964844 144.070312 60.882812 144.402344 C 59.976562 147.371094 58.40625 148.859375 57.003906 148.859375 C 56.261719 148.859375 56.09375 148.363281 56.09375 147.621094 C 56.09375 146.710938 56.34375 146.050781 56.671875 145.226562 C 57.003906 144.238281 57.417969 143.246094 57.828125 142.339844 C 58.160156 141.429688 59.480469 138.128906 59.5625 137.632812 C 59.726562 137.304688 59.808594 136.890625 59.808594 136.480469 C 59.808594 134.746094 58.324219 133.425781 56.34375 133.425781 C 52.710938 133.425781 51.058594 138.378906 51.058594 138.957031 C 51.058594 139.449219 51.554688 139.449219 51.636719 139.449219 C 52.214844 139.449219 52.214844 139.285156 52.296875 138.871094 C 53.289062 135.738281 54.855469 134.417969 56.261719 134.417969 C 56.839844 134.417969 57.167969 134.746094 57.167969 135.738281 C 57.167969 136.5625 56.921875 137.058594 56.011719 139.367188 Z M 53.703125 145.226562 "/>
<path style=" stroke:none;fill-rule:nonzero;fill:rgb(0%,0%,0%);fill-opacity:1;" d="M 76.566406 139.003906 C 76.730469 138.179688 76.730469 138.097656 77.886719 138.097656 L 80.859375 138.097656 C 83.746094 138.097656 85.730469 138.839844 85.730469 140.902344 C 85.730469 141.976562 85.070312 143.460938 83.832031 144.285156 C 83.582031 144.453125 82.097656 145.441406 78.960938 145.441406 L 74.914062 145.441406 Z M 82.675781 145.855469 C 85.5625 145.113281 88.617188 143.460938 88.617188 141.070312 C 88.617188 138.757812 85.398438 136.941406 81.355469 136.941406 L 72.273438 136.941406 C 71.777344 136.941406 71.363281 136.941406 71.363281 137.683594 C 71.363281 138.097656 71.695312 138.097656 72.355469 138.097656 C 72.601562 138.097656 73.429688 138.097656 74.007812 138.261719 C 74.007812 138.59375 74.007812 138.675781 73.921875 138.921875 L 70.539062 152.621094 C 70.292969 153.363281 70.292969 153.613281 68.308594 153.613281 C 67.648438 153.613281 67.238281 153.613281 67.238281 154.355469 C 67.238281 154.519531 67.402344 154.769531 67.648438 154.769531 C 68.226562 154.769531 68.886719 154.683594 69.382812 154.683594 C 70.042969 154.683594 70.703125 154.683594 71.28125 154.683594 C 71.941406 154.683594 72.601562 154.683594 73.261719 154.683594 C 73.839844 154.683594 74.417969 154.769531 74.996094 154.769531 C 75.160156 154.769531 75.65625 154.769531 75.65625 154.023438 C 75.65625 153.613281 75.328125 153.613281 74.832031 153.613281 C 74.75 153.613281 74.089844 153.613281 73.675781 153.53125 C 73.015625 153.53125 73.015625 153.449219 73.015625 153.28125 C 73.015625 153.199219 73.015625 153.117188 73.097656 152.871094 L 74.75 146.269531 L 78.878906 146.269531 C 80.777344 146.269531 82.59375 147.011719 82.59375 148.578125 C 82.59375 148.910156 82.34375 149.816406 82.179688 150.394531 C 82.015625 151.054688 81.847656 151.878906 81.847656 152.375 C 81.847656 154.851562 84.492188 155.34375 86.140625 155.34375 C 88.703125 155.34375 89.941406 152.871094 89.941406 152.210938 C 89.941406 151.796875 89.527344 151.796875 89.363281 151.796875 C 88.949219 151.796875 88.949219 151.960938 88.785156 152.292969 C 88.371094 153.613281 87.214844 154.4375 86.226562 154.4375 C 85.5625 154.4375 84.820312 154.273438 84.820312 152.539062 C 84.820312 152.042969 85.070312 150.558594 85.152344 149.898438 C 85.234375 149.15625 85.234375 148.992188 85.234375 148.910156 C 85.234375 146.84375 83.417969 146.183594 82.675781 145.855469 Z M 82.675781 145.855469 "/>
<path style="fill:none;stroke-width:0.39848;stroke-linecap:butt;stroke-linejoin:miter;stroke:rgb(0%,0%,0%);stroke-opacity:1;stroke-miterlimit:10;" d="M -11.276823 -0.000237679 L 11.83613 -0.000237679 " transform="matrix(5.240737,0,0,-5.238829,249.516833,232.229224)"/>
<path style="fill:none;stroke-width:0.39848;stroke-linecap:round;stroke-linejoin:round;stroke:rgb(0%,0%,0%);stroke-opacity:1;stroke-miterlimit:10;" d="M -2.070665 2.390265 C -1.692021 0.957157 -0.849761 0.279375 0.0014431 -0.000237679 C -0.849761 -0.27985 -1.692021 -0.956886 -2.070665 -2.390741 " transform="matrix(5.240737,0,0,-5.238829,312.594,232.229224)"/>
<path style=" stroke:none;fill-rule:nonzero;fill:rgb(0%,0%,0%);fill-opacity:1;" d="M 260.667969 246.785156 C 260.75 246.207031 260.75 246.042969 260.75 245.957031 C 260.75 245.132812 260.089844 244.804688 259.511719 244.804688 C 258.6875 244.804688 258.027344 245.464844 257.859375 246.207031 C 257.199219 245.214844 255.960938 244.144531 254.0625 244.144531 C 249.523438 244.144531 244.734375 249.011719 244.734375 254.210938 C 244.734375 258.007812 247.292969 260.234375 250.265625 260.234375 C 252 260.234375 253.566406 259.410156 254.886719 258.253906 L 254.0625 261.554688 C 253.648438 263.125 253.402344 264.113281 252 265.351562 C 250.429688 266.671875 248.863281 266.671875 247.953125 266.671875 C 246.21875 266.671875 245.726562 266.589844 245.0625 266.425781 C 245.972656 266.011719 246.300781 265.105469 246.300781 264.609375 C 246.300781 263.703125 245.558594 263.207031 244.816406 263.207031 C 243.824219 263.207031 242.753906 264.113281 242.753906 265.433594 C 242.753906 267.664062 245.890625 267.664062 247.953125 267.664062 C 253.734375 267.664062 256.125 264.773438 256.621094 262.710938 Z M 255.632812 255.367188 C 255.464844 255.945312 255.464844 256.027344 254.804688 256.6875 C 253.566406 258.253906 251.75 259.246094 250.429688 259.246094 C 248.53125 259.246094 247.625 257.675781 247.625 255.78125 C 247.625 254.128906 248.613281 250.003906 249.605469 248.433594 C 251.089844 245.875 252.824219 245.132812 254.0625 245.132812 C 256.621094 245.132812 257.363281 247.855469 257.363281 248.269531 C 257.363281 248.351562 257.363281 248.351562 257.199219 248.765625 Z M 255.632812 255.367188 "/>
<path style="fill:none;stroke-width:0.39848;stroke-linecap:butt;stroke-linejoin:miter;stroke:rgb(0%,0%,0%);stroke-opacity:1;stroke-miterlimit:10;" d="M 27.876336 26.362403 L 27.876336 9.223257 " transform="matrix(5.240737,0,0,-5.238829,249.516833,232.229224)"/>
<path style="fill:none;stroke-width:0.39848;stroke-linecap:round;stroke-linejoin:round;stroke:rgb(0%,0%,0%);stroke-opacity:1;stroke-miterlimit:10;" d="M -2.071807 2.388622 C -1.693771 0.95529 -0.851204 0.277755 -0.000435618 -0.00175591 C -0.851204 -0.27754 -1.693771 -0.954329 -2.071807 -2.392134 " transform="matrix(0,5.238829,5.240737,0,395.618577,184.943688)"/>
<path style=" stroke:none;fill-rule:nonzero;fill:rgb(0%,0%,0%);fill-opacity:1;" d="M 354.160156 126.660156 C 354.160156 126.082031 353.664062 125.253906 352.675781 125.253906 C 351.683594 125.253906 350.609375 126.246094 350.609375 127.320312 C 350.609375 127.898438 351.105469 128.640625 352.097656 128.640625 C 353.171875 128.640625 354.160156 127.648438 354.160156 126.660156 Z M 346.648438 145.226562 C 346.484375 145.722656 346.316406 146.136719 346.316406 146.796875 C 346.316406 148.527344 347.804688 149.847656 349.785156 149.847656 C 353.5 149.847656 355.070312 144.816406 355.070312 144.320312 C 355.070312 143.824219 354.574219 143.824219 354.492188 143.824219 C 353.996094 143.824219 353.914062 144.070312 353.832031 144.402344 C 352.921875 147.371094 351.355469 148.859375 349.949219 148.859375 C 349.207031 148.859375 349.042969 148.363281 349.042969 147.621094 C 349.042969 146.710938 349.289062 146.050781 349.621094 145.226562 C 349.949219 144.238281 350.363281 143.246094 350.777344 142.339844 C 351.105469 141.429688 352.425781 138.128906 352.507812 137.632812 C 352.675781 137.304688 352.757812 136.890625 352.757812 136.480469 C 352.757812 134.746094 351.269531 133.425781 349.289062 133.425781 C 345.65625 133.425781 344.007812 138.378906 344.007812 138.957031 C 344.007812 139.449219 344.5 139.449219 344.585938 139.449219 C 345.164062 139.449219 345.164062 139.285156 345.246094 138.871094 C 346.234375 135.738281 347.804688 134.417969 349.207031 134.417969 C 349.785156 134.417969 350.117188 134.746094 350.117188 135.738281 C 350.117188 136.5625 349.867188 137.058594 348.960938 139.367188 Z M 346.648438 145.226562 "/>
<path style=" stroke:none;fill-rule:nonzero;fill:rgb(0%,0%,0%);fill-opacity:1;" d="M 378.339844 136.777344 C 378.339844 136.695312 378.339844 136.363281 377.929688 136.363281 C 377.761719 136.363281 377.761719 136.445312 377.433594 136.777344 C 377.101562 137.023438 376.359375 137.933594 376.027344 138.261719 C 375.367188 137.4375 373.964844 136.363281 371.160156 136.363281 C 367.113281 136.363281 363.5625 139.253906 363.5625 142.140625 C 363.5625 144.039062 364.964844 145.359375 366.949219 145.9375 C 367.277344 146.019531 369.425781 146.433594 370.003906 146.515625 C 372.230469 147.011719 372.726562 147.09375 373.386719 147.671875 C 374.046875 148.164062 374.378906 148.910156 374.378906 149.652344 C 374.378906 151.796875 371.902344 154.191406 368.351562 154.191406 C 366.453125 154.191406 362.574219 153.777344 362.574219 150.558594 C 362.574219 150.230469 362.65625 149.816406 362.738281 149.484375 C 362.738281 149.320312 362.820312 149.320312 362.820312 149.238281 C 362.820312 148.824219 362.40625 148.824219 362.242188 148.824219 C 361.910156 148.824219 361.746094 148.910156 361.664062 149.402344 L 360.34375 154.519531 C 360.34375 154.601562 360.261719 154.933594 360.261719 155.015625 C 360.261719 155.015625 360.261719 155.34375 360.671875 155.34375 C 360.839844 155.34375 360.839844 155.34375 361.25 155.015625 C 361.582031 154.683594 362.324219 153.859375 362.574219 153.53125 C 364.058594 155.015625 366.289062 155.34375 368.351562 155.34375 C 372.644531 155.34375 376.113281 152.128906 376.113281 149.074219 C 376.113281 147.175781 374.707031 145.523438 372.5625 145.03125 C 372.230469 144.945312 369.753906 144.453125 369.175781 144.371094 C 367.359375 143.957031 366.867188 143.875 366.121094 143.296875 C 365.625 142.882812 365.296875 142.222656 365.296875 141.5625 C 365.296875 139.5 367.855469 137.4375 371.074219 137.4375 C 373.386719 137.4375 375.945312 138.34375 375.945312 141.5625 C 375.945312 141.976562 375.863281 142.390625 375.863281 142.472656 C 375.863281 142.882812 376.277344 142.882812 376.359375 142.882812 C 376.855469 142.882812 376.855469 142.800781 377.019531 142.304688 Z M 378.339844 136.777344 "/>
</g>
</svg>
