<?xml version="1.0" encoding="UTF-8"?>
<svg xmlns="http://www.w3.org/2000/svg" xmlns:xlink="http://www.w3.org/1999/xlink" width="503px" height="300px" viewBox="0 0 503 300" version="1.1">
<g id="surface1">
<path style=" stroke:none;fill-rule:nonzero;fill:rgb(0%,0%,0%);fill-opacity:1;" d="M 105.445312 42.5625 C 105.773438 41.328125 105.9375 40.75 106.929688 40.667969 C 107.34375 40.585938 109.074219 40.585938 110.066406 40.585938 C 113.78125 40.585938 119.558594 40.585938 119.558594 45.78125 C 119.558594 47.515625 118.730469 51.144531 116.75 53.125 C 115.347656 54.527344 112.625 56.179688 107.917969 56.179688 L 102.058594 56.179688 Z M 112.953125 56.839844 C 118.238281 55.683594 124.425781 52.050781 124.425781 46.773438 C 124.425781 42.316406 119.722656 38.933594 112.871094 38.933594 L 98.015625 38.933594 C 97.023438 38.933594 96.53125 38.933594 96.53125 40.007812 C 96.53125 40.585938 97.023438 40.585938 98.015625 40.585938 C 98.097656 40.585938 99.089844 40.585938 99.996094 40.667969 C 100.902344 40.75 101.398438 40.832031 101.398438 41.492188 C 101.398438 41.738281 101.316406 41.902344 101.152344 42.480469 L 94.136719 70.535156 C 93.640625 72.515625 93.558594 72.925781 89.429688 72.925781 C 88.523438 72.925781 88.027344 72.925781 88.027344 74 C 88.027344 74.578125 88.605469 74.578125 88.769531 74.578125 C 90.175781 74.578125 93.886719 74.414062 95.292969 74.414062 C 96.777344 74.414062 100.492188 74.578125 101.976562 74.578125 C 102.390625 74.578125 102.96875 74.578125 102.96875 73.503906 C 102.96875 72.925781 102.554688 72.925781 101.5625 72.925781 C 99.582031 72.925781 98.179688 72.925781 98.179688 72.019531 C 98.179688 71.691406 98.261719 71.441406 98.261719 71.113281 L 101.730469 57.332031 L 107.917969 57.332031 C 112.707031 57.332031 113.613281 60.222656 113.613281 62.035156 C 113.613281 62.859375 113.203125 64.429688 112.871094 65.667969 C 112.542969 67.152344 112.046875 69.050781 112.046875 70.121094 C 112.046875 75.734375 118.320312 75.734375 118.980469 75.734375 C 123.4375 75.734375 125.253906 70.453125 125.253906 69.710938 C 125.253906 69.132812 124.675781 69.132812 124.675781 69.132812 C 124.179688 69.132812 124.097656 69.460938 123.933594 69.792969 C 122.695312 73.667969 120.382812 74.578125 119.226562 74.578125 C 117.496094 74.578125 117.164062 73.421875 117.164062 71.359375 C 117.164062 69.792969 117.410156 67.152344 117.660156 65.417969 C 117.742188 64.757812 117.824219 63.769531 117.824219 63.027344 C 117.824219 58.984375 114.359375 57.332031 112.953125 56.839844 Z M 112.953125 56.839844 "/>
<path style=" stroke:none;fill-rule:nonzero;fill:rgb(0%,0%,0%);fill-opacity:1;" d="M 411.695312 38.355469 C 411.695312 38.191406 411.53125 37.777344 411.117188 37.777344 C 410.871094 37.777344 410.789062 37.859375 410.128906 38.605469 L 407.652344 41.574219 C 406.332031 39.097656 403.605469 37.777344 400.222656 37.777344 C 393.539062 37.777344 387.265625 43.800781 387.265625 50.15625 C 387.265625 54.363281 390.070312 56.753906 392.710938 57.5 L 398.324219 58.984375 C 400.222656 59.476562 403.113281 60.222656 403.113281 64.511719 C 403.113281 69.214844 398.820312 74.082031 393.703125 74.082031 C 390.402344 74.082031 384.625 72.925781 384.625 66.492188 C 384.625 65.253906 384.871094 64.015625 384.871094 63.6875 C 384.953125 63.4375 385.035156 63.4375 385.035156 63.273438 C 385.035156 62.777344 384.625 62.777344 384.375 62.777344 C 384.128906 62.777344 384.046875 62.777344 383.878906 62.945312 C 383.632812 63.191406 380.742188 75.074219 380.742188 75.238281 C 380.742188 75.484375 380.992188 75.734375 381.320312 75.734375 C 381.570312 75.734375 381.652344 75.648438 382.230469 74.90625 L 384.789062 71.9375 C 387.015625 74.988281 390.566406 75.734375 393.621094 75.734375 C 400.71875 75.734375 406.824219 68.800781 406.824219 62.285156 C 406.824219 58.734375 405.09375 56.921875 404.351562 56.261719 C 403.113281 55.023438 402.367188 54.777344 397.664062 53.621094 C 396.507812 53.289062 394.691406 52.796875 394.199219 52.710938 C 392.792969 52.21875 390.980469 50.734375 390.980469 47.925781 C 390.980469 43.71875 395.1875 39.265625 400.140625 39.265625 C 404.433594 39.265625 407.652344 41.492188 407.652344 47.351562 C 407.652344 49 407.402344 49.988281 407.402344 50.238281 C 407.402344 50.320312 407.402344 50.816406 408.0625 50.816406 C 408.558594 50.816406 408.640625 50.648438 408.890625 49.742188 Z M 411.695312 38.355469 "/>
<path style=" stroke:none;fill-rule:nonzero;fill:rgb(0%,0%,0%);fill-opacity:1;" d="M 67.8125 245.503906 C 75.902344 242.449219 83.578125 233.128906 83.578125 223.0625 C 83.578125 214.726562 78.046875 209.035156 70.289062 209.035156 C 58.980469 209.035156 47.507812 220.917969 47.507812 233.046875 C 47.507812 241.707031 53.371094 246.988281 60.878906 246.988281 C 62.199219 246.988281 63.933594 246.742188 65.996094 246.164062 C 65.75 249.464844 65.75 249.546875 65.75 250.207031 C 65.75 251.855469 65.75 255.980469 70.125 255.980469 C 76.316406 255.980469 78.792969 246.410156 78.792969 245.832031 C 78.792969 245.503906 78.460938 245.339844 78.214844 245.339844 C 77.800781 245.339844 77.71875 245.585938 77.636719 245.917969 C 76.316406 249.628906 73.34375 250.867188 71.527344 250.867188 C 69.132812 250.867188 68.308594 249.464844 67.8125 245.503906 Z M 57.910156 245.089844 C 53.863281 243.523438 52.132812 239.398438 52.132812 234.695312 C 52.132812 231.148438 53.453125 223.722656 57.414062 218.109375 C 61.210938 212.746094 66.164062 210.355469 69.960938 210.355469 C 75.160156 210.355469 78.957031 214.480469 78.957031 221.410156 C 78.957031 226.609375 76.316406 238.820312 67.566406 243.769531 C 67.234375 241.957031 66.742188 238.078125 62.945312 238.078125 C 60.21875 238.078125 57.660156 240.71875 57.660156 243.441406 C 57.660156 244.511719 57.910156 245.089844 57.910156 245.089844 Z M 61.210938 245.667969 C 60.46875 245.667969 58.734375 245.667969 58.734375 243.441406 C 58.734375 241.378906 60.714844 239.234375 62.945312 239.234375 C 65.171875 239.234375 66.164062 240.554688 66.164062 243.6875 C 66.164062 244.511719 66.082031 244.511719 65.585938 244.761719 C 64.183594 245.339844 62.613281 245.667969 61.210938 245.667969 Z M 61.210938 245.667969 "/>
<path style=" stroke:none;fill-rule:nonzero;fill:rgb(0%,0%,0%);fill-opacity:1;" d="M 103.46875 258.375 C 103.46875 258.210938 103.46875 258.128906 102.558594 257.21875 C 96.039062 250.621094 94.386719 240.800781 94.386719 232.796875 C 94.386719 223.722656 96.371094 214.644531 102.808594 208.128906 C 103.46875 207.46875 103.46875 207.386719 103.46875 207.21875 C 103.46875 206.890625 103.304688 206.726562 102.972656 206.726562 C 102.476562 206.726562 97.773438 210.273438 94.636719 216.875 C 91.996094 222.648438 91.417969 228.425781 91.417969 232.796875 C 91.417969 236.839844 91.996094 243.195312 94.800781 249.050781 C 97.9375 255.488281 102.476562 258.871094 102.972656 258.871094 C 103.304688 258.871094 103.46875 258.703125 103.46875 258.375 Z M 103.46875 258.375 "/>
<path style=" stroke:none;fill-rule:nonzero;fill:rgb(0%,0%,0%);fill-opacity:1;" d="M 126.078125 213.820312 C 126.40625 212.582031 126.574219 212.003906 127.5625 211.921875 C 127.976562 211.839844 129.707031 211.839844 130.699219 211.839844 C 134.414062 211.839844 140.191406 211.839844 140.191406 217.039062 C 140.191406 218.769531 139.367188 222.402344 137.386719 224.382812 C 135.980469 225.785156 133.257812 227.433594 128.554688 227.433594 L 122.691406 227.433594 Z M 133.589844 228.09375 C 138.871094 226.9375 145.0625 223.308594 145.0625 218.027344 C 145.0625 213.574219 140.355469 210.191406 133.503906 210.191406 L 118.648438 210.191406 C 117.65625 210.191406 117.164062 210.191406 117.164062 211.261719 C 117.164062 211.839844 117.65625 211.839844 118.648438 211.839844 C 118.730469 211.839844 119.722656 211.839844 120.628906 211.921875 C 121.539062 212.003906 122.03125 212.085938 122.03125 212.746094 C 122.03125 212.996094 121.949219 213.160156 121.785156 213.738281 L 114.769531 241.789062 C 114.273438 243.769531 114.191406 244.183594 110.066406 244.183594 C 109.15625 244.183594 108.660156 244.183594 108.660156 245.257812 C 108.660156 245.832031 109.238281 245.832031 109.40625 245.832031 C 110.808594 245.832031 114.523438 245.667969 115.925781 245.667969 C 117.410156 245.667969 121.125 245.832031 122.609375 245.832031 C 123.023438 245.832031 123.601562 245.832031 123.601562 244.761719 C 123.601562 244.183594 123.1875 244.183594 122.199219 244.183594 C 120.21875 244.183594 118.8125 244.183594 118.8125 243.277344 C 118.8125 242.945312 118.894531 242.699219 118.894531 242.367188 L 122.363281 228.589844 L 128.554688 228.589844 C 133.339844 228.589844 134.25 231.476562 134.25 233.292969 C 134.25 234.117188 133.835938 235.683594 133.503906 236.921875 C 133.175781 238.40625 132.679688 240.304688 132.679688 241.378906 C 132.679688 246.988281 138.953125 246.988281 139.613281 246.988281 C 144.070312 246.988281 145.886719 241.707031 145.886719 240.964844 C 145.886719 240.386719 145.308594 240.386719 145.308594 240.386719 C 144.8125 240.386719 144.730469 240.71875 144.566406 241.046875 C 143.328125 244.925781 141.015625 245.832031 139.859375 245.832031 C 138.128906 245.832031 137.796875 244.679688 137.796875 242.617188 C 137.796875 241.046875 138.046875 238.40625 138.292969 236.675781 C 138.375 236.015625 138.457031 235.023438 138.457031 234.28125 C 138.457031 230.238281 134.992188 228.589844 133.589844 228.09375 Z M 133.589844 228.09375 "/>
<path style=" stroke:none;fill-rule:nonzero;fill:rgb(0%,0%,0%);fill-opacity:1;" d="M 161.660156 232.796875 C 161.660156 228.753906 161.082031 222.402344 158.195312 216.542969 C 155.058594 210.109375 150.601562 206.726562 150.023438 206.726562 C 149.773438 206.726562 149.527344 206.972656 149.527344 207.21875 C 149.527344 207.386719 149.527344 207.46875 150.519531 208.457031 C 155.636719 213.574219 158.605469 221.90625 158.605469 232.796875 C 158.605469 241.707031 156.707031 250.867188 150.1875 257.46875 C 149.527344 258.128906 149.527344 258.210938 149.527344 258.375 C 149.527344 258.621094 149.773438 258.871094 150.023438 258.871094 C 150.601562 258.871094 155.304688 255.320312 158.359375 248.722656 C 161 242.945312 161.660156 237.171875 161.660156 232.796875 Z M 161.660156 232.796875 "/>
<path style=" stroke:none;fill-rule:nonzero;fill:rgb(0%,0%,0%);fill-opacity:1;" d="M 359.945312 245.503906 C 368.035156 242.449219 375.710938 233.128906 375.710938 223.0625 C 375.710938 214.726562 370.179688 209.035156 362.421875 209.035156 C 351.113281 209.035156 339.640625 220.917969 339.640625 233.046875 C 339.640625 241.707031 345.503906 246.988281 353.011719 246.988281 C 354.332031 246.988281 356.066406 246.742188 358.128906 246.164062 C 357.882812 249.464844 357.882812 249.546875 357.882812 250.207031 C 357.882812 251.855469 357.882812 255.980469 362.257812 255.980469 C 368.449219 255.980469 370.925781 246.410156 370.925781 245.832031 C 370.925781 245.503906 370.59375 245.339844 370.347656 245.339844 C 369.933594 245.339844 369.851562 245.585938 369.769531 245.917969 C 368.449219 249.628906 365.476562 250.867188 363.660156 250.867188 C 361.265625 250.867188 360.441406 249.464844 359.945312 245.503906 Z M 350.042969 245.089844 C 345.996094 243.523438 344.265625 239.398438 344.265625 234.695312 C 344.265625 231.148438 345.585938 223.722656 349.546875 218.109375 C 353.34375 212.746094 358.296875 210.355469 362.09375 210.355469 C 367.292969 210.355469 371.089844 214.480469 371.089844 221.410156 C 371.089844 226.609375 368.449219 238.820312 359.699219 243.769531 C 359.367188 241.957031 358.875 238.078125 355.078125 238.078125 C 352.351562 238.078125 349.792969 240.71875 349.792969 243.441406 C 349.792969 244.511719 350.042969 245.089844 350.042969 245.089844 Z M 353.34375 245.667969 C 352.601562 245.667969 350.867188 245.667969 350.867188 243.441406 C 350.867188 241.378906 352.847656 239.234375 355.078125 239.234375 C 357.304688 239.234375 358.296875 240.554688 358.296875 243.6875 C 358.296875 244.511719 358.214844 244.511719 357.71875 244.761719 C 356.316406 245.339844 354.746094 245.667969 353.34375 245.667969 Z M 353.34375 245.667969 "/>
<path style=" stroke:none;fill-rule:nonzero;fill:rgb(0%,0%,0%);fill-opacity:1;" d="M 395.601562 258.375 C 395.601562 258.210938 395.601562 258.128906 394.691406 257.21875 C 388.171875 250.621094 386.523438 240.800781 386.523438 232.796875 C 386.523438 223.722656 388.503906 214.644531 394.941406 208.128906 C 395.601562 207.46875 395.601562 207.386719 395.601562 207.21875 C 395.601562 206.890625 395.4375 206.726562 395.105469 206.726562 C 394.609375 206.726562 389.90625 210.273438 386.769531 216.875 C 384.128906 222.648438 383.550781 228.425781 383.550781 232.796875 C 383.550781 236.839844 384.128906 243.195312 386.933594 249.050781 C 390.070312 255.488281 394.609375 258.871094 395.105469 258.871094 C 395.4375 258.871094 395.601562 258.703125 395.601562 258.375 Z M 395.601562 258.375 "/>
<path style=" stroke:none;fill-rule:nonzero;fill:rgb(0%,0%,0%);fill-opacity:1;" d="M 432.328125 209.613281 C 432.328125 209.449219 432.164062 209.035156 431.75 209.035156 C 431.503906 209.035156 431.421875 209.117188 430.761719 209.859375 L 428.285156 212.832031 C 426.964844 210.355469 424.242188 209.035156 420.855469 209.035156 C 414.171875 209.035156 407.898438 215.058594 407.898438 221.410156 C 407.898438 225.621094 410.703125 228.011719 413.34375 228.753906 L 418.957031 230.238281 C 420.855469 230.734375 423.746094 231.476562 423.746094 235.769531 C 423.746094 240.472656 419.453125 245.339844 414.335938 245.339844 C 411.035156 245.339844 405.257812 244.183594 405.257812 237.746094 C 405.257812 236.511719 405.503906 235.273438 405.503906 234.941406 C 405.585938 234.695312 405.667969 234.695312 405.667969 234.53125 C 405.667969 234.035156 405.257812 234.035156 405.007812 234.035156 C 404.761719 234.035156 404.679688 234.035156 404.515625 234.199219 C 404.265625 234.449219 401.378906 246.328125 401.378906 246.492188 C 401.378906 246.742188 401.625 246.988281 401.957031 246.988281 C 402.203125 246.988281 402.285156 246.90625 402.863281 246.164062 L 405.421875 243.195312 C 407.648438 246.246094 411.199219 246.988281 414.253906 246.988281 C 421.351562 246.988281 427.460938 240.058594 427.460938 233.539062 C 427.460938 229.992188 425.726562 228.175781 424.984375 227.515625 C 423.746094 226.28125 423.003906 226.03125 418.296875 224.875 C 417.140625 224.546875 415.328125 224.050781 414.832031 223.96875 C 413.429688 223.472656 411.613281 221.988281 411.613281 219.183594 C 411.613281 214.976562 415.820312 210.519531 420.773438 210.519531 C 425.066406 210.519531 428.285156 212.746094 428.285156 218.605469 C 428.285156 220.257812 428.039062 221.246094 428.039062 221.492188 C 428.039062 221.578125 428.039062 222.070312 428.699219 222.070312 C 429.191406 222.070312 429.277344 221.90625 429.523438 221 Z M 432.328125 209.613281 "/>
<path style=" stroke:none;fill-rule:nonzero;fill:rgb(0%,0%,0%);fill-opacity:1;" d="M 448.773438 232.796875 C 448.773438 228.753906 448.195312 222.402344 445.308594 216.542969 C 442.171875 210.109375 437.714844 206.726562 437.136719 206.726562 C 436.890625 206.726562 436.640625 206.972656 436.640625 207.21875 C 436.640625 207.386719 436.640625 207.46875 437.632812 208.457031 C 442.75 213.574219 445.71875 221.90625 445.71875 232.796875 C 445.71875 241.707031 443.820312 250.867188 437.300781 257.46875 C 436.640625 258.128906 436.640625 258.210938 436.640625 258.375 C 436.640625 258.621094 436.890625 258.871094 437.136719 258.871094 C 437.714844 258.871094 442.417969 255.320312 445.472656 248.722656 C 448.113281 242.945312 448.773438 237.171875 448.773438 232.796875 Z M 448.773438 232.796875 "/>
<path style="fill:none;stroke-width:0.39848;stroke-linecap:butt;stroke-linejoin:miter;stroke:rgb(0%,0%,0%);stroke-opacity:1;stroke-miterlimit:10;" d="M -19.090877 32.698601 L 19.649696 32.698601 " transform="matrix(5.239581,0,0,-5.237674,249.461793,232.79195)"/>
<path style="fill:none;stroke-width:0.39848;stroke-linecap:round;stroke-linejoin:round;stroke:rgb(0%,0%,0%);stroke-opacity:1;stroke-miterlimit:10;" d="M -2.073714 2.392306 C -1.694987 0.954406 -0.848813 0.277221 -0.00189441 0.00127544 C -0.848813 -0.277653 -1.694987 -0.955584 -2.073714 -2.392738 " transform="matrix(5.239581,0,0,-5.237674,353.459145,61.534024)"/>
<path style=" stroke:none;fill-rule:nonzero;fill:rgb(0%,0%,0%);fill-opacity:1;" d="M 254.597656 27.71875 L 258.230469 27.71875 C 258.972656 27.71875 259.386719 27.71875 259.386719 26.890625 C 259.386719 26.398438 258.972656 26.398438 258.3125 26.398438 L 254.847656 26.398438 C 255.753906 21.777344 256.003906 20.042969 256.332031 19.054688 C 256.496094 18.230469 257.324219 17.484375 258.148438 17.484375 C 258.230469 17.484375 259.222656 17.484375 259.882812 17.898438 C 258.394531 18.394531 258.3125 19.714844 258.3125 19.878906 C 258.3125 20.703125 258.890625 21.28125 259.714844 21.28125 C 260.707031 21.28125 261.863281 20.375 261.863281 19.054688 C 261.863281 17.320312 260.046875 16.414062 258.148438 16.414062 C 256.582031 16.414062 254.765625 17.320312 253.773438 19.136719 C 253.03125 20.539062 252.785156 22.1875 251.957031 26.398438 L 249.070312 26.398438 C 248.410156 26.398438 247.914062 26.398438 247.914062 27.222656 C 247.914062 27.71875 248.410156 27.71875 249.070312 27.71875 L 251.710938 27.71875 C 251.710938 27.964844 249.398438 41.082031 248.492188 45.042969 C 248.328125 45.785156 247.75 48.59375 245.933594 48.59375 C 245.933594 48.59375 245.023438 48.59375 244.363281 48.179688 C 245.851562 47.683594 245.933594 46.363281 245.933594 46.117188 C 245.933594 45.375 245.355469 44.796875 244.53125 44.796875 C 243.539062 44.796875 242.382812 45.621094 242.382812 47.023438 C 242.382812 48.675781 244.117188 49.582031 245.933594 49.582031 C 248.328125 49.582031 249.894531 47.1875 250.308594 46.363281 C 251.628906 43.972656 252.535156 39.433594 252.535156 39.019531 Z M 254.597656 27.71875 "/>
<path style="fill:none;stroke-width:0.39848;stroke-linecap:butt;stroke-linejoin:miter;stroke:rgb(0%,0%,0%);stroke-opacity:1;stroke-miterlimit:10;" d="M -27.399777 26.362296 L -27.399777 9.223097 " transform="matrix(5.239581,0,0,-5.237674,249.461793,232.79195)"/>
<path style="fill:none;stroke-width:0.39848;stroke-linecap:round;stroke-linejoin:round;stroke:rgb(0%,0%,0%);stroke-opacity:1;stroke-miterlimit:10;" d="M -2.072061 2.389352 C -1.693941 0.955703 -0.851189 0.278764 -0.000232427 -0.000808492 C -0.851189 -0.281127 -1.693941 -0.958065 -2.072061 -2.391714 " transform="matrix(0,5.237674,5.239581,0,105.902674,185.516842)"/>
<path style=" stroke:none;fill-rule:nonzero;fill:rgb(0%,0%,0%);fill-opacity:1;" d="M 61.199219 127.246094 C 61.199219 126.667969 60.707031 125.84375 59.714844 125.84375 C 58.722656 125.84375 57.652344 126.832031 57.652344 127.90625 C 57.652344 128.480469 58.148438 129.226562 59.136719 129.226562 C 60.210938 129.226562 61.199219 128.234375 61.199219 127.246094 Z M 53.691406 145.808594 C 53.523438 146.304688 53.359375 146.714844 53.359375 147.375 C 53.359375 149.109375 54.84375 150.429688 56.824219 150.429688 C 60.539062 150.429688 62.109375 145.398438 62.109375 144.902344 C 62.109375 144.40625 61.613281 144.40625 61.53125 144.40625 C 61.035156 144.40625 60.953125 144.652344 60.871094 144.984375 C 59.960938 147.953125 58.394531 149.4375 56.992188 149.4375 C 56.25 149.4375 56.082031 148.945312 56.082031 148.203125 C 56.082031 147.292969 56.332031 146.632812 56.660156 145.808594 C 56.992188 144.820312 57.402344 143.828125 57.816406 142.921875 C 58.148438 142.015625 59.46875 138.714844 59.550781 138.21875 C 59.714844 137.886719 59.796875 137.476562 59.796875 137.0625 C 59.796875 135.332031 58.3125 134.011719 56.332031 134.011719 C 52.699219 134.011719 51.046875 138.960938 51.046875 139.539062 C 51.046875 140.035156 51.542969 140.035156 51.625 140.035156 C 52.203125 140.035156 52.203125 139.867188 52.285156 139.457031 C 53.277344 136.320312 54.84375 135 56.25 135 C 56.824219 135 57.15625 135.332031 57.15625 136.320312 C 57.15625 137.144531 56.910156 137.640625 56 139.949219 Z M 53.691406 145.808594 "/>
<path style=" stroke:none;fill-rule:nonzero;fill:rgb(0%,0%,0%);fill-opacity:1;" d="M 76.546875 139.589844 C 76.714844 138.761719 76.714844 138.679688 77.871094 138.679688 L 80.839844 138.679688 C 83.730469 138.679688 85.710938 139.421875 85.710938 141.484375 C 85.710938 142.558594 85.050781 144.042969 83.8125 144.867188 C 83.5625 145.035156 82.078125 146.023438 78.941406 146.023438 L 74.898438 146.023438 Z M 82.65625 146.4375 C 85.546875 145.695312 88.597656 144.042969 88.597656 141.652344 C 88.597656 139.339844 85.378906 137.527344 81.335938 137.527344 L 72.257812 137.527344 C 71.761719 137.527344 71.347656 137.527344 71.347656 138.269531 C 71.347656 138.679688 71.679688 138.679688 72.339844 138.679688 C 72.585938 138.679688 73.414062 138.679688 73.988281 138.847656 C 73.988281 139.175781 73.988281 139.257812 73.90625 139.507812 L 70.523438 153.203125 C 70.277344 153.945312 70.277344 154.191406 68.292969 154.191406 C 67.632812 154.191406 67.222656 154.191406 67.222656 154.933594 C 67.222656 155.101562 67.386719 155.347656 67.632812 155.347656 C 68.210938 155.347656 68.871094 155.265625 69.367188 155.265625 C 70.027344 155.265625 70.6875 155.265625 71.265625 155.265625 C 71.925781 155.265625 72.585938 155.265625 73.246094 155.265625 C 73.824219 155.265625 74.402344 155.347656 74.980469 155.347656 C 75.144531 155.347656 75.640625 155.347656 75.640625 154.605469 C 75.640625 154.191406 75.3125 154.191406 74.816406 154.191406 C 74.734375 154.191406 74.074219 154.191406 73.660156 154.109375 C 73 154.109375 73 154.027344 73 153.863281 C 73 153.78125 73 153.699219 73.082031 153.449219 L 74.734375 146.847656 L 78.859375 146.847656 C 80.757812 146.847656 82.574219 147.59375 82.574219 149.160156 C 82.574219 149.488281 82.328125 150.398438 82.160156 150.976562 C 81.996094 151.636719 81.832031 152.460938 81.832031 152.953125 C 81.832031 155.429688 84.472656 155.925781 86.125 155.925781 C 88.683594 155.925781 89.917969 153.449219 89.917969 152.789062 C 89.917969 152.378906 89.507812 152.378906 89.34375 152.378906 C 88.929688 152.378906 88.929688 152.542969 88.765625 152.871094 C 88.351562 154.191406 87.195312 155.019531 86.207031 155.019531 C 85.546875 155.019531 84.800781 154.851562 84.800781 153.121094 C 84.800781 152.625 85.050781 151.140625 85.132812 150.480469 C 85.214844 149.738281 85.214844 149.570312 85.214844 149.488281 C 85.214844 147.425781 83.398438 146.765625 82.65625 146.4375 Z M 82.65625 146.4375 "/>
<path style="fill:none;stroke-width:0.39848;stroke-linecap:butt;stroke-linejoin:miter;stroke:rgb(0%,0%,0%);stroke-opacity:1;stroke-miterlimit:10;" d="M -11.277007 -0.000194437 L 11.836571 -0.000194437 " transform="matrix(5.239581,0,0,-5.237674,249.461793,232.79195)"/>
<path style="fill:none;stroke-width:0.39848;stroke-linecap:round;stroke-linejoin:round;stroke:rgb(0%,0%,0%);stroke-opacity:1;stroke-miterlimit:10;" d="M -2.07064 2.390836 C -1.691912 0.956665 -0.849467 0.27948 0.00117985 -0.000194437 C -0.849467 -0.279869 -1.691912 -0.957054 -2.07064 -2.390479 " transform="matrix(5.239581,0,0,-5.237674,312.525068,232.79195)"/>
<path style=" stroke:none;fill-rule:nonzero;fill:rgb(0%,0%,0%);fill-opacity:1;" d="M 260.609375 247.34375 C 260.691406 246.765625 260.691406 246.601562 260.691406 246.519531 C 260.691406 245.695312 260.03125 245.363281 259.453125 245.363281 C 258.628906 245.363281 257.96875 246.023438 257.804688 246.765625 C 257.144531 245.777344 255.90625 244.703125 254.007812 244.703125 C 249.46875 244.703125 244.679688 249.570312 244.679688 254.769531 C 244.679688 258.566406 247.238281 260.792969 250.210938 260.792969 C 251.945312 260.792969 253.511719 259.96875 254.832031 258.8125 L 254.007812 262.113281 C 253.59375 263.679688 253.347656 264.671875 251.945312 265.90625 C 250.375 267.226562 248.808594 267.226562 247.898438 267.226562 C 246.164062 267.226562 245.671875 267.144531 245.011719 266.980469 C 245.917969 266.566406 246.25 265.660156 246.25 265.164062 C 246.25 264.257812 245.503906 263.761719 244.761719 263.761719 C 243.773438 263.761719 242.699219 264.671875 242.699219 265.992188 C 242.699219 268.21875 245.835938 268.21875 247.898438 268.21875 C 253.675781 268.21875 256.070312 265.332031 256.566406 263.269531 Z M 255.574219 255.925781 C 255.410156 256.503906 255.410156 256.585938 254.75 257.246094 C 253.511719 258.8125 251.695312 259.800781 250.375 259.800781 C 248.476562 259.800781 247.570312 258.234375 247.570312 256.335938 C 247.570312 254.6875 248.558594 250.5625 249.550781 248.992188 C 251.035156 246.4375 252.769531 245.695312 254.007812 245.695312 C 256.566406 245.695312 257.308594 248.417969 257.308594 248.828125 C 257.308594 248.910156 257.308594 248.910156 257.144531 249.324219 Z M 255.574219 255.925781 "/>
<path style="fill:none;stroke-width:0.39848;stroke-linecap:butt;stroke-linejoin:miter;stroke:rgb(0%,0%,0%);stroke-opacity:1;stroke-miterlimit:10;" d="M 27.876588 26.362296 L 27.876588 9.223097 " transform="matrix(5.239581,0,0,-5.237674,249.461793,232.79195)"/>
<path style="fill:none;stroke-width:0.39848;stroke-linecap:round;stroke-linejoin:round;stroke:rgb(0%,0%,0%);stroke-opacity:1;stroke-miterlimit:10;" d="M -2.072061 2.388654 C -1.693941 0.955751 -0.851189 0.278067 -0.000232427 -0.0015056 C -0.851189 -0.277351 -1.693941 -0.954289 -2.072061 -2.391666 " transform="matrix(0,5.237674,5.239581,0,395.531326,185.516842)"/>
<path style=" stroke:none;fill-rule:nonzero;fill:rgb(0%,0%,0%);fill-opacity:1;" d="M 354.082031 127.246094 C 354.082031 126.667969 353.585938 125.84375 352.597656 125.84375 C 351.605469 125.84375 350.535156 126.832031 350.535156 127.90625 C 350.535156 128.480469 351.027344 129.226562 352.019531 129.226562 C 353.09375 129.226562 354.082031 128.234375 354.082031 127.246094 Z M 346.570312 145.808594 C 346.40625 146.304688 346.242188 146.714844 346.242188 147.375 C 346.242188 149.109375 347.726562 150.429688 349.707031 150.429688 C 353.421875 150.429688 354.992188 145.398438 354.992188 144.902344 C 354.992188 144.40625 354.496094 144.40625 354.414062 144.40625 C 353.917969 144.40625 353.835938 144.652344 353.753906 144.984375 C 352.84375 147.953125 351.277344 149.4375 349.875 149.4375 C 349.128906 149.4375 348.964844 148.945312 348.964844 148.203125 C 348.964844 147.292969 349.214844 146.632812 349.542969 145.808594 C 349.875 144.820312 350.285156 143.828125 350.699219 142.921875 C 351.027344 142.015625 352.347656 138.714844 352.433594 138.21875 C 352.597656 137.886719 352.679688 137.476562 352.679688 137.0625 C 352.679688 135.332031 351.195312 134.011719 349.214844 134.011719 C 345.582031 134.011719 343.929688 138.960938 343.929688 139.539062 C 343.929688 140.035156 344.425781 140.035156 344.507812 140.035156 C 345.085938 140.035156 345.085938 139.867188 345.167969 139.457031 C 346.160156 136.320312 347.726562 135 349.128906 135 C 349.707031 135 350.039062 135.332031 350.039062 136.320312 C 350.039062 137.144531 349.789062 137.640625 348.882812 139.949219 Z M 346.570312 145.808594 "/>
<path style=" stroke:none;fill-rule:nonzero;fill:rgb(0%,0%,0%);fill-opacity:1;" d="M 378.257812 137.359375 C 378.257812 137.277344 378.257812 136.949219 377.84375 136.949219 C 377.679688 136.949219 377.679688 137.03125 377.347656 137.359375 C 377.019531 137.609375 376.277344 138.515625 375.945312 138.847656 C 375.285156 138.019531 373.882812 136.949219 371.078125 136.949219 C 367.03125 136.949219 363.484375 139.835938 363.484375 142.722656 C 363.484375 144.621094 364.886719 145.941406 366.867188 146.519531 C 367.195312 146.601562 369.34375 147.015625 369.921875 147.097656 C 372.148438 147.59375 372.644531 147.675781 373.304688 148.253906 C 373.964844 148.746094 374.296875 149.488281 374.296875 150.230469 C 374.296875 152.378906 371.820312 154.769531 368.269531 154.769531 C 366.371094 154.769531 362.492188 154.359375 362.492188 151.140625 C 362.492188 150.808594 362.574219 150.398438 362.65625 150.066406 C 362.65625 149.902344 362.738281 149.902344 362.738281 149.820312 C 362.738281 149.40625 362.328125 149.40625 362.164062 149.40625 C 361.832031 149.40625 361.667969 149.488281 361.585938 149.984375 L 360.265625 155.101562 C 360.265625 155.183594 360.179688 155.511719 360.179688 155.59375 C 360.179688 155.59375 360.179688 155.925781 360.59375 155.925781 C 360.757812 155.925781 360.757812 155.925781 361.171875 155.59375 C 361.5 155.265625 362.246094 154.441406 362.492188 154.109375 C 363.976562 155.59375 366.207031 155.925781 368.269531 155.925781 C 372.5625 155.925781 376.027344 152.707031 376.027344 149.65625 C 376.027344 147.757812 374.625 146.105469 372.480469 145.613281 C 372.148438 145.527344 369.671875 145.035156 369.09375 144.953125 C 367.28125 144.539062 366.785156 144.457031 366.042969 143.878906 C 365.546875 143.464844 365.214844 142.804688 365.214844 142.144531 C 365.214844 140.082031 367.773438 138.019531 370.992188 138.019531 C 373.304688 138.019531 375.863281 138.929688 375.863281 142.144531 C 375.863281 142.558594 375.78125 142.972656 375.78125 143.054688 C 375.78125 143.464844 376.195312 143.464844 376.277344 143.464844 C 376.773438 143.464844 376.773438 143.382812 376.9375 142.890625 Z M 378.257812 137.359375 "/>
</g>
</svg>
