<?xml version="1.0" encoding="UTF-8"?>
<svg xmlns="http://www.w3.org/2000/svg" xmlns:xlink="http://www.w3.org/1999/xlink" width="452px" height="300px" viewBox="0 0 452 300" version="1.1">
<defs>
<clipPath id="clip1">
  <path d="M 3.648438 0 L 327 0 L 327 295.292969 L 3.648438 295.292969 Z M 3.648438 0 "/>
</clipPath>
<clipPath id="clip2">
  <path d="M 122 0 L 445.453125 0 L 445.453125 295.292969 L 122 295.292969 Z M 122 0 "/>
</clipPath>
<clipPath id="clip3">
  <path d="M 188 238 L 261 238 L 261 295.292969 L 188 295.292969 Z M 188 238 "/>
</clipPath>
</defs>
<g id="surface1">
<g clip-path="url(#clip1)" clip-rule="nonzero">
<path style="fill:none;stroke-width:0.3985;stroke-linecap:butt;stroke-linejoin:miter;stroke:rgb(0%,0%,0%);stroke-opacity:1;stroke-miterlimit:10;" d="M 28.347244 -0.000363871 C 28.347244 15.655854 15.655831 28.34637 0.00099846 28.34637 C -15.65459 28.34637 -28.346003 15.655854 -28.346003 -0.000363871 C -28.346003 -15.655826 -15.65459 -28.346342 0.00099846 -28.346342 C 15.655831 -28.346342 28.347244 -15.655826 28.347244 -0.000363871 Z M 28.347244 -0.000363871 " transform="matrix(5.171127,0,0,-5.172416,151.256556,147.646555)"/>
</g>
<g clip-path="url(#clip2)" clip-rule="nonzero">
<path style="fill:none;stroke-width:0.3985;stroke-linecap:butt;stroke-linejoin:miter;stroke:rgb(0%,0%,0%);stroke-opacity:1;stroke-miterlimit:10;" d="M 56.694246 -0.000363871 C 56.694246 15.655854 44.002833 28.34637 28.347244 28.34637 C 12.691656 28.34637 0.00099846 15.655854 0.00099846 -0.000363871 C 0.00099846 -15.655826 12.691656 -28.346342 28.347244 -28.346342 C 44.002833 -28.346342 56.694246 -15.655826 56.694246 -0.000363871 Z M 56.694246 -0.000363871 " transform="matrix(5.171127,0,0,-5.172416,151.256556,147.646555)"/>
</g>
<path style="fill-rule:nonzero;fill:rgb(100%,0%,0%);fill-opacity:1;stroke-width:0.3985;stroke-linecap:butt;stroke-linejoin:miter;stroke:rgb(100%,0%,0%);stroke-opacity:1;stroke-miterlimit:10;" d="M 15.581047 24.548428 C 15.581047 25.326293 14.949536 25.957647 14.172233 25.957647 C 13.394175 25.957647 12.763419 25.326293 12.763419 24.548428 C 12.763419 23.771319 13.394175 23.139965 14.172233 23.139965 C 14.949536 23.139965 15.581047 23.771319 15.581047 24.548428 Z M 15.581047 24.548428 " transform="matrix(5.171127,0,0,-5.172416,151.256556,147.646555)"/>
<path style=" stroke:none;fill-rule:nonzero;fill:rgb(100%,0%,0%);fill-opacity:1;" d="M 231.828125 274.625 C 231.828125 270.601562 228.5625 267.335938 224.542969 267.335938 C 220.519531 267.335938 217.257812 270.601562 217.257812 274.625 C 217.257812 278.644531 220.519531 281.910156 224.542969 281.910156 C 228.5625 281.910156 231.828125 278.644531 231.828125 274.625 Z M 231.828125 274.625 "/>
<g clip-path="url(#clip3)" clip-rule="nonzero">
<path style="fill:none;stroke-width:0.3985;stroke-linecap:butt;stroke-linejoin:miter;stroke:rgb(100%,0%,0%);stroke-opacity:1;stroke-miterlimit:10;" d="M 15.581047 -24.549156 C 15.581047 -23.771292 14.949536 -23.139938 14.172233 -23.139938 C 13.394175 -23.139938 12.763419 -23.771292 12.763419 -24.549156 C 12.763419 -25.326265 13.394175 -25.957619 14.172233 -25.957619 C 14.949536 -25.957619 15.581047 -25.326265 15.581047 -24.549156 Z M 15.581047 -24.549156 " transform="matrix(5.171127,0,0,-5.172416,151.256556,147.646555)"/>
</g>
</g>
</svg>
