<?xml version="1.0" encoding="UTF-8"?>
<svg xmlns="http://www.w3.org/2000/svg" xmlns:xlink="http://www.w3.org/1999/xlink" width="452pt" height="300pt" viewBox="0 0 452 300" version="1.1">
<defs>
<clipPath id="clip1">
  <path d="M 2.082031 0 L 327.382812 0 L 327.382812 296.804688 L 2.082031 296.804688 Z M 2.082031 0 "/>
</clipPath>
<clipPath id="clip2">
  <path d="M 121 0 L 446.148438 0 L 446.148438 296.804688 L 121 296.804688 Z M 121 0 "/>
</clipPath>
<clipPath id="clip3">
  <path d="M 187 239 L 261 239 L 261 296.804688 L 187 296.804688 Z M 187 239 "/>
</clipPath>
</defs>
<g id="surface1">
<g clip-path="url(#clip1)" clip-rule="nonzero">
<path style="fill:none;stroke-width:0.3985;stroke-linecap:butt;stroke-linejoin:miter;stroke:rgb(0%,0%,0%);stroke-opacity:1;stroke-miterlimit:10;" d="M 28.347443 0.000122503 C 28.347443 15.655431 15.656087 28.346629 0.000633865 28.346629 C -15.654819 28.346629 -28.346175 15.655431 -28.346175 0.000122503 C -28.346175 -15.655186 -15.654819 -28.346384 0.000633865 -28.346384 C 15.656087 -28.346384 28.347443 -15.655186 28.347443 0.000122503 Z M 28.347443 0.000122503 " transform="matrix(5.19762,0,0,-5.198915,150.445924,148.402981)"/>
</g>
<g clip-path="url(#clip2)" clip-rule="nonzero">
<path style="fill:none;stroke-width:0.3985;stroke-linecap:butt;stroke-linejoin:miter;stroke:rgb(0%,0%,0%);stroke-opacity:1;stroke-miterlimit:10;" d="M 56.693501 0.000122503 C 56.693501 15.655431 44.002896 28.346629 28.347443 28.346629 C 12.69199 28.346629 0.000633865 15.655431 0.000633865 0.000122503 C 0.000633865 -15.655186 12.69199 -28.346384 28.347443 -28.346384 C 44.002896 -28.346384 56.693501 -15.655186 56.693501 0.000122503 Z M 56.693501 0.000122503 " transform="matrix(5.19762,0,0,-5.198915,150.445924,148.402981)"/>
</g>
<path style="fill-rule:nonzero;fill:rgb(100%,0%,0%);fill-opacity:1;stroke-width:0.3985;stroke-linecap:butt;stroke-linejoin:miter;stroke:rgb(100%,0%,0%);stroke-opacity:1;stroke-miterlimit:10;" d="M 15.580932 24.548512 C 15.580932 25.326919 14.949634 25.957309 14.171784 25.957309 C 13.393934 25.957309 12.763387 25.326919 12.763387 24.548512 C 12.763387 23.770855 13.393934 23.139714 14.171784 23.139714 C 14.949634 23.139714 15.580932 23.770855 15.580932 24.548512 Z M 15.580932 24.548512 " transform="matrix(5.19762,0,0,-5.198915,150.445924,148.402981)"/>
<path style=" stroke:none;fill-rule:nonzero;fill:rgb(100%,0%,0%);fill-opacity:1;" d="M 231.429688 276.03125 C 231.429688 271.988281 228.148438 268.707031 224.105469 268.707031 C 220.0625 268.707031 216.785156 271.988281 216.785156 276.03125 C 216.785156 280.074219 220.0625 283.355469 224.105469 283.355469 C 228.148438 283.355469 231.429688 280.074219 231.429688 276.03125 Z M 231.429688 276.03125 "/>
<g clip-path="url(#clip3)" clip-rule="nonzero">
<path style="fill:none;stroke-width:0.3985;stroke-linecap:butt;stroke-linejoin:miter;stroke:rgb(100%,0%,0%);stroke-opacity:1;stroke-miterlimit:10;" d="M 15.580932 -24.549018 C 15.580932 -23.771362 14.949634 -23.14022 14.171784 -23.14022 C 13.393934 -23.14022 12.763387 -23.771362 12.763387 -24.549018 C 12.763387 -25.326674 13.393934 -25.957815 14.171784 -25.957815 C 14.949634 -25.957815 15.580932 -25.326674 15.580932 -24.549018 Z M 15.580932 -24.549018 " transform="matrix(5.19762,0,0,-5.198915,150.445924,148.402981)"/>
</g>
</g>
</svg>
