<?xml version="1.0" encoding="UTF-8"?>
<svg xmlns="http://www.w3.org/2000/svg" xmlns:xlink="http://www.w3.org/1999/xlink" width="300px" height="300px" viewBox="0 0 300 300" version="1.1">
<defs>
<clipPath id="clip1">
  <path d="M 96 2 L 224 2 L 224 298.378906 L 96 298.378906 Z M 96 2 "/>
</clipPath>
</defs>
<g id="surface1">
<path style="fill:none;stroke-width:0.3985;stroke-linecap:butt;stroke-linejoin:miter;stroke:rgb(0%,0%,0%);stroke-opacity:1;stroke-miterlimit:10;" d="M 21.779119 6.53411 L -41.958462 -12.588352 " transform="matrix(5.263158,0,0,-5.263158,149.189469,149.194737)"/>
<g clip-path="url(#clip1)" clip-rule="nonzero">
<path style="fill:none;stroke-width:0.3985;stroke-linecap:butt;stroke-linejoin:miter;stroke:rgb(0%,0%,0%);stroke-opacity:1;stroke-miterlimit:10;" d="M -4.447562 22.235829 L 8.453884 -42.2714 " transform="matrix(5.263158,0,0,-5.263158,149.189469,149.194737)"/>
</g>
<path style="fill-rule:nonzero;fill:rgb(100%,0%,0%);fill-opacity:1;stroke-width:0.3985;stroke-linecap:butt;stroke-linejoin:miter;stroke:rgb(100%,0%,0%);stroke-opacity:1;stroke-miterlimit:10;" d="M 1.408298 -0.000851516 C 1.408298 0.776961 0.779665 1.409305 -0.00185839 1.409305 C -0.779671 1.409305 -1.408304 0.776961 -1.408304 -0.000851516 C -1.408304 -0.778664 -0.779671 -1.411008 -0.00185839 -1.411008 C 0.779665 -1.411008 1.408298 -0.778664 1.408298 -0.000851516 Z M 1.408298 -0.000851516 " transform="matrix(5.263158,0,0,-5.263158,149.189469,149.194737)"/>
</g>
</svg>
