<?xml version="1.0" encoding="UTF-8"?>
<svg xmlns="http://www.w3.org/2000/svg" xmlns:xlink="http://www.w3.org/1999/xlink" width="502pt" height="300pt" viewBox="0 0 502 300" version="1.1">
<defs>
<clipPath id="clip1">
  <path d="M 0.386719 199 L 500.1875 199 L 500.1875 200.472656 L 0.386719 200.472656 Z M 0.386719 199 "/>
</clipPath>
</defs>
<g id="surface1">
<g clip-path="url(#clip1)" clip-rule="nonzero">
<path style="fill:none;stroke-width:0.3985;stroke-linecap:butt;stroke-linejoin:miter;stroke:rgb(0%,0%,0%);stroke-opacity:1;stroke-miterlimit:10;" d="M -42.521987 0.000672567 L 170.081485 0.000672567 " transform="matrix(2.350896,0,0,-2.350366,100.351477,199.872675)"/>
</g>
<path style="fill-rule:nonzero;fill:rgb(0%,0%,0%);fill-opacity:1;stroke-width:0.3985;stroke-linecap:butt;stroke-linejoin:miter;stroke:rgb(0%,0%,0%);stroke-opacity:1;stroke-miterlimit:10;" d="M 2.111931 0.000672567 C 2.111931 1.167379 1.168142 2.113043 0.0000362564 2.113043 C -1.168069 2.113043 -2.11352 1.167379 -2.11352 0.000672567 C -2.11352 -1.167696 -1.168069 -2.11336 0.0000362564 -2.11336 C 1.168142 -2.11336 2.111931 -1.167696 2.111931 0.000672567 Z M 2.111931 0.000672567 " transform="matrix(2.350896,0,0,-2.350366,100.351477,199.872675)"/>
<path style="fill-rule:nonzero;fill:rgb(0%,0%,0%);fill-opacity:1;stroke-width:0.3985;stroke-linecap:butt;stroke-linejoin:miter;stroke:rgb(0%,0%,0%);stroke-opacity:1;stroke-miterlimit:10;" d="M 87.162625 0.000672567 C 87.162625 1.167379 86.218835 2.113043 85.05073 2.113043 C 83.882625 2.113043 82.937174 1.167379 82.937174 0.000672567 C 82.937174 -1.167696 83.882625 -2.11336 85.05073 -2.11336 C 86.218835 -2.11336 87.162625 -1.167696 87.162625 0.000672567 Z M 87.162625 0.000672567 " transform="matrix(2.350896,0,0,-2.350366,100.351477,199.872675)"/>
<path style="fill:none;stroke-width:0.3985;stroke-linecap:butt;stroke-linejoin:miter;stroke:rgb(0%,0%,0%);stroke-opacity:1;stroke-miterlimit:10;" d="M 85.05073 0.000672567 L 85.05073 42.52564 " transform="matrix(2.350896,0,0,-2.350366,100.351477,199.872675)"/>
<path style="fill:none;stroke-width:0.3985;stroke-linecap:butt;stroke-linejoin:miter;stroke:rgb(0%,0%,0%);stroke-opacity:1;stroke-miterlimit:10;" d="M -12.727825 -6.366356 L 148.688376 74.345823 " transform="matrix(2.350896,0,0,-2.350366,100.351477,199.872675)"/>
<path style="fill:none;stroke-width:0.3985;stroke-linecap:butt;stroke-linejoin:miter;stroke:rgb(0%,0%,0%);stroke-opacity:1;stroke-miterlimit:10;" d="M 3.233511 -4.252323 L 81.817255 -4.252323 " transform="matrix(2.350896,0,0,-2.350366,100.351477,199.872675)"/>
<path style="fill:none;stroke-width:0.3985;stroke-linecap:round;stroke-linejoin:round;stroke:rgb(0%,0%,0%);stroke-opacity:1;stroke-miterlimit:10;" d="M -2.073707 2.391646 C -1.693201 0.957362 -0.850769 0.279276 -0.0000297119 0.0000637195 C -0.850769 -0.277486 -1.693201 -0.955572 -2.073707 -2.389857 " transform="matrix(-2.350896,0,0,2.350366,107.484305,209.867038)"/>
<path style="fill:none;stroke-width:0.3985;stroke-linecap:round;stroke-linejoin:round;stroke:rgb(0%,0%,0%);stroke-opacity:1;stroke-miterlimit:10;" d="M -2.073705 2.389857 C -1.693198 0.955572 -0.850767 0.277486 -0.0000272173 -0.0000637195 C -0.850767 -0.279276 -1.693198 -0.957362 -2.073705 -2.391646 " transform="matrix(2.350896,0,0,-2.350366,293.164126,209.867038)"/>
<path style=" stroke:none;fill-rule:nonzero;fill:rgb(0%,0%,0%);fill-opacity:1;" d="M 201.148438 218.277344 C 201.148438 217.832031 201.109375 217.832031 200.667969 217.832031 C 199.597656 218.867188 198.125 218.867188 197.460938 218.867188 L 197.460938 219.453125 C 197.828125 219.453125 198.933594 219.453125 199.820312 219.011719 L 199.820312 227.378906 C 199.820312 227.894531 199.820312 228.113281 198.199219 228.113281 L 197.570312 228.113281 L 197.570312 228.703125 C 197.867188 228.703125 199.855469 228.632812 200.484375 228.632812 C 201 228.632812 203.0625 228.703125 203.394531 228.703125 L 203.394531 228.113281 L 202.804688 228.113281 C 201.148438 228.113281 201.148438 227.894531 201.148438 227.378906 Z M 201.148438 218.277344 "/>
<path style="fill:none;stroke-width:0.3985;stroke-linecap:butt;stroke-linejoin:miter;stroke:rgb(100%,0%,0%);stroke-opacity:1;stroke-miterlimit:10;" d="M 89.302766 3.233215 L 89.302766 39.291435 " transform="matrix(2.350896,0,0,-2.350366,100.351477,199.872675)"/>
<path style="fill:none;stroke-width:0.3985;stroke-linecap:round;stroke-linejoin:round;stroke:rgb(100%,0%,0%);stroke-opacity:1;stroke-miterlimit:10;" d="M -2.073834 2.390768 C -1.693241 0.956806 -0.85062 0.278873 0.000311573 -0.000275647 C -0.85062 -0.277763 -1.693241 -0.955696 -2.073834 -2.391319 " transform="matrix(0,2.350366,2.350896,0,310.293617,192.741455)"/>
<path style="fill:none;stroke-width:0.3985;stroke-linecap:round;stroke-linejoin:round;stroke:rgb(100%,0%,0%);stroke-opacity:1;stroke-miterlimit:10;" d="M -2.072888 2.391319 C -1.693958 0.955696 -0.849674 0.277763 -0.000404895 0.000275647 C -0.849674 -0.278873 -1.693958 -0.956806 -2.072888 -2.390768 " transform="matrix(0,-2.350366,-2.350896,0,310.293617,107.053736)"/>
<path style=" stroke:none;fill-rule:nonzero;fill:rgb(100%,0%,0%);fill-opacity:1;" d="M 325.492188 151.070312 C 325.125 150.519531 324.570312 150.113281 323.796875 150.113281 C 321.695312 150.113281 319.558594 152.398438 319.558594 154.792969 C 319.558594 156.378906 320.628906 157.484375 322.027344 157.484375 C 322.914062 157.484375 323.722656 157.003906 324.386719 156.339844 C 324.683594 157.335938 325.640625 157.484375 326.046875 157.484375 C 326.636719 157.484375 327.078125 157.152344 327.375 156.636719 C 327.707031 156.007812 327.925781 155.050781 327.925781 154.976562 C 327.925781 154.792969 327.707031 154.792969 327.667969 154.792969 C 327.445312 154.792969 327.410156 154.828125 327.300781 155.273438 C 327.117188 156.082031 326.785156 157.039062 326.121094 157.039062 C 325.679688 157.039062 325.566406 156.671875 325.566406 156.230469 C 325.566406 155.972656 325.714844 155.382812 325.824219 154.941406 C 325.9375 154.5 326.082031 153.835938 326.15625 153.464844 L 326.488281 152.214844 C 326.597656 151.808594 326.785156 151.035156 326.785156 150.921875 C 326.785156 150.59375 326.488281 150.40625 326.230469 150.40625 C 325.972656 150.40625 325.566406 150.628906 325.492188 151.070312 Z M 324.425781 155.273438 C 324.3125 155.75 323.945312 156.082031 323.613281 156.378906 C 323.464844 156.523438 322.804688 157.039062 322.101562 157.039062 C 321.476562 157.039062 320.886719 156.597656 320.886719 155.457031 C 320.886719 154.570312 321.367188 152.765625 321.734375 152.101562 C 322.507812 150.8125 323.320312 150.554688 323.796875 150.554688 C 324.941406 150.554688 325.273438 151.808594 325.273438 151.992188 C 325.273438 152.066406 325.234375 152.175781 325.199219 152.214844 Z M 324.425781 155.273438 "/>
<path style=" stroke:none;fill-rule:nonzero;fill:rgb(100%,0%,0%);fill-opacity:1;" d="M 339.046875 147.652344 C 339.230469 147.652344 339.5625 147.652344 339.5625 147.355469 C 339.5625 147.023438 339.230469 147.023438 339.046875 147.023438 L 331.121094 147.023438 C 330.898438 147.023438 330.605469 147.023438 330.605469 147.355469 C 330.605469 147.652344 330.898438 147.652344 331.121094 147.652344 Z M 339.046875 147.652344 "/>
<path style=" stroke:none;fill-rule:nonzero;fill:rgb(100%,0%,0%);fill-opacity:1;" d="M 346.089844 142.824219 C 346.089844 142.457031 346.054688 142.457031 345.648438 142.457031 C 344.835938 143.230469 343.511719 143.230469 343.289062 143.230469 L 343.070312 143.230469 L 343.070312 143.746094 L 343.289062 143.746094 C 343.546875 143.746094 344.320312 143.707031 344.984375 143.414062 L 344.984375 149.273438 C 344.984375 149.640625 344.984375 149.753906 343.769531 149.753906 L 343.179688 149.753906 L 343.179688 150.269531 C 343.804688 150.230469 344.835938 150.230469 345.539062 150.230469 C 346.203125 150.230469 347.269531 150.230469 347.898438 150.269531 L 347.898438 149.753906 L 347.308594 149.753906 C 346.089844 149.753906 346.089844 149.640625 346.089844 149.273438 Z M 346.089844 142.824219 "/>
<path style="fill-rule:nonzero;fill:rgb(0%,0%,100%);fill-opacity:1;stroke-width:0.3985;stroke-linecap:butt;stroke-linejoin:miter;stroke:rgb(0%,0%,100%);stroke-opacity:1;stroke-miterlimit:10;" d="M 129.687972 0.000672567 C 129.687972 1.167379 128.744182 2.113043 127.576077 2.113043 C 126.407972 2.113043 125.462521 1.167379 125.462521 0.000672567 C 125.462521 -1.167696 126.407972 -2.11336 127.576077 -2.11336 C 128.744182 -2.11336 129.687972 -1.167696 129.687972 0.000672567 Z M 129.687972 0.000672567 " transform="matrix(2.350896,0,0,-2.350366,100.351477,199.872675)"/>
<path style="fill:none;stroke-width:0.3985;stroke-linecap:butt;stroke-linejoin:miter;stroke:rgb(0%,0%,100%);stroke-opacity:1;stroke-miterlimit:10;" d="M 3.233511 -21.26098 L 124.342602 -21.26098 " transform="matrix(2.350896,0,0,-2.350366,100.351477,199.872675)"/>
<path style="fill:none;stroke-width:0.3985;stroke-linecap:round;stroke-linejoin:round;stroke:rgb(0%,0%,100%);stroke-opacity:1;stroke-miterlimit:10;" d="M -2.073707 2.39248 C -1.693201 0.956533 -0.850769 0.278447 -0.0000297119 0.00089709 C -0.850769 -0.278315 -1.693201 -0.956401 -2.073707 -2.390686 " transform="matrix(-2.350896,0,0,2.350366,107.484305,249.841642)"/>
<path style="fill:none;stroke-width:0.3985;stroke-linecap:round;stroke-linejoin:round;stroke:rgb(0%,0%,100%);stroke-opacity:1;stroke-miterlimit:10;" d="M -2.073725 2.390686 C -1.693218 0.956401 -0.850787 0.278315 -0.0000471745 -0.00089709 C -0.850787 -0.278447 -1.693218 -0.956533 -2.073725 -2.39248 " transform="matrix(2.350896,0,0,-2.350366,393.13683,249.841642)"/>
<path style=" stroke:none;fill-rule:nonzero;fill:rgb(0%,0%,100%);fill-opacity:1;" d="M 252.15625 258.90625 C 251.789062 258.355469 251.234375 257.949219 250.460938 257.949219 C 248.359375 257.949219 246.222656 260.234375 246.222656 262.628906 C 246.222656 264.214844 247.292969 265.320312 248.691406 265.320312 C 249.578125 265.320312 250.386719 264.839844 251.050781 264.179688 C 251.347656 265.171875 252.304688 265.320312 252.710938 265.320312 C 253.300781 265.320312 253.742188 264.988281 254.039062 264.472656 C 254.367188 263.847656 254.589844 262.886719 254.589844 262.8125 C 254.589844 262.628906 254.367188 262.628906 254.332031 262.628906 C 254.109375 262.628906 254.074219 262.667969 253.964844 263.109375 C 253.777344 263.917969 253.449219 264.878906 252.785156 264.878906 C 252.339844 264.878906 252.230469 264.507812 252.230469 264.066406 C 252.230469 263.808594 252.378906 263.21875 252.488281 262.777344 C 252.601562 262.335938 252.746094 261.671875 252.820312 261.304688 L 253.152344 260.050781 C 253.261719 259.644531 253.449219 258.871094 253.449219 258.761719 C 253.449219 258.429688 253.152344 258.246094 252.894531 258.246094 C 252.636719 258.246094 252.230469 258.464844 252.15625 258.90625 Z M 251.089844 263.109375 C 250.976562 263.589844 250.609375 263.917969 250.277344 264.214844 C 250.128906 264.363281 249.464844 264.878906 248.765625 264.878906 C 248.140625 264.878906 247.550781 264.4375 247.550781 263.292969 C 247.550781 262.410156 248.027344 260.601562 248.398438 259.941406 C 249.171875 258.648438 249.984375 258.390625 250.460938 258.390625 C 251.605469 258.390625 251.9375 259.644531 251.9375 259.828125 C 251.9375 259.902344 251.898438 260.011719 251.863281 260.050781 Z M 251.089844 263.109375 "/>
<path style="fill:none;stroke-width:0.3985;stroke-linecap:butt;stroke-linejoin:miter;stroke:rgb(0%,0%,0%);stroke-opacity:1;stroke-miterlimit:10;" d="M 127.576077 0.000672567 L 127.559461 63.782307 " transform="matrix(2.350896,0,0,-2.350366,100.351477,199.872675)"/>
<path style="fill:none;stroke-width:0.3985;stroke-linecap:butt;stroke-linejoin:miter;stroke:rgb(0%,0%,0%);stroke-opacity:1;stroke-miterlimit:10;" d="M 131.828113 3.233215 L 131.813159 60.548102 " transform="matrix(2.350896,0,0,-2.350366,100.351477,199.872675)"/>
<path style="fill:none;stroke-width:0.3985;stroke-linecap:round;stroke-linejoin:round;stroke:rgb(0%,0%,0%);stroke-opacity:1;stroke-miterlimit:10;" d="M -2.073284 2.391905 C -1.693021 0.957856 -0.850556 0.279729 0.000311662 0.000384668 C -0.850684 -0.276907 -1.693461 -0.954646 -2.074384 -2.390182 " transform="matrix(0.000540707,2.350366,2.350896,-0.000540585,410.264721,192.741455)"/>
<path style="fill:none;stroke-width:0.3985;stroke-linecap:round;stroke-linejoin:round;stroke:rgb(0%,0%,0%);stroke-opacity:1;stroke-miterlimit:10;" d="M -2.070643 2.391858 C -1.695337 0.957818 -0.847872 0.279707 -0.00198526 0.000380199 C -0.847989 -0.276929 -1.695739 -0.956346 -2.071647 -2.390229 " transform="matrix(-0.000493687,-2.350366,-2.350896,0.000493575,410.231362,57.096896)"/>
<path style=" stroke:none;fill-rule:nonzero;fill:rgb(0%,0%,0%);fill-opacity:1;" d="M 424.007812 119.773438 C 424.007812 119.332031 423.972656 119.332031 423.53125 119.332031 C 422.460938 120.363281 420.988281 120.363281 420.324219 120.363281 L 420.324219 120.953125 C 420.691406 120.953125 421.796875 120.953125 422.683594 120.511719 L 422.683594 128.875 C 422.683594 129.390625 422.683594 129.613281 421.058594 129.613281 L 420.433594 129.613281 L 420.433594 130.203125 C 420.726562 130.203125 422.71875 130.128906 423.34375 130.128906 C 423.863281 130.128906 425.925781 130.203125 426.257812 130.203125 L 426.257812 129.613281 L 425.667969 129.613281 C 424.007812 129.613281 424.007812 129.390625 424.007812 128.875 Z M 424.007812 119.773438 "/>
</g>
</svg>
