<?xml version="1.0" encoding="UTF-8"?>
<svg xmlns="http://www.w3.org/2000/svg" xmlns:xlink="http://www.w3.org/1999/xlink" width="502px" height="300px" viewBox="0 0 502 300" version="1.1">
<defs>
<clipPath id="clip1">
  <path d="M 1.328125 198 L 499.722656 198 L 499.722656 199.90625 L 1.328125 199.90625 Z M 1.328125 198 "/>
</clipPath>
</defs>
<g id="surface1">
<g clip-path="url(#clip1)" clip-rule="nonzero">
<path style="fill:none;stroke-width:0.3985;stroke-linecap:butt;stroke-linejoin:miter;stroke:rgb(0%,0%,0%);stroke-opacity:1;stroke-miterlimit:10;" d="M -42.522628 0.000671325 L 170.08102 0.000671325 " transform="matrix(2.344279,0,0,-2.343751,101.013044,199.310167)"/>
</g>
<path style="fill-rule:nonzero;fill:rgb(0%,0%,0%);fill-opacity:1;stroke-width:0.3985;stroke-linecap:butt;stroke-linejoin:miter;stroke:rgb(0%,0%,0%);stroke-opacity:1;stroke-miterlimit:10;" d="M 2.112291 0.000671325 C 2.112291 1.167338 1.167504 2.112337 -0.000565167 2.112337 C -1.168635 2.112337 -2.113421 1.167338 -2.113421 0.000671325 C -2.113421 -1.167662 -1.168635 -2.112661 -0.000565167 -2.112661 C 1.167504 -2.112661 2.112291 -1.167662 2.112291 0.000671325 Z M 2.112291 0.000671325 " transform="matrix(2.344279,0,0,-2.343751,101.013044,199.310167)"/>
<path style="fill-rule:nonzero;fill:rgb(0%,0%,0%);fill-opacity:1;stroke-width:0.3985;stroke-linecap:butt;stroke-linejoin:miter;stroke:rgb(0%,0%,0%);stroke-opacity:1;stroke-miterlimit:10;" d="M 87.163081 0.000671325 C 87.163081 1.167338 86.218295 2.112337 85.050225 2.112337 C 83.882155 2.112337 82.937369 1.167338 82.937369 0.000671325 C 82.937369 -1.167662 83.882155 -2.112661 85.050225 -2.112661 C 86.218295 -2.112661 87.163081 -1.167662 87.163081 0.000671325 Z M 87.163081 0.000671325 " transform="matrix(2.344279,0,0,-2.343751,101.013044,199.310167)"/>
<path style="fill:none;stroke-width:0.3985;stroke-linecap:butt;stroke-linejoin:miter;stroke:rgb(0%,0%,0%);stroke-opacity:1;stroke-miterlimit:10;" d="M 85.050225 0.000671325 L 85.050225 42.525659 " transform="matrix(2.344279,0,0,-2.343751,101.013044,199.310167)"/>
<path style="fill:none;stroke-width:0.3985;stroke-linecap:butt;stroke-linejoin:miter;stroke:rgb(0%,0%,0%);stroke-opacity:1;stroke-miterlimit:10;" d="M -12.727691 -6.365993 L 148.687518 74.345649 " transform="matrix(2.344279,0,0,-2.343751,101.013044,199.310167)"/>
<path style="fill:none;stroke-width:0.3985;stroke-linecap:butt;stroke-linejoin:miter;stroke:rgb(0%,0%,0%);stroke-opacity:1;stroke-miterlimit:10;" d="M 3.233704 -4.252661 L 81.815956 -4.252661 " transform="matrix(2.344279,0,0,-2.343751,101.013044,199.310167)"/>
<path style="fill:none;stroke-width:0.3985;stroke-linecap:round;stroke-linejoin:round;stroke:rgb(0%,0%,0%);stroke-opacity:1;stroke-miterlimit:10;" d="M -2.072526 2.392068 C -1.692612 0.957068 -0.849469 0.278735 0.000338894 0.000401716 C -0.849469 -0.277932 -1.692612 -0.956265 -2.072526 -2.389598 " transform="matrix(-2.344279,0,0,2.343751,108.125794,209.276402)"/>
<path style="fill:none;stroke-width:0.3985;stroke-linecap:round;stroke-linejoin:round;stroke:rgb(0%,0%,0%);stroke-opacity:1;stroke-miterlimit:10;" d="M -2.073632 2.389598 C -1.693718 0.956265 -0.850575 0.277932 -0.000766553 -0.000401716 C -0.850575 -0.278735 -1.693718 -0.957068 -2.073632 -2.392068 " transform="matrix(2.344279,0,0,-2.343751,293.283047,209.276402)"/>
<path style=" stroke:none;fill-rule:nonzero;fill:rgb(0%,0%,0%);fill-opacity:1;" d="M 201.523438 217.660156 C 201.523438 217.21875 201.488281 217.21875 201.046875 217.21875 C 199.980469 218.25 198.511719 218.25 197.847656 218.25 L 197.847656 218.835938 C 198.214844 218.835938 199.320312 218.835938 200.203125 218.394531 L 200.203125 226.738281 C 200.203125 227.253906 200.203125 227.472656 198.582031 227.472656 L 197.960938 227.472656 L 197.960938 228.0625 C 198.253906 228.0625 200.238281 227.988281 200.863281 227.988281 C 201.378906 227.988281 203.4375 228.0625 203.765625 228.0625 L 203.765625 227.472656 L 203.179688 227.472656 C 201.523438 227.472656 201.523438 227.253906 201.523438 226.738281 Z M 201.523438 217.660156 "/>
<path style="fill:none;stroke-width:0.3985;stroke-linecap:butt;stroke-linejoin:miter;stroke:rgb(100%,0%,0%);stroke-opacity:1;stroke-miterlimit:10;" d="M 89.302598 3.234004 L 89.302598 39.292326 " transform="matrix(2.344279,0,0,-2.343751,101.013044,199.310167)"/>
<path style="fill:none;stroke-width:0.3985;stroke-linecap:round;stroke-linejoin:round;stroke:rgb(100%,0%,0%);stroke-opacity:1;stroke-miterlimit:10;" d="M -2.07324 2.390685 C -1.693241 0.956009 -0.849907 0.277829 0.0000922918 -0.000441732 C -0.849907 -0.278712 -1.693241 -0.956892 -2.07324 -2.389902 " transform="matrix(0,2.343751,2.344279,0,310.364317,192.199002)"/>
<path style="fill:none;stroke-width:0.3985;stroke-linecap:round;stroke-linejoin:round;stroke:rgb(100%,0%,0%);stroke-opacity:1;stroke-miterlimit:10;" d="M -2.073954 2.389902 C -1.693954 0.956892 -0.850621 0.278712 -0.000621341 0.000441732 C -0.850621 -0.277829 -1.693954 -0.956009 -2.073954 -2.390685 " transform="matrix(0,-2.343751,-2.344279,0,310.364317,106.75245)"/>
<path style=" stroke:none;fill-rule:nonzero;fill:rgb(100%,0%,0%);fill-opacity:1;" d="M 325.519531 150.644531 C 325.152344 150.09375 324.601562 149.691406 323.832031 149.691406 C 321.734375 149.691406 319.605469 151.96875 319.605469 154.355469 C 319.605469 155.9375 320.667969 157.039062 322.066406 157.039062 C 322.949219 157.039062 323.757812 156.5625 324.417969 155.902344 C 324.710938 156.894531 325.667969 157.039062 326.074219 157.039062 C 326.660156 157.039062 327.101562 156.710938 327.394531 156.195312 C 327.726562 155.570312 327.949219 154.613281 327.949219 154.542969 C 327.949219 154.355469 327.726562 154.355469 327.691406 154.355469 C 327.46875 154.355469 327.433594 154.394531 327.324219 154.835938 C 327.140625 155.644531 326.808594 156.597656 326.144531 156.597656 C 325.707031 156.597656 325.59375 156.230469 325.59375 155.789062 C 325.59375 155.535156 325.742188 154.945312 325.851562 154.503906 C 325.960938 154.0625 326.109375 153.402344 326.183594 153.035156 L 326.515625 151.785156 C 326.625 151.378906 326.808594 150.609375 326.808594 150.5 C 326.808594 150.167969 326.515625 149.984375 326.257812 149.984375 C 326 149.984375 325.59375 150.203125 325.519531 150.644531 Z M 324.457031 154.835938 C 324.34375 155.3125 323.976562 155.644531 323.648438 155.9375 C 323.5 156.085938 322.839844 156.597656 322.140625 156.597656 C 321.515625 156.597656 320.925781 156.15625 320.925781 155.019531 C 320.925781 154.136719 321.40625 152.335938 321.773438 151.675781 C 322.542969 150.386719 323.351562 150.132812 323.832031 150.132812 C 324.96875 150.132812 325.300781 151.378906 325.300781 151.566406 C 325.300781 151.636719 325.265625 151.75 325.226562 151.785156 Z M 324.457031 154.835938 "/>
<path style=" stroke:none;fill-rule:nonzero;fill:rgb(100%,0%,0%);fill-opacity:1;" d="M 339.035156 147.234375 C 339.21875 147.234375 339.550781 147.234375 339.550781 146.941406 C 339.550781 146.613281 339.21875 146.613281 339.035156 146.613281 L 331.132812 146.613281 C 330.910156 146.613281 330.617188 146.613281 330.617188 146.941406 C 330.617188 147.234375 330.910156 147.234375 331.132812 147.234375 Z M 339.035156 147.234375 "/>
<path style=" stroke:none;fill-rule:nonzero;fill:rgb(100%,0%,0%);fill-opacity:1;" d="M 346.0625 142.421875 C 346.0625 142.054688 346.023438 142.054688 345.621094 142.054688 C 344.8125 142.828125 343.488281 142.828125 343.269531 142.828125 L 343.046875 142.828125 L 343.046875 143.339844 L 343.269531 143.339844 C 343.523438 143.339844 344.296875 143.304688 344.957031 143.011719 L 344.957031 148.851562 C 344.957031 149.21875 344.957031 149.332031 343.746094 149.332031 L 343.15625 149.332031 L 343.15625 149.84375 C 343.78125 149.808594 344.8125 149.808594 345.507812 149.808594 C 346.171875 149.808594 347.238281 149.808594 347.863281 149.84375 L 347.863281 149.332031 L 347.273438 149.332031 C 346.0625 149.332031 346.0625 149.21875 346.0625 148.851562 Z M 346.0625 142.421875 "/>
<path style="fill-rule:nonzero;fill:rgb(0%,0%,100%);fill-opacity:1;stroke-width:0.3985;stroke-linecap:butt;stroke-linejoin:miter;stroke:rgb(0%,0%,100%);stroke-opacity:1;stroke-miterlimit:10;" d="M 129.688476 0.000671325 C 129.688476 1.167338 128.74369 2.112337 127.57562 2.112337 C 126.407551 2.112337 125.462764 1.167338 125.462764 0.000671325 C 125.462764 -1.167662 126.407551 -2.112661 127.57562 -2.112661 C 128.74369 -2.112661 129.688476 -1.167662 129.688476 0.000671325 Z M 129.688476 0.000671325 " transform="matrix(2.344279,0,0,-2.343751,101.013044,199.310167)"/>
<path style="fill:none;stroke-width:0.3985;stroke-linecap:butt;stroke-linejoin:miter;stroke:rgb(0%,0%,100%);stroke-opacity:1;stroke-miterlimit:10;" d="M 3.233704 -21.260989 L 124.341351 -21.260989 " transform="matrix(2.344279,0,0,-2.343751,101.013044,199.310167)"/>
<path style="fill:none;stroke-width:0.3985;stroke-linecap:round;stroke-linejoin:round;stroke:rgb(0%,0%,100%);stroke-opacity:1;stroke-miterlimit:10;" d="M -2.072526 2.392577 C -1.692612 0.957578 -0.849469 0.279244 0.000338894 0.00091115 C -0.849469 -0.277422 -1.692612 -0.955755 -2.072526 -2.390755 " transform="matrix(-2.344279,0,0,2.343751,108.125794,249.138489)"/>
<path style="fill:none;stroke-width:0.3985;stroke-linecap:round;stroke-linejoin:round;stroke:rgb(0%,0%,100%);stroke-opacity:1;stroke-miterlimit:10;" d="M -2.073598 2.390755 C -1.693684 0.955755 -0.850541 0.277422 -0.000733056 -0.00091115 C -0.850541 -0.279244 -1.693684 -0.957578 -2.073598 -2.392577 " transform="matrix(2.344279,0,0,-2.343751,392.974375,249.138489)"/>
<path style=" stroke:none;fill-rule:nonzero;fill:rgb(0%,0%,100%);fill-opacity:1;" d="M 252.390625 258.179688 C 252.023438 257.628906 251.472656 257.222656 250.699219 257.222656 C 248.605469 257.222656 246.472656 259.503906 246.472656 261.890625 C 246.472656 263.472656 247.539062 264.574219 248.9375 264.574219 C 249.820312 264.574219 250.628906 264.097656 251.289062 263.433594 C 251.582031 264.425781 252.539062 264.574219 252.941406 264.574219 C 253.53125 264.574219 253.972656 264.242188 254.265625 263.726562 C 254.597656 263.105469 254.816406 262.148438 254.816406 262.074219 C 254.816406 261.890625 254.597656 261.890625 254.558594 261.890625 C 254.339844 261.890625 254.304688 261.925781 254.191406 262.367188 C 254.007812 263.175781 253.679688 264.132812 253.015625 264.132812 C 252.574219 264.132812 252.464844 263.765625 252.464844 263.324219 C 252.464844 263.066406 252.613281 262.480469 252.722656 262.039062 C 252.832031 261.597656 252.980469 260.933594 253.054688 260.566406 L 253.382812 259.320312 C 253.496094 258.914062 253.679688 258.144531 253.679688 258.03125 C 253.679688 257.703125 253.382812 257.519531 253.125 257.519531 C 252.871094 257.519531 252.464844 257.738281 252.390625 258.179688 Z M 251.324219 262.367188 C 251.214844 262.847656 250.847656 263.175781 250.515625 263.472656 C 250.371094 263.617188 249.707031 264.132812 249.011719 264.132812 C 248.386719 264.132812 247.796875 263.691406 247.796875 262.550781 C 247.796875 261.671875 248.273438 259.871094 248.640625 259.207031 C 249.414062 257.921875 250.222656 257.664062 250.699219 257.664062 C 251.839844 257.664062 252.171875 258.914062 252.171875 259.097656 C 252.171875 259.171875 252.132812 259.28125 252.097656 259.320312 Z M 251.324219 262.367188 "/>
<path style="fill:none;stroke-width:0.3985;stroke-linecap:butt;stroke-linejoin:miter;stroke:rgb(0%,0%,0%);stroke-opacity:1;stroke-miterlimit:10;" d="M 127.57562 0.000671325 L 127.560623 63.782319 " transform="matrix(2.344279,0,0,-2.343751,101.013044,199.310167)"/>
<path style="fill:none;stroke-width:0.3985;stroke-linecap:butt;stroke-linejoin:miter;stroke:rgb(0%,0%,0%);stroke-opacity:1;stroke-miterlimit:10;" d="M 131.827993 3.234004 L 131.812996 60.548987 " transform="matrix(2.344279,0,0,-2.343751,101.013044,199.310167)"/>
<path style="fill:none;stroke-width:0.3985;stroke-linecap:round;stroke-linejoin:round;stroke:rgb(0%,0%,0%);stroke-opacity:1;stroke-miterlimit:10;" d="M -2.07269 2.391869 C -1.69302 0.957106 -0.849843 0.278731 0.0000923528 0.000265451 C -0.849971 -0.27781 -1.69346 -0.955796 -2.07379 -2.388718 " transform="matrix(0.000539185,2.343751,2.344279,-0.000539064,410.054065,192.199002)"/>
<path style="fill:none;stroke-width:0.3985;stroke-linecap:round;stroke-linejoin:round;stroke:rgb(0%,0%,0%);stroke-opacity:1;stroke-miterlimit:10;" d="M -2.071717 2.392099 C -1.695352 0.957344 -0.848828 0.278986 -0.00221975 0.000537811 C -0.848945 -0.277555 -1.695753 -0.955557 -2.072721 -2.390154 " transform="matrix(-0.000492297,-2.343751,-2.344279,0.000492186,410.020791,56.936203)"/>
<path style=" stroke:none;fill-rule:nonzero;fill:rgb(0%,0%,0%);fill-opacity:1;" d="M 423.757812 119.4375 C 423.757812 118.996094 423.722656 118.996094 423.28125 118.996094 C 422.214844 120.023438 420.746094 120.023438 420.085938 120.023438 L 420.085938 120.613281 C 420.453125 120.613281 421.554688 120.613281 422.4375 120.171875 L 422.4375 128.515625 C 422.4375 129.027344 422.4375 129.25 420.820312 129.25 L 420.195312 129.25 L 420.195312 129.835938 C 420.488281 129.835938 422.472656 129.761719 423.097656 129.761719 C 423.613281 129.761719 425.671875 129.835938 426 129.835938 L 426 129.25 L 425.414062 129.25 C 423.757812 129.25 423.757812 129.027344 423.757812 128.515625 Z M 423.757812 119.4375 "/>
</g>
</svg>
