<?xml version="1.0" encoding="UTF-8"?>
<svg xmlns="http://www.w3.org/2000/svg" xmlns:xlink="http://www.w3.org/1999/xlink" width="545pt" height="300pt" viewBox="0 0 545 300" version="1.1">
<g id="surface1">
<path style=" stroke:none;fill-rule:nonzero;fill:rgb(0%,0%,0%);fill-opacity:1;" d="M 137.351562 41.960938 C 137.679688 40.722656 137.765625 40.144531 138.835938 39.980469 C 139.25 39.980469 140.898438 39.980469 141.972656 39.980469 C 145.683594 39.980469 151.542969 39.980469 151.542969 45.097656 C 151.542969 46.910156 150.636719 50.542969 148.65625 52.523438 C 147.253906 53.925781 144.53125 55.578125 139.828125 55.578125 L 133.96875 55.578125 Z M 144.859375 56.238281 C 150.140625 55.082031 156.414062 51.449219 156.414062 46.167969 C 156.414062 41.710938 151.625 38.328125 144.777344 38.328125 L 129.925781 38.328125 C 128.851562 38.328125 128.355469 38.328125 128.355469 39.402344 C 128.355469 39.980469 128.851562 39.980469 129.84375 39.980469 C 129.925781 39.980469 130.914062 39.980469 131.824219 40.0625 C 132.8125 40.144531 133.226562 40.226562 133.226562 40.886719 C 133.226562 41.136719 133.226562 41.21875 133.058594 41.878906 L 126.046875 70.019531 C 125.46875 72 125.386719 72.414062 121.261719 72.414062 C 120.351562 72.414062 119.859375 72.414062 119.859375 73.484375 C 119.859375 74.0625 120.519531 74.0625 120.601562 74.0625 C 122.085938 74.0625 125.714844 73.898438 127.203125 73.898438 C 128.6875 73.898438 132.398438 74.0625 133.804688 74.0625 C 134.214844 74.0625 134.875 74.0625 134.875 72.988281 C 134.875 72.414062 134.378906 72.414062 133.390625 72.414062 C 131.492188 72.414062 130.007812 72.414062 130.007812 71.503906 C 130.007812 71.175781 130.089844 70.925781 130.171875 70.597656 L 133.636719 56.730469 L 139.828125 56.730469 C 144.613281 56.730469 145.519531 59.703125 145.519531 61.519531 C 145.519531 62.261719 145.109375 63.914062 144.777344 65.148438 C 144.449219 66.554688 143.953125 68.535156 143.953125 69.523438 C 143.953125 75.21875 150.222656 75.21875 150.964844 75.21875 C 155.339844 75.21875 157.238281 69.9375 157.238281 69.195312 C 157.238281 68.535156 156.660156 68.535156 156.578125 68.535156 C 156.082031 68.535156 156 68.945312 155.917969 69.277344 C 154.597656 73.15625 152.367188 74.0625 151.132812 74.0625 C 149.398438 74.0625 149.066406 72.90625 149.066406 70.84375 C 149.066406 69.277344 149.398438 66.554688 149.5625 64.902344 C 149.644531 64.160156 149.8125 63.167969 149.8125 62.425781 C 149.8125 58.382812 146.261719 56.816406 144.859375 56.238281 Z M 144.859375 56.238281 "/>
<path style=" stroke:none;fill-rule:nonzero;fill:rgb(0%,0%,0%);fill-opacity:1;" d="M 466.109375 37.667969 C 466.109375 37.503906 466.027344 37.171875 465.53125 37.171875 C 465.285156 37.171875 465.203125 37.257812 464.625 38 L 462.066406 40.96875 C 460.746094 38.492188 458.023438 37.171875 454.558594 37.171875 C 447.957031 37.171875 441.683594 43.199219 441.683594 49.550781 C 441.683594 53.761719 444.40625 56.15625 447.128906 56.980469 L 452.742188 58.382812 C 454.640625 58.878906 457.527344 59.703125 457.527344 63.996094 C 457.527344 68.699219 453.238281 73.566406 448.121094 73.566406 C 444.738281 73.566406 438.960938 72.414062 438.960938 65.976562 C 438.960938 64.738281 439.210938 63.417969 439.292969 63.085938 C 439.292969 62.921875 439.375 62.839844 439.375 62.757812 C 439.375 62.261719 439.042969 62.179688 438.714844 62.179688 C 438.464844 62.179688 438.382812 62.261719 438.21875 62.425781 C 437.972656 62.589844 435.082031 74.558594 435.082031 74.722656 C 435.082031 74.96875 435.332031 75.21875 435.660156 75.21875 C 435.910156 75.21875 435.992188 75.136719 436.570312 74.394531 L 439.125 71.421875 C 441.4375 74.476562 444.984375 75.21875 448.039062 75.21875 C 455.132812 75.21875 461.324219 68.285156 461.324219 61.765625 C 461.324219 58.136719 459.507812 56.402344 458.765625 55.660156 C 457.527344 54.421875 456.703125 54.257812 452.082031 53.019531 C 450.925781 52.6875 449.027344 52.195312 448.617188 52.109375 C 447.128906 51.617188 445.398438 50.128906 445.398438 47.324219 C 445.398438 43.117188 449.605469 38.660156 454.558594 38.660156 C 458.847656 38.660156 462.066406 40.886719 462.066406 46.746094 C 462.066406 48.398438 461.902344 49.386719 461.902344 49.71875 C 461.902344 49.71875 461.902344 50.210938 462.476562 50.210938 C 463.054688 50.210938 463.054688 50.046875 463.304688 49.140625 Z M 466.109375 37.667969 "/>
<path style=" stroke:none;fill-rule:nonzero;fill:rgb(0%,0%,0%);fill-opacity:1;" d="M 64.96875 213.703125 C 65.296875 212.464844 65.378906 211.886719 66.453125 211.722656 C 66.867188 211.722656 68.515625 211.722656 69.589844 211.722656 C 73.300781 211.722656 79.160156 211.722656 79.160156 216.839844 C 79.160156 218.652344 78.253906 222.285156 76.273438 224.265625 C 74.871094 225.667969 72.148438 227.320312 67.445312 227.320312 L 61.585938 227.320312 Z M 72.476562 227.980469 C 77.757812 226.824219 84.027344 223.191406 84.027344 217.910156 C 84.027344 213.453125 79.242188 210.070312 72.394531 210.070312 L 57.542969 210.070312 C 56.46875 210.070312 55.972656 210.070312 55.972656 211.144531 C 55.972656 211.722656 56.46875 211.722656 57.460938 211.722656 C 57.542969 211.722656 58.53125 211.722656 59.4375 211.804688 C 60.429688 211.886719 60.84375 211.96875 60.84375 212.628906 C 60.84375 212.875 60.84375 212.960938 60.675781 213.621094 L 53.664062 241.761719 C 53.085938 243.742188 53.003906 244.152344 48.878906 244.152344 C 47.96875 244.152344 47.472656 244.152344 47.472656 245.226562 C 47.472656 245.804688 48.132812 245.804688 48.21875 245.804688 C 49.703125 245.804688 53.332031 245.640625 54.820312 245.640625 C 56.304688 245.640625 60.015625 245.804688 61.417969 245.804688 C 61.832031 245.804688 62.492188 245.804688 62.492188 244.730469 C 62.492188 244.152344 61.996094 244.152344 61.007812 244.152344 C 59.109375 244.152344 57.625 244.152344 57.625 243.246094 C 57.625 242.917969 57.707031 242.667969 57.789062 242.339844 L 61.253906 228.472656 L 67.445312 228.472656 C 72.230469 228.472656 73.136719 231.445312 73.136719 233.261719 C 73.136719 234.003906 72.722656 235.652344 72.394531 236.890625 C 72.0625 238.292969 71.570312 240.277344 71.570312 241.265625 C 71.570312 246.960938 77.839844 246.960938 78.582031 246.960938 C 82.957031 246.960938 84.855469 241.679688 84.855469 240.9375 C 84.855469 240.277344 84.277344 240.277344 84.195312 240.277344 C 83.699219 240.277344 83.617188 240.6875 83.535156 241.019531 C 82.214844 244.898438 79.984375 245.804688 78.75 245.804688 C 77.015625 245.804688 76.683594 244.648438 76.683594 242.585938 C 76.683594 241.019531 77.015625 238.292969 77.179688 236.644531 C 77.261719 235.902344 77.429688 234.910156 77.429688 234.167969 C 77.429688 230.125 73.878906 228.558594 72.476562 227.980469 Z M 72.476562 227.980469 "/>
<path style=" stroke:none;fill-rule:nonzero;fill:rgb(0%,0%,0%);fill-opacity:1;" d="M 108.417969 208.585938 C 108.664062 207.84375 108.664062 207.675781 108.664062 207.59375 C 108.664062 207.015625 108.25 206.523438 107.675781 206.523438 C 107.261719 206.523438 106.929688 206.6875 106.765625 207.015625 L 88.613281 256.863281 C 88.363281 257.605469 88.363281 257.769531 88.363281 257.855469 C 88.363281 258.429688 88.859375 258.925781 89.4375 258.925781 C 90.097656 258.925781 90.261719 258.515625 90.511719 257.605469 Z M 108.417969 208.585938 "/>
<path style=" stroke:none;fill-rule:nonzero;fill:rgb(0%,0%,0%);fill-opacity:1;" d="M 125.871094 241.84375 C 125.871094 244.152344 125.292969 244.152344 121.828125 244.152344 L 121.828125 245.804688 C 123.5625 245.722656 125.953125 245.640625 127.523438 245.640625 C 129.089844 245.640625 131.152344 245.722656 133.296875 245.804688 L 133.296875 244.152344 C 129.75 244.152344 129.171875 244.152344 129.171875 241.84375 L 129.171875 236.480469 L 132.554688 233.589844 C 136.597656 239.121094 138.746094 242.007812 138.746094 243 C 138.746094 243.988281 137.835938 244.152344 136.847656 244.152344 L 136.847656 245.804688 C 138.332031 245.722656 141.46875 245.640625 142.539062 245.640625 C 144.027344 245.640625 145.59375 245.722656 147.078125 245.804688 L 147.078125 244.152344 C 145.179688 244.152344 144.027344 244.152344 141.960938 241.429688 L 135.363281 232.023438 C 135.277344 231.941406 135.03125 231.609375 135.03125 231.445312 C 135.03125 231.28125 138.746094 228.144531 139.320312 227.730469 C 142.539062 225.007812 144.769531 224.925781 145.839844 224.84375 L 145.839844 223.273438 C 144.355469 223.441406 143.695312 223.441406 142.210938 223.441406 C 140.3125 223.441406 137.09375 223.273438 136.351562 223.273438 L 136.351562 224.84375 C 137.34375 224.925781 137.835938 225.503906 137.835938 226.164062 C 137.835938 227.234375 137.175781 227.898438 136.683594 228.226562 L 129.335938 234.582031 L 129.335938 209.492188 L 121.828125 210.070312 L 121.828125 211.722656 C 125.460938 211.722656 125.871094 212.050781 125.871094 214.609375 Z M 125.871094 241.84375 "/>
<path style=" stroke:none;fill-rule:nonzero;fill:rgb(0%,0%,0%);fill-opacity:1;" d="M 152.355469 232.601562 C 152.683594 224.84375 157.058594 223.523438 158.871094 223.523438 C 164.234375 223.523438 164.730469 230.621094 164.730469 232.601562 Z M 152.269531 233.757812 L 166.875 233.757812 C 168.03125 233.757812 168.195312 233.757812 168.195312 232.601562 C 168.195312 227.402344 165.390625 222.367188 158.871094 222.367188 C 152.765625 222.367188 147.980469 227.730469 147.980469 234.332031 C 147.980469 241.265625 153.425781 246.382812 159.449219 246.382812 C 165.886719 246.382812 168.195312 240.605469 168.195312 239.617188 C 168.195312 239.039062 167.785156 238.953125 167.535156 238.953125 C 167.042969 238.953125 166.957031 239.285156 166.875 239.699219 C 164.976562 245.0625 160.273438 245.0625 159.78125 245.0625 C 157.140625 245.0625 155.078125 243.492188 153.839844 241.597656 C 152.269531 239.039062 152.269531 235.570312 152.269531 233.757812 Z M 152.269531 233.757812 "/>
<path style=" stroke:none;fill-rule:nonzero;fill:rgb(0%,0%,0%);fill-opacity:1;" d="M 178.496094 228.472656 L 178.496094 222.699219 L 171.234375 223.273438 L 171.234375 224.84375 C 174.863281 224.84375 175.277344 225.253906 175.277344 227.8125 L 175.277344 241.84375 C 175.277344 244.152344 174.699219 244.152344 171.234375 244.152344 L 171.234375 245.804688 C 173.214844 245.722656 175.6875 245.640625 177.175781 245.640625 C 179.238281 245.640625 181.710938 245.640625 183.859375 245.804688 L 183.859375 244.152344 L 182.703125 244.152344 C 178.824219 244.152344 178.742188 243.578125 178.742188 241.761719 L 178.742188 233.671875 C 178.742188 228.472656 180.96875 223.851562 184.929688 223.851562 C 185.261719 223.851562 185.425781 223.851562 185.507812 223.851562 C 185.34375 223.933594 184.269531 224.59375 184.269531 225.914062 C 184.269531 227.402344 185.425781 228.144531 186.582031 228.144531 C 187.488281 228.144531 188.808594 227.566406 188.808594 225.832031 C 188.808594 224.183594 187.160156 222.699219 184.929688 222.699219 C 181.136719 222.699219 179.238281 226.164062 178.496094 228.472656 Z M 178.496094 228.472656 "/>
<path style=" stroke:none;fill-rule:nonzero;fill:rgb(0%,0%,0%);fill-opacity:1;" d="M 218.203125 224.84375 L 222.660156 224.84375 C 223.730469 224.84375 224.226562 224.84375 224.226562 223.851562 C 224.226562 223.273438 223.730469 223.273438 222.824219 223.273438 L 218.449219 223.273438 L 219.605469 217.25 C 219.769531 216.179688 220.511719 212.464844 220.84375 211.886719 C 221.339844 210.8125 222.164062 210.070312 223.320312 210.070312 C 223.484375 210.070312 224.886719 210.070312 225.875 210.980469 C 223.566406 211.226562 223.070312 213.042969 223.070312 213.867188 C 223.070312 215.023438 223.980469 215.683594 224.96875 215.683594 C 226.371094 215.683594 227.855469 214.527344 227.855469 212.546875 C 227.855469 210.152344 225.464844 208.914062 223.320312 208.914062 C 221.503906 208.914062 218.203125 209.824219 216.636719 215.023438 C 216.304688 216.179688 216.222656 216.671875 214.902344 223.273438 L 211.355469 223.273438 C 210.363281 223.273438 209.785156 223.273438 209.785156 224.265625 C 209.785156 224.84375 210.199219 224.84375 211.1875 224.84375 L 214.65625 224.84375 L 210.777344 245.558594 C 209.785156 250.589844 208.878906 255.378906 206.15625 255.378906 C 205.992188 255.378906 204.671875 255.378906 203.679688 254.46875 C 206.074219 254.304688 206.566406 252.40625 206.566406 251.582031 C 206.566406 250.425781 205.660156 249.765625 204.585938 249.765625 C 203.265625 249.765625 201.78125 250.921875 201.78125 252.902344 C 201.78125 255.296875 204.011719 256.53125 206.15625 256.53125 C 209.042969 256.53125 211.1875 253.480469 212.097656 251.417969 C 213.746094 248.199219 214.984375 241.84375 215.066406 241.429688 Z M 218.203125 224.84375 "/>
<path style=" stroke:none;fill-rule:nonzero;fill:rgb(0%,0%,0%);fill-opacity:1;" d="M 410.101562 222.699219 L 402.757812 223.273438 L 402.757812 224.84375 C 406.222656 224.84375 406.632812 225.171875 406.632812 227.730469 L 406.632812 241.84375 C 406.632812 244.152344 406.058594 244.152344 402.589844 244.152344 L 402.589844 245.804688 C 404.242188 245.722656 407.046875 245.640625 408.367188 245.640625 C 410.183594 245.640625 412 245.722656 413.8125 245.804688 L 413.8125 244.152344 C 410.347656 244.152344 410.101562 243.90625 410.101562 241.84375 Z M 410.347656 213.535156 C 410.347656 211.886719 409.027344 210.8125 407.542969 210.8125 C 405.890625 210.8125 404.820312 212.214844 404.820312 213.535156 C 404.820312 215.023438 405.890625 216.34375 407.542969 216.34375 C 409.027344 216.34375 410.347656 215.269531 410.347656 213.535156 Z M 410.347656 213.535156 "/>
<path style=" stroke:none;fill-rule:nonzero;fill:rgb(0%,0%,0%);fill-opacity:1;" d="M 421.171875 227.8125 L 421.171875 241.84375 C 421.171875 244.152344 420.59375 244.152344 417.042969 244.152344 L 417.042969 245.804688 C 418.859375 245.722656 421.582031 245.640625 422.984375 245.640625 C 424.304688 245.640625 427.027344 245.722656 428.84375 245.804688 L 428.84375 244.152344 C 425.296875 244.152344 424.71875 244.152344 424.71875 241.84375 L 424.71875 232.1875 C 424.71875 226.742188 428.515625 223.851562 431.816406 223.851562 C 435.117188 223.851562 435.691406 226.660156 435.691406 229.628906 L 435.691406 241.84375 C 435.691406 244.152344 435.117188 244.152344 431.648438 244.152344 L 431.648438 245.804688 C 433.464844 245.722656 436.105469 245.640625 437.507812 245.640625 C 438.910156 245.640625 441.632812 245.722656 443.367188 245.804688 L 443.367188 244.152344 C 439.902344 244.152344 439.324219 244.152344 439.324219 241.84375 L 439.324219 232.1875 C 439.324219 226.742188 443.035156 223.851562 446.335938 223.851562 C 449.636719 223.851562 450.214844 226.660156 450.214844 229.628906 L 450.214844 241.84375 C 450.214844 244.152344 449.636719 244.152344 446.171875 244.152344 L 446.171875 245.804688 C 447.988281 245.722656 450.628906 245.640625 452.03125 245.640625 C 453.433594 245.640625 456.15625 245.722656 457.890625 245.804688 L 457.890625 244.152344 C 455.167969 244.152344 453.929688 244.152344 453.847656 242.585938 L 453.847656 232.601562 C 453.847656 228.144531 453.847656 226.492188 452.195312 224.59375 C 451.453125 223.6875 449.804688 222.699219 446.75 222.699219 C 442.375 222.699219 440.066406 225.832031 439.160156 227.8125 C 438.417969 223.273438 434.539062 222.699219 432.226562 222.699219 C 428.347656 222.699219 425.875 224.925781 424.472656 228.144531 L 424.472656 222.699219 L 417.042969 223.273438 L 417.042969 224.84375 C 420.757812 224.84375 421.171875 225.253906 421.171875 227.8125 Z M 421.171875 227.8125 "/>
<path style=" stroke:none;fill-rule:nonzero;fill:rgb(0%,0%,0%);fill-opacity:1;" d="M 486.941406 224.84375 L 491.398438 224.84375 C 492.472656 224.84375 492.964844 224.84375 492.964844 223.851562 C 492.964844 223.273438 492.472656 223.273438 491.5625 223.273438 L 487.191406 223.273438 L 488.34375 217.25 C 488.511719 216.179688 489.253906 212.464844 489.582031 211.886719 C 490.078125 210.8125 490.902344 210.070312 492.058594 210.070312 C 492.222656 210.070312 493.625 210.070312 494.617188 210.980469 C 492.304688 211.226562 491.8125 213.042969 491.8125 213.867188 C 491.8125 215.023438 492.71875 215.683594 493.710938 215.683594 C 495.113281 215.683594 496.597656 214.527344 496.597656 212.546875 C 496.597656 210.152344 494.203125 208.914062 492.058594 208.914062 C 490.242188 208.914062 486.941406 209.824219 485.375 215.023438 C 485.046875 216.179688 484.960938 216.671875 483.640625 223.273438 L 480.09375 223.273438 C 479.105469 223.273438 478.527344 223.273438 478.527344 224.265625 C 478.527344 224.84375 478.9375 224.84375 479.929688 224.84375 L 483.394531 224.84375 L 479.515625 245.558594 C 478.527344 250.589844 477.617188 255.378906 474.894531 255.378906 C 474.730469 255.378906 473.410156 255.378906 472.421875 254.46875 C 474.8125 254.304688 475.308594 252.40625 475.308594 251.582031 C 475.308594 250.425781 474.402344 249.765625 473.328125 249.765625 C 472.007812 249.765625 470.523438 250.921875 470.523438 252.902344 C 470.523438 255.296875 472.75 256.53125 474.894531 256.53125 C 477.785156 256.53125 479.929688 253.480469 480.835938 251.417969 C 482.488281 248.199219 483.726562 241.84375 483.808594 241.429688 Z M 486.941406 224.84375 "/>
<path style="fill:none;stroke-width:0.39848;stroke-linecap:butt;stroke-linejoin:miter;stroke:rgb(0%,0%,0%);stroke-opacity:1;stroke-miterlimit:10;" d="M -17.276724 32.69512 L 25.619058 32.69512 " transform="matrix(5.25201,0,0,-5.252688,272.147678,232.72556)"/>
<path style="fill:none;stroke-width:0.39848;stroke-linecap:round;stroke-linejoin:round;stroke:rgb(0%,0%,0%);stroke-opacity:1;stroke-miterlimit:10;" d="M -2.072225 2.390194 C -1.695137 0.956404 -0.850966 0.281154 0.00138581 -0.00218257 C -0.850966 -0.281058 -1.695137 -0.956307 -2.072225 -2.390097 " transform="matrix(5.25201,0,0,-5.252688,407.742722,60.976817)"/>
<path style=" stroke:none;fill-rule:nonzero;fill:rgb(0%,0%,0%);fill-opacity:1;" d="M 297.78125 27.101562 L 301.328125 27.101562 C 302.070312 27.101562 302.566406 27.101562 302.566406 26.277344 C 302.566406 25.78125 302.070312 25.78125 301.410156 25.78125 L 298.027344 25.78125 C 298.855469 21.078125 299.183594 19.425781 299.433594 18.355469 C 299.597656 17.527344 300.421875 16.785156 301.328125 16.785156 C 301.328125 16.785156 302.320312 16.785156 303.0625 17.199219 C 301.496094 17.695312 301.410156 19.015625 301.410156 19.261719 C 301.410156 20.003906 302.070312 20.582031 302.898438 20.582031 C 303.886719 20.582031 304.960938 19.757812 304.960938 18.355469 C 304.960938 16.703125 303.144531 15.710938 301.328125 15.710938 C 299.679688 15.710938 297.863281 16.703125 296.875 18.519531 C 296.214844 19.839844 295.882812 21.488281 295.140625 25.78125 L 292.253906 25.78125 C 291.511719 25.78125 291.015625 25.78125 291.015625 26.523438 C 291.015625 27.101562 291.511719 27.101562 292.171875 27.101562 L 294.894531 27.101562 C 294.8125 27.265625 292.5 40.46875 291.675781 44.433594 C 291.425781 45.175781 290.851562 47.980469 289.035156 47.980469 C 289.035156 47.980469 288.128906 47.980469 287.46875 47.566406 C 288.953125 47.074219 289.035156 45.753906 289.035156 45.503906 C 289.035156 44.761719 288.457031 44.183594 287.632812 44.183594 C 286.640625 44.183594 285.488281 45.007812 285.488281 46.414062 C 285.488281 48.0625 287.21875 49.054688 289.035156 49.054688 C 291.425781 49.054688 292.996094 46.578125 293.492188 45.835938 C 294.8125 43.359375 295.636719 38.820312 295.71875 38.40625 Z M 297.78125 27.101562 "/>
<path style="fill:none;stroke-width:0.39848;stroke-linecap:butt;stroke-linejoin:miter;stroke:rgb(0%,0%,0%);stroke-opacity:1;stroke-miterlimit:10;" d="M -25.583812 26.359823 L -25.583812 9.226483 " transform="matrix(5.25201,0,0,-5.252688,272.147678,232.72556)"/>
<path style="fill:none;stroke-width:0.39848;stroke-linecap:round;stroke-linejoin:round;stroke:rgb(0%,0%,0%);stroke-opacity:1;stroke-miterlimit:10;" d="M -2.070093 2.389325 C -1.693054 0.95535 -0.848992 0.280013 -0.000468238 0.00110218 C -0.848992 -0.277809 -1.693054 -0.957608 -2.070093 -2.390839 " transform="matrix(0,5.252688,5.25201,0,137.775461,185.31496)"/>
<path style=" stroke:none;fill-rule:nonzero;fill:rgb(0%,0%,0%);fill-opacity:1;" d="M 106.617188 149.089844 C 106.371094 150.160156 106.289062 150.410156 104.882812 150.410156 C 104.390625 150.410156 103.894531 150.410156 103.894531 151.152344 C 103.894531 151.566406 104.222656 151.730469 104.390625 151.730469 C 105.296875 151.730469 106.535156 151.566406 107.523438 151.566406 C 108.761719 151.566406 110.164062 151.730469 111.402344 151.730469 C 111.734375 151.730469 112.0625 151.648438 112.0625 150.90625 C 112.0625 150.410156 111.566406 150.410156 111.15625 150.410156 C 110.332031 150.410156 109.339844 150.410156 109.339844 149.996094 C 109.339844 149.832031 109.589844 148.839844 109.753906 148.265625 C 110.164062 146.367188 110.742188 144.386719 111.074219 142.816406 C 111.566406 143.558594 112.722656 144.960938 114.867188 144.960938 C 119.324219 144.960938 124.277344 140.011719 124.277344 134.566406 C 124.277344 130.273438 121.304688 128.457031 118.828125 128.457031 C 116.519531 128.457031 114.621094 130.027344 113.632812 131.015625 C 112.972656 128.953125 110.90625 128.457031 109.835938 128.457031 C 108.433594 128.457031 107.523438 129.449219 106.949219 130.4375 C 106.203125 131.675781 105.628906 133.820312 105.628906 134.070312 C 105.628906 134.566406 106.121094 134.566406 106.203125 134.566406 C 106.78125 134.566406 106.78125 134.480469 107.03125 133.492188 C 107.609375 131.347656 108.269531 129.53125 109.753906 129.53125 C 110.660156 129.53125 110.90625 130.273438 110.90625 131.261719 C 110.90625 131.675781 110.824219 132.171875 110.824219 132.417969 Z M 113.546875 132.832031 C 115.695312 130.027344 117.507812 129.53125 118.664062 129.53125 C 120.148438 129.53125 121.386719 130.601562 121.386719 133.078125 C 121.386719 134.566406 120.5625 138.277344 119.488281 140.425781 C 118.582031 142.238281 116.765625 143.972656 114.867188 143.972656 C 112.3125 143.972656 111.652344 141.167969 111.652344 140.753906 C 111.652344 140.671875 111.734375 140.339844 111.734375 140.257812 Z M 113.546875 132.832031 "/>
<path style="fill:none;stroke-width:0.39848;stroke-linecap:butt;stroke-linejoin:miter;stroke:rgb(0%,0%,0%);stroke-opacity:1;stroke-miterlimit:10;" d="M -3.494053 0.000552785 L 19.621354 0.000552785 " transform="matrix(5.25201,0,0,-5.252688,272.147678,232.72556)"/>
<path style="fill:none;stroke-width:0.39848;stroke-linecap:round;stroke-linejoin:round;stroke:rgb(0%,0%,0%);stroke-opacity:1;stroke-miterlimit:10;" d="M -2.071501 2.392185 C -1.694413 0.954677 -0.850242 0.279428 -0.00160867 0.000552785 C -0.850242 -0.278322 -1.694413 -0.958034 -2.071501 -2.391823 " transform="matrix(5.25201,0,0,-5.252688,376.238917,232.72556)"/>
<path style="fill:none;stroke-width:0.339;stroke-linecap:butt;stroke-linejoin:miter;stroke:rgb(0%,0%,0%);stroke-opacity:1;stroke-miterlimit:10;" d="M -0.00031935 0.000589906 L 4.666049 0.000589906 " transform="matrix(5.25201,0,0,-5.252688,303.286833,247.706224)"/>
<path style=" stroke:none;fill-rule:nonzero;fill:rgb(0%,0%,0%);fill-opacity:1;" d="M 318.222656 264.925781 L 321.769531 264.925781 C 322.511719 264.925781 323.007812 264.925781 323.007812 264.101562 C 323.007812 263.605469 322.511719 263.605469 321.851562 263.605469 L 318.46875 263.605469 C 319.292969 258.902344 319.625 257.253906 319.871094 256.179688 C 320.039062 255.355469 320.863281 254.613281 321.769531 254.613281 C 321.769531 254.613281 322.761719 254.613281 323.503906 255.023438 C 321.933594 255.519531 321.851562 256.839844 321.851562 257.085938 C 321.851562 257.828125 322.511719 258.40625 323.339844 258.40625 C 324.328125 258.40625 325.402344 257.582031 325.402344 256.179688 C 325.402344 254.527344 323.585938 253.539062 321.769531 253.539062 C 320.121094 253.539062 318.304688 254.527344 317.316406 256.34375 C 316.65625 257.664062 316.324219 259.316406 315.582031 263.605469 L 312.695312 263.605469 C 311.949219 263.605469 311.457031 263.605469 311.457031 264.351562 C 311.457031 264.925781 311.949219 264.925781 312.609375 264.925781 L 315.335938 264.925781 C 315.25 265.09375 312.941406 278.296875 312.117188 282.257812 C 311.867188 283 311.289062 285.804688 309.476562 285.804688 C 309.476562 285.804688 308.566406 285.804688 307.90625 285.394531 C 309.394531 284.898438 309.476562 283.578125 309.476562 283.332031 C 309.476562 282.589844 308.898438 282.011719 308.074219 282.011719 C 307.082031 282.011719 305.925781 282.835938 305.925781 284.238281 C 305.925781 285.890625 307.660156 286.878906 309.476562 286.878906 C 311.867188 286.878906 313.4375 284.402344 313.929688 283.660156 C 315.25 281.183594 316.078125 276.644531 316.160156 276.234375 Z M 318.222656 264.925781 "/>
<path style="fill:none;stroke-width:0.39848;stroke-linecap:butt;stroke-linejoin:miter;stroke:rgb(0%,0%,0%);stroke-opacity:1;stroke-miterlimit:10;" d="M 33.848051 8.272359 L 33.848051 25.963448 " transform="matrix(5.25201,0,0,-5.252688,272.147678,232.72556)"/>
<path style="fill:none;stroke-width:0.39848;stroke-linecap:round;stroke-linejoin:round;stroke:rgb(0%,0%,0%);stroke-opacity:1;stroke-miterlimit:10;" d="M -2.072607 2.391313 C -1.695568 0.958082 -0.850762 0.278283 0.00148013 -0.000628368 C -0.850762 -0.279539 -1.695568 -0.954876 -2.072607 -2.39257 " transform="matrix(0,-5.252688,-5.25201,0,449.914669,95.30465)"/>
<path style=" stroke:none;fill-rule:nonzero;fill:rgb(0%,0%,0%);fill-opacity:1;" d="M 474.105469 130.941406 C 474.105469 130.363281 473.691406 129.621094 472.621094 129.621094 C 471.628906 129.621094 470.558594 130.527344 470.558594 131.601562 C 470.558594 132.261719 471.050781 133.003906 472.042969 133.003906 C 473.113281 133.003906 474.105469 131.929688 474.105469 130.941406 Z M 466.597656 149.589844 C 466.515625 150.085938 466.265625 150.5 466.265625 151.160156 C 466.265625 152.890625 467.75 154.210938 469.730469 154.210938 C 473.445312 154.210938 475.011719 149.179688 475.011719 148.683594 C 475.011719 148.1875 474.601562 148.1875 474.433594 148.1875 C 473.941406 148.1875 473.941406 148.351562 473.773438 148.765625 C 472.949219 151.738281 471.300781 153.222656 469.898438 153.222656 C 469.15625 153.222656 468.988281 152.726562 468.988281 151.902344 C 468.988281 151.078125 469.238281 150.417969 469.566406 149.589844 C 469.898438 148.601562 470.308594 147.609375 470.722656 146.703125 C 471.050781 145.796875 472.371094 142.410156 472.539062 142 C 472.621094 141.667969 472.703125 141.171875 472.703125 140.84375 C 472.703125 139.109375 471.300781 137.707031 469.238281 137.707031 C 465.605469 137.707031 463.957031 142.742188 463.957031 143.320312 C 463.957031 143.816406 464.449219 143.816406 464.535156 143.816406 C 465.109375 143.816406 465.109375 143.648438 465.195312 143.238281 C 466.183594 140.101562 467.75 138.78125 469.15625 138.78125 C 469.730469 138.78125 470.0625 139.027344 470.0625 140.019531 C 470.0625 140.84375 469.816406 141.421875 468.90625 143.730469 Z M 466.597656 149.589844 "/>
</g>
</svg>
