<?xml version="1.0" encoding="UTF-8"?>
<svg xmlns="http://www.w3.org/2000/svg" xmlns:xlink="http://www.w3.org/1999/xlink" width="545px" height="300px" viewBox="0 0 545 300" version="1.1">
<g id="surface1">
<path style=" stroke:none;fill-rule:nonzero;fill:rgb(0%,0%,0%);fill-opacity:1;" d="M 136.910156 42.605469 C 137.238281 41.371094 137.320312 40.792969 138.390625 40.628906 C 138.800781 40.628906 140.449219 40.628906 141.515625 40.628906 C 145.21875 40.628906 151.058594 40.628906 151.058594 45.730469 C 151.058594 47.539062 150.152344 51.160156 148.179688 53.132812 C 146.78125 54.53125 144.066406 56.175781 139.378906 56.175781 L 133.539062 56.175781 Z M 144.394531 56.835938 C 149.660156 55.683594 155.910156 52.0625 155.910156 46.800781 C 155.910156 42.355469 151.140625 38.984375 144.3125 38.984375 L 129.507812 38.984375 C 128.4375 38.984375 127.945312 38.984375 127.945312 40.054688 C 127.945312 40.628906 128.4375 40.628906 129.425781 40.628906 C 129.507812 40.628906 130.496094 40.628906 131.398438 40.710938 C 132.386719 40.792969 132.796875 40.875 132.796875 41.535156 C 132.796875 41.78125 132.796875 41.863281 132.632812 42.523438 L 125.640625 70.574219 C 125.066406 72.546875 124.984375 72.957031 120.871094 72.957031 C 119.96875 72.957031 119.472656 72.957031 119.472656 74.027344 C 119.472656 74.605469 120.132812 74.605469 120.214844 74.605469 C 121.695312 74.605469 125.3125 74.4375 126.792969 74.4375 C 128.273438 74.4375 131.976562 74.605469 133.375 74.605469 C 133.785156 74.605469 134.441406 74.605469 134.441406 73.535156 C 134.441406 72.957031 133.949219 72.957031 132.960938 72.957031 C 131.070312 72.957031 129.589844 72.957031 129.589844 72.054688 C 129.589844 71.726562 129.671875 71.476562 129.753906 71.148438 L 133.210938 57.328125 L 139.378906 57.328125 C 144.148438 57.328125 145.054688 60.289062 145.054688 62.101562 C 145.054688 62.839844 144.640625 64.484375 144.3125 65.71875 C 143.984375 67.117188 143.492188 69.09375 143.492188 70.078125 C 143.492188 75.753906 149.742188 75.753906 150.480469 75.753906 C 154.839844 75.753906 156.734375 70.492188 156.734375 69.75 C 156.734375 69.09375 156.15625 69.09375 156.074219 69.09375 C 155.582031 69.09375 155.5 69.503906 155.417969 69.832031 C 154.101562 73.699219 151.878906 74.605469 150.648438 74.605469 C 148.917969 74.605469 148.589844 73.453125 148.589844 71.394531 C 148.589844 69.832031 148.917969 67.117188 149.082031 65.472656 C 149.167969 64.734375 149.332031 63.746094 149.332031 63.003906 C 149.332031 58.972656 145.792969 57.410156 144.394531 56.835938 Z M 144.394531 56.835938 "/>
<path style=" stroke:none;fill-rule:nonzero;fill:rgb(0%,0%,0%);fill-opacity:1;" d="M 464.613281 38.328125 C 464.613281 38.160156 464.53125 37.832031 464.039062 37.832031 C 463.792969 37.832031 463.710938 37.914062 463.132812 38.65625 L 460.585938 41.617188 C 459.269531 39.148438 456.554688 37.832031 453.097656 37.832031 C 446.519531 37.832031 440.269531 43.839844 440.269531 50.171875 C 440.269531 54.367188 442.980469 56.753906 445.695312 57.574219 L 451.289062 58.972656 C 453.179688 59.46875 456.058594 60.289062 456.058594 64.566406 C 456.058594 69.257812 451.785156 74.109375 446.683594 74.109375 C 443.3125 74.109375 437.554688 72.957031 437.554688 66.542969 C 437.554688 65.308594 437.800781 63.992188 437.882812 63.664062 C 437.882812 63.5 437.964844 63.417969 437.964844 63.335938 C 437.964844 62.839844 437.636719 62.757812 437.308594 62.757812 C 437.058594 62.757812 436.976562 62.839844 436.8125 63.003906 C 436.566406 63.167969 433.6875 75.097656 433.6875 75.261719 C 433.6875 75.507812 433.933594 75.753906 434.265625 75.753906 C 434.511719 75.753906 434.59375 75.671875 435.167969 74.933594 L 437.71875 71.972656 C 440.019531 75.015625 443.558594 75.753906 446.601562 75.753906 C 453.675781 75.753906 459.84375 68.84375 459.84375 62.347656 C 459.84375 58.726562 458.035156 57 457.292969 56.257812 C 456.058594 55.027344 455.238281 54.859375 450.632812 53.628906 C 449.480469 53.296875 447.589844 52.804688 447.175781 52.722656 C 445.695312 52.230469 443.96875 50.746094 443.96875 47.949219 C 443.96875 43.753906 448.164062 39.3125 453.097656 39.3125 C 457.375 39.3125 460.585938 41.535156 460.585938 47.375 C 460.585938 49.019531 460.417969 50.007812 460.417969 50.335938 C 460.417969 50.335938 460.417969 50.832031 460.996094 50.832031 C 461.570312 50.832031 461.570312 50.664062 461.816406 49.761719 Z M 464.613281 38.328125 "/>
<path style=" stroke:none;fill-rule:nonzero;fill:rgb(0%,0%,0%);fill-opacity:1;" d="M 64.757812 213.796875 C 65.089844 212.5625 65.171875 211.984375 66.238281 211.820312 C 66.652344 211.820312 68.296875 211.820312 69.367188 211.820312 C 73.066406 211.820312 78.90625 211.820312 78.90625 216.921875 C 78.90625 218.730469 78.003906 222.351562 76.027344 224.324219 C 74.628906 225.722656 71.914062 227.367188 67.226562 227.367188 L 61.386719 227.367188 Z M 72.246094 228.027344 C 77.507812 226.875 83.757812 223.253906 83.757812 217.992188 C 83.757812 213.546875 78.988281 210.175781 72.164062 210.175781 L 57.355469 210.175781 C 56.289062 210.175781 55.792969 210.175781 55.792969 211.246094 C 55.792969 211.820312 56.289062 211.820312 57.273438 211.820312 C 57.355469 211.820312 58.34375 211.820312 59.25 211.902344 C 60.234375 211.984375 60.648438 212.066406 60.648438 212.726562 C 60.648438 212.972656 60.648438 213.054688 60.484375 213.714844 L 53.492188 241.765625 C 52.914062 243.738281 52.832031 244.148438 48.71875 244.148438 C 47.816406 244.148438 47.324219 244.148438 47.324219 245.21875 C 47.324219 245.796875 47.980469 245.796875 48.0625 245.796875 C 49.542969 245.796875 53.164062 245.628906 54.644531 245.628906 C 56.125 245.628906 59.824219 245.796875 61.222656 245.796875 C 61.632812 245.796875 62.292969 245.796875 62.292969 244.726562 C 62.292969 244.148438 61.796875 244.148438 60.8125 244.148438 C 58.917969 244.148438 57.4375 244.148438 57.4375 243.246094 C 57.4375 242.914062 57.523438 242.667969 57.605469 242.339844 L 61.058594 228.519531 L 67.226562 228.519531 C 71.996094 228.519531 72.902344 231.480469 72.902344 233.292969 C 72.902344 234.03125 72.492188 235.675781 72.164062 236.910156 C 71.832031 238.308594 71.339844 240.285156 71.339844 241.269531 C 71.339844 246.945312 77.589844 246.945312 78.332031 246.945312 C 82.691406 246.945312 84.582031 241.683594 84.582031 240.941406 C 84.582031 240.285156 84.007812 240.285156 83.925781 240.285156 C 83.429688 240.285156 83.347656 240.695312 83.265625 241.023438 C 81.949219 244.890625 79.730469 245.796875 78.496094 245.796875 C 76.769531 245.796875 76.4375 244.644531 76.4375 242.585938 C 76.4375 241.023438 76.769531 238.308594 76.933594 236.664062 C 77.015625 235.921875 77.179688 234.9375 77.179688 234.195312 C 77.179688 230.164062 73.644531 228.601562 72.246094 228.027344 Z M 72.246094 228.027344 "/>
<path style=" stroke:none;fill-rule:nonzero;fill:rgb(0%,0%,0%);fill-opacity:1;" d="M 108.070312 208.695312 C 108.316406 207.953125 108.316406 207.789062 108.316406 207.707031 C 108.316406 207.132812 107.90625 206.636719 107.328125 206.636719 C 106.917969 206.636719 106.589844 206.804688 106.421875 207.132812 L 88.328125 256.816406 C 88.082031 257.558594 88.082031 257.722656 88.082031 257.804688 C 88.082031 258.382812 88.574219 258.875 89.152344 258.875 C 89.808594 258.875 89.972656 258.464844 90.21875 257.558594 Z M 108.070312 208.695312 "/>
<path style=" stroke:none;fill-rule:nonzero;fill:rgb(0%,0%,0%);fill-opacity:1;" d="M 125.46875 241.847656 C 125.46875 244.148438 124.894531 244.148438 121.4375 244.148438 L 121.4375 245.796875 C 123.164062 245.710938 125.550781 245.628906 127.113281 245.628906 C 128.675781 245.628906 130.734375 245.710938 132.871094 245.796875 L 132.871094 244.148438 C 129.335938 244.148438 128.757812 244.148438 128.757812 241.847656 L 128.757812 236.5 L 132.132812 233.621094 C 136.160156 239.132812 138.300781 242.011719 138.300781 243 C 138.300781 243.984375 137.394531 244.148438 136.40625 244.148438 L 136.40625 245.796875 C 137.886719 245.710938 141.015625 245.628906 142.082031 245.628906 C 143.5625 245.628906 145.125 245.710938 146.605469 245.796875 L 146.605469 244.148438 C 144.714844 244.148438 143.5625 244.148438 141.507812 241.433594 L 134.925781 232.058594 C 134.84375 231.976562 134.597656 231.644531 134.597656 231.480469 C 134.597656 231.316406 138.300781 228.191406 138.875 227.78125 C 142.082031 225.066406 144.304688 224.984375 145.375 224.902344 L 145.375 223.335938 C 143.894531 223.503906 143.234375 223.503906 141.753906 223.503906 C 139.863281 223.503906 136.65625 223.335938 135.914062 223.335938 L 135.914062 224.902344 C 136.902344 224.984375 137.394531 225.558594 137.394531 226.214844 C 137.394531 227.285156 136.738281 227.945312 136.242188 228.273438 L 128.921875 234.605469 L 128.921875 209.601562 L 121.4375 210.175781 L 121.4375 211.820312 C 125.058594 211.820312 125.46875 212.148438 125.46875 214.699219 Z M 125.46875 241.847656 "/>
<path style=" stroke:none;fill-rule:nonzero;fill:rgb(0%,0%,0%);fill-opacity:1;" d="M 151.863281 232.632812 C 152.195312 224.902344 156.554688 223.585938 158.363281 223.585938 C 163.710938 223.585938 164.203125 230.660156 164.203125 232.632812 Z M 151.78125 233.785156 L 166.339844 233.785156 C 167.492188 233.785156 167.65625 233.785156 167.65625 232.632812 C 167.65625 227.449219 164.859375 222.433594 158.363281 222.433594 C 152.277344 222.433594 147.503906 227.78125 147.503906 234.359375 C 147.503906 241.269531 152.933594 246.371094 158.9375 246.371094 C 165.355469 246.371094 167.65625 240.613281 167.65625 239.625 C 167.65625 239.050781 167.246094 238.96875 167 238.96875 C 166.503906 238.96875 166.421875 239.296875 166.339844 239.707031 C 164.449219 245.054688 159.761719 245.054688 159.269531 245.054688 C 156.636719 245.054688 154.578125 243.492188 153.34375 241.601562 C 151.78125 239.050781 151.78125 235.59375 151.78125 233.785156 Z M 151.78125 233.785156 "/>
<path style=" stroke:none;fill-rule:nonzero;fill:rgb(0%,0%,0%);fill-opacity:1;" d="M 177.921875 228.519531 L 177.921875 222.761719 L 170.683594 223.335938 L 170.683594 224.902344 C 174.304688 224.902344 174.714844 225.3125 174.714844 227.863281 L 174.714844 241.847656 C 174.714844 244.148438 174.136719 244.148438 170.683594 244.148438 L 170.683594 245.796875 C 172.65625 245.710938 175.125 245.628906 176.605469 245.628906 C 178.664062 245.628906 181.128906 245.628906 183.269531 245.796875 L 183.269531 244.148438 L 182.117188 244.148438 C 178.25 244.148438 178.167969 243.574219 178.167969 241.765625 L 178.167969 233.703125 C 178.167969 228.519531 180.390625 223.914062 184.335938 223.914062 C 184.667969 223.914062 184.832031 223.914062 184.914062 223.914062 C 184.75 223.996094 183.679688 224.652344 183.679688 225.96875 C 183.679688 227.449219 184.832031 228.191406 185.984375 228.191406 C 186.886719 228.191406 188.203125 227.613281 188.203125 225.886719 C 188.203125 224.242188 186.558594 222.761719 184.335938 222.761719 C 180.554688 222.761719 178.664062 226.214844 177.921875 228.519531 Z M 177.921875 228.519531 "/>
<path style=" stroke:none;fill-rule:nonzero;fill:rgb(0%,0%,0%);fill-opacity:1;" d="M 217.503906 224.902344 L 221.945312 224.902344 C 223.015625 224.902344 223.507812 224.902344 223.507812 223.914062 C 223.507812 223.335938 223.015625 223.335938 222.109375 223.335938 L 217.75 223.335938 L 218.902344 217.332031 C 219.066406 216.261719 219.804688 212.5625 220.136719 211.984375 C 220.628906 210.914062 221.453125 210.175781 222.601562 210.175781 C 222.765625 210.175781 224.164062 210.175781 225.152344 211.082031 C 222.847656 211.328125 222.355469 213.136719 222.355469 213.960938 C 222.355469 215.113281 223.261719 215.769531 224.246094 215.769531 C 225.644531 215.769531 227.125 214.617188 227.125 212.644531 C 227.125 210.257812 224.742188 209.023438 222.601562 209.023438 C 220.792969 209.023438 217.503906 209.929688 215.941406 215.113281 C 215.613281 216.261719 215.527344 216.757812 214.214844 223.335938 L 210.675781 223.335938 C 209.6875 223.335938 209.113281 223.335938 209.113281 224.324219 C 209.113281 224.902344 209.523438 224.902344 210.511719 224.902344 L 213.964844 224.902344 L 210.101562 245.546875 C 209.113281 250.566406 208.207031 255.335938 205.496094 255.335938 C 205.328125 255.335938 204.015625 255.335938 203.027344 254.433594 C 205.414062 254.269531 205.90625 252.375 205.90625 251.554688 C 205.90625 250.402344 205 249.742188 203.933594 249.742188 C 202.617188 249.742188 201.136719 250.894531 201.136719 252.871094 C 201.136719 255.253906 203.355469 256.488281 205.496094 256.488281 C 208.375 256.488281 210.511719 253.445312 211.417969 251.390625 C 213.0625 248.179688 214.296875 241.847656 214.378906 241.433594 Z M 217.503906 224.902344 "/>
<path style=" stroke:none;fill-rule:nonzero;fill:rgb(0%,0%,0%);fill-opacity:1;" d="M 408.785156 222.761719 L 401.464844 223.335938 L 401.464844 224.902344 C 404.917969 224.902344 405.332031 225.230469 405.332031 227.78125 L 405.332031 241.847656 C 405.332031 244.148438 404.753906 244.148438 401.300781 244.148438 L 401.300781 245.796875 C 402.945312 245.710938 405.742188 245.628906 407.058594 245.628906 C 408.867188 245.628906 410.675781 245.710938 412.488281 245.796875 L 412.488281 244.148438 C 409.03125 244.148438 408.785156 243.902344 408.785156 241.847656 Z M 409.03125 213.628906 C 409.03125 211.984375 407.714844 210.914062 406.234375 210.914062 C 404.589844 210.914062 403.519531 212.3125 403.519531 213.628906 C 403.519531 215.113281 404.589844 216.425781 406.234375 216.425781 C 407.714844 216.425781 409.03125 215.359375 409.03125 213.628906 Z M 409.03125 213.628906 "/>
<path style=" stroke:none;fill-rule:nonzero;fill:rgb(0%,0%,0%);fill-opacity:1;" d="M 419.820312 227.863281 L 419.820312 241.847656 C 419.820312 244.148438 419.242188 244.148438 415.707031 244.148438 L 415.707031 245.796875 C 417.515625 245.710938 420.230469 245.628906 421.628906 245.628906 C 422.945312 245.628906 425.660156 245.710938 427.46875 245.796875 L 427.46875 244.148438 C 423.933594 244.148438 423.355469 244.148438 423.355469 241.847656 L 423.355469 232.222656 C 423.355469 226.792969 427.140625 223.914062 430.429688 223.914062 C 433.71875 223.914062 434.296875 226.710938 434.296875 229.671875 L 434.296875 241.847656 C 434.296875 244.148438 433.71875 244.148438 430.265625 244.148438 L 430.265625 245.796875 C 432.074219 245.710938 434.707031 245.628906 436.105469 245.628906 C 437.503906 245.628906 440.21875 245.710938 441.945312 245.796875 L 441.945312 244.148438 C 438.492188 244.148438 437.914062 244.148438 437.914062 241.847656 L 437.914062 232.222656 C 437.914062 226.792969 441.617188 223.914062 444.90625 223.914062 C 448.195312 223.914062 448.773438 226.710938 448.773438 229.671875 L 448.773438 241.847656 C 448.773438 244.148438 448.195312 244.148438 444.742188 244.148438 L 444.742188 245.796875 C 446.550781 245.710938 449.183594 245.628906 450.582031 245.628906 C 451.980469 245.628906 454.695312 245.710938 456.421875 245.796875 L 456.421875 244.148438 C 453.707031 244.148438 452.472656 244.148438 452.390625 242.585938 L 452.390625 232.632812 C 452.390625 228.191406 452.390625 226.546875 450.746094 224.652344 C 450.007812 223.75 448.359375 222.761719 445.316406 222.761719 C 440.957031 222.761719 438.65625 225.886719 437.75 227.863281 C 437.011719 223.335938 433.144531 222.761719 430.839844 222.761719 C 426.976562 222.761719 424.507812 224.984375 423.109375 228.191406 L 423.109375 222.761719 L 415.707031 223.335938 L 415.707031 224.902344 C 419.410156 224.902344 419.820312 225.3125 419.820312 227.863281 Z M 419.820312 227.863281 "/>
<path style=" stroke:none;fill-rule:nonzero;fill:rgb(0%,0%,0%);fill-opacity:1;" d="M 485.382812 224.902344 L 489.824219 224.902344 C 490.890625 224.902344 491.386719 224.902344 491.386719 223.914062 C 491.386719 223.335938 490.890625 223.335938 489.988281 223.335938 L 485.628906 223.335938 L 486.78125 217.332031 C 486.945312 216.261719 487.683594 212.5625 488.011719 211.984375 C 488.507812 210.914062 489.328125 210.175781 490.480469 210.175781 C 490.644531 210.175781 492.042969 210.175781 493.03125 211.082031 C 490.726562 211.328125 490.234375 213.136719 490.234375 213.960938 C 490.234375 215.113281 491.140625 215.769531 492.125 215.769531 C 493.523438 215.769531 495.003906 214.617188 495.003906 212.644531 C 495.003906 210.257812 492.621094 209.023438 490.480469 209.023438 C 488.671875 209.023438 485.382812 209.929688 483.820312 215.113281 C 483.488281 216.261719 483.40625 216.757812 482.089844 223.335938 L 478.554688 223.335938 C 477.566406 223.335938 476.992188 223.335938 476.992188 224.324219 C 476.992188 224.902344 477.402344 224.902344 478.390625 224.902344 L 481.84375 224.902344 L 477.980469 245.546875 C 476.992188 250.566406 476.085938 255.335938 473.371094 255.335938 C 473.207031 255.335938 471.890625 255.335938 470.90625 254.433594 C 473.289062 254.269531 473.785156 252.375 473.785156 251.554688 C 473.785156 250.402344 472.878906 249.742188 471.808594 249.742188 C 470.492188 249.742188 469.011719 250.894531 469.011719 252.871094 C 469.011719 255.253906 471.234375 256.488281 473.371094 256.488281 C 476.25 256.488281 478.390625 253.445312 479.292969 251.390625 C 480.941406 248.179688 482.171875 241.847656 482.257812 241.433594 Z M 485.382812 224.902344 "/>
<path style="fill:none;stroke-width:0.39848;stroke-linecap:butt;stroke-linejoin:miter;stroke:rgb(0%,0%,0%);stroke-opacity:1;stroke-miterlimit:10;" d="M -17.27678 32.695286 L 25.618961 32.695286 " transform="matrix(5.235168,0,0,-5.235844,271.274968,232.75774)"/>
<path style="fill:none;stroke-width:0.39848;stroke-linecap:round;stroke-linejoin:round;stroke:rgb(0%,0%,0%);stroke-opacity:1;stroke-miterlimit:10;" d="M -2.072385 2.389848 C -1.69483 0.956668 -0.850928 0.280738 0.00192769 -0.00201815 C -0.850928 -0.281044 -1.69483 -0.956228 -2.072385 -2.390154 " transform="matrix(5.235168,0,0,-5.235844,406.435221,61.559746)"/>
<path style=" stroke:none;fill-rule:nonzero;fill:rgb(0%,0%,0%);fill-opacity:1;" d="M 296.828125 27.792969 L 300.363281 27.792969 C 301.105469 27.792969 301.597656 27.792969 301.597656 26.96875 C 301.597656 26.476562 301.105469 26.476562 300.445312 26.476562 L 297.074219 26.476562 C 297.894531 21.789062 298.226562 20.144531 298.472656 19.074219 C 298.636719 18.25 299.457031 17.511719 300.363281 17.511719 C 300.363281 17.511719 301.351562 17.511719 302.089844 17.921875 C 300.527344 18.414062 300.445312 19.730469 300.445312 19.976562 C 300.445312 20.71875 301.105469 21.292969 301.925781 21.292969 C 302.914062 21.292969 303.980469 20.472656 303.980469 19.074219 C 303.980469 17.429688 302.171875 16.441406 300.363281 16.441406 C 298.71875 16.441406 296.910156 17.429688 295.921875 19.238281 C 295.265625 20.554688 294.933594 22.199219 294.195312 26.476562 L 291.316406 26.476562 C 290.574219 26.476562 290.082031 26.476562 290.082031 27.21875 C 290.082031 27.792969 290.574219 27.792969 291.234375 27.792969 L 293.949219 27.792969 C 293.867188 27.957031 291.5625 41.121094 290.738281 45.066406 C 290.492188 45.808594 289.917969 48.605469 288.109375 48.605469 C 288.109375 48.605469 287.203125 48.605469 286.546875 48.195312 C 288.027344 47.699219 288.109375 46.382812 288.109375 46.136719 C 288.109375 45.398438 287.53125 44.820312 286.710938 44.820312 C 285.722656 44.820312 284.570312 45.644531 284.570312 47.042969 C 284.570312 48.6875 286.296875 49.675781 288.109375 49.675781 C 290.492188 49.675781 292.054688 47.207031 292.550781 46.464844 C 293.867188 44 294.6875 39.472656 294.769531 39.0625 Z M 296.828125 27.792969 "/>
<path style="fill:none;stroke-width:0.39848;stroke-linecap:butt;stroke-linejoin:miter;stroke:rgb(0%,0%,0%);stroke-opacity:1;stroke-miterlimit:10;" d="M -25.58373 26.359751 L -25.58373 9.226501 " transform="matrix(5.235168,0,0,-5.235844,271.274968,232.75774)"/>
<path style="fill:none;stroke-width:0.39848;stroke-linecap:round;stroke-linejoin:round;stroke:rgb(0%,0%,0%);stroke-opacity:1;stroke-miterlimit:10;" d="M -2.070157 2.388881 C -1.693397 0.955516 -0.848858 0.279499 -0.000588879 0.00118258 C -0.848858 -0.27788 -1.693397 -0.957627 -2.070157 -2.390992 " transform="matrix(0,5.235844,5.235168,0,137.333653,185.499177)"/>
<path style=" stroke:none;fill-rule:nonzero;fill:rgb(0%,0%,0%);fill-opacity:1;" d="M 106.277344 149.390625 C 106.027344 150.457031 105.945312 150.707031 104.546875 150.707031 C 104.054688 150.707031 103.5625 150.707031 103.5625 151.445312 C 103.5625 151.855469 103.890625 152.023438 104.054688 152.023438 C 104.960938 152.023438 106.191406 151.855469 107.179688 151.855469 C 108.414062 151.855469 109.8125 152.023438 111.046875 152.023438 C 111.375 152.023438 111.703125 151.941406 111.703125 151.199219 C 111.703125 150.707031 111.210938 150.707031 110.800781 150.707031 C 109.976562 150.707031 108.988281 150.707031 108.988281 150.292969 C 108.988281 150.128906 109.238281 149.144531 109.402344 148.566406 C 109.8125 146.675781 110.386719 144.699219 110.71875 143.136719 C 111.210938 143.878906 112.363281 145.277344 114.5 145.277344 C 118.941406 145.277344 123.878906 140.339844 123.878906 134.910156 C 123.878906 130.632812 120.917969 128.824219 118.449219 128.824219 C 116.144531 128.824219 114.253906 130.386719 113.265625 131.375 C 112.609375 129.316406 110.550781 128.824219 109.484375 128.824219 C 108.085938 128.824219 107.179688 129.8125 106.605469 130.796875 C 105.863281 132.03125 105.289062 134.171875 105.289062 134.417969 C 105.289062 134.910156 105.78125 134.910156 105.863281 134.910156 C 106.441406 134.910156 106.441406 134.828125 106.6875 133.84375 C 107.261719 131.703125 107.921875 129.894531 109.402344 129.894531 C 110.304688 129.894531 110.550781 130.632812 110.550781 131.621094 C 110.550781 132.03125 110.46875 132.527344 110.46875 132.773438 Z M 113.183594 133.183594 C 115.324219 130.386719 117.132812 129.894531 118.285156 129.894531 C 119.765625 129.894531 121 130.964844 121 133.429688 C 121 134.910156 120.175781 138.613281 119.105469 140.753906 C 118.203125 142.5625 116.390625 144.289062 114.5 144.289062 C 111.949219 144.289062 111.292969 141.492188 111.292969 141.082031 C 111.292969 141 111.375 140.667969 111.375 140.585938 Z M 113.183594 133.183594 "/>
<path style="fill:none;stroke-width:0.39848;stroke-linecap:butt;stroke-linejoin:miter;stroke:rgb(0%,0%,0%);stroke-opacity:1;stroke-miterlimit:10;" d="M -3.493793 -0.0000137873 L 19.621362 -0.0000137873 " transform="matrix(5.235168,0,0,-5.235844,271.274968,232.75774)"/>
<path style="fill:none;stroke-width:0.39848;stroke-linecap:round;stroke-linejoin:round;stroke:rgb(0%,0%,0%);stroke-opacity:1;stroke-miterlimit:10;" d="M -2.071554 2.392598 C -1.694746 0.954942 -0.850097 0.279012 -0.00171842 -0.0000137873 C -0.850097 -0.27904 -1.694746 -0.957954 -2.071554 -2.39188 " transform="matrix(5.235168,0,0,-5.235844,375.032434,232.75774)"/>
<path style="fill:none;stroke-width:0.339;stroke-linecap:butt;stroke-linejoin:miter;stroke:rgb(0%,0%,0%);stroke-opacity:1;stroke-miterlimit:10;" d="M -0.000338425 0.000546288 L 4.666119 0.000546288 " transform="matrix(5.235168,0,0,-5.235844,302.314272,247.69036)"/>
<path style=" stroke:none;fill-rule:nonzero;fill:rgb(0%,0%,0%);fill-opacity:1;" d="M 317.203125 264.855469 L 320.738281 264.855469 C 321.480469 264.855469 321.972656 264.855469 321.972656 264.035156 C 321.972656 263.539062 321.480469 263.539062 320.820312 263.539062 L 317.449219 263.539062 C 318.269531 258.851562 318.601562 257.207031 318.847656 256.136719 C 319.011719 255.3125 319.832031 254.574219 320.738281 254.574219 C 320.738281 254.574219 321.726562 254.574219 322.464844 254.984375 C 320.902344 255.476562 320.820312 256.792969 320.820312 257.042969 C 320.820312 257.78125 321.480469 258.359375 322.300781 258.359375 C 323.289062 258.359375 324.359375 257.535156 324.359375 256.136719 C 324.359375 254.492188 322.546875 253.503906 320.738281 253.503906 C 319.09375 253.503906 317.285156 254.492188 316.296875 256.300781 C 315.640625 257.617188 315.308594 259.261719 314.570312 263.539062 L 311.691406 263.539062 C 310.949219 263.539062 310.457031 263.539062 310.457031 264.28125 C 310.457031 264.855469 310.949219 264.855469 311.609375 264.855469 L 314.324219 264.855469 C 314.242188 265.019531 311.9375 278.183594 311.113281 282.132812 C 310.867188 282.871094 310.292969 285.667969 308.484375 285.667969 C 308.484375 285.667969 307.578125 285.667969 306.921875 285.257812 C 308.402344 284.761719 308.484375 283.449219 308.484375 283.199219 C 308.484375 282.460938 307.90625 281.882812 307.085938 281.882812 C 306.097656 281.882812 304.945312 282.707031 304.945312 284.105469 C 304.945312 285.75 306.671875 286.738281 308.484375 286.738281 C 310.867188 286.738281 312.429688 284.269531 312.925781 283.53125 C 314.242188 281.0625 315.0625 276.539062 315.144531 276.125 Z M 317.203125 264.855469 "/>
<path style="fill:none;stroke-width:0.39848;stroke-linecap:butt;stroke-linejoin:miter;stroke:rgb(0%,0%,0%);stroke-opacity:1;stroke-miterlimit:10;" d="M 33.847565 8.272291 L 33.847565 25.962847 " transform="matrix(5.235168,0,0,-5.235844,271.274968,232.75774)"/>
<path style="fill:none;stroke-width:0.39848;stroke-linecap:round;stroke-linejoin:round;stroke:rgb(0%,0%,0%);stroke-opacity:1;stroke-miterlimit:10;" d="M -2.072522 2.391292 C -1.695762 0.957927 -0.851223 0.278179 0.00152271 -0.000136853 C -0.851223 -0.279199 -1.695762 -0.955216 -2.072522 -2.392312 " transform="matrix(0,-5.235844,-5.235168,0,448.47194,95.777504)"/>
<path style=" stroke:none;fill-rule:nonzero;fill:rgb(0%,0%,0%);fill-opacity:1;" d="M 472.585938 131.300781 C 472.585938 130.722656 472.171875 129.984375 471.105469 129.984375 C 470.117188 129.984375 469.046875 130.886719 469.046875 131.957031 C 469.046875 132.613281 469.542969 133.355469 470.527344 133.355469 C 471.597656 133.355469 472.585938 132.285156 472.585938 131.300781 Z M 465.101562 149.890625 C 465.019531 150.382812 464.769531 150.796875 464.769531 151.453125 C 464.769531 153.179688 466.25 154.496094 468.226562 154.496094 C 471.925781 154.496094 473.488281 149.480469 473.488281 148.984375 C 473.488281 148.492188 473.078125 148.492188 472.914062 148.492188 C 472.421875 148.492188 472.421875 148.65625 472.257812 149.066406 C 471.433594 152.027344 469.789062 153.507812 468.390625 153.507812 C 467.648438 153.507812 467.484375 153.015625 467.484375 152.195312 C 467.484375 151.371094 467.730469 150.710938 468.0625 149.890625 C 468.390625 148.902344 468.800781 147.914062 469.210938 147.011719 C 469.542969 146.105469 470.859375 142.734375 471.023438 142.320312 C 471.105469 141.992188 471.1875 141.5 471.1875 141.171875 C 471.1875 139.441406 469.789062 138.042969 467.730469 138.042969 C 464.113281 138.042969 462.46875 143.0625 462.46875 143.636719 C 462.46875 144.132812 462.960938 144.132812 463.042969 144.132812 C 463.621094 144.132812 463.621094 143.96875 463.703125 143.554688 C 464.6875 140.429688 466.25 139.113281 467.648438 139.113281 C 468.226562 139.113281 468.554688 139.359375 468.554688 140.347656 C 468.554688 141.171875 468.308594 141.746094 467.402344 144.050781 Z M 465.101562 149.890625 "/>
</g>
</svg>
