<?xml version="1.0" encoding="UTF-8"?>
<svg xmlns="http://www.w3.org/2000/svg" xmlns:xlink="http://www.w3.org/1999/xlink" width="562px" height="300px" viewBox="0 0 562 300" version="1.1">
<g id="surface1">
<path style=" stroke:none;fill-rule:nonzero;fill:rgb(0%,0%,0%);fill-opacity:1;" d="M 164.523438 42.769531 C 165.019531 40.867188 165.105469 40.371094 169.074219 40.371094 C 170.230469 40.371094 170.726562 40.371094 170.726562 39.296875 C 170.726562 38.71875 170.148438 38.71875 169.320312 38.71875 L 162.375 38.71875 C 161.050781 38.71875 160.96875 38.71875 160.390625 39.710938 L 141.289062 69.5625 L 137.234375 39.960938 C 137.070312 38.71875 136.988281 38.71875 135.582031 38.71875 L 128.46875 38.71875 C 127.476562 38.71875 126.898438 38.71875 126.898438 39.710938 C 126.898438 40.371094 127.3125 40.371094 128.386719 40.371094 C 129.050781 40.371094 129.957031 40.457031 130.621094 40.457031 C 131.445312 40.539062 131.777344 40.703125 131.777344 41.28125 C 131.777344 41.53125 131.695312 41.695312 131.53125 42.273438 L 124.914062 68.902344 C 124.417969 70.96875 123.507812 72.707031 119.289062 72.789062 C 119.042969 72.789062 118.382812 72.871094 118.382812 73.78125 C 118.382812 74.277344 118.628906 74.441406 119.042969 74.441406 C 120.78125 74.441406 122.597656 74.277344 124.335938 74.277344 C 126.070312 74.277344 127.972656 74.441406 129.710938 74.441406 C 129.957031 74.441406 130.621094 74.441406 130.621094 73.367188 C 130.621094 72.789062 130.042969 72.789062 129.710938 72.789062 C 126.734375 72.789062 126.15625 71.710938 126.15625 70.554688 C 126.15625 70.140625 126.15625 69.894531 126.320312 69.316406 L 133.433594 40.867188 L 133.515625 40.867188 L 137.980469 73.203125 C 138.0625 73.863281 138.144531 74.441406 138.808594 74.441406 C 139.386719 74.441406 139.632812 73.863281 139.964844 73.53125 L 161.050781 40.457031 L 161.132812 40.457031 L 153.609375 70.390625 C 153.113281 72.375 153.03125 72.789062 148.894531 72.789062 C 147.984375 72.789062 147.40625 72.789062 147.40625 73.78125 C 147.40625 74.441406 148.070312 74.441406 148.152344 74.441406 C 149.640625 74.441406 153.195312 74.277344 154.683594 74.277344 C 156.835938 74.277344 159.066406 74.441406 161.21875 74.441406 C 161.546875 74.441406 162.210938 74.441406 162.210938 73.367188 C 162.210938 72.789062 161.714844 72.789062 160.722656 72.789062 C 158.820312 72.789062 157.332031 72.789062 157.332031 71.878906 C 157.332031 71.710938 157.332031 71.546875 157.578125 70.636719 Z M 164.523438 42.769531 "/>
<path style=" stroke:none;fill-rule:nonzero;fill:rgb(0%,0%,0%);fill-opacity:1;" d="M 478.601562 44.257812 C 479.097656 42.109375 480.007812 40.539062 484.222656 40.371094 C 484.472656 40.371094 485.132812 40.289062 485.132812 39.296875 C 485.132812 39.296875 485.132812 38.71875 484.472656 38.71875 C 482.734375 38.71875 480.914062 38.882812 479.179688 38.882812 C 477.359375 38.882812 475.539062 38.71875 473.804688 38.71875 C 473.472656 38.71875 472.894531 38.71875 472.894531 39.792969 C 472.894531 40.371094 473.390625 40.371094 473.804688 40.371094 C 476.78125 40.457031 477.359375 41.53125 477.359375 42.6875 C 477.359375 42.855469 477.277344 43.597656 477.195312 43.761719 L 471.40625 67 L 459.828125 39.710938 C 459.414062 38.800781 459.332031 38.71875 458.175781 38.71875 L 451.144531 38.71875 C 450.070312 38.71875 449.65625 38.71875 449.65625 39.792969 C 449.65625 40.371094 450.070312 40.371094 451.0625 40.371094 C 451.394531 40.371094 454.617188 40.371094 454.617188 40.867188 L 447.671875 68.902344 C 447.09375 70.96875 446.265625 72.707031 441.964844 72.789062 C 441.71875 72.789062 441.140625 72.871094 441.140625 73.863281 C 441.140625 74.195312 441.386719 74.441406 441.800781 74.441406 C 443.453125 74.441406 445.273438 74.277344 447.011719 74.277344 C 448.828125 74.277344 450.648438 74.441406 452.386719 74.441406 C 452.632812 74.441406 453.378906 74.441406 453.378906 73.367188 C 453.378906 72.871094 452.882812 72.789062 452.304688 72.789062 C 449.242188 72.707031 448.828125 71.546875 448.828125 70.554688 C 448.828125 70.140625 448.914062 69.894531 449.078125 69.316406 L 455.941406 41.695312 C 456.191406 42.027344 456.191406 42.109375 456.4375 42.6875 L 469.421875 73.449219 C 469.835938 74.359375 470 74.441406 470.414062 74.441406 C 470.992188 74.441406 470.992188 74.277344 471.242188 73.367188 Z M 478.601562 44.257812 "/>
<path style=" stroke:none;fill-rule:nonzero;fill:rgb(0%,0%,0%);fill-opacity:1;" d="M 93.660156 214.332031 C 94.15625 212.429688 94.238281 211.933594 98.207031 211.933594 C 99.367188 211.933594 99.863281 211.933594 99.863281 210.859375 C 99.863281 210.277344 99.28125 210.277344 98.457031 210.277344 L 91.507812 210.277344 C 90.1875 210.277344 90.101562 210.277344 89.523438 211.269531 L 70.421875 241.121094 L 66.371094 211.519531 C 66.203125 210.277344 66.121094 210.277344 64.714844 210.277344 L 57.605469 210.277344 C 56.613281 210.277344 56.03125 210.277344 56.03125 211.269531 C 56.03125 211.933594 56.445312 211.933594 57.523438 211.933594 C 58.183594 211.933594 59.09375 212.015625 59.753906 212.015625 C 60.582031 212.097656 60.910156 212.261719 60.910156 212.84375 C 60.910156 213.089844 60.828125 213.253906 60.664062 213.835938 L 54.046875 240.460938 C 53.550781 242.527344 52.640625 244.265625 48.425781 244.347656 C 48.175781 244.347656 47.515625 244.429688 47.515625 245.339844 C 47.515625 245.835938 47.761719 246 48.175781 246 C 49.914062 246 51.734375 245.835938 53.46875 245.835938 C 55.207031 245.835938 57.109375 246 58.84375 246 C 59.09375 246 59.753906 246 59.753906 244.925781 C 59.753906 244.347656 59.175781 244.347656 58.84375 244.347656 C 55.867188 244.347656 55.289062 243.273438 55.289062 242.113281 C 55.289062 241.703125 55.289062 241.453125 55.453125 240.875 L 62.566406 212.429688 L 62.648438 212.429688 L 67.113281 244.761719 C 67.195312 245.421875 67.28125 246 67.941406 246 C 68.519531 246 68.769531 245.421875 69.097656 245.089844 L 90.1875 212.015625 L 90.269531 212.015625 L 82.742188 241.949219 C 82.246094 243.933594 82.164062 244.347656 78.03125 244.347656 C 77.121094 244.347656 76.542969 244.347656 76.542969 245.339844 C 76.542969 246 77.203125 246 77.285156 246 C 78.773438 246 82.332031 245.835938 83.820312 245.835938 C 85.96875 245.835938 88.203125 246 90.351562 246 C 90.683594 246 91.34375 246 91.34375 244.925781 C 91.34375 244.347656 90.847656 244.347656 89.855469 244.347656 C 87.953125 244.347656 86.464844 244.347656 86.464844 243.4375 C 86.464844 243.273438 86.464844 243.105469 86.714844 242.199219 Z M 93.660156 214.332031 "/>
<path style=" stroke:none;fill-rule:nonzero;fill:rgb(0%,0%,0%);fill-opacity:1;" d="M 121.726562 208.789062 C 122.058594 208.128906 122.058594 207.878906 122.058594 207.878906 C 122.058594 207.300781 121.5625 206.804688 120.980469 206.804688 C 120.652344 206.804688 120.238281 206.972656 120.074219 207.300781 L 101.960938 257.082031 C 101.714844 257.742188 101.714844 257.992188 101.714844 257.992188 C 101.714844 258.570312 102.128906 259.066406 102.707031 259.066406 C 103.449219 259.066406 103.617188 258.734375 103.863281 257.824219 Z M 121.726562 208.789062 "/>
<path style=" stroke:none;fill-rule:nonzero;fill:rgb(0%,0%,0%);fill-opacity:1;" d="M 139.1875 242.03125 C 139.1875 244.347656 138.609375 244.347656 135.136719 244.347656 L 135.136719 246 C 136.875 245.917969 139.273438 245.835938 140.84375 245.835938 C 142.414062 245.835938 144.480469 245.917969 146.550781 246 L 146.550781 244.347656 C 143.074219 244.347656 142.496094 244.347656 142.496094 242.03125 L 142.496094 236.65625 L 145.804688 233.761719 C 149.855469 239.304688 152.007812 242.199219 152.007812 243.191406 C 152.007812 244.183594 151.179688 244.347656 150.1875 244.347656 L 150.1875 246 C 151.59375 245.917969 154.734375 245.835938 155.8125 245.835938 C 157.300781 245.835938 158.871094 245.917969 160.359375 246 L 160.359375 244.347656 C 158.457031 244.347656 157.300781 244.347656 155.316406 241.617188 L 148.617188 232.273438 C 148.617188 232.191406 148.367188 231.859375 148.367188 231.695312 C 148.367188 231.449219 152.007812 228.304688 152.585938 227.890625 C 155.894531 225.246094 158.042969 225.164062 159.117188 225.082031 L 159.117188 223.507812 C 157.628906 223.675781 156.96875 223.675781 155.480469 223.675781 C 153.578125 223.675781 150.351562 223.507812 149.609375 223.507812 L 149.609375 225.082031 C 150.601562 225.164062 151.179688 225.742188 151.179688 226.402344 C 151.179688 227.476562 150.4375 228.058594 150.023438 228.46875 L 142.664062 234.835938 L 142.664062 209.699219 L 135.136719 210.277344 L 135.136719 211.933594 C 138.777344 211.933594 139.1875 212.261719 139.1875 214.828125 Z M 139.1875 242.03125 "/>
<path style=" stroke:none;fill-rule:nonzero;fill:rgb(0%,0%,0%);fill-opacity:1;" d="M 165.648438 232.851562 C 165.980469 225.082031 170.363281 223.757812 172.097656 223.757812 C 177.472656 223.757812 178.050781 230.785156 178.050781 232.851562 Z M 165.566406 233.929688 L 180.121094 233.929688 C 181.277344 233.929688 181.441406 233.929688 181.441406 232.851562 C 181.441406 227.644531 178.632812 222.601562 172.097656 222.601562 C 166.0625 222.601562 161.265625 227.972656 161.265625 234.507812 C 161.265625 241.535156 166.722656 246.578125 172.761719 246.578125 C 179.128906 246.578125 181.441406 240.792969 181.441406 239.800781 C 181.441406 239.21875 181.03125 239.136719 180.78125 239.136719 C 180.285156 239.136719 180.203125 239.46875 180.121094 239.882812 C 178.300781 245.257812 173.585938 245.257812 173.089844 245.257812 C 170.445312 245.257812 168.378906 243.6875 167.136719 241.785156 C 165.566406 239.21875 165.566406 235.832031 165.566406 233.929688 Z M 165.566406 233.929688 "/>
<path style=" stroke:none;fill-rule:nonzero;fill:rgb(0%,0%,0%);fill-opacity:1;" d="M 191.773438 228.636719 L 191.773438 222.929688 L 184.496094 223.507812 L 184.496094 225.082031 C 188.136719 225.082031 188.550781 225.492188 188.550781 228.058594 L 188.550781 242.03125 C 188.550781 244.347656 187.96875 244.347656 184.496094 244.347656 L 184.496094 246 C 186.480469 245.917969 188.964844 245.835938 190.453125 245.835938 C 192.519531 245.835938 195 245.835938 197.066406 246 L 197.066406 244.347656 L 195.992188 244.347656 C 192.105469 244.347656 192.023438 243.769531 192.023438 241.949219 L 192.023438 233.84375 C 192.023438 228.71875 194.171875 224.089844 198.140625 224.089844 C 198.554688 224.089844 198.636719 224.089844 198.722656 224.089844 C 198.554688 224.171875 197.5625 224.75 197.5625 226.15625 C 197.5625 227.644531 198.636719 228.386719 199.796875 228.386719 C 200.707031 228.386719 202.027344 227.726562 202.027344 226.074219 C 202.027344 224.417969 200.375 222.929688 198.140625 222.929688 C 194.339844 222.929688 192.4375 226.402344 191.773438 228.636719 Z M 191.773438 228.636719 "/>
<path style=" stroke:none;fill-rule:nonzero;fill:rgb(0%,0%,0%);fill-opacity:1;" d="M 231.390625 225.082031 L 235.859375 225.082031 C 236.933594 225.082031 237.429688 225.082031 237.429688 224.089844 C 237.429688 223.507812 236.933594 223.507812 236.023438 223.507812 L 231.722656 223.507812 L 232.796875 217.554688 C 233.046875 216.398438 233.707031 212.675781 234.039062 212.097656 C 234.535156 211.105469 235.445312 210.277344 236.519531 210.277344 C 236.683594 210.277344 238.089844 210.277344 239.082031 211.269531 C 236.765625 211.4375 236.269531 213.253906 236.269531 214.082031 C 236.269531 215.238281 237.179688 215.902344 238.171875 215.902344 C 239.578125 215.902344 241.066406 214.742188 241.066406 212.757812 C 241.066406 210.363281 238.667969 209.121094 236.519531 209.121094 C 234.699219 209.121094 231.476562 210.113281 229.902344 215.238281 C 229.574219 216.398438 229.40625 216.894531 228.167969 223.507812 L 224.527344 223.507812 C 223.535156 223.507812 222.957031 223.507812 222.957031 224.5 C 222.957031 225.082031 223.453125 225.082031 224.445312 225.082031 L 227.917969 225.082031 L 223.949219 245.753906 C 223.039062 250.796875 222.128906 255.59375 219.402344 255.59375 C 219.234375 255.59375 217.914062 255.59375 216.921875 254.601562 C 219.320312 254.4375 219.816406 252.617188 219.816406 251.789062 C 219.816406 250.632812 218.824219 249.96875 217.832031 249.96875 C 216.507812 249.96875 214.9375 251.128906 214.9375 253.113281 C 214.9375 255.429688 217.25 256.75 219.402344 256.75 C 222.296875 256.75 224.363281 253.609375 225.355469 251.625 C 227.007812 248.316406 228.167969 242.03125 228.25 241.703125 Z M 231.390625 225.082031 "/>
<path style=" stroke:none;fill-rule:nonzero;fill:rgb(0%,0%,0%);fill-opacity:1;" d="M 423.171875 222.929688 L 415.8125 223.507812 L 415.8125 225.082031 C 419.203125 225.082031 419.699219 225.410156 419.699219 227.972656 L 419.699219 242.03125 C 419.699219 244.347656 419.121094 244.347656 415.648438 244.347656 L 415.648438 246 C 417.300781 245.917969 420.113281 245.835938 421.351562 245.835938 C 423.171875 245.835938 425.074219 245.917969 426.8125 246 L 426.8125 244.347656 C 423.339844 244.347656 423.171875 244.097656 423.171875 242.113281 Z M 423.339844 213.835938 C 423.339844 212.097656 422.097656 211.023438 420.609375 211.023438 C 418.957031 211.023438 417.796875 212.429688 417.796875 213.835938 C 417.796875 215.238281 418.957031 216.5625 420.609375 216.5625 C 422.097656 216.5625 423.339844 215.488281 423.339844 213.835938 Z M 423.339844 213.835938 "/>
<path style=" stroke:none;fill-rule:nonzero;fill:rgb(0%,0%,0%);fill-opacity:1;" d="M 434.222656 228.058594 L 434.222656 242.03125 C 434.222656 244.347656 433.644531 244.347656 430.085938 244.347656 L 430.085938 246 C 431.90625 245.917969 434.636719 245.835938 436.042969 245.835938 C 437.363281 245.835938 440.09375 245.917969 441.828125 246 L 441.828125 244.347656 C 438.355469 244.347656 437.777344 244.347656 437.777344 242.03125 L 437.777344 232.441406 C 437.777344 226.980469 441.5 224.089844 444.808594 224.089844 C 448.113281 224.089844 448.695312 226.898438 448.695312 229.875 L 448.695312 242.03125 C 448.695312 244.347656 448.113281 244.347656 444.640625 244.347656 L 444.640625 246 C 446.460938 245.917969 449.105469 245.835938 450.511719 245.835938 C 451.917969 245.835938 454.648438 245.917969 456.382812 246 L 456.382812 244.347656 C 452.910156 244.347656 452.332031 244.347656 452.332031 242.03125 L 452.332031 232.441406 C 452.332031 226.980469 456.054688 224.089844 459.363281 224.089844 C 462.667969 224.089844 463.246094 226.898438 463.246094 229.875 L 463.246094 242.03125 C 463.246094 244.347656 462.667969 244.347656 459.195312 244.347656 L 459.195312 246 C 461.015625 245.917969 463.660156 245.835938 465.066406 245.835938 C 466.390625 245.835938 469.121094 245.917969 470.9375 246 L 470.9375 244.347656 C 468.210938 244.347656 466.886719 244.347656 466.886719 242.777344 L 466.886719 232.851562 C 466.886719 228.304688 466.886719 226.734375 465.234375 224.832031 C 464.488281 223.921875 462.75 222.929688 459.773438 222.929688 C 455.308594 222.929688 453.078125 226.074219 452.167969 228.058594 C 451.421875 223.507812 447.535156 222.929688 445.21875 222.929688 C 441.417969 222.929688 438.9375 225.164062 437.445312 228.386719 L 437.445312 222.929688 L 430.085938 223.507812 L 430.085938 225.082031 C 433.726562 225.082031 434.222656 225.492188 434.222656 228.058594 Z M 434.222656 228.058594 "/>
<path style=" stroke:none;fill-rule:nonzero;fill:rgb(0%,0%,0%);fill-opacity:1;" d="M 499.894531 225.082031 L 504.359375 225.082031 C 505.4375 225.082031 505.933594 225.082031 505.933594 224.089844 C 505.933594 223.507812 505.4375 223.507812 504.527344 223.507812 L 500.226562 223.507812 L 501.300781 217.554688 C 501.550781 216.398438 502.210938 212.675781 502.542969 212.097656 C 503.039062 211.105469 503.945312 210.277344 505.023438 210.277344 C 505.1875 210.277344 506.59375 210.277344 507.585938 211.269531 C 505.269531 211.4375 504.773438 213.253906 504.773438 214.082031 C 504.773438 215.238281 505.683594 215.902344 506.675781 215.902344 C 508.082031 215.902344 509.570312 214.742188 509.570312 212.757812 C 509.570312 210.363281 507.171875 209.121094 505.023438 209.121094 C 503.203125 209.121094 499.976562 210.113281 498.40625 215.238281 C 498.074219 216.398438 497.910156 216.894531 496.671875 223.507812 L 493.03125 223.507812 C 492.039062 223.507812 491.460938 223.507812 491.460938 224.5 C 491.460938 225.082031 491.957031 225.082031 492.949219 225.082031 L 496.421875 225.082031 L 492.453125 245.753906 C 491.542969 250.796875 490.632812 255.59375 487.902344 255.59375 C 487.738281 255.59375 486.414062 255.59375 485.421875 254.601562 C 487.820312 254.4375 488.316406 252.617188 488.316406 251.789062 C 488.316406 250.632812 487.324219 249.96875 486.332031 249.96875 C 485.011719 249.96875 483.4375 251.128906 483.4375 253.113281 C 483.4375 255.429688 485.753906 256.75 487.902344 256.75 C 490.796875 256.75 492.867188 253.609375 493.859375 251.625 C 495.511719 248.316406 496.671875 242.03125 496.753906 241.703125 Z M 499.894531 225.082031 "/>
<path style="fill:none;stroke-width:0.39848;stroke-linecap:butt;stroke-linejoin:miter;stroke:rgb(0%,0%,0%);stroke-opacity:1;stroke-miterlimit:10;" d="M -15.721731 32.695488 L 25.693312 32.695488 " transform="matrix(5.247376,0,0,-5.247113,278.607214,232.93583)"/>
<path style="fill:none;stroke-width:0.39848;stroke-linecap:round;stroke-linejoin:round;stroke:rgb(0%,0%,0%);stroke-opacity:1;stroke-miterlimit:10;" d="M -2.073992 2.390132 C -1.692104 0.955564 -0.848677 0.278108 -0.00152716 -0.00180811 C -0.848677 -0.277257 -1.692104 -0.954713 -2.073992 -2.389282 " transform="matrix(5.247376,0,0,-5.247113,414.472857,61.369419)"/>
<path style=" stroke:none;fill-rule:nonzero;fill:rgb(0%,0%,0%);fill-opacity:1;" d="M 308.457031 27.484375 L 312.097656 27.484375 C 312.839844 27.484375 313.253906 27.484375 313.253906 26.660156 C 313.253906 26.164062 312.839844 26.164062 312.179688 26.164062 L 308.707031 26.164062 C 309.617188 21.53125 309.863281 19.796875 310.195312 18.804688 C 310.359375 17.976562 311.1875 17.230469 312.015625 17.230469 C 312.097656 17.230469 313.089844 17.230469 313.75 17.644531 C 312.261719 18.140625 312.179688 19.464844 312.179688 19.628906 C 312.179688 20.457031 312.757812 21.035156 313.585938 21.035156 C 314.578125 21.035156 315.734375 20.125 315.734375 18.804688 C 315.734375 17.066406 313.914062 16.15625 312.015625 16.15625 C 310.441406 16.15625 308.625 17.066406 307.632812 18.886719 C 306.886719 20.292969 306.636719 21.945312 305.8125 26.164062 L 302.917969 26.164062 C 302.253906 26.164062 301.757812 26.164062 301.757812 26.988281 C 301.757812 27.484375 302.253906 27.484375 302.917969 27.484375 L 305.5625 27.484375 C 305.5625 27.734375 303.246094 40.882812 302.339844 44.851562 C 302.171875 45.59375 301.59375 48.40625 299.773438 48.40625 C 299.773438 48.40625 298.863281 48.40625 298.203125 47.992188 C 299.691406 47.496094 299.773438 46.175781 299.773438 45.925781 C 299.773438 45.183594 299.195312 44.601562 298.367188 44.601562 C 297.375 44.601562 296.21875 45.429688 296.21875 46.835938 C 296.21875 48.488281 297.957031 49.398438 299.773438 49.398438 C 302.171875 49.398438 303.746094 47 304.15625 46.175781 C 305.480469 43.777344 306.390625 39.226562 306.390625 38.816406 Z M 308.457031 27.484375 "/>
<path style="fill:none;stroke-width:0.39848;stroke-linecap:butt;stroke-linejoin:miter;stroke:rgb(0%,0%,0%);stroke-opacity:1;stroke-miterlimit:10;" d="M -25.583059 26.360903 L -25.583059 9.226481 " transform="matrix(5.247376,0,0,-5.247113,278.607214,232.93583)"/>
<path style="fill:none;stroke-width:0.39848;stroke-linecap:round;stroke-linejoin:round;stroke:rgb(0%,0%,0%);stroke-opacity:1;stroke-miterlimit:10;" d="M -2.071338 2.389207 C -1.693154 0.95471 -0.850429 0.277288 0.000485723 0.00185294 C -0.850429 -0.278049 -1.693154 -0.955471 -2.071338 -2.389967 " transform="matrix(0,5.247113,5.247376,0,144.353558,185.575576)"/>
<path style=" stroke:none;fill-rule:nonzero;fill:rgb(0%,0%,0%);fill-opacity:1;" d="M 113.238281 149.402344 C 112.988281 150.394531 112.90625 150.726562 111.5 150.726562 C 111.003906 150.726562 110.507812 150.726562 110.507812 151.46875 C 110.507812 151.882812 110.839844 152.046875 111.003906 152.046875 C 111.914062 152.046875 113.152344 151.882812 114.144531 151.882812 C 115.386719 151.882812 116.792969 152.046875 117.949219 152.046875 C 118.28125 152.046875 118.695312 151.964844 118.695312 151.222656 C 118.695312 150.726562 118.199219 150.726562 117.785156 150.726562 C 116.957031 150.726562 115.964844 150.726562 115.964844 150.3125 C 115.964844 150.0625 116.214844 149.152344 116.378906 148.574219 C 116.792969 146.671875 117.289062 144.6875 117.703125 143.117188 C 118.199219 143.863281 119.273438 145.265625 121.507812 145.265625 C 125.972656 145.265625 130.933594 140.386719 130.933594 134.929688 C 130.933594 130.632812 127.957031 128.8125 125.394531 128.8125 C 123.160156 128.8125 121.175781 130.300781 120.183594 131.375 C 119.605469 129.226562 117.535156 128.8125 116.460938 128.8125 C 114.972656 128.8125 114.144531 129.722656 113.566406 130.714844 C 112.824219 131.953125 112.246094 134.1875 112.246094 134.351562 C 112.246094 134.847656 112.742188 134.847656 112.824219 134.847656 C 113.402344 134.847656 113.402344 134.765625 113.648438 133.773438 C 114.230469 131.625 114.890625 129.804688 116.296875 129.804688 C 117.289062 129.804688 117.535156 130.632812 117.535156 131.625 C 117.535156 132.035156 117.453125 132.449219 117.453125 132.699219 Z M 120.183594 133.195312 C 122.332031 130.382812 124.152344 129.804688 125.308594 129.804688 C 126.714844 129.804688 127.957031 130.878906 127.957031 133.359375 C 127.957031 134.847656 127.210938 138.570312 126.054688 140.71875 C 125.144531 142.539062 123.324219 144.273438 121.507812 144.273438 C 118.859375 144.273438 118.199219 141.464844 118.199219 141.050781 C 118.199219 140.96875 118.28125 140.71875 118.363281 140.554688 Z M 120.183594 133.195312 "/>
<path style="fill:none;stroke-width:0.39848;stroke-linecap:butt;stroke-linejoin:miter;stroke:rgb(0%,0%,0%);stroke-opacity:1;stroke-miterlimit:10;" d="M -2.21647 -0.00106279 L 20.898505 -0.00106279 " transform="matrix(5.247376,0,0,-5.247113,278.607214,232.93583)"/>
<path style="fill:none;stroke-width:0.39848;stroke-linecap:round;stroke-linejoin:round;stroke:rgb(0%,0%,0%);stroke-opacity:1;stroke-miterlimit:10;" d="M -2.070458 2.390877 C -1.692293 0.956309 -0.848866 0.278853 -0.00171609 -0.00106279 C -0.848866 -0.280234 -1.692293 -0.958434 -2.070458 -2.392259 " transform="matrix(5.247376,0,0,-5.247113,389.313692,232.93583)"/>
<path style="fill:none;stroke-width:0.339;stroke-linecap:butt;stroke-linejoin:miter;stroke:rgb(0%,0%,0%);stroke-opacity:1;stroke-miterlimit:10;" d="M 0.000889149 -0.00107597 L 4.665423 -0.00107597 " transform="matrix(5.247376,0,0,-5.247113,316.425022,247.900604)"/>
<path style=" stroke:none;fill-rule:nonzero;fill:rgb(0%,0%,0%);fill-opacity:1;" d="M 331.308594 265.058594 L 334.949219 265.058594 C 335.691406 265.058594 336.105469 265.058594 336.105469 264.230469 C 336.105469 263.734375 335.691406 263.734375 335.03125 263.734375 L 331.558594 263.734375 C 332.46875 259.105469 332.714844 257.367188 333.046875 256.375 C 333.210938 255.550781 334.039062 254.804688 334.867188 254.804688 C 334.949219 254.804688 335.941406 254.804688 336.601562 255.21875 C 335.113281 255.714844 335.03125 257.039062 335.03125 257.203125 C 335.03125 258.03125 335.609375 258.609375 336.4375 258.609375 C 337.429688 258.609375 338.585938 257.699219 338.585938 256.375 C 338.585938 254.640625 336.769531 253.730469 334.867188 253.730469 C 333.292969 253.730469 331.476562 254.640625 330.484375 256.460938 C 329.738281 257.863281 329.492188 259.519531 328.664062 263.734375 L 325.769531 263.734375 C 325.109375 263.734375 324.613281 263.734375 324.613281 264.5625 C 324.613281 265.058594 325.109375 265.058594 325.769531 265.058594 L 328.414062 265.058594 C 328.414062 265.308594 326.101562 278.457031 325.191406 282.425781 C 325.023438 283.167969 324.445312 285.980469 322.628906 285.980469 C 322.628906 285.980469 321.71875 285.980469 321.054688 285.566406 C 322.542969 285.070312 322.628906 283.746094 322.628906 283.5 C 322.628906 282.753906 322.046875 282.175781 321.222656 282.175781 C 320.230469 282.175781 319.070312 283.003906 319.070312 284.410156 C 319.070312 286.0625 320.808594 286.972656 322.628906 286.972656 C 325.023438 286.972656 326.597656 284.574219 327.011719 283.746094 C 328.332031 281.347656 329.242188 276.800781 329.242188 276.386719 Z M 331.308594 265.058594 "/>
<path style="fill:none;stroke-width:0.39848;stroke-linecap:butt;stroke-linejoin:miter;stroke:rgb(0%,0%,0%);stroke-opacity:1;stroke-miterlimit:10;" d="M 35.125109 8.272832 L 35.125109 25.962619 " transform="matrix(5.247376,0,0,-5.247113,278.607214,232.93583)"/>
<path style="fill:none;stroke-width:0.39848;stroke-linecap:round;stroke-linejoin:round;stroke:rgb(0%,0%,0%);stroke-opacity:1;stroke-miterlimit:10;" d="M -2.070954 2.391582 C -1.69277 0.95783 -0.8493 0.279664 0.00161408 0.000506293 C -0.8493 -0.279396 -1.69277 -0.957562 -2.070954 -2.391314 " transform="matrix(0,-5.247113,-5.247376,0,462.924532,95.660813)"/>
<path style=" stroke:none;fill-rule:nonzero;fill:rgb(0%,0%,0%);fill-opacity:1;" d="M 487.128906 131.269531 C 487.128906 130.691406 486.632812 129.867188 485.640625 129.867188 C 484.648438 129.867188 483.574219 130.859375 483.574219 131.933594 C 483.574219 132.511719 484.070312 133.257812 485.0625 133.257812 C 486.136719 133.257812 487.128906 132.261719 487.128906 131.269531 Z M 479.605469 149.875 C 479.4375 150.371094 479.273438 150.785156 479.273438 151.449219 C 479.273438 153.183594 480.761719 154.507812 482.746094 154.507812 C 486.46875 154.507812 488.039062 149.464844 488.039062 148.96875 C 488.039062 148.472656 487.542969 148.472656 487.460938 148.472656 C 486.964844 148.472656 486.882812 148.71875 486.796875 149.050781 C 485.890625 152.027344 484.316406 153.515625 482.910156 153.515625 C 482.167969 153.515625 482.003906 153.019531 482.003906 152.273438 C 482.003906 151.363281 482.25 150.703125 482.582031 149.875 C 482.910156 148.882812 483.324219 147.890625 483.738281 146.984375 C 484.070312 146.074219 485.390625 142.765625 485.476562 142.269531 C 485.640625 141.9375 485.722656 141.523438 485.722656 141.113281 C 485.722656 139.375 484.234375 138.050781 482.25 138.050781 C 478.613281 138.050781 476.957031 143.011719 476.957031 143.59375 C 476.957031 144.089844 477.453125 144.089844 477.535156 144.089844 C 478.117188 144.089844 478.117188 143.921875 478.199219 143.507812 C 479.191406 140.367188 480.761719 139.042969 482.167969 139.042969 C 482.746094 139.042969 483.078125 139.375 483.078125 140.367188 C 483.078125 141.195312 482.828125 141.691406 481.917969 144.003906 Z M 479.605469 149.875 "/>
</g>
</svg>
