<?xml version="1.0" encoding="UTF-8"?>
<svg xmlns="http://www.w3.org/2000/svg" xmlns:xlink="http://www.w3.org/1999/xlink" width="562pt" height="300pt" viewBox="0 0 562 300" version="1.1">
<g id="surface1">
<path style=" stroke:none;fill-rule:nonzero;fill:rgb(0%,0%,0%);fill-opacity:1;" d="M 163.933594 42.6875 C 164.429688 40.789062 164.511719 40.292969 168.472656 40.292969 C 169.628906 40.292969 170.121094 40.292969 170.121094 39.21875 C 170.121094 38.640625 169.542969 38.640625 168.71875 38.640625 L 161.785156 38.640625 C 160.464844 38.640625 160.382812 38.640625 159.804688 39.632812 L 140.742188 69.425781 L 136.699219 39.878906 C 136.53125 38.640625 136.449219 38.640625 135.046875 38.640625 L 127.949219 38.640625 C 126.960938 38.640625 126.382812 38.640625 126.382812 39.632812 C 126.382812 40.292969 126.792969 40.292969 127.867188 40.292969 C 128.527344 40.292969 129.433594 40.375 130.09375 40.375 C 130.921875 40.457031 131.25 40.621094 131.25 41.199219 C 131.25 41.449219 131.167969 41.613281 131.003906 42.191406 L 124.402344 68.765625 C 123.90625 70.828125 122.996094 72.558594 118.789062 72.644531 C 118.542969 72.644531 117.878906 72.726562 117.878906 73.632812 C 117.878906 74.128906 118.128906 74.292969 118.542969 74.292969 C 120.273438 74.292969 122.089844 74.128906 123.824219 74.128906 C 125.554688 74.128906 127.453125 74.292969 129.1875 74.292969 C 129.433594 74.292969 130.09375 74.292969 130.09375 73.21875 C 130.09375 72.644531 129.519531 72.644531 129.1875 72.644531 C 126.214844 72.644531 125.636719 71.570312 125.636719 70.414062 C 125.636719 70.003906 125.636719 69.753906 125.804688 69.175781 L 132.902344 40.789062 L 132.984375 40.789062 L 137.441406 73.054688 C 137.523438 73.714844 137.605469 74.292969 138.265625 74.292969 C 138.84375 74.292969 139.089844 73.714844 139.421875 73.386719 L 160.464844 40.375 L 160.550781 40.375 L 153.039062 70.25 C 152.542969 72.230469 152.460938 72.644531 148.335938 72.644531 C 147.425781 72.644531 146.847656 72.644531 146.847656 73.632812 C 146.847656 74.292969 147.507812 74.292969 147.589844 74.292969 C 149.078125 74.292969 152.625 74.128906 154.113281 74.128906 C 156.257812 74.128906 158.484375 74.292969 160.632812 74.292969 C 160.960938 74.292969 161.621094 74.292969 161.621094 73.21875 C 161.621094 72.644531 161.125 72.644531 160.136719 72.644531 C 158.238281 72.644531 156.753906 72.644531 156.753906 71.734375 C 156.753906 71.570312 156.753906 71.40625 157 70.496094 Z M 163.933594 42.6875 "/>
<path style=" stroke:none;fill-rule:nonzero;fill:rgb(0%,0%,0%);fill-opacity:1;" d="M 477.382812 44.171875 C 477.878906 42.027344 478.785156 40.457031 482.996094 40.292969 C 483.242188 40.292969 483.902344 40.210938 483.902344 39.21875 C 483.902344 39.21875 483.902344 38.640625 483.242188 38.640625 C 481.507812 38.640625 479.695312 38.808594 477.960938 38.808594 C 476.144531 38.808594 474.328125 38.640625 472.597656 38.640625 C 472.265625 38.640625 471.6875 38.640625 471.6875 39.714844 C 471.6875 40.292969 472.183594 40.292969 472.597656 40.292969 C 475.566406 40.375 476.144531 41.449219 476.144531 42.601562 C 476.144531 42.769531 476.0625 43.511719 475.980469 43.675781 L 470.203125 66.867188 L 458.648438 39.632812 C 458.234375 38.726562 458.152344 38.640625 456.996094 38.640625 L 449.984375 38.640625 C 448.910156 38.640625 448.496094 38.640625 448.496094 39.714844 C 448.496094 40.292969 448.910156 40.292969 449.898438 40.292969 C 450.230469 40.292969 453.449219 40.292969 453.449219 40.789062 L 446.515625 68.765625 C 445.9375 70.828125 445.113281 72.558594 440.820312 72.644531 C 440.574219 72.644531 439.996094 72.726562 439.996094 73.714844 C 439.996094 74.046875 440.246094 74.292969 440.65625 74.292969 C 442.308594 74.292969 444.125 74.128906 445.855469 74.128906 C 447.671875 74.128906 449.488281 74.292969 451.222656 74.292969 C 451.46875 74.292969 452.210938 74.292969 452.210938 73.21875 C 452.210938 72.726562 451.714844 72.644531 451.136719 72.644531 C 448.085938 72.558594 447.671875 71.40625 447.671875 70.414062 C 447.671875 70.003906 447.753906 69.753906 447.917969 69.175781 L 454.769531 41.613281 C 455.015625 41.941406 455.015625 42.027344 455.265625 42.601562 L 468.222656 73.304688 C 468.636719 74.210938 468.800781 74.292969 469.210938 74.292969 C 469.789062 74.292969 469.789062 74.128906 470.039062 73.21875 Z M 477.382812 44.171875 "/>
<path style=" stroke:none;fill-rule:nonzero;fill:rgb(0%,0%,0%);fill-opacity:1;" d="M 93.207031 213.902344 C 93.703125 212.007812 93.785156 211.511719 97.746094 211.511719 C 98.902344 211.511719 99.398438 211.511719 99.398438 210.4375 C 99.398438 209.859375 98.820312 209.859375 97.996094 209.859375 L 91.0625 209.859375 C 89.742188 209.859375 89.660156 209.859375 89.082031 210.851562 L 70.015625 240.644531 L 65.972656 211.097656 C 65.808594 209.859375 65.726562 209.859375 64.324219 209.859375 L 57.226562 209.859375 C 56.234375 209.859375 55.65625 209.859375 55.65625 210.851562 C 55.65625 211.511719 56.070312 211.511719 57.140625 211.511719 C 57.800781 211.511719 58.710938 211.59375 59.371094 211.59375 C 60.195312 211.675781 60.527344 211.839844 60.527344 212.417969 C 60.527344 212.667969 60.445312 212.832031 60.277344 213.410156 L 53.675781 239.984375 C 53.179688 242.046875 52.273438 243.777344 48.0625 243.859375 C 47.816406 243.859375 47.15625 243.945312 47.15625 244.851562 C 47.15625 245.347656 47.402344 245.511719 47.816406 245.511719 C 49.550781 245.511719 51.363281 245.347656 53.097656 245.347656 C 54.832031 245.347656 56.730469 245.511719 58.460938 245.511719 C 58.710938 245.511719 59.371094 245.511719 59.371094 244.4375 C 59.371094 243.859375 58.792969 243.859375 58.460938 243.859375 C 55.492188 243.859375 54.914062 242.789062 54.914062 241.632812 C 54.914062 241.21875 54.914062 240.972656 55.078125 240.394531 L 62.175781 212.007812 L 62.257812 212.007812 L 66.714844 244.273438 C 66.796875 244.933594 66.878906 245.511719 67.542969 245.511719 C 68.117188 245.511719 68.367188 244.933594 68.695312 244.605469 L 89.742188 211.59375 L 89.824219 211.59375 L 82.3125 241.46875 C 81.820312 243.449219 81.734375 243.859375 77.609375 243.859375 C 76.703125 243.859375 76.125 243.859375 76.125 244.851562 C 76.125 245.511719 76.785156 245.511719 76.867188 245.511719 C 78.351562 245.511719 81.902344 245.347656 83.386719 245.347656 C 85.53125 245.347656 87.761719 245.511719 89.90625 245.511719 C 90.238281 245.511719 90.898438 245.511719 90.898438 244.4375 C 90.898438 243.859375 90.402344 243.859375 89.410156 243.859375 C 87.511719 243.859375 86.027344 243.859375 86.027344 242.953125 C 86.027344 242.789062 86.027344 242.625 86.277344 241.714844 Z M 93.207031 213.902344 "/>
<path style=" stroke:none;fill-rule:nonzero;fill:rgb(0%,0%,0%);fill-opacity:1;" d="M 121.21875 208.375 C 121.550781 207.714844 121.550781 207.46875 121.550781 207.46875 C 121.550781 206.890625 121.054688 206.394531 120.476562 206.394531 C 120.148438 206.394531 119.734375 206.558594 119.570312 206.890625 L 101.496094 256.570312 C 101.246094 257.230469 101.246094 257.476562 101.246094 257.476562 C 101.246094 258.054688 101.660156 258.550781 102.238281 258.550781 C 102.980469 258.550781 103.144531 258.222656 103.394531 257.3125 Z M 121.21875 208.375 "/>
<path style=" stroke:none;fill-rule:nonzero;fill:rgb(0%,0%,0%);fill-opacity:1;" d="M 138.648438 241.550781 C 138.648438 243.859375 138.070312 243.859375 134.601562 243.859375 L 134.601562 245.511719 C 136.335938 245.429688 138.730469 245.347656 140.296875 245.347656 C 141.867188 245.347656 143.929688 245.429688 145.992188 245.511719 L 145.992188 243.859375 C 142.527344 243.859375 141.949219 243.859375 141.949219 241.550781 L 141.949219 236.1875 L 145.25 233.296875 C 149.292969 238.828125 151.4375 241.714844 151.4375 242.707031 C 151.4375 243.695312 150.613281 243.859375 149.625 243.859375 L 149.625 245.511719 C 151.027344 245.429688 154.164062 245.347656 155.234375 245.347656 C 156.722656 245.347656 158.289062 245.429688 159.773438 245.511719 L 159.773438 243.859375 C 157.875 243.859375 156.722656 243.859375 154.742188 241.136719 L 148.054688 231.8125 C 148.054688 231.730469 147.808594 231.398438 147.808594 231.234375 C 147.808594 230.988281 151.4375 227.851562 152.015625 227.4375 C 155.320312 224.796875 157.464844 224.714844 158.535156 224.632812 L 158.535156 223.066406 C 157.050781 223.230469 156.390625 223.230469 154.90625 223.230469 C 153.007812 223.230469 149.789062 223.066406 149.046875 223.066406 L 149.046875 224.632812 C 150.035156 224.714844 150.613281 225.292969 150.613281 225.953125 C 150.613281 227.027344 149.871094 227.601562 149.457031 228.015625 L 142.113281 234.371094 L 142.113281 209.28125 L 134.601562 209.859375 L 134.601562 211.511719 C 138.234375 211.511719 138.648438 211.839844 138.648438 214.398438 Z M 138.648438 241.550781 "/>
<path style=" stroke:none;fill-rule:nonzero;fill:rgb(0%,0%,0%);fill-opacity:1;" d="M 165.054688 232.390625 C 165.382812 224.632812 169.757812 223.3125 171.492188 223.3125 C 176.855469 223.3125 177.433594 230.328125 177.433594 232.390625 Z M 164.972656 233.460938 L 179.496094 233.460938 C 180.652344 233.460938 180.816406 233.460938 180.816406 232.390625 C 180.816406 227.191406 178.011719 222.15625 171.492188 222.15625 C 165.464844 222.15625 160.679688 227.519531 160.679688 234.039062 C 160.679688 241.054688 166.125 246.089844 172.152344 246.089844 C 178.507812 246.089844 180.816406 240.3125 180.816406 239.320312 C 180.816406 238.746094 180.40625 238.660156 180.15625 238.660156 C 179.660156 238.660156 179.578125 238.992188 179.496094 239.40625 C 177.679688 244.769531 172.976562 244.769531 172.480469 244.769531 C 169.839844 244.769531 167.777344 243.199219 166.539062 241.304688 C 164.972656 238.746094 164.972656 235.359375 164.972656 233.460938 Z M 164.972656 233.460938 "/>
<path style=" stroke:none;fill-rule:nonzero;fill:rgb(0%,0%,0%);fill-opacity:1;" d="M 191.128906 228.179688 L 191.128906 222.488281 L 183.867188 223.066406 L 183.867188 224.632812 C 187.496094 224.632812 187.910156 225.046875 187.910156 227.601562 L 187.910156 241.550781 C 187.910156 243.859375 187.332031 243.859375 183.867188 243.859375 L 183.867188 245.511719 C 185.847656 245.429688 188.320312 245.347656 189.808594 245.347656 C 191.871094 245.347656 194.347656 245.347656 196.410156 245.511719 L 196.410156 243.859375 L 195.335938 243.859375 C 191.457031 243.859375 191.375 243.285156 191.375 241.46875 L 191.375 233.378906 C 191.375 228.265625 193.519531 223.640625 197.484375 223.640625 C 197.894531 223.640625 197.976562 223.640625 198.0625 223.640625 C 197.894531 223.726562 196.90625 224.300781 196.90625 225.707031 C 196.90625 227.191406 197.976562 227.933594 199.132812 227.933594 C 200.042969 227.933594 201.363281 227.273438 201.363281 225.621094 C 201.363281 223.972656 199.710938 222.488281 197.484375 222.488281 C 193.6875 222.488281 191.789062 225.953125 191.128906 228.179688 Z M 191.128906 228.179688 "/>
<path style=" stroke:none;fill-rule:nonzero;fill:rgb(0%,0%,0%);fill-opacity:1;" d="M 230.667969 224.632812 L 235.125 224.632812 C 236.195312 224.632812 236.691406 224.632812 236.691406 223.640625 C 236.691406 223.066406 236.195312 223.066406 235.289062 223.066406 L 230.996094 223.066406 L 232.070312 217.121094 C 232.316406 215.96875 232.976562 212.253906 233.308594 211.675781 C 233.804688 210.6875 234.710938 209.859375 235.785156 209.859375 C 235.949219 209.859375 237.351562 209.859375 238.34375 210.851562 C 236.03125 211.015625 235.535156 212.832031 235.535156 213.65625 C 235.535156 214.8125 236.445312 215.472656 237.433594 215.472656 C 238.835938 215.472656 240.324219 214.316406 240.324219 212.335938 C 240.324219 209.941406 237.929688 208.703125 235.785156 208.703125 C 233.96875 208.703125 230.75 209.695312 229.179688 214.8125 C 228.851562 215.96875 228.6875 216.460938 227.449219 223.066406 L 223.816406 223.066406 C 222.828125 223.066406 222.25 223.066406 222.25 224.054688 C 222.25 224.632812 222.742188 224.632812 223.734375 224.632812 L 227.199219 224.632812 L 223.238281 245.265625 C 222.332031 250.296875 221.421875 255.085938 218.699219 255.085938 C 218.535156 255.085938 217.214844 255.085938 216.222656 254.09375 C 218.617188 253.929688 219.113281 252.113281 219.113281 251.289062 C 219.113281 250.132812 218.121094 249.472656 217.132812 249.472656 C 215.8125 249.472656 214.242188 250.628906 214.242188 252.609375 C 214.242188 254.917969 216.554688 256.238281 218.699219 256.238281 C 221.589844 256.238281 223.652344 253.105469 224.640625 251.125 C 226.292969 247.824219 227.449219 241.550781 227.53125 241.21875 Z M 230.667969 224.632812 "/>
<path style=" stroke:none;fill-rule:nonzero;fill:rgb(0%,0%,0%);fill-opacity:1;" d="M 422.066406 222.488281 L 414.71875 223.066406 L 414.71875 224.632812 C 418.105469 224.632812 418.597656 224.960938 418.597656 227.519531 L 418.597656 241.550781 C 418.597656 243.859375 418.023438 243.859375 414.554688 243.859375 L 414.554688 245.511719 C 416.207031 245.429688 419.011719 245.347656 420.25 245.347656 C 422.066406 245.347656 423.964844 245.429688 425.695312 245.511719 L 425.695312 243.859375 C 422.230469 243.859375 422.066406 243.613281 422.066406 241.632812 Z M 422.230469 213.410156 C 422.230469 211.675781 420.992188 210.601562 419.507812 210.601562 C 417.855469 210.601562 416.703125 212.007812 416.703125 213.410156 C 416.703125 214.8125 417.855469 216.132812 419.507812 216.132812 C 420.992188 216.132812 422.230469 215.058594 422.230469 213.410156 Z M 422.230469 213.410156 "/>
<path style=" stroke:none;fill-rule:nonzero;fill:rgb(0%,0%,0%);fill-opacity:1;" d="M 433.09375 227.601562 L 433.09375 241.550781 C 433.09375 243.859375 432.515625 243.859375 428.964844 243.859375 L 428.964844 245.511719 C 430.78125 245.429688 433.507812 245.347656 434.910156 245.347656 C 436.230469 245.347656 438.953125 245.429688 440.6875 245.511719 L 440.6875 243.859375 C 437.21875 243.859375 436.640625 243.859375 436.640625 241.550781 L 436.640625 231.976562 C 436.640625 226.53125 440.355469 223.640625 443.65625 223.640625 C 446.957031 223.640625 447.535156 226.449219 447.535156 229.417969 L 447.535156 241.550781 C 447.535156 243.859375 446.957031 243.859375 443.492188 243.859375 L 443.492188 245.511719 C 445.308594 245.429688 447.949219 245.347656 449.351562 245.347656 C 450.753906 245.347656 453.476562 245.429688 455.210938 245.511719 L 455.210938 243.859375 C 451.746094 243.859375 451.167969 243.859375 451.167969 241.550781 L 451.167969 231.976562 C 451.167969 226.53125 454.882812 223.640625 458.183594 223.640625 C 461.484375 223.640625 462.0625 226.449219 462.0625 229.417969 L 462.0625 241.550781 C 462.0625 243.859375 461.484375 243.859375 458.015625 243.859375 L 458.015625 245.511719 C 459.832031 245.429688 462.472656 245.347656 463.878906 245.347656 C 465.199219 245.347656 467.921875 245.429688 469.738281 245.511719 L 469.738281 243.859375 C 467.011719 243.859375 465.691406 243.859375 465.691406 242.292969 L 465.691406 232.390625 C 465.691406 227.851562 465.691406 226.28125 464.042969 224.386719 C 463.300781 223.476562 461.566406 222.488281 458.59375 222.488281 C 454.136719 222.488281 451.910156 225.621094 451.003906 227.601562 C 450.257812 223.066406 446.378906 222.488281 444.070312 222.488281 C 440.273438 222.488281 437.796875 224.714844 436.3125 227.933594 L 436.3125 222.488281 L 428.964844 223.066406 L 428.964844 224.632812 C 432.597656 224.632812 433.09375 225.046875 433.09375 227.601562 Z M 433.09375 227.601562 "/>
<path style=" stroke:none;fill-rule:nonzero;fill:rgb(0%,0%,0%);fill-opacity:1;" d="M 498.636719 224.632812 L 503.09375 224.632812 C 504.164062 224.632812 504.660156 224.632812 504.660156 223.640625 C 504.660156 223.066406 504.164062 223.066406 503.257812 223.066406 L 498.964844 223.066406 L 500.039062 217.121094 C 500.285156 215.96875 500.945312 212.253906 501.277344 211.675781 C 501.773438 210.6875 502.679688 209.859375 503.753906 209.859375 C 503.917969 209.859375 505.320312 209.859375 506.3125 210.851562 C 504 211.015625 503.503906 212.832031 503.503906 213.65625 C 503.503906 214.8125 504.414062 215.472656 505.402344 215.472656 C 506.804688 215.472656 508.292969 214.316406 508.292969 212.335938 C 508.292969 209.941406 505.898438 208.703125 503.753906 208.703125 C 501.9375 208.703125 498.71875 209.695312 497.148438 214.8125 C 496.820312 215.96875 496.65625 216.460938 495.417969 223.066406 L 491.785156 223.066406 C 490.796875 223.066406 490.21875 223.066406 490.21875 224.054688 C 490.21875 224.632812 490.710938 224.632812 491.703125 224.632812 L 495.167969 224.632812 L 491.207031 245.265625 C 490.300781 250.296875 489.390625 255.085938 486.667969 255.085938 C 486.503906 255.085938 485.183594 255.085938 484.191406 254.09375 C 486.585938 253.929688 487.082031 252.113281 487.082031 251.289062 C 487.082031 250.132812 486.089844 249.472656 485.101562 249.472656 C 483.78125 249.472656 482.210938 250.628906 482.210938 252.609375 C 482.210938 254.917969 484.523438 256.238281 486.667969 256.238281 C 489.558594 256.238281 491.621094 253.105469 492.609375 251.125 C 494.261719 247.824219 495.417969 241.550781 495.5 241.21875 Z M 498.636719 224.632812 "/>
<path style="fill:none;stroke-width:0.39848;stroke-linecap:butt;stroke-linejoin:miter;stroke:rgb(0%,0%,0%);stroke-opacity:1;stroke-miterlimit:10;" d="M -15.721948 32.696042 L 25.693603 32.696042 " transform="matrix(5.236937,0,0,-5.236674,277.787975,232.47243)"/>
<path style="fill:none;stroke-width:0.39848;stroke-linecap:round;stroke-linejoin:round;stroke:rgb(0%,0%,0%);stroke-opacity:1;stroke-miterlimit:10;" d="M -2.073709 2.390231 C -1.691806 0.955786 -0.848935 0.278472 -0.00158877 -0.00125595 C -0.848935 -0.277254 -1.691806 -0.955314 -2.073709 -2.389013 " transform="matrix(5.236937,0,0,-5.236674,413.38332,61.247329)"/>
<path style=" stroke:none;fill-rule:nonzero;fill:rgb(0%,0%,0%);fill-opacity:1;" d="M 307.578125 27.429688 L 311.210938 27.429688 C 311.953125 27.429688 312.367188 27.429688 312.367188 26.605469 C 312.367188 26.109375 311.953125 26.109375 311.292969 26.109375 L 307.828125 26.109375 C 308.734375 21.488281 308.980469 19.757812 309.3125 18.765625 C 309.476562 17.941406 310.300781 17.199219 311.128906 17.199219 C 311.210938 17.199219 312.199219 17.199219 312.859375 17.609375 C 311.375 18.105469 311.292969 19.425781 311.292969 19.589844 C 311.292969 20.417969 311.871094 20.992188 312.695312 20.992188 C 313.6875 20.992188 314.84375 20.085938 314.84375 18.765625 C 314.84375 17.03125 313.027344 16.125 311.128906 16.125 C 309.558594 16.125 307.746094 17.03125 306.753906 18.847656 C 306.011719 20.25 305.761719 21.902344 304.9375 26.109375 L 302.050781 26.109375 C 301.390625 26.109375 300.894531 26.109375 300.894531 26.9375 C 300.894531 27.429688 301.390625 27.429688 302.050781 27.429688 L 304.691406 27.429688 C 304.691406 27.679688 302.378906 40.800781 301.472656 44.761719 C 301.308594 45.503906 300.730469 48.308594 298.914062 48.308594 C 298.914062 48.308594 298.003906 48.308594 297.34375 47.898438 C 298.832031 47.402344 298.914062 46.082031 298.914062 45.835938 C 298.914062 45.089844 298.335938 44.515625 297.511719 44.515625 C 296.519531 44.515625 295.363281 45.339844 295.363281 46.742188 C 295.363281 48.394531 297.097656 49.300781 298.914062 49.300781 C 301.308594 49.300781 302.875 46.90625 303.289062 46.082031 C 304.609375 43.6875 305.515625 39.148438 305.515625 38.738281 Z M 307.578125 27.429688 "/>
<path style="fill:none;stroke-width:0.39848;stroke-linecap:butt;stroke-linejoin:miter;stroke:rgb(0%,0%,0%);stroke-opacity:1;stroke-miterlimit:10;" d="M -25.58354 26.360765 L -25.58354 9.226501 " transform="matrix(5.236937,0,0,-5.236674,277.787975,232.47243)"/>
<path style="fill:none;stroke-width:0.39848;stroke-linecap:round;stroke-linejoin:round;stroke:rgb(0%,0%,0%);stroke-opacity:1;stroke-miterlimit:10;" d="M -2.071353 2.389009 C -1.693161 0.954636 -0.850248 0.277356 0.000870587 0.00137137 C -0.850248 -0.278342 -1.693161 -0.955623 -2.071353 -2.389996 " transform="matrix(0,5.236674,5.236937,0,143.801412,185.206379)"/>
<path style=" stroke:none;fill-rule:nonzero;fill:rgb(0%,0%,0%);fill-opacity:1;" d="M 112.746094 149.105469 C 112.5 150.09375 112.417969 150.425781 111.011719 150.425781 C 110.519531 150.425781 110.023438 150.425781 110.023438 151.167969 C 110.023438 151.582031 110.351562 151.746094 110.519531 151.746094 C 111.425781 151.746094 112.664062 151.582031 113.652344 151.582031 C 114.890625 151.582031 116.296875 151.746094 117.449219 151.746094 C 117.78125 151.746094 118.191406 151.664062 118.191406 150.921875 C 118.191406 150.425781 117.699219 150.425781 117.285156 150.425781 C 116.460938 150.425781 115.46875 150.425781 115.46875 150.011719 C 115.46875 149.765625 115.71875 148.855469 115.882812 148.28125 C 116.296875 146.382812 116.789062 144.402344 117.203125 142.832031 C 117.699219 143.574219 118.769531 144.976562 121 144.976562 C 125.457031 144.976562 130.40625 140.109375 130.40625 134.664062 C 130.40625 130.371094 127.4375 128.554688 124.878906 128.554688 C 122.648438 128.554688 120.667969 130.042969 119.679688 131.113281 C 119.101562 128.96875 117.039062 128.554688 115.964844 128.554688 C 114.480469 128.554688 113.652344 129.464844 113.078125 130.453125 C 112.332031 131.691406 111.757812 133.917969 111.757812 134.085938 C 111.757812 134.578125 112.25 134.578125 112.332031 134.578125 C 112.910156 134.578125 112.910156 134.496094 113.160156 133.507812 C 113.738281 131.363281 114.398438 129.546875 115.800781 129.546875 C 116.789062 129.546875 117.039062 130.371094 117.039062 131.363281 C 117.039062 131.773438 116.957031 132.1875 116.957031 132.433594 Z M 119.679688 132.929688 C 121.824219 130.125 123.640625 129.546875 124.796875 129.546875 C 126.199219 129.546875 127.4375 130.617188 127.4375 133.09375 C 127.4375 134.578125 126.695312 138.292969 125.539062 140.4375 C 124.628906 142.253906 122.816406 143.988281 121 143.988281 C 118.359375 143.988281 117.699219 141.183594 117.699219 140.769531 C 117.699219 140.6875 117.78125 140.4375 117.863281 140.273438 Z M 119.679688 132.929688 "/>
<path style="fill:none;stroke-width:0.39848;stroke-linecap:butt;stroke-linejoin:miter;stroke:rgb(0%,0%,0%);stroke-opacity:1;stroke-miterlimit:10;" d="M -2.216618 -0.000789227 L 20.898935 -0.000789227 " transform="matrix(5.236937,0,0,-5.236674,277.787975,232.47243)"/>
<path style="fill:none;stroke-width:0.39848;stroke-linecap:round;stroke-linejoin:round;stroke:rgb(0%,0%,0%);stroke-opacity:1;stroke-miterlimit:10;" d="M -2.070029 2.390698 C -1.691856 0.956253 -0.848985 0.278939 -0.00163857 -0.000789227 C -0.848985 -0.280517 -1.691856 -0.958577 -2.070029 -2.392276 " transform="matrix(5.236937,0,0,-5.236674,388.274206,232.47243)"/>
<path style="fill:none;stroke-width:0.339;stroke-linecap:butt;stroke-linejoin:miter;stroke:rgb(0%,0%,0%);stroke-opacity:1;stroke-miterlimit:10;" d="M 0.000876989 -0.00126898 L 4.665758 -0.00126898 " transform="matrix(5.236937,0,0,-5.236674,315.530564,247.407417)"/>
<path style=" stroke:none;fill-rule:nonzero;fill:rgb(0%,0%,0%);fill-opacity:1;" d="M 330.386719 264.53125 L 334.015625 264.53125 C 334.761719 264.53125 335.171875 264.53125 335.171875 263.707031 C 335.171875 263.210938 334.761719 263.210938 334.101562 263.210938 L 330.632812 263.210938 C 331.542969 258.589844 331.789062 256.855469 332.121094 255.867188 C 332.285156 255.042969 333.109375 254.296875 333.933594 254.296875 C 334.015625 254.296875 335.007812 254.296875 335.667969 254.710938 C 334.183594 255.207031 334.101562 256.527344 334.101562 256.691406 C 334.101562 257.515625 334.675781 258.09375 335.503906 258.09375 C 336.492188 258.09375 337.648438 257.1875 337.648438 255.867188 C 337.648438 254.132812 335.832031 253.226562 333.933594 253.226562 C 332.367188 253.226562 330.550781 254.132812 329.5625 255.949219 C 328.816406 257.351562 328.570312 259.003906 327.746094 263.210938 L 324.855469 263.210938 C 324.195312 263.210938 323.699219 263.210938 323.699219 264.035156 C 323.699219 264.53125 324.195312 264.53125 324.855469 264.53125 L 327.496094 264.53125 C 327.496094 264.78125 325.1875 277.902344 324.277344 281.863281 C 324.113281 282.605469 323.535156 285.410156 321.71875 285.410156 C 321.71875 285.410156 320.8125 285.410156 320.152344 285 C 321.636719 284.503906 321.71875 283.183594 321.71875 282.933594 C 321.71875 282.191406 321.144531 281.613281 320.316406 281.613281 C 319.328125 281.613281 318.171875 282.441406 318.171875 283.84375 C 318.171875 285.492188 319.90625 286.402344 321.71875 286.402344 C 324.113281 286.402344 325.683594 284.007812 326.09375 283.183594 C 327.414062 280.789062 328.324219 276.25 328.324219 275.839844 Z M 330.386719 264.53125 "/>
<path style="fill:none;stroke-width:0.39848;stroke-linecap:butt;stroke-linejoin:miter;stroke:rgb(0%,0%,0%);stroke-opacity:1;stroke-miterlimit:10;" d="M 35.125554 8.272442 L 35.125554 25.962433 " transform="matrix(5.236937,0,0,-5.236674,277.787975,232.47243)"/>
<path style="fill:none;stroke-width:0.39848;stroke-linecap:round;stroke-linejoin:round;stroke:rgb(0%,0%,0%);stroke-opacity:1;stroke-miterlimit:10;" d="M -2.071144 2.391429 C -1.692952 0.957803 -0.849293 0.279776 0.00182606 0.0000624737 C -0.849293 -0.279651 -1.692952 -0.956932 -2.071144 -2.391304 " transform="matrix(0,-5.236674,-5.236937,0,461.738608,95.4705)"/>
<path style=" stroke:none;fill-rule:nonzero;fill:rgb(0%,0%,0%);fill-opacity:1;" d="M 485.894531 131.011719 C 485.894531 130.433594 485.398438 129.605469 484.410156 129.605469 C 483.417969 129.605469 482.347656 130.597656 482.347656 131.671875 C 482.347656 132.25 482.839844 132.992188 483.832031 132.992188 C 484.90625 132.992188 485.894531 132 485.894531 131.011719 Z M 478.386719 149.578125 C 478.21875 150.074219 478.054688 150.488281 478.054688 151.148438 C 478.054688 152.878906 479.539062 154.199219 481.519531 154.199219 C 485.234375 154.199219 486.804688 149.164062 486.804688 148.671875 C 486.804688 148.175781 486.308594 148.175781 486.226562 148.175781 C 485.730469 148.175781 485.648438 148.421875 485.566406 148.753906 C 484.65625 151.722656 483.089844 153.210938 481.6875 153.210938 C 480.941406 153.210938 480.777344 152.714844 480.777344 151.972656 C 480.777344 151.0625 481.027344 150.402344 481.355469 149.578125 C 481.6875 148.589844 482.097656 147.597656 482.511719 146.691406 C 482.839844 145.78125 484.160156 142.480469 484.246094 141.984375 C 484.410156 141.65625 484.492188 141.242188 484.492188 140.832031 C 484.492188 139.097656 483.007812 137.777344 481.027344 137.777344 C 477.394531 137.777344 475.742188 142.730469 475.742188 143.304688 C 475.742188 143.800781 476.238281 143.800781 476.320312 143.800781 C 476.898438 143.800781 476.898438 143.636719 476.980469 143.222656 C 477.972656 140.089844 479.539062 138.769531 480.941406 138.769531 C 481.519531 138.769531 481.851562 139.097656 481.851562 140.089844 C 481.851562 140.914062 481.601562 141.410156 480.695312 143.71875 Z M 478.386719 149.578125 "/>
</g>
</svg>
