<?xml version="1.0" encoding="UTF-8"?>
<svg xmlns="http://www.w3.org/2000/svg" xmlns:xlink="http://www.w3.org/1999/xlink" width="397px" height="300px" viewBox="0 0 397 300" version="1.1">
<defs>
<clipPath id="clip1">
  <path d="M 372.164062 2 L 388 2 L 388 52 L 372.164062 52 Z M 372.164062 2 "/>
</clipPath>
<clipPath id="clip2">
  <path d="M 372.164062 248 L 388 248 L 388 298 L 372.164062 298 Z M 372.164062 248 "/>
</clipPath>
<clipPath id="clip3">
  <path d="M 71 0.171875 L 154 0.171875 L 154 82 L 71 82 Z M 71 0.171875 "/>
</clipPath>
<clipPath id="clip4">
  <path d="M 28.117188 0.171875 L 158 0.171875 L 158 112.863281 L 28.117188 112.863281 Z M 28.117188 0.171875 "/>
</clipPath>
<clipPath id="clip5">
  <path d="M 242 191 L 359 191 L 359 299.777344 L 242 299.777344 Z M 242 191 "/>
</clipPath>
<clipPath id="clip6">
  <path d="M 233 187.191406 L 368 187.191406 L 368 299 L 233 299 Z M 233 187.191406 "/>
</clipPath>
</defs>
<g id="surface1">
<path style=" stroke:none;fill-rule:nonzero;fill:rgb(0%,0%,0%);fill-opacity:1;" d="M 46.390625 16.847656 C 46.390625 12.546875 43.851562 11.171875 41.789062 11.171875 C 38.046875 11.171875 34.433594 15.128906 34.433594 18.957031 C 34.433594 21.539062 36.066406 23.601562 38.863281 23.601562 C 40.582031 23.601562 42.5625 22.957031 44.667969 21.28125 C 45.011719 22.742188 45.917969 23.601562 47.164062 23.601562 C 48.582031 23.601562 49.441406 22.097656 49.441406 21.667969 C 49.441406 21.453125 49.269531 21.367188 49.140625 21.367188 C 48.925781 21.367188 48.839844 21.453125 48.753906 21.667969 C 48.28125 23 47.292969 23 47.25 23 C 46.390625 23 46.390625 20.847656 46.390625 20.203125 C 46.390625 19.644531 46.390625 19.558594 46.648438 19.257812 C 49.226562 16.03125 49.785156 12.847656 49.785156 12.804688 C 49.785156 12.761719 49.785156 12.546875 49.484375 12.546875 C 49.183594 12.546875 49.183594 12.632812 49.054688 13.105469 C 48.582031 14.828125 47.679688 16.933594 46.390625 18.527344 Z M 44.539062 20.589844 C 42.132812 22.699219 40.023438 23 38.949219 23 C 37.273438 23 36.453125 21.753906 36.453125 20.03125 C 36.453125 18.65625 37.1875 15.730469 38.046875 14.3125 C 39.335938 12.332031 40.839844 11.773438 41.789062 11.773438 C 44.496094 11.773438 44.496094 15.386719 44.496094 17.539062 C 44.496094 18.527344 44.496094 20.117188 44.539062 20.589844 Z M 44.539062 20.589844 "/>
<path style=" stroke:none;fill-rule:nonzero;fill:rgb(0%,0%,0%);fill-opacity:1;" d="M 57.242188 15.191406 C 57.242188 14.675781 57.242188 14.675781 56.683594 14.675781 C 55.433594 15.878906 53.714844 15.878906 52.941406 15.878906 L 52.941406 16.570312 C 53.371094 16.570312 54.660156 16.570312 55.691406 16.054688 L 55.691406 25.816406 C 55.691406 26.460938 55.691406 26.71875 53.800781 26.71875 L 53.070312 26.71875 L 53.070312 27.40625 C 53.414062 27.40625 55.777344 27.320312 56.46875 27.320312 C 57.070312 27.320312 59.476562 27.40625 59.90625 27.40625 L 59.90625 26.71875 L 59.175781 26.71875 C 57.242188 26.71875 57.242188 26.460938 57.242188 25.816406 Z M 57.242188 15.191406 "/>
<path style=" stroke:none;fill-rule:nonzero;fill:rgb(0%,0%,0%);fill-opacity:1;" d="M 87.589844 5.75 C 87.589844 5.105469 87.589844 5.0625 86.988281 5.0625 C 85.269531 6.828125 82.859375 6.828125 82 6.828125 L 82 7.644531 C 82.515625 7.644531 84.152344 7.644531 85.570312 6.957031 L 85.570312 21.148438 C 85.570312 22.140625 85.484375 22.441406 83.03125 22.441406 L 82.171875 22.441406 L 82.171875 23.300781 C 83.117188 23.214844 85.484375 23.214844 86.601562 23.214844 C 87.675781 23.214844 90.085938 23.214844 91.03125 23.300781 L 91.03125 22.441406 L 90.171875 22.441406 C 87.675781 22.441406 87.589844 22.140625 87.589844 21.148438 Z M 87.589844 5.75 "/>
<path style=" stroke:none;fill-rule:nonzero;fill:rgb(0%,0%,0%);fill-opacity:1;" d="M 139.460938 57.640625 C 139.460938 56.992188 139.460938 56.949219 138.859375 56.949219 C 137.140625 58.714844 134.730469 58.714844 133.871094 58.714844 L 133.871094 59.53125 C 134.386719 59.53125 136.023438 59.53125 137.441406 58.84375 L 137.441406 73.039062 C 137.441406 74.027344 137.355469 74.328125 134.902344 74.328125 L 134.042969 74.328125 L 134.042969 75.1875 C 134.988281 75.101562 137.355469 75.101562 138.472656 75.101562 C 139.546875 75.101562 141.957031 75.101562 142.902344 75.1875 L 142.902344 74.328125 L 142.042969 74.328125 C 139.546875 74.328125 139.460938 74.027344 139.460938 73.039062 Z M 139.460938 57.640625 "/>
<path style=" stroke:none;fill-rule:nonzero;fill:rgb(0%,0%,0%);fill-opacity:1;" d="M 136.441406 96.960938 C 136.441406 92.660156 133.902344 91.285156 131.839844 91.285156 C 128.097656 91.285156 124.484375 95.242188 124.484375 99.070312 C 124.484375 101.648438 126.117188 103.714844 128.914062 103.714844 C 130.632812 103.714844 132.613281 103.070312 134.71875 101.390625 C 135.0625 102.855469 135.96875 103.714844 137.214844 103.714844 C 138.632812 103.714844 139.492188 102.207031 139.492188 101.777344 C 139.492188 101.5625 139.320312 101.476562 139.191406 101.476562 C 138.976562 101.476562 138.890625 101.5625 138.804688 101.777344 C 138.332031 103.113281 137.34375 103.113281 137.300781 103.113281 C 136.441406 103.113281 136.441406 100.960938 136.441406 100.316406 C 136.441406 99.757812 136.441406 99.671875 136.699219 99.371094 C 139.277344 96.144531 139.835938 92.960938 139.835938 92.917969 C 139.835938 92.875 139.835938 92.660156 139.535156 92.660156 C 139.234375 92.660156 139.234375 92.746094 139.105469 93.21875 C 138.632812 94.941406 137.730469 97.046875 136.441406 98.640625 Z M 134.589844 100.703125 C 132.183594 102.8125 130.074219 103.113281 129 103.113281 C 127.324219 103.113281 126.507812 101.863281 126.507812 100.144531 C 126.507812 98.769531 127.238281 95.84375 128.097656 94.421875 C 129.386719 92.445312 130.890625 91.886719 131.839844 91.886719 C 134.546875 91.886719 134.546875 95.5 134.546875 97.648438 C 134.546875 98.640625 134.546875 100.230469 134.589844 100.703125 Z M 134.589844 100.703125 "/>
<path style=" stroke:none;fill-rule:nonzero;fill:rgb(0%,0%,0%);fill-opacity:1;" d="M 147.292969 95.304688 C 147.292969 94.789062 147.292969 94.789062 146.734375 94.789062 C 145.484375 95.992188 143.765625 95.992188 142.992188 95.992188 L 142.992188 96.679688 C 143.421875 96.679688 144.710938 96.679688 145.742188 96.164062 L 145.742188 105.929688 C 145.742188 106.574219 145.742188 106.832031 143.851562 106.832031 L 143.121094 106.832031 L 143.121094 107.519531 C 143.464844 107.519531 145.828125 107.433594 146.519531 107.433594 C 147.121094 107.433594 149.527344 107.519531 149.957031 107.519531 L 149.957031 106.832031 L 149.226562 106.832031 C 147.292969 106.832031 147.292969 106.574219 147.292969 105.929688 Z M 147.292969 95.304688 "/>
<path style=" stroke:none;fill-rule:nonzero;fill:rgb(0%,0%,0%);fill-opacity:1;" d="M 251.136719 203.621094 C 251.136719 199.320312 248.597656 197.945312 246.535156 197.945312 C 242.792969 197.945312 239.179688 201.902344 239.179688 205.730469 C 239.179688 208.308594 240.816406 210.375 243.609375 210.375 C 245.332031 210.375 247.308594 209.730469 249.414062 208.050781 C 249.761719 209.515625 250.664062 210.375 251.910156 210.375 C 253.328125 210.375 254.191406 208.871094 254.191406 208.441406 C 254.191406 208.222656 254.019531 208.136719 253.886719 208.136719 C 253.671875 208.136719 253.585938 208.222656 253.5 208.441406 C 253.027344 209.773438 252.039062 209.773438 251.996094 209.773438 C 251.136719 209.773438 251.136719 207.621094 251.136719 206.976562 C 251.136719 206.417969 251.136719 206.332031 251.394531 206.03125 C 253.972656 202.804688 254.535156 199.621094 254.535156 199.578125 C 254.535156 199.535156 254.535156 199.320312 254.234375 199.320312 C 253.929688 199.320312 253.929688 199.40625 253.800781 199.878906 C 253.328125 201.601562 252.425781 203.707031 251.136719 205.300781 Z M 249.285156 207.363281 C 246.878906 209.472656 244.769531 209.773438 243.695312 209.773438 C 242.019531 209.773438 241.203125 208.527344 241.203125 206.804688 C 241.203125 205.429688 241.933594 202.503906 242.792969 201.085938 C 244.082031 199.105469 245.589844 198.546875 246.535156 198.546875 C 249.242188 198.546875 249.242188 202.160156 249.242188 204.308594 C 249.242188 205.300781 249.242188 206.890625 249.285156 207.363281 Z M 249.285156 207.363281 "/>
<path style=" stroke:none;fill-rule:nonzero;fill:rgb(0%,0%,0%);fill-opacity:1;" d="M 257.902344 212.980469 C 257.859375 213.238281 257.730469 213.710938 257.730469 213.753906 C 257.730469 214.183594 258.074219 214.355469 258.375 214.355469 C 258.71875 214.355469 259.019531 214.140625 259.148438 213.96875 C 259.234375 213.796875 259.363281 213.152344 259.492188 212.765625 C 259.578125 212.421875 259.792969 211.515625 259.878906 211.042969 C 260.007812 210.613281 260.136719 210.183594 260.222656 209.753906 C 260.441406 208.980469 260.484375 208.808594 261.042969 208.03125 C 261.558594 207.257812 262.460938 206.269531 263.921875 206.269531 C 265 206.269531 265.042969 207.257812 265.042969 207.601562 C 265.042969 208.765625 264.222656 210.871094 263.921875 211.6875 C 263.707031 212.25 263.621094 212.421875 263.621094 212.722656 C 263.621094 213.753906 264.4375 214.355469 265.429688 214.355469 C 267.363281 214.355469 268.179688 211.730469 268.179688 211.429688 C 268.179688 211.171875 267.964844 211.171875 267.878906 211.171875 C 267.621094 211.171875 267.621094 211.300781 267.535156 211.515625 C 267.105469 213.066406 266.246094 213.839844 265.515625 213.839844 C 265.085938 213.839844 265 213.582031 265 213.152344 C 265 212.722656 265.128906 212.464844 265.472656 211.601562 C 265.6875 211 266.460938 208.980469 266.460938 207.902344 C 266.460938 206.054688 265 205.710938 263.964844 205.710938 C 262.375 205.710938 261.300781 206.699219 260.742188 207.472656 C 260.613281 206.140625 259.492188 205.710938 258.675781 205.710938 C 257.859375 205.710938 257.429688 206.3125 257.171875 206.742188 C 256.742188 207.472656 256.484375 208.550781 256.484375 208.679688 C 256.484375 208.894531 256.742188 208.894531 256.828125 208.894531 C 257.085938 208.894531 257.085938 208.851562 257.214844 208.335938 C 257.515625 207.214844 257.902344 206.269531 258.632812 206.269531 C 259.148438 206.269531 259.277344 206.699219 259.277344 207.214844 C 259.277344 207.558594 259.105469 208.292969 258.933594 208.808594 C 258.804688 209.324219 258.632812 210.097656 258.546875 210.527344 Z M 257.902344 212.980469 "/>
<path style=" stroke:none;fill-rule:nonzero;fill:rgb(0%,0%,0%);fill-opacity:1;" d="M 294.957031 192.523438 C 294.957031 191.878906 294.957031 191.835938 294.355469 191.835938 C 292.636719 193.601562 290.226562 193.601562 289.367188 193.601562 L 289.367188 194.417969 C 289.882812 194.417969 291.515625 194.417969 292.9375 193.730469 L 292.9375 207.921875 C 292.9375 208.914062 292.851562 209.214844 290.398438 209.214844 L 289.539062 209.214844 L 289.539062 210.074219 C 290.484375 209.988281 292.851562 209.988281 293.96875 209.988281 C 295.042969 209.988281 297.453125 209.988281 298.398438 210.074219 L 298.398438 209.214844 L 297.539062 209.214844 C 295.042969 209.214844 294.957031 208.914062 294.957031 207.921875 Z M 294.957031 192.523438 "/>
<path style=" stroke:none;fill-rule:nonzero;fill:rgb(0%,0%,0%);fill-opacity:1;" d="M 348.140625 244.410156 C 348.140625 243.765625 348.140625 243.722656 347.539062 243.722656 C 345.816406 245.488281 343.410156 245.488281 342.550781 245.488281 L 342.550781 246.304688 C 343.066406 246.304688 344.699219 246.304688 346.117188 245.617188 L 346.117188 259.808594 C 346.117188 260.800781 346.03125 261.101562 343.582031 261.101562 L 342.722656 261.101562 L 342.722656 261.960938 C 343.667969 261.875 346.03125 261.875 347.152344 261.875 C 348.226562 261.875 350.632812 261.875 351.582031 261.960938 L 351.582031 261.101562 L 350.71875 261.101562 C 348.226562 261.101562 348.140625 260.800781 348.140625 259.808594 Z M 348.140625 244.410156 "/>
<path style=" stroke:none;fill-rule:nonzero;fill:rgb(0%,0%,0%);fill-opacity:1;" d="M 343.804688 283.734375 C 343.804688 279.433594 341.269531 278.058594 339.203125 278.058594 C 335.464844 278.058594 331.851562 282.015625 331.851562 285.84375 C 331.851562 288.421875 333.484375 290.488281 336.28125 290.488281 C 338 290.488281 339.980469 289.84375 342.085938 288.164062 C 342.429688 289.628906 343.332031 290.488281 344.582031 290.488281 C 346 290.488281 346.859375 288.980469 346.859375 288.550781 C 346.859375 288.335938 346.6875 288.25 346.558594 288.25 C 346.34375 288.25 346.257812 288.335938 346.171875 288.550781 C 345.699219 289.886719 344.710938 289.886719 344.667969 289.886719 C 343.804688 289.886719 343.804688 287.734375 343.804688 287.089844 C 343.804688 286.53125 343.804688 286.445312 344.066406 286.144531 C 346.644531 282.917969 347.203125 279.734375 347.203125 279.691406 C 347.203125 279.648438 347.203125 279.433594 346.902344 279.433594 C 346.601562 279.433594 346.601562 279.519531 346.472656 279.992188 C 346 281.710938 345.097656 283.820312 343.804688 285.410156 Z M 341.957031 287.476562 C 339.550781 289.585938 337.441406 289.886719 336.367188 289.886719 C 334.6875 289.886719 333.871094 288.636719 333.871094 286.917969 C 333.871094 285.539062 334.601562 282.617188 335.464844 281.195312 C 336.753906 279.21875 338.257812 278.660156 339.203125 278.660156 C 341.914062 278.660156 341.914062 282.273438 341.914062 284.421875 C 341.914062 285.410156 341.914062 287.003906 341.957031 287.476562 Z M 341.957031 287.476562 "/>
<path style=" stroke:none;fill-rule:nonzero;fill:rgb(0%,0%,0%);fill-opacity:1;" d="M 350.574219 293.089844 C 350.53125 293.347656 350.402344 293.820312 350.402344 293.863281 C 350.402344 294.292969 350.746094 294.464844 351.046875 294.464844 C 351.390625 294.464844 351.691406 294.25 351.820312 294.078125 C 351.90625 293.90625 352.035156 293.261719 352.164062 292.875 C 352.25 292.53125 352.464844 291.625 352.550781 291.152344 C 352.679688 290.722656 352.808594 290.292969 352.894531 289.863281 C 353.109375 289.089844 353.152344 288.917969 353.710938 288.144531 C 354.226562 287.367188 355.132812 286.378906 356.59375 286.378906 C 357.667969 286.378906 357.710938 287.367188 357.710938 287.710938 C 357.710938 288.875 356.894531 290.980469 356.59375 291.796875 C 356.378906 292.359375 356.292969 292.53125 356.292969 292.832031 C 356.292969 293.863281 357.109375 294.464844 358.097656 294.464844 C 360.035156 294.464844 360.851562 291.839844 360.851562 291.539062 C 360.851562 291.28125 360.636719 291.28125 360.550781 291.28125 C 360.292969 291.28125 360.292969 291.410156 360.207031 291.625 C 359.777344 293.175781 358.914062 293.949219 358.183594 293.949219 C 357.753906 293.949219 357.667969 293.691406 357.667969 293.261719 C 357.667969 292.832031 357.796875 292.574219 358.140625 291.710938 C 358.355469 291.109375 359.132812 289.089844 359.132812 288.015625 C 359.132812 286.164062 357.667969 285.820312 356.636719 285.820312 C 355.046875 285.820312 353.96875 286.808594 353.410156 287.582031 C 353.28125 286.25 352.164062 285.820312 351.347656 285.820312 C 350.53125 285.820312 350.097656 286.421875 349.839844 286.851562 C 349.410156 287.582031 349.152344 288.660156 349.152344 288.789062 C 349.152344 289.003906 349.410156 289.003906 349.496094 289.003906 C 349.753906 289.003906 349.753906 288.960938 349.882812 288.445312 C 350.1875 287.324219 350.574219 286.378906 351.304688 286.378906 C 351.820312 286.378906 351.949219 286.808594 351.949219 287.324219 C 351.949219 287.667969 351.777344 288.402344 351.605469 288.917969 C 351.476562 289.433594 351.304688 290.207031 351.21875 290.636719 Z M 350.574219 293.089844 "/>
<path style=" stroke:none;fill-rule:nonzero;fill:rgb(0%,0%,0%);fill-opacity:1;" d="M 10.828125 51.644531 C 11.429688 51.644531 11.601562 51.644531 11.601562 51.300781 C 11.644531 32.074219 13.882812 16.117188 23.472656 2.738281 C 23.644531 2.480469 23.644531 2.4375 23.644531 2.394531 C 23.644531 2.09375 23.472656 2.09375 23.042969 2.09375 C 22.609375 2.09375 22.523438 2.09375 22.480469 2.136719 C 22.351562 2.222656 18.914062 6.222656 16.117188 11.730469 C 12.503906 18.996094 10.226562 27.300781 9.234375 37.234375 C 9.148438 38.09375 8.546875 43.816406 8.546875 50.3125 L 8.546875 51.34375 C 8.589844 51.644531 8.761719 51.644531 9.324219 51.644531 Z M 10.828125 51.644531 "/>
<path style=" stroke:none;fill-rule:nonzero;fill:rgb(0%,0%,0%);fill-opacity:1;" d="M 11.601562 51.84375 C 11.601562 51.113281 11.558594 51.113281 10.828125 51.113281 L 9.324219 51.113281 C 8.589844 51.113281 8.546875 51.113281 8.546875 51.84375 L 8.546875 67.328125 C 8.546875 68.0625 8.589844 68.105469 9.324219 68.105469 L 10.828125 68.105469 C 11.558594 68.105469 11.601562 68.0625 11.601562 67.328125 Z M 11.601562 51.84375 "/>
<path style=" stroke:none;fill-rule:nonzero;fill:rgb(0%,0%,0%);fill-opacity:1;" d="M 11.601562 68.28125 C 11.601562 67.546875 11.558594 67.546875 10.828125 67.546875 L 9.324219 67.546875 C 8.589844 67.546875 8.546875 67.546875 8.546875 68.28125 L 8.546875 83.765625 C 8.546875 84.496094 8.589844 84.539062 9.324219 84.539062 L 10.828125 84.539062 C 11.558594 84.539062 11.601562 84.496094 11.601562 83.765625 Z M 11.601562 68.28125 "/>
<path style=" stroke:none;fill-rule:nonzero;fill:rgb(0%,0%,0%);fill-opacity:1;" d="M 11.601562 84.710938 C 11.601562 83.980469 11.558594 83.980469 10.828125 83.980469 L 9.324219 83.980469 C 8.589844 83.980469 8.546875 83.980469 8.546875 84.710938 L 8.546875 100.195312 C 8.546875 100.925781 8.589844 100.96875 9.324219 100.96875 L 10.828125 100.96875 C 11.558594 100.96875 11.601562 100.925781 11.601562 100.195312 Z M 11.601562 84.710938 "/>
<path style=" stroke:none;fill-rule:nonzero;fill:rgb(0%,0%,0%);fill-opacity:1;" d="M 11.601562 101.144531 C 11.601562 100.414062 11.558594 100.414062 10.828125 100.414062 L 9.324219 100.414062 C 8.589844 100.414062 8.546875 100.414062 8.546875 101.144531 L 8.546875 116.628906 C 8.546875 117.359375 8.589844 117.402344 9.324219 117.402344 L 10.828125 117.402344 C 11.558594 117.402344 11.601562 117.359375 11.601562 116.628906 Z M 11.601562 101.144531 "/>
<path style=" stroke:none;fill-rule:nonzero;fill:rgb(0%,0%,0%);fill-opacity:1;" d="M 11.601562 117.578125 C 11.601562 116.847656 11.558594 116.847656 10.828125 116.847656 L 9.324219 116.847656 C 8.589844 116.847656 8.546875 116.847656 8.546875 117.578125 L 8.546875 133.0625 C 8.546875 133.796875 8.589844 133.839844 9.324219 133.839844 L 10.828125 133.839844 C 11.558594 133.839844 11.601562 133.796875 11.601562 133.0625 Z M 11.601562 117.578125 "/>
<path style=" stroke:none;fill-rule:nonzero;fill:rgb(0%,0%,0%);fill-opacity:1;" d="M 11.601562 134.011719 C 11.601562 133.28125 11.558594 133.28125 10.828125 133.28125 L 9.324219 133.28125 C 8.589844 133.28125 8.546875 133.28125 8.546875 134.011719 L 8.546875 149.496094 C 8.546875 150.226562 8.589844 150.269531 9.324219 150.269531 L 10.828125 150.269531 C 11.558594 150.269531 11.601562 150.226562 11.601562 149.496094 Z M 11.601562 134.011719 "/>
<path style=" stroke:none;fill-rule:nonzero;fill:rgb(0%,0%,0%);fill-opacity:1;" d="M 11.601562 150.445312 C 11.601562 149.714844 11.558594 149.714844 10.828125 149.714844 L 9.324219 149.714844 C 8.589844 149.714844 8.546875 149.714844 8.546875 150.445312 L 8.546875 165.929688 C 8.546875 166.660156 8.589844 166.703125 9.324219 166.703125 L 10.828125 166.703125 C 11.558594 166.703125 11.601562 166.660156 11.601562 165.929688 Z M 11.601562 150.445312 "/>
<path style=" stroke:none;fill-rule:nonzero;fill:rgb(0%,0%,0%);fill-opacity:1;" d="M 11.601562 166.878906 C 11.601562 166.148438 11.558594 166.148438 10.828125 166.148438 L 9.324219 166.148438 C 8.589844 166.148438 8.546875 166.148438 8.546875 166.878906 L 8.546875 182.363281 C 8.546875 183.09375 8.589844 183.136719 9.324219 183.136719 L 10.828125 183.136719 C 11.558594 183.136719 11.601562 183.09375 11.601562 182.363281 Z M 11.601562 166.878906 "/>
<path style=" stroke:none;fill-rule:nonzero;fill:rgb(0%,0%,0%);fill-opacity:1;" d="M 11.601562 183.3125 C 11.601562 182.582031 11.558594 182.582031 10.828125 182.582031 L 9.324219 182.582031 C 8.589844 182.582031 8.546875 182.582031 8.546875 183.3125 L 8.546875 198.796875 C 8.546875 199.527344 8.589844 199.570312 9.324219 199.570312 L 10.828125 199.570312 C 11.558594 199.570312 11.601562 199.527344 11.601562 198.796875 Z M 11.601562 183.3125 "/>
<path style=" stroke:none;fill-rule:nonzero;fill:rgb(0%,0%,0%);fill-opacity:1;" d="M 11.601562 199.746094 C 11.601562 199.015625 11.558594 199.015625 10.828125 199.015625 L 9.324219 199.015625 C 8.589844 199.015625 8.546875 199.015625 8.546875 199.746094 L 8.546875 215.230469 C 8.546875 215.960938 8.589844 216.003906 9.324219 216.003906 L 10.828125 216.003906 C 11.558594 216.003906 11.601562 215.960938 11.601562 215.230469 Z M 11.601562 199.746094 "/>
<path style=" stroke:none;fill-rule:nonzero;fill:rgb(0%,0%,0%);fill-opacity:1;" d="M 11.601562 216.179688 C 11.601562 215.449219 11.558594 215.449219 10.828125 215.449219 L 9.324219 215.449219 C 8.589844 215.449219 8.546875 215.449219 8.546875 216.179688 L 8.546875 231.664062 C 8.546875 232.394531 8.589844 232.4375 9.324219 232.4375 L 10.828125 232.4375 C 11.558594 232.4375 11.601562 232.394531 11.601562 231.664062 Z M 11.601562 216.179688 "/>
<path style=" stroke:none;fill-rule:nonzero;fill:rgb(0%,0%,0%);fill-opacity:1;" d="M 11.601562 232.613281 C 11.601562 231.878906 11.558594 231.878906 10.828125 231.878906 L 9.324219 231.878906 C 8.589844 231.878906 8.546875 231.878906 8.546875 232.613281 L 8.546875 248.097656 C 8.546875 248.828125 8.589844 248.871094 9.324219 248.871094 L 10.828125 248.871094 C 11.558594 248.871094 11.601562 248.828125 11.601562 248.097656 Z M 11.601562 232.613281 "/>
<path style=" stroke:none;fill-rule:nonzero;fill:rgb(0%,0%,0%);fill-opacity:1;" d="M 9.324219 248.289062 C 8.761719 248.289062 8.589844 248.289062 8.546875 248.589844 L 8.546875 249.667969 C 8.546875 266.398438 11.558594 276.207031 12.417969 279 C 14.269531 285.066406 17.320312 291.476562 21.878906 297.109375 C 22.265625 297.625 22.394531 297.753906 22.523438 297.796875 C 22.566406 297.839844 22.609375 297.839844 23.042969 297.839844 C 23.472656 297.839844 23.644531 297.839844 23.644531 297.582031 C 23.644531 297.539062 23.644531 297.496094 23.515625 297.238281 C 14.355469 284.59375 11.644531 269.324219 11.601562 248.675781 C 11.601562 248.289062 11.429688 248.289062 10.828125 248.289062 Z M 9.324219 248.289062 "/>
<g clip-path="url(#clip1)" clip-rule="nonzero">
<path style=" stroke:none;fill-rule:nonzero;fill:rgb(0%,0%,0%);fill-opacity:1;" d="M 387.875 50.3125 C 387.875 33.535156 384.90625 23.730469 384.046875 20.976562 C 382.199219 14.910156 379.144531 8.503906 374.585938 2.824219 C 374.15625 2.351562 374.070312 2.222656 373.941406 2.136719 C 373.898438 2.136719 373.855469 2.09375 373.425781 2.09375 C 372.996094 2.09375 372.78125 2.09375 372.78125 2.394531 C 372.78125 2.4375 372.78125 2.480469 373.167969 2.996094 C 382.671875 16.289062 384.820312 32.71875 384.863281 51.300781 C 384.863281 51.644531 384.992188 51.644531 385.59375 51.644531 L 387.144531 51.644531 C 387.703125 51.644531 387.875 51.644531 387.875 51.34375 Z M 387.875 50.3125 "/>
</g>
<path style=" stroke:none;fill-rule:nonzero;fill:rgb(0%,0%,0%);fill-opacity:1;" d="M 387.875 51.84375 C 387.875 51.113281 387.875 51.113281 387.144531 51.113281 L 385.59375 51.113281 C 384.863281 51.113281 384.863281 51.113281 384.863281 51.84375 L 384.863281 67.328125 C 384.863281 68.0625 384.863281 68.105469 385.59375 68.105469 L 387.144531 68.105469 C 387.875 68.105469 387.875 68.0625 387.875 67.328125 Z M 387.875 51.84375 "/>
<path style=" stroke:none;fill-rule:nonzero;fill:rgb(0%,0%,0%);fill-opacity:1;" d="M 387.875 68.28125 C 387.875 67.546875 387.875 67.546875 387.144531 67.546875 L 385.59375 67.546875 C 384.863281 67.546875 384.863281 67.546875 384.863281 68.28125 L 384.863281 83.765625 C 384.863281 84.496094 384.863281 84.539062 385.59375 84.539062 L 387.144531 84.539062 C 387.875 84.539062 387.875 84.496094 387.875 83.765625 Z M 387.875 68.28125 "/>
<path style=" stroke:none;fill-rule:nonzero;fill:rgb(0%,0%,0%);fill-opacity:1;" d="M 387.875 84.710938 C 387.875 83.980469 387.875 83.980469 387.144531 83.980469 L 385.59375 83.980469 C 384.863281 83.980469 384.863281 83.980469 384.863281 84.710938 L 384.863281 100.195312 C 384.863281 100.925781 384.863281 100.96875 385.59375 100.96875 L 387.144531 100.96875 C 387.875 100.96875 387.875 100.925781 387.875 100.195312 Z M 387.875 84.710938 "/>
<path style=" stroke:none;fill-rule:nonzero;fill:rgb(0%,0%,0%);fill-opacity:1;" d="M 387.875 101.144531 C 387.875 100.414062 387.875 100.414062 387.144531 100.414062 L 385.59375 100.414062 C 384.863281 100.414062 384.863281 100.414062 384.863281 101.144531 L 384.863281 116.628906 C 384.863281 117.359375 384.863281 117.402344 385.59375 117.402344 L 387.144531 117.402344 C 387.875 117.402344 387.875 117.359375 387.875 116.628906 Z M 387.875 101.144531 "/>
<path style=" stroke:none;fill-rule:nonzero;fill:rgb(0%,0%,0%);fill-opacity:1;" d="M 387.875 117.578125 C 387.875 116.847656 387.875 116.847656 387.144531 116.847656 L 385.59375 116.847656 C 384.863281 116.847656 384.863281 116.847656 384.863281 117.578125 L 384.863281 133.0625 C 384.863281 133.796875 384.863281 133.839844 385.59375 133.839844 L 387.144531 133.839844 C 387.875 133.839844 387.875 133.796875 387.875 133.0625 Z M 387.875 117.578125 "/>
<path style=" stroke:none;fill-rule:nonzero;fill:rgb(0%,0%,0%);fill-opacity:1;" d="M 387.875 134.011719 C 387.875 133.28125 387.875 133.28125 387.144531 133.28125 L 385.59375 133.28125 C 384.863281 133.28125 384.863281 133.28125 384.863281 134.011719 L 384.863281 149.496094 C 384.863281 150.226562 384.863281 150.269531 385.59375 150.269531 L 387.144531 150.269531 C 387.875 150.269531 387.875 150.226562 387.875 149.496094 Z M 387.875 134.011719 "/>
<path style=" stroke:none;fill-rule:nonzero;fill:rgb(0%,0%,0%);fill-opacity:1;" d="M 387.875 150.445312 C 387.875 149.714844 387.875 149.714844 387.144531 149.714844 L 385.59375 149.714844 C 384.863281 149.714844 384.863281 149.714844 384.863281 150.445312 L 384.863281 165.929688 C 384.863281 166.660156 384.863281 166.703125 385.59375 166.703125 L 387.144531 166.703125 C 387.875 166.703125 387.875 166.660156 387.875 165.929688 Z M 387.875 150.445312 "/>
<path style=" stroke:none;fill-rule:nonzero;fill:rgb(0%,0%,0%);fill-opacity:1;" d="M 387.875 166.878906 C 387.875 166.148438 387.875 166.148438 387.144531 166.148438 L 385.59375 166.148438 C 384.863281 166.148438 384.863281 166.148438 384.863281 166.878906 L 384.863281 182.363281 C 384.863281 183.09375 384.863281 183.136719 385.59375 183.136719 L 387.144531 183.136719 C 387.875 183.136719 387.875 183.09375 387.875 182.363281 Z M 387.875 166.878906 "/>
<path style=" stroke:none;fill-rule:nonzero;fill:rgb(0%,0%,0%);fill-opacity:1;" d="M 387.875 183.3125 C 387.875 182.582031 387.875 182.582031 387.144531 182.582031 L 385.59375 182.582031 C 384.863281 182.582031 384.863281 182.582031 384.863281 183.3125 L 384.863281 198.796875 C 384.863281 199.527344 384.863281 199.570312 385.59375 199.570312 L 387.144531 199.570312 C 387.875 199.570312 387.875 199.527344 387.875 198.796875 Z M 387.875 183.3125 "/>
<path style=" stroke:none;fill-rule:nonzero;fill:rgb(0%,0%,0%);fill-opacity:1;" d="M 387.875 199.746094 C 387.875 199.015625 387.875 199.015625 387.144531 199.015625 L 385.59375 199.015625 C 384.863281 199.015625 384.863281 199.015625 384.863281 199.746094 L 384.863281 215.230469 C 384.863281 215.960938 384.863281 216.003906 385.59375 216.003906 L 387.144531 216.003906 C 387.875 216.003906 387.875 215.960938 387.875 215.230469 Z M 387.875 199.746094 "/>
<path style=" stroke:none;fill-rule:nonzero;fill:rgb(0%,0%,0%);fill-opacity:1;" d="M 387.875 216.179688 C 387.875 215.449219 387.875 215.449219 387.144531 215.449219 L 385.59375 215.449219 C 384.863281 215.449219 384.863281 215.449219 384.863281 216.179688 L 384.863281 231.664062 C 384.863281 232.394531 384.863281 232.4375 385.59375 232.4375 L 387.144531 232.4375 C 387.875 232.4375 387.875 232.394531 387.875 231.664062 Z M 387.875 216.179688 "/>
<path style=" stroke:none;fill-rule:nonzero;fill:rgb(0%,0%,0%);fill-opacity:1;" d="M 387.875 232.613281 C 387.875 231.878906 387.875 231.878906 387.144531 231.878906 L 385.59375 231.878906 C 384.863281 231.878906 384.863281 231.878906 384.863281 232.613281 L 384.863281 248.097656 C 384.863281 248.828125 384.863281 248.871094 385.59375 248.871094 L 387.144531 248.871094 C 387.875 248.871094 387.875 248.828125 387.875 248.097656 Z M 387.875 232.613281 "/>
<g clip-path="url(#clip2)" clip-rule="nonzero">
<path style=" stroke:none;fill-rule:nonzero;fill:rgb(0%,0%,0%);fill-opacity:1;" d="M 387.875 248.589844 C 387.875 248.289062 387.703125 248.289062 387.144531 248.289062 L 385.59375 248.289062 C 384.992188 248.289062 384.863281 248.289062 384.863281 248.675781 C 384.863281 251.515625 384.820312 258.011719 384.089844 264.851562 C 382.628906 279 378.972656 288.808594 372.996094 297.238281 C 372.78125 297.496094 372.78125 297.539062 372.78125 297.582031 C 372.78125 297.839844 372.996094 297.839844 373.425781 297.839844 C 373.855469 297.839844 373.941406 297.839844 373.984375 297.796875 C 374.070312 297.710938 377.554688 293.710938 380.347656 288.207031 C 383.960938 280.980469 386.242188 272.679688 387.230469 262.699219 C 387.316406 261.839844 387.875 256.160156 387.875 249.667969 Z M 387.875 248.589844 "/>
</g>
<path style="fill:none;stroke-width:0.79701;stroke-linecap:butt;stroke-linejoin:miter;stroke:rgb(0%,0%,0%);stroke-opacity:1;stroke-dasharray:0.79701,1.99255;stroke-miterlimit:10;" d="M -47.778525 41.426418 L -28.61621 24.384089 " transform="matrix(2.748722,0,0,-2.749129,198.236126,149.972508)"/>
<path style=" stroke:none;fill-rule:nonzero;fill:rgb(0%,0%,0%);fill-opacity:1;" d="M 76.871094 67.714844 C 76.527344 67.972656 75.964844 68.316406 75.921875 68.402344 C 75.621094 68.703125 75.75 69.050781 76.007812 69.265625 C 76.265625 69.480469 76.699219 69.566406 76.828125 69.480469 C 77.042969 69.394531 77.601562 69.050781 77.902344 68.789062 C 78.246094 68.617188 78.933594 68.101562 79.40625 67.800781 C 79.707031 67.542969 80.09375 67.328125 80.4375 67.027344 C 81.214844 66.554688 81.214844 66.511719 81.902344 66.339844 C 82.976562 66.082031 84.4375 65.867188 85.558594 66.898438 C 86.375 67.585938 85.816406 68.273438 85.515625 68.617188 C 84.738281 69.480469 82.675781 70.511719 81.945312 70.984375 C 81.429688 71.199219 81.257812 71.285156 81.042969 71.542969 C 80.351562 72.316406 80.566406 73.308594 81.300781 73.996094 C 82.761719 75.242188 85.125 73.824219 85.339844 73.609375 C 85.515625 73.4375 85.296875 73.265625 85.296875 73.222656 C 85.082031 73.050781 84.953125 73.136719 84.78125 73.265625 C 83.363281 74.125 82.246094 74.125 81.6875 73.609375 C 81.386719 73.351562 81.515625 73.136719 81.816406 72.789062 C 82.117188 72.488281 82.332031 72.316406 83.148438 71.929688 C 83.707031 71.671875 85.644531 70.683594 86.375 69.867188 C 86.589844 69.609375 87.105469 69.007812 86.933594 68.101562 C 86.890625 67.714844 86.675781 67.113281 86.03125 66.511719 C 84.695312 65.351562 83.148438 65.523438 82.117188 65.695312 C 83.105469 64.402344 82.332031 63.242188 81.558594 62.554688 C 80.394531 61.523438 78.890625 61.523438 77.945312 61.738281 C 78.71875 60.660156 78.203125 59.542969 77.644531 59.070312 C 77 58.46875 76.222656 58.683594 75.75 58.855469 C 74.933594 59.070312 74.03125 59.714844 73.988281 59.800781 C 73.816406 59.972656 73.988281 60.144531 74.074219 60.1875 C 74.246094 60.359375 74.289062 60.316406 74.761719 60.058594 C 75.707031 59.371094 76.613281 58.941406 77.171875 59.414062 C 77.558594 59.757812 77.34375 60.144531 77 60.53125 C 76.785156 60.789062 76.179688 61.21875 75.75 61.566406 C 75.320312 61.867188 74.589844 62.296875 74.289062 62.554688 L 72.183594 64.015625 C 71.96875 64.144531 71.492188 64.402344 71.492188 64.445312 C 71.191406 64.746094 71.320312 65.132812 71.578125 65.308594 C 71.835938 65.566406 72.269531 65.609375 72.398438 65.523438 C 72.613281 65.4375 73.171875 65.089844 73.472656 64.832031 C 73.773438 64.660156 74.503906 64.144531 74.933594 63.84375 C 75.277344 63.585938 75.664062 63.371094 76.007812 63.113281 C 76.699219 62.640625 76.828125 62.597656 77.816406 62.296875 C 78.761719 62.125 80.050781 61.996094 81.128906 62.941406 C 81.945312 63.671875 81.34375 64.445312 81.085938 64.703125 C 80.738281 65.089844 80.566406 65.222656 79.621094 65.824219 Z M 76.871094 67.714844 "/>
<path style=" stroke:none;fill-rule:nonzero;fill:rgb(0%,0%,0%);fill-opacity:1;" d="M 92.296875 75.4375 C 92.554688 75.136719 92.511719 75.136719 92.210938 74.835938 C 90.832031 74.835938 89.714844 73.847656 89.5 73.632812 L 89.328125 73.503906 L 88.941406 73.933594 L 89.113281 74.0625 C 89.371094 74.277344 90.058594 74.878906 90.875 75.136719 L 86.316406 80.257812 C 86.015625 80.601562 85.886719 80.730469 84.8125 79.78125 L 84.296875 79.308594 L 83.910156 79.738281 C 84.511719 80.214844 85.414062 80.988281 86.015625 81.546875 C 86.617188 82.0625 87.566406 82.878906 88.039062 83.4375 L 88.425781 83.007812 L 87.910156 82.535156 C 86.832031 81.546875 86.960938 81.417969 87.261719 81.074219 Z M 92.296875 75.4375 "/>
<g clip-path="url(#clip3)" clip-rule="nonzero">
<path style="fill:none;stroke-width:0.79701;stroke-linecap:butt;stroke-linejoin:miter;stroke:rgb(0%,0%,0%);stroke-opacity:1;stroke-dasharray:0.79701,1.99255;stroke-miterlimit:10;" d="M -34.933066 43.530777 L -27.57169 36.169071 " transform="matrix(2.748722,0,0,-2.749129,198.236126,149.972508)"/>
</g>
<g clip-path="url(#clip4)" clip-rule="nonzero">
<path style="fill:none;stroke-width:0.3985;stroke-linecap:butt;stroke-linejoin:miter;stroke:rgb(0%,0%,0%);stroke-opacity:1;stroke-miterlimit:10;" d="M -61.495128 53.992897 L -61.495128 13.947545 L -14.902449 13.947545 L -14.902449 53.992897 Z M -61.495128 53.992897 " transform="matrix(2.748722,0,0,-2.749129,198.236126,149.972508)"/>
</g>
<path style="fill:none;stroke-width:0.79701;stroke-linecap:butt;stroke-linejoin:miter;stroke:rgb(0%,0%,0%);stroke-opacity:1;stroke-dasharray:0.79701,1.99255;stroke-miterlimit:10;" d="M -12.625823 9.883758 L 10.460191 -11.33603 " transform="matrix(2.748722,0,0,-2.749129,198.236126,149.972508)"/>
<g clip-path="url(#clip5)" clip-rule="nonzero">
<path style="fill:none;stroke-width:0.79701;stroke-linecap:butt;stroke-linejoin:miter;stroke:rgb(0%,0%,0%);stroke-opacity:1;stroke-dasharray:0.79701,1.99255;stroke-miterlimit:10;" d="M 27.348722 -26.484293 L 47.13775 -43.5863 " transform="matrix(2.748722,0,0,-2.749129,198.236126,149.972508)"/>
</g>
<path style=" stroke:none;fill-rule:nonzero;fill:rgb(0%,0%,0%);fill-opacity:1;" d="M 283.398438 253.832031 C 283.054688 254.089844 282.496094 254.433594 282.453125 254.476562 C 282.152344 254.820312 282.28125 255.164062 282.539062 255.378906 C 282.796875 255.59375 283.183594 255.636719 283.3125 255.550781 C 283.570312 255.507812 284.085938 255.121094 284.386719 254.863281 C 284.730469 254.648438 285.503906 254.132812 285.847656 253.875 C 286.195312 253.617188 286.625 253.402344 286.925781 253.097656 C 287.65625 252.625 287.65625 252.582031 288.386719 252.367188 C 289.417969 252.066406 290.882812 251.851562 292 252.796875 C 292.816406 253.53125 292.300781 254.261719 292 254.605469 C 291.269531 255.464844 289.203125 256.539062 288.429688 256.925781 C 287.957031 257.1875 287.785156 257.316406 287.570312 257.574219 C 286.925781 258.347656 287.097656 259.335938 287.871094 259.980469 C 289.332031 261.230469 291.65625 259.808594 291.871094 259.59375 C 292.042969 259.378906 291.871094 259.25 291.828125 259.164062 C 291.613281 258.992188 291.527344 259.078125 291.355469 259.207031 C 289.933594 260.066406 288.816406 260.109375 288.214844 259.636719 C 287.957031 259.378906 288.042969 259.078125 288.34375 258.777344 C 288.601562 258.433594 288.859375 258.347656 289.675781 257.917969 C 290.234375 257.617188 292.171875 256.582031 292.859375 255.808594 C 293.074219 255.550781 293.589844 254.949219 293.460938 254.046875 C 293.375 253.617188 293.117188 253.054688 292.429688 252.496094 C 291.140625 251.378906 289.589844 251.507812 288.558594 251.722656 C 289.503906 250.347656 288.730469 249.269531 287.957031 248.625 C 286.753906 247.59375 285.289062 247.636719 284.34375 247.808594 C 285.117188 246.777344 284.558594 245.703125 283.914062 245.140625 C 283.3125 244.625 282.625 244.796875 282.109375 244.925781 C 281.289062 245.226562 280.429688 245.875 280.34375 245.917969 C 280.171875 246.132812 280.34375 246.304688 280.429688 246.347656 C 280.601562 246.519531 280.644531 246.476562 281.117188 246.175781 C 282.109375 245.484375 283.011719 245.011719 283.570312 245.484375 C 283.957031 245.832031 283.742188 246.261719 283.441406 246.648438 C 283.183594 246.90625 282.582031 247.378906 282.152344 247.679688 C 281.722656 247.980469 281.03125 248.410156 280.6875 248.710938 L 278.625 250.175781 C 278.367188 250.304688 277.980469 250.605469 277.980469 250.605469 C 277.679688 250.949219 277.808594 251.292969 278.023438 251.507812 C 278.28125 251.722656 278.710938 251.722656 278.882812 251.679688 C 279.054688 251.636719 279.613281 251.25 279.957031 251.035156 C 280.214844 250.777344 280.988281 250.261719 281.375 250.003906 C 281.722656 249.703125 282.109375 249.488281 282.453125 249.226562 C 283.140625 248.753906 283.269531 248.667969 284.214844 248.453125 C 285.074219 248.195312 286.453125 248.023438 287.570312 248.96875 C 288.386719 249.703125 287.742188 250.433594 287.484375 250.734375 C 287.183594 251.121094 287.011719 251.25 286.109375 251.894531 Z M 283.398438 253.832031 "/>
<path style=" stroke:none;fill-rule:nonzero;fill:rgb(0%,0%,0%);fill-opacity:1;" d="M 291.863281 265.117188 C 291.5625 265.289062 291.089844 265.632812 291.046875 265.675781 C 290.875 265.890625 290.917969 266.234375 291.089844 266.40625 C 291.21875 266.539062 291.5625 266.625 291.949219 266.496094 C 291.992188 266.40625 292.550781 266.0625 292.808594 265.847656 C 294.359375 264.730469 294.402344 264.730469 294.402344 264.6875 C 294.832031 264.558594 296.851562 263.742188 298.058594 264.816406 C 298.574219 265.289062 298.617188 265.71875 298.1875 266.191406 C 297.667969 266.796875 296.292969 267.484375 295.5625 267.871094 C 295.347656 267.914062 295.261719 268.042969 295.089844 268.214844 C 294.617188 268.773438 294.789062 269.589844 295.390625 270.105469 C 296.507812 271.097656 298.273438 270.191406 298.488281 269.933594 C 298.617188 269.804688 298.445312 269.675781 298.402344 269.632812 C 298.230469 269.460938 298.1875 269.503906 297.929688 269.632812 C 297.238281 270.105469 296.25 270.234375 295.777344 269.804688 C 295.5625 269.632812 295.5625 269.375 295.734375 269.160156 C 295.949219 268.902344 296.121094 268.859375 296.421875 268.730469 C 296.9375 268.429688 298.445312 267.699219 298.917969 267.097656 C 299.605469 266.320312 299.433594 265.375 298.445312 264.515625 C 297.496094 263.699219 296.335938 263.699219 295.5625 263.871094 C 296.335938 262.96875 295.605469 262.0625 295.21875 261.71875 C 294.1875 260.816406 292.507812 262.148438 292.507812 262.148438 C 292.378906 262.320312 292.550781 262.449219 292.59375 262.535156 C 292.765625 262.667969 292.851562 262.625 293.023438 262.535156 C 293.671875 262.019531 294.445312 261.675781 294.875 262.0625 C 295.21875 262.363281 295.003906 262.753906 294.832031 263.011719 C 294.703125 263.140625 294.230469 263.398438 293.972656 263.613281 C 293.628906 263.785156 293.195312 264.128906 292.9375 264.386719 Z M 291.863281 265.117188 "/>
<path style="fill:none;stroke-width:0.79701;stroke-linecap:butt;stroke-linejoin:miter;stroke:rgb(0%,0%,0%);stroke-opacity:1;stroke-dasharray:0.79701,1.99255;stroke-miterlimit:10;" d="M 40.526722 -24.283312 L 48.327223 -31.895098 " transform="matrix(2.748722,0,0,-2.749129,198.236126,149.972508)"/>
<g clip-path="url(#clip6)" clip-rule="nonzero">
<path style="fill:none;stroke-width:0.3985;stroke-linecap:butt;stroke-linejoin:miter;stroke:rgb(0%,0%,0%);stroke-opacity:1;stroke-miterlimit:10;" d="M 12.994039 -13.949074 L 12.994039 -53.994426 L 61.492433 -53.994426 L 61.492433 -13.949074 Z M 12.994039 -13.949074 " transform="matrix(2.748722,0,0,-2.749129,198.236126,149.972508)"/>
</g>
</g>
</svg>
