<?xml version="1.0" encoding="UTF-8"?>
<svg xmlns="http://www.w3.org/2000/svg" xmlns:xlink="http://www.w3.org/1999/xlink" width="463pt" height="300pt" viewBox="0 0 463 300" version="1.1">
<defs>
<clipPath id="clip1">
  <path d="M 65.210938 0 L 399 0 L 399 292.875 L 65.210938 292.875 Z M 65.210938 0 "/>
</clipPath>
</defs>
<g id="surface1">
<path style=" stroke:none;fill-rule:nonzero;fill:rgb(0%,0%,0%);fill-opacity:1;" d="M 130.644531 42.324219 C 130.644531 29.714844 123.128906 25.765625 117.269531 25.765625 C 106.316406 25.765625 95.746094 37.230469 95.746094 48.566406 C 95.746094 55.953125 100.460938 62.070312 108.609375 62.070312 C 113.707031 62.070312 119.4375 60.160156 125.550781 55.316406 C 126.570312 59.523438 129.242188 62.070312 132.808594 62.070312 C 137.011719 62.070312 139.558594 57.609375 139.558594 56.335938 C 139.558594 55.828125 139.050781 55.574219 138.542969 55.574219 C 138.03125 55.574219 137.777344 55.828125 137.523438 56.335938 C 136.121094 60.285156 133.191406 60.285156 133.066406 60.285156 C 130.644531 60.285156 130.644531 54.042969 130.644531 52.132812 C 130.644531 50.476562 130.644531 50.351562 131.410156 49.332031 C 138.921875 39.90625 140.578125 30.605469 140.578125 30.480469 C 140.578125 30.351562 140.453125 29.714844 139.6875 29.714844 C 138.796875 29.714844 138.796875 29.96875 138.414062 31.371094 C 137.011719 36.464844 134.339844 42.582031 130.644531 47.292969 Z M 125.167969 53.28125 C 118.164062 59.394531 112.050781 60.285156 108.867188 60.285156 C 104.023438 60.285156 101.605469 56.71875 101.605469 51.625 C 101.605469 47.675781 103.769531 39.015625 106.316406 34.9375 C 110.011719 29.078125 114.34375 27.550781 117.144531 27.550781 C 125.039062 27.550781 125.039062 38.121094 125.039062 44.234375 C 125.039062 47.292969 125.039062 51.878906 125.167969 53.28125 Z M 125.167969 53.28125 "/>
<path style=" stroke:none;fill-rule:nonzero;fill:rgb(0%,0%,0%);fill-opacity:1;" d="M 215.5 9.972656 C 215.5 8.0625 215.5 7.933594 213.585938 7.933594 C 208.621094 13.027344 201.617188 13.027344 199.066406 13.027344 L 199.066406 15.449219 C 200.597656 15.449219 205.4375 15.449219 209.511719 13.410156 L 209.511719 54.808594 C 209.511719 57.738281 209.257812 58.757812 202.125 58.757812 L 199.578125 58.757812 L 199.578125 61.175781 C 202.378906 60.921875 209.257812 60.921875 212.441406 60.921875 C 215.753906 60.921875 222.628906 60.921875 225.433594 61.175781 L 225.433594 58.757812 L 222.886719 58.757812 C 215.753906 58.757812 215.5 57.867188 215.5 54.808594 Z M 215.5 9.972656 "/>
<path style=" stroke:none;fill-rule:nonzero;fill:rgb(0%,0%,0%);fill-opacity:1;" d="M 349.261719 149.574219 C 349.261719 147.664062 349.261719 147.535156 347.351562 147.535156 C 342.386719 152.628906 335.378906 152.628906 332.832031 152.628906 L 332.832031 155.050781 C 334.363281 155.050781 339.203125 155.050781 343.277344 153.011719 L 343.277344 194.410156 C 343.277344 197.339844 343.023438 198.359375 335.890625 198.359375 L 333.34375 198.359375 L 333.34375 200.777344 C 336.144531 200.523438 343.023438 200.523438 346.207031 200.523438 C 349.519531 200.523438 356.394531 200.523438 359.199219 200.777344 L 359.199219 198.359375 L 356.648438 198.359375 C 349.519531 198.359375 349.261719 197.46875 349.261719 194.410156 Z M 349.261719 149.574219 "/>
<path style=" stroke:none;fill-rule:nonzero;fill:rgb(0%,0%,0%);fill-opacity:1;" d="M 358.175781 264.398438 C 358.175781 251.789062 350.660156 247.839844 344.800781 247.839844 C 333.847656 247.839844 323.277344 259.304688 323.277344 270.640625 C 323.277344 278.027344 327.988281 284.144531 336.140625 284.144531 C 341.234375 284.144531 346.96875 282.230469 353.082031 277.390625 C 354.101562 281.59375 356.773438 284.144531 360.339844 284.144531 C 364.542969 284.144531 367.089844 279.683594 367.089844 278.410156 C 367.089844 277.902344 366.582031 277.644531 366.070312 277.644531 C 365.5625 277.644531 365.308594 277.902344 365.054688 278.410156 C 363.652344 282.359375 360.722656 282.359375 360.59375 282.359375 C 358.175781 282.359375 358.175781 276.117188 358.175781 274.207031 C 358.175781 272.550781 358.175781 272.425781 358.941406 271.40625 C 366.453125 261.980469 368.109375 252.679688 368.109375 252.554688 C 368.109375 252.425781 367.984375 251.789062 367.21875 251.789062 C 366.328125 251.789062 366.328125 252.042969 365.945312 253.445312 C 364.542969 258.539062 361.867188 264.652344 358.175781 269.367188 Z M 352.699219 275.355469 C 345.695312 281.46875 339.578125 282.359375 336.394531 282.359375 C 331.554688 282.359375 329.136719 278.792969 329.136719 273.699219 C 329.136719 269.75 331.300781 261.085938 333.847656 257.011719 C 337.542969 251.152344 341.871094 249.625 344.675781 249.625 C 352.570312 249.625 352.570312 260.195312 352.570312 266.308594 C 352.570312 269.367188 352.570312 273.953125 352.699219 275.355469 Z M 352.699219 275.355469 "/>
<path style=" stroke:none;fill-rule:nonzero;fill:rgb(0%,0%,0%);fill-opacity:1;" d="M 33.148438 147.226562 C 34.929688 147.226562 35.3125 147.226562 35.3125 146.082031 C 35.566406 90.035156 42.0625 43.414062 69.957031 4.308594 C 70.59375 3.542969 70.59375 3.417969 70.59375 3.289062 C 70.59375 2.527344 69.957031 2.527344 68.679688 2.527344 C 67.40625 2.527344 67.28125 2.527344 67.152344 2.652344 C 66.769531 2.90625 56.710938 14.5 48.558594 30.675781 C 37.988281 51.695312 31.363281 76.023438 28.433594 105.066406 C 28.179688 107.613281 26.523438 124.171875 26.523438 143.152344 L 26.523438 146.335938 C 26.523438 147.226562 27.03125 147.226562 28.6875 147.226562 Z M 33.148438 147.226562 "/>
<path style=" stroke:none;fill-rule:nonzero;fill:rgb(0%,0%,0%);fill-opacity:1;" d="M 28.6875 145.683594 C 27.03125 145.683594 26.523438 145.683594 26.523438 146.578125 L 26.523438 149.632812 C 26.523438 198.546875 35.183594 227.207031 37.730469 235.230469 C 43.082031 252.9375 51.996094 271.660156 65.371094 288.222656 C 66.515625 289.621094 66.898438 290.003906 67.152344 290.132812 C 67.40625 290.257812 67.40625 290.386719 68.679688 290.386719 C 69.957031 290.386719 70.59375 290.386719 70.59375 289.496094 C 70.59375 289.367188 70.59375 289.238281 70.082031 288.476562 C 43.464844 251.535156 35.4375 207.082031 35.3125 146.703125 C 35.3125 145.683594 34.929688 145.683594 33.148438 145.683594 Z M 28.6875 145.683594 "/>
<path style=" stroke:none;fill-rule:nonzero;fill:rgb(0%,0%,0%);fill-opacity:1;" d="M 437.269531 143.152344 C 437.269531 94.238281 428.609375 65.703125 426.0625 57.554688 C 420.714844 39.847656 411.796875 21.121094 398.425781 4.5625 C 397.152344 3.164062 396.894531 2.78125 396.515625 2.652344 C 396.386719 2.527344 396.386719 2.527344 395.113281 2.527344 C 393.839844 2.527344 393.203125 2.527344 393.203125 3.289062 C 393.203125 3.417969 393.203125 3.542969 394.222656 5.074219 C 422.113281 43.921875 428.355469 91.945312 428.355469 146.082031 C 428.355469 147.226562 428.863281 147.226562 430.648438 147.226562 L 435.105469 147.226562 C 436.761719 147.226562 437.144531 147.226562 437.269531 146.335938 Z M 437.269531 143.152344 "/>
<path style=" stroke:none;fill-rule:nonzero;fill:rgb(0%,0%,0%);fill-opacity:1;" d="M 437.269531 146.578125 C 437.144531 145.683594 436.761719 145.683594 435.105469 145.683594 L 430.648438 145.683594 C 428.863281 145.683594 428.355469 145.683594 428.355469 146.703125 C 428.355469 154.984375 428.355469 174.089844 426.191406 193.960938 C 421.988281 235.359375 411.289062 263.890625 393.710938 288.476562 C 393.203125 289.238281 393.203125 289.367188 393.203125 289.496094 C 393.203125 290.386719 393.839844 290.386719 395.113281 290.386719 C 396.386719 290.386719 396.515625 290.386719 396.640625 290.132812 C 397.023438 290.003906 407.085938 278.285156 415.238281 262.234375 C 425.808594 241.089844 432.429688 216.890625 435.359375 187.71875 C 435.617188 185.171875 437.269531 168.613281 437.269531 149.632812 Z M 437.269531 146.578125 "/>
<g clip-path="url(#clip1)" clip-rule="nonzero">
<path style="fill:none;stroke-width:0.79701;stroke-linecap:butt;stroke-linejoin:miter;stroke:rgb(0%,0%,0%);stroke-opacity:1;stroke-dasharray:0.79701,1.99255;stroke-miterlimit:10;" d="M -9.464287 8.17155 L 9.465369 -10.302133 " transform="matrix(8.031998,0,0,-8.032753,231.942923,146.429103)"/>
</g>
<path style="fill:none;stroke-width:0.79701;stroke-linecap:butt;stroke-linejoin:miter;stroke:rgb(0%,0%,0%);stroke-opacity:1;stroke-dasharray:0.79701,1.99255;stroke-miterlimit:10;" d="M 2.429059 8.690908 L 9.243599 1.575022 " transform="matrix(8.031998,0,0,-8.032753,231.942923,146.429103)"/>
</g>
</svg>
