<?xml version="1.0" encoding="UTF-8"?>
<svg xmlns="http://www.w3.org/2000/svg" xmlns:xlink="http://www.w3.org/1999/xlink" width="397pt" height="300pt" viewBox="0 0 397 300" version="1.1">
<defs>
<clipPath id="clip1">
  <path d="M 7 248.160156 L 24 248.160156 L 24 299 L 7 299 Z M 7 248.160156 "/>
</clipPath>
<clipPath id="clip2">
  <path d="M 372.1875 2 L 388 2 L 388 52 L 372.1875 52 Z M 372.1875 2 "/>
</clipPath>
<clipPath id="clip3">
  <path d="M 372.1875 248.160156 L 388 248.160156 L 388 299 L 372.1875 299 Z M 372.1875 248.160156 "/>
</clipPath>
<clipPath id="clip4">
  <path d="M 70 0.171875 L 154 0.171875 L 154 82 L 70 82 Z M 70 0.171875 "/>
</clipPath>
<clipPath id="clip5">
  <path d="M 28 0.171875 L 158 0.171875 L 158 113 L 28 113 Z M 28 0.171875 "/>
</clipPath>
</defs>
<g id="surface1">
<path style=" stroke:none;fill-rule:nonzero;fill:rgb(0%,0%,0%);fill-opacity:1;" d="M 45.875 16.875 C 45.875 12.570312 43.332031 11.191406 41.265625 11.191406 C 37.515625 11.191406 33.898438 15.152344 33.898438 18.988281 C 33.898438 21.574219 35.535156 23.640625 38.335938 23.640625 C 40.058594 23.640625 42.039062 22.996094 44.148438 21.316406 C 44.496094 22.78125 45.398438 23.640625 46.648438 23.640625 C 48.070312 23.640625 48.929688 22.132812 48.929688 21.703125 C 48.929688 21.488281 48.757812 21.402344 48.628906 21.402344 C 48.414062 21.402344 48.328125 21.488281 48.242188 21.703125 C 47.769531 23.039062 46.777344 23.039062 46.734375 23.039062 C 45.875 23.039062 45.875 20.882812 45.875 20.238281 C 45.875 19.675781 45.875 19.589844 46.132812 19.289062 C 48.714844 16.058594 49.277344 12.871094 49.277344 12.828125 C 49.277344 12.785156 49.277344 12.570312 48.976562 12.570312 C 48.671875 12.570312 48.671875 12.65625 48.542969 13.128906 C 48.070312 14.851562 47.164062 16.964844 45.875 18.558594 Z M 44.019531 20.625 C 41.609375 22.734375 39.496094 23.039062 38.421875 23.039062 C 36.742188 23.039062 35.921875 21.789062 35.921875 20.066406 C 35.921875 18.6875 36.65625 15.757812 37.515625 14.335938 C 38.808594 12.351562 40.316406 11.792969 41.265625 11.792969 C 43.976562 11.792969 43.976562 15.410156 43.976562 17.566406 C 43.976562 18.558594 43.976562 20.152344 44.019531 20.625 Z M 44.019531 20.625 "/>
<path style=" stroke:none;fill-rule:nonzero;fill:rgb(0%,0%,0%);fill-opacity:1;" d="M 56.742188 15.21875 C 56.742188 14.699219 56.742188 14.699219 56.183594 14.699219 C 54.933594 15.90625 53.210938 15.90625 52.433594 15.90625 L 52.433594 16.597656 C 52.867188 16.597656 54.15625 16.597656 55.191406 16.078125 L 55.191406 25.859375 C 55.191406 26.503906 55.191406 26.765625 53.296875 26.765625 L 52.5625 26.765625 L 52.5625 27.453125 C 52.910156 27.453125 55.277344 27.367188 55.96875 27.367188 C 56.570312 27.367188 58.984375 27.453125 59.414062 27.453125 L 59.414062 26.765625 L 58.679688 26.765625 C 56.742188 26.765625 56.742188 26.503906 56.742188 25.859375 Z M 56.742188 15.21875 "/>
<path style=" stroke:none;fill-rule:nonzero;fill:rgb(0%,0%,0%);fill-opacity:1;" d="M 87.144531 5.761719 C 87.144531 5.113281 87.144531 5.070312 86.539062 5.070312 C 84.816406 6.839844 82.40625 6.839844 81.542969 6.839844 L 81.542969 7.65625 C 82.058594 7.65625 83.695312 7.65625 85.117188 6.96875 L 85.117188 21.183594 C 85.117188 22.175781 85.03125 22.476562 82.578125 22.476562 L 81.714844 22.476562 L 81.714844 23.339844 C 82.664062 23.253906 85.03125 23.253906 86.152344 23.253906 C 87.230469 23.253906 89.640625 23.253906 90.589844 23.339844 L 90.589844 22.476562 L 89.726562 22.476562 C 87.230469 22.476562 87.144531 22.175781 87.144531 21.183594 Z M 87.144531 5.761719 "/>
<path style=" stroke:none;fill-rule:nonzero;fill:rgb(0%,0%,0%);fill-opacity:1;" d="M 139.101562 57.734375 C 139.101562 57.089844 139.101562 57.042969 138.496094 57.042969 C 136.773438 58.8125 134.363281 58.8125 133.5 58.8125 L 133.5 59.628906 C 134.015625 59.628906 135.652344 59.628906 137.074219 58.941406 L 137.074219 73.15625 C 137.074219 74.148438 136.988281 74.449219 134.535156 74.449219 L 133.671875 74.449219 L 133.671875 75.3125 C 134.621094 75.226562 136.988281 75.226562 138.109375 75.226562 C 139.1875 75.226562 141.597656 75.226562 142.546875 75.3125 L 142.546875 74.449219 L 141.683594 74.449219 C 139.1875 74.449219 139.101562 74.148438 139.101562 73.15625 Z M 139.101562 57.734375 "/>
<path style=" stroke:none;fill-rule:nonzero;fill:rgb(0%,0%,0%);fill-opacity:1;" d="M 136.074219 97.121094 C 136.074219 92.8125 133.53125 91.433594 131.464844 91.433594 C 127.714844 91.433594 124.097656 95.398438 124.097656 99.234375 C 124.097656 101.816406 125.734375 103.886719 128.535156 103.886719 C 130.257812 103.886719 132.238281 103.238281 134.351562 101.558594 C 134.695312 103.023438 135.597656 103.886719 136.847656 103.886719 C 138.269531 103.886719 139.132812 102.378906 139.132812 101.945312 C 139.132812 101.730469 138.960938 101.644531 138.828125 101.644531 C 138.613281 101.644531 138.527344 101.730469 138.441406 101.945312 C 137.96875 103.28125 136.976562 103.28125 136.933594 103.28125 C 136.074219 103.28125 136.074219 101.128906 136.074219 100.480469 C 136.074219 99.921875 136.074219 99.835938 136.332031 99.535156 C 138.917969 96.304688 139.476562 93.113281 139.476562 93.070312 C 139.476562 93.027344 139.476562 92.8125 139.175781 92.8125 C 138.871094 92.8125 138.871094 92.898438 138.742188 93.375 C 138.269531 95.097656 137.367188 97.207031 136.074219 98.800781 Z M 134.21875 100.871094 C 131.808594 102.980469 129.699219 103.28125 128.621094 103.28125 C 126.941406 103.28125 126.121094 102.035156 126.121094 100.308594 C 126.121094 98.929688 126.855469 96 127.714844 94.578125 C 129.007812 92.597656 130.515625 92.039062 131.464844 92.039062 C 134.175781 92.039062 134.175781 95.65625 134.175781 97.8125 C 134.175781 98.800781 134.175781 100.394531 134.21875 100.871094 Z M 134.21875 100.871094 "/>
<path style=" stroke:none;fill-rule:nonzero;fill:rgb(0%,0%,0%);fill-opacity:1;" d="M 146.941406 95.460938 C 146.941406 94.945312 146.941406 94.945312 146.382812 94.945312 C 145.132812 96.152344 143.410156 96.152344 142.636719 96.152344 L 142.636719 96.839844 C 143.066406 96.839844 144.359375 96.839844 145.390625 96.324219 L 145.390625 106.105469 C 145.390625 106.75 145.390625 107.007812 143.496094 107.007812 L 142.765625 107.007812 L 142.765625 107.699219 C 143.109375 107.699219 145.476562 107.613281 146.167969 107.613281 C 146.769531 107.613281 149.183594 107.699219 149.613281 107.699219 L 149.613281 107.007812 L 148.882812 107.007812 C 146.941406 107.007812 146.941406 106.75 146.941406 106.105469 Z M 146.941406 95.460938 "/>
<path style=" stroke:none;fill-rule:nonzero;fill:rgb(0%,0%,0%);fill-opacity:1;" d="M 250.957031 203.957031 C 250.957031 199.652344 248.417969 198.273438 246.347656 198.273438 C 242.601562 198.273438 238.984375 202.234375 238.984375 206.070312 C 238.984375 208.65625 240.621094 210.722656 243.421875 210.722656 C 245.144531 210.722656 247.125 210.078125 249.234375 208.398438 C 249.582031 209.863281 250.484375 210.722656 251.734375 210.722656 C 253.15625 210.722656 254.015625 209.214844 254.015625 208.785156 C 254.015625 208.570312 253.84375 208.484375 253.714844 208.484375 C 253.5 208.484375 253.414062 208.570312 253.328125 208.785156 C 252.855469 210.121094 251.863281 210.121094 251.820312 210.121094 C 250.957031 210.121094 250.957031 207.964844 250.957031 207.320312 C 250.957031 206.757812 250.957031 206.671875 251.21875 206.371094 C 253.800781 203.140625 254.363281 199.953125 254.363281 199.910156 C 254.363281 199.867188 254.363281 199.652344 254.058594 199.652344 C 253.757812 199.652344 253.757812 199.738281 253.628906 200.210938 C 253.15625 201.933594 252.25 204.046875 250.957031 205.640625 Z M 249.105469 207.707031 C 246.695312 209.816406 244.582031 210.121094 243.507812 210.121094 C 241.828125 210.121094 241.007812 208.871094 241.007812 207.148438 C 241.007812 205.769531 241.738281 202.839844 242.601562 201.417969 C 243.894531 199.433594 245.402344 198.875 246.347656 198.875 C 249.0625 198.875 249.0625 202.492188 249.0625 204.648438 C 249.0625 205.640625 249.0625 207.234375 249.105469 207.707031 Z M 249.105469 207.707031 "/>
<path style=" stroke:none;fill-rule:nonzero;fill:rgb(0%,0%,0%);fill-opacity:1;" d="M 257.734375 213.332031 C 257.691406 213.589844 257.5625 214.0625 257.5625 214.105469 C 257.5625 214.539062 257.90625 214.710938 258.210938 214.710938 C 258.554688 214.710938 258.855469 214.496094 258.984375 214.324219 C 259.070312 214.152344 259.199219 213.503906 259.328125 213.117188 C 259.414062 212.773438 259.632812 211.867188 259.71875 211.394531 C 259.847656 210.960938 259.976562 210.53125 260.0625 210.101562 C 260.277344 209.324219 260.320312 209.152344 260.878906 208.378906 C 261.398438 207.601562 262.300781 206.609375 263.765625 206.609375 C 264.84375 206.609375 264.886719 207.601562 264.886719 207.945312 C 264.886719 209.109375 264.066406 211.222656 263.765625 212.039062 C 263.550781 212.597656 263.464844 212.773438 263.464844 213.074219 C 263.464844 214.105469 264.285156 214.710938 265.273438 214.710938 C 267.210938 214.710938 268.03125 212.082031 268.03125 211.78125 C 268.03125 211.523438 267.816406 211.523438 267.730469 211.523438 C 267.472656 211.523438 267.472656 211.652344 267.386719 211.867188 C 266.953125 213.417969 266.09375 214.195312 265.359375 214.195312 C 264.929688 214.195312 264.84375 213.933594 264.84375 213.503906 C 264.84375 213.074219 264.972656 212.816406 265.316406 211.953125 C 265.53125 211.351562 266.308594 209.324219 266.308594 208.246094 C 266.308594 206.394531 264.84375 206.050781 263.808594 206.050781 C 262.214844 206.050781 261.140625 207.042969 260.578125 207.816406 C 260.449219 206.480469 259.328125 206.050781 258.511719 206.050781 C 257.691406 206.050781 257.261719 206.652344 257.003906 207.085938 C 256.574219 207.816406 256.3125 208.894531 256.3125 209.023438 C 256.3125 209.238281 256.574219 209.238281 256.660156 209.238281 C 256.917969 209.238281 256.917969 209.195312 257.046875 208.679688 C 257.347656 207.558594 257.734375 206.609375 258.46875 206.609375 C 258.984375 206.609375 259.113281 207.042969 259.113281 207.558594 C 259.113281 207.902344 258.941406 208.636719 258.769531 209.152344 C 258.640625 209.667969 258.46875 210.445312 258.382812 210.875 Z M 257.734375 213.332031 "/>
<path style=" stroke:none;fill-rule:nonzero;fill:rgb(0%,0%,0%);fill-opacity:1;" d="M 294.851562 192.84375 C 294.851562 192.195312 294.851562 192.152344 294.25 192.152344 C 292.527344 193.921875 290.113281 193.921875 289.253906 193.921875 L 289.253906 194.738281 C 289.769531 194.738281 291.40625 194.738281 292.828125 194.050781 L 292.828125 208.265625 C 292.828125 209.257812 292.742188 209.558594 290.285156 209.558594 L 289.425781 209.558594 L 289.425781 210.421875 C 290.371094 210.335938 292.742188 210.335938 293.863281 210.335938 C 294.9375 210.335938 297.351562 210.335938 298.296875 210.421875 L 298.296875 209.558594 L 297.4375 209.558594 C 294.9375 209.558594 294.851562 209.257812 294.851562 208.265625 Z M 294.851562 192.84375 "/>
<path style=" stroke:none;fill-rule:nonzero;fill:rgb(0%,0%,0%);fill-opacity:1;" d="M 348.121094 244.816406 C 348.121094 244.171875 348.121094 244.125 347.519531 244.125 C 345.796875 245.894531 343.382812 245.894531 342.523438 245.894531 L 342.523438 246.710938 C 343.039062 246.710938 344.675781 246.710938 346.097656 246.023438 L 346.097656 260.238281 C 346.097656 261.230469 346.011719 261.53125 343.554688 261.53125 L 342.695312 261.53125 L 342.695312 262.394531 C 343.644531 262.308594 346.011719 262.308594 347.132812 262.308594 C 348.207031 262.308594 350.621094 262.308594 351.570312 262.394531 L 351.570312 261.53125 L 350.707031 261.53125 C 348.207031 261.53125 348.121094 261.230469 348.121094 260.238281 Z M 348.121094 244.816406 "/>
<path style=" stroke:none;fill-rule:nonzero;fill:rgb(0%,0%,0%);fill-opacity:1;" d="M 343.78125 284.203125 C 343.78125 279.894531 341.242188 278.515625 339.171875 278.515625 C 335.425781 278.515625 331.808594 282.480469 331.808594 286.316406 C 331.808594 288.898438 333.445312 290.96875 336.242188 290.96875 C 337.96875 290.96875 339.949219 290.320312 342.058594 288.640625 C 342.402344 290.105469 343.308594 290.96875 344.558594 290.96875 C 345.980469 290.96875 346.839844 289.460938 346.839844 289.027344 C 346.839844 288.8125 346.667969 288.726562 346.539062 288.726562 C 346.324219 288.726562 346.238281 288.8125 346.152344 289.027344 C 345.675781 290.363281 344.6875 290.363281 344.644531 290.363281 C 343.78125 290.363281 343.78125 288.210938 343.78125 287.5625 C 343.78125 287.003906 343.78125 286.917969 344.039062 286.617188 C 346.625 283.386719 347.183594 280.195312 347.183594 280.152344 C 347.183594 280.109375 347.183594 279.894531 346.882812 279.894531 C 346.582031 279.894531 346.582031 279.980469 346.453125 280.457031 C 345.980469 282.179688 345.074219 284.289062 343.78125 285.882812 Z M 341.929688 287.953125 C 339.519531 290.0625 337.40625 290.363281 336.328125 290.363281 C 334.648438 290.363281 333.832031 289.117188 333.832031 287.390625 C 333.832031 286.011719 334.5625 283.082031 335.425781 281.660156 C 336.71875 279.679688 338.226562 279.121094 339.171875 279.121094 C 341.886719 279.121094 341.886719 282.738281 341.886719 284.894531 C 341.886719 285.882812 341.886719 287.476562 341.929688 287.953125 Z M 341.929688 287.953125 "/>
<path style=" stroke:none;fill-rule:nonzero;fill:rgb(0%,0%,0%);fill-opacity:1;" d="M 350.558594 293.574219 C 350.515625 293.832031 350.386719 294.304688 350.386719 294.347656 C 350.386719 294.78125 350.730469 294.953125 351.035156 294.953125 C 351.378906 294.953125 351.679688 294.738281 351.808594 294.566406 C 351.894531 294.394531 352.023438 293.746094 352.152344 293.359375 C 352.238281 293.015625 352.453125 292.109375 352.542969 291.636719 C 352.671875 291.203125 352.800781 290.773438 352.886719 290.34375 C 353.101562 289.566406 353.144531 289.394531 353.703125 288.621094 C 354.222656 287.84375 355.125 286.851562 356.589844 286.851562 C 357.667969 286.851562 357.710938 287.84375 357.710938 288.1875 C 357.710938 289.351562 356.890625 291.464844 356.589844 292.28125 C 356.375 292.839844 356.289062 293.015625 356.289062 293.316406 C 356.289062 294.347656 357.105469 294.953125 358.097656 294.953125 C 360.035156 294.953125 360.855469 292.324219 360.855469 292.023438 C 360.855469 291.765625 360.640625 291.765625 360.554688 291.765625 C 360.296875 291.765625 360.296875 291.894531 360.207031 292.109375 C 359.777344 293.660156 358.917969 294.4375 358.183594 294.4375 C 357.753906 294.4375 357.667969 294.175781 357.667969 293.746094 C 357.667969 293.316406 357.796875 293.058594 358.140625 292.195312 C 358.355469 291.59375 359.132812 289.566406 359.132812 288.488281 C 359.132812 286.636719 357.667969 286.292969 356.632812 286.292969 C 355.039062 286.292969 353.960938 287.285156 353.402344 288.058594 C 353.273438 286.722656 352.152344 286.292969 351.335938 286.292969 C 350.515625 286.292969 350.085938 286.894531 349.828125 287.328125 C 349.398438 288.058594 349.136719 289.136719 349.136719 289.265625 C 349.136719 289.480469 349.398438 289.480469 349.484375 289.480469 C 349.742188 289.480469 349.742188 289.4375 349.871094 288.921875 C 350.171875 287.800781 350.558594 286.851562 351.292969 286.851562 C 351.808594 286.851562 351.9375 287.285156 351.9375 287.800781 C 351.9375 288.144531 351.765625 288.878906 351.59375 289.394531 C 351.464844 289.910156 351.292969 290.6875 351.207031 291.117188 Z M 350.558594 293.574219 "/>
<path style=" stroke:none;fill-rule:nonzero;fill:rgb(0%,0%,0%);fill-opacity:1;" d="M 10.253906 51.730469 C 10.855469 51.730469 11.027344 51.730469 11.027344 51.386719 C 11.070312 32.125 13.3125 16.140625 22.917969 2.742188 C 23.089844 2.484375 23.089844 2.441406 23.089844 2.398438 C 23.089844 2.097656 22.917969 2.097656 22.484375 2.097656 C 22.054688 2.097656 21.96875 2.097656 21.925781 2.140625 C 21.796875 2.226562 18.351562 6.234375 15.550781 11.746094 C 11.933594 19.027344 9.648438 27.34375 8.660156 37.296875 C 8.574219 38.160156 7.96875 43.886719 7.96875 50.394531 L 7.96875 51.429688 C 8.011719 51.730469 8.183594 51.730469 8.746094 51.730469 Z M 10.253906 51.730469 "/>
<path style=" stroke:none;fill-rule:nonzero;fill:rgb(0%,0%,0%);fill-opacity:1;" d="M 11.027344 51.929688 C 11.027344 51.199219 10.984375 51.199219 10.253906 51.199219 L 8.746094 51.199219 C 8.011719 51.199219 7.96875 51.199219 7.96875 51.929688 L 7.96875 67.441406 C 7.96875 68.171875 8.011719 68.21875 8.746094 68.21875 L 10.253906 68.21875 C 10.984375 68.21875 11.027344 68.171875 11.027344 67.441406 Z M 11.027344 51.929688 "/>
<path style=" stroke:none;fill-rule:nonzero;fill:rgb(0%,0%,0%);fill-opacity:1;" d="M 11.027344 68.394531 C 11.027344 67.660156 10.984375 67.660156 10.253906 67.660156 L 8.746094 67.660156 C 8.011719 67.660156 7.96875 67.660156 7.96875 68.394531 L 7.96875 83.902344 C 7.96875 84.636719 8.011719 84.679688 8.746094 84.679688 L 10.253906 84.679688 C 10.984375 84.679688 11.027344 84.636719 11.027344 83.902344 Z M 11.027344 68.394531 "/>
<path style=" stroke:none;fill-rule:nonzero;fill:rgb(0%,0%,0%);fill-opacity:1;" d="M 11.027344 84.851562 C 11.027344 84.117188 10.984375 84.117188 10.253906 84.117188 L 8.746094 84.117188 C 8.011719 84.117188 7.96875 84.117188 7.96875 84.851562 L 7.96875 100.363281 C 7.96875 101.09375 8.011719 101.136719 8.746094 101.136719 L 10.253906 101.136719 C 10.984375 101.136719 11.027344 101.09375 11.027344 100.363281 Z M 11.027344 84.851562 "/>
<path style=" stroke:none;fill-rule:nonzero;fill:rgb(0%,0%,0%);fill-opacity:1;" d="M 11.027344 101.3125 C 11.027344 100.582031 10.984375 100.582031 10.253906 100.582031 L 8.746094 100.582031 C 8.011719 100.582031 7.96875 100.582031 7.96875 101.3125 L 7.96875 116.824219 C 7.96875 117.554688 8.011719 117.597656 8.746094 117.597656 L 10.253906 117.597656 C 10.984375 117.597656 11.027344 117.554688 11.027344 116.824219 Z M 11.027344 101.3125 "/>
<path style=" stroke:none;fill-rule:nonzero;fill:rgb(0%,0%,0%);fill-opacity:1;" d="M 11.027344 117.773438 C 11.027344 117.042969 10.984375 117.042969 10.253906 117.042969 L 8.746094 117.042969 C 8.011719 117.042969 7.96875 117.042969 7.96875 117.773438 L 7.96875 133.285156 C 7.96875 134.015625 8.011719 134.058594 8.746094 134.058594 L 10.253906 134.058594 C 10.984375 134.058594 11.027344 134.015625 11.027344 133.285156 Z M 11.027344 117.773438 "/>
<path style=" stroke:none;fill-rule:nonzero;fill:rgb(0%,0%,0%);fill-opacity:1;" d="M 11.027344 134.234375 C 11.027344 133.5 10.984375 133.5 10.253906 133.5 L 8.746094 133.5 C 8.011719 133.5 7.96875 133.5 7.96875 134.234375 L 7.96875 149.742188 C 7.96875 150.476562 8.011719 150.519531 8.746094 150.519531 L 10.253906 150.519531 C 10.984375 150.519531 11.027344 150.476562 11.027344 149.742188 Z M 11.027344 134.234375 "/>
<path style=" stroke:none;fill-rule:nonzero;fill:rgb(0%,0%,0%);fill-opacity:1;" d="M 11.027344 150.695312 C 11.027344 149.960938 10.984375 149.960938 10.253906 149.960938 L 8.746094 149.960938 C 8.011719 149.960938 7.96875 149.960938 7.96875 150.695312 L 7.96875 166.203125 C 7.96875 166.9375 8.011719 166.980469 8.746094 166.980469 L 10.253906 166.980469 C 10.984375 166.980469 11.027344 166.9375 11.027344 166.203125 Z M 11.027344 150.695312 "/>
<path style=" stroke:none;fill-rule:nonzero;fill:rgb(0%,0%,0%);fill-opacity:1;" d="M 11.027344 167.15625 C 11.027344 166.421875 10.984375 166.421875 10.253906 166.421875 L 8.746094 166.421875 C 8.011719 166.421875 7.96875 166.421875 7.96875 167.15625 L 7.96875 182.667969 C 7.96875 183.398438 8.011719 183.441406 8.746094 183.441406 L 10.253906 183.441406 C 10.984375 183.441406 11.027344 183.398438 11.027344 182.667969 Z M 11.027344 167.15625 "/>
<path style=" stroke:none;fill-rule:nonzero;fill:rgb(0%,0%,0%);fill-opacity:1;" d="M 11.027344 183.613281 C 11.027344 182.882812 10.984375 182.882812 10.253906 182.882812 L 8.746094 182.882812 C 8.011719 182.882812 7.96875 182.882812 7.96875 183.613281 L 7.96875 199.125 C 7.96875 199.855469 8.011719 199.898438 8.746094 199.898438 L 10.253906 199.898438 C 10.984375 199.898438 11.027344 199.855469 11.027344 199.125 Z M 11.027344 183.613281 "/>
<path style=" stroke:none;fill-rule:nonzero;fill:rgb(0%,0%,0%);fill-opacity:1;" d="M 11.027344 200.078125 C 11.027344 199.34375 10.984375 199.34375 10.253906 199.34375 L 8.746094 199.34375 C 8.011719 199.34375 7.96875 199.34375 7.96875 200.078125 L 7.96875 215.585938 C 7.96875 216.320312 8.011719 216.363281 8.746094 216.363281 L 10.253906 216.363281 C 10.984375 216.363281 11.027344 216.320312 11.027344 215.585938 Z M 11.027344 200.078125 "/>
<path style=" stroke:none;fill-rule:nonzero;fill:rgb(0%,0%,0%);fill-opacity:1;" d="M 11.027344 216.539062 C 11.027344 215.804688 10.984375 215.804688 10.253906 215.804688 L 8.746094 215.804688 C 8.011719 215.804688 7.96875 215.804688 7.96875 216.539062 L 7.96875 232.046875 C 7.96875 232.78125 8.011719 232.824219 8.746094 232.824219 L 10.253906 232.824219 C 10.984375 232.824219 11.027344 232.78125 11.027344 232.046875 Z M 11.027344 216.539062 "/>
<path style=" stroke:none;fill-rule:nonzero;fill:rgb(0%,0%,0%);fill-opacity:1;" d="M 11.027344 232.996094 C 11.027344 232.265625 10.984375 232.265625 10.253906 232.265625 L 8.746094 232.265625 C 8.011719 232.265625 7.96875 232.265625 7.96875 232.996094 L 7.96875 248.507812 C 7.96875 249.238281 8.011719 249.28125 8.746094 249.28125 L 10.253906 249.28125 C 10.984375 249.28125 11.027344 249.238281 11.027344 248.507812 Z M 11.027344 232.996094 "/>
<g clip-path="url(#clip1)" clip-rule="nonzero">
<path style=" stroke:none;fill-rule:nonzero;fill:rgb(0%,0%,0%);fill-opacity:1;" d="M 8.746094 248.703125 C 8.183594 248.703125 8.011719 248.703125 7.96875 249.003906 L 7.96875 250.078125 C 7.96875 266.839844 10.984375 276.664062 11.847656 279.464844 C 13.699219 285.539062 16.757812 291.957031 21.324219 297.601562 C 21.710938 298.117188 21.839844 298.246094 21.96875 298.289062 C 22.011719 298.332031 22.054688 298.332031 22.484375 298.332031 C 22.917969 298.332031 23.089844 298.332031 23.089844 298.074219 C 23.089844 298.03125 23.089844 297.988281 22.960938 297.730469 C 13.785156 285.0625 11.070312 269.769531 11.027344 249.089844 C 11.027344 248.703125 10.855469 248.703125 10.253906 248.703125 Z M 8.746094 248.703125 "/>
</g>
<g clip-path="url(#clip2)" clip-rule="nonzero">
<path style=" stroke:none;fill-rule:nonzero;fill:rgb(0%,0%,0%);fill-opacity:1;" d="M 387.921875 50.394531 C 387.921875 33.589844 384.949219 23.769531 384.089844 21.011719 C 382.238281 14.9375 379.179688 8.515625 374.613281 2.828125 C 374.183594 2.355469 374.09375 2.226562 373.964844 2.140625 C 373.921875 2.140625 373.878906 2.097656 373.449219 2.097656 C 373.019531 2.097656 372.804688 2.097656 372.804688 2.398438 C 372.804688 2.441406 372.804688 2.484375 373.191406 3.003906 C 382.710938 16.316406 384.863281 32.773438 384.90625 51.386719 C 384.90625 51.730469 385.039062 51.730469 385.640625 51.730469 L 387.191406 51.730469 C 387.75 51.730469 387.921875 51.730469 387.921875 51.429688 Z M 387.921875 50.394531 "/>
</g>
<path style=" stroke:none;fill-rule:nonzero;fill:rgb(0%,0%,0%);fill-opacity:1;" d="M 387.921875 51.929688 C 387.921875 51.199219 387.921875 51.199219 387.191406 51.199219 L 385.640625 51.199219 C 384.90625 51.199219 384.90625 51.199219 384.90625 51.929688 L 384.90625 67.441406 C 384.90625 68.171875 384.90625 68.21875 385.640625 68.21875 L 387.191406 68.21875 C 387.921875 68.21875 387.921875 68.171875 387.921875 67.441406 Z M 387.921875 51.929688 "/>
<path style=" stroke:none;fill-rule:nonzero;fill:rgb(0%,0%,0%);fill-opacity:1;" d="M 387.921875 68.394531 C 387.921875 67.660156 387.921875 67.660156 387.191406 67.660156 L 385.640625 67.660156 C 384.90625 67.660156 384.90625 67.660156 384.90625 68.394531 L 384.90625 83.902344 C 384.90625 84.636719 384.90625 84.679688 385.640625 84.679688 L 387.191406 84.679688 C 387.921875 84.679688 387.921875 84.636719 387.921875 83.902344 Z M 387.921875 68.394531 "/>
<path style=" stroke:none;fill-rule:nonzero;fill:rgb(0%,0%,0%);fill-opacity:1;" d="M 387.921875 84.851562 C 387.921875 84.117188 387.921875 84.117188 387.191406 84.117188 L 385.640625 84.117188 C 384.90625 84.117188 384.90625 84.117188 384.90625 84.851562 L 384.90625 100.363281 C 384.90625 101.09375 384.90625 101.136719 385.640625 101.136719 L 387.191406 101.136719 C 387.921875 101.136719 387.921875 101.09375 387.921875 100.363281 Z M 387.921875 84.851562 "/>
<path style=" stroke:none;fill-rule:nonzero;fill:rgb(0%,0%,0%);fill-opacity:1;" d="M 387.921875 101.3125 C 387.921875 100.582031 387.921875 100.582031 387.191406 100.582031 L 385.640625 100.582031 C 384.90625 100.582031 384.90625 100.582031 384.90625 101.3125 L 384.90625 116.824219 C 384.90625 117.554688 384.90625 117.597656 385.640625 117.597656 L 387.191406 117.597656 C 387.921875 117.597656 387.921875 117.554688 387.921875 116.824219 Z M 387.921875 101.3125 "/>
<path style=" stroke:none;fill-rule:nonzero;fill:rgb(0%,0%,0%);fill-opacity:1;" d="M 387.921875 117.773438 C 387.921875 117.042969 387.921875 117.042969 387.191406 117.042969 L 385.640625 117.042969 C 384.90625 117.042969 384.90625 117.042969 384.90625 117.773438 L 384.90625 133.285156 C 384.90625 134.015625 384.90625 134.058594 385.640625 134.058594 L 387.191406 134.058594 C 387.921875 134.058594 387.921875 134.015625 387.921875 133.285156 Z M 387.921875 117.773438 "/>
<path style=" stroke:none;fill-rule:nonzero;fill:rgb(0%,0%,0%);fill-opacity:1;" d="M 387.921875 134.234375 C 387.921875 133.5 387.921875 133.5 387.191406 133.5 L 385.640625 133.5 C 384.90625 133.5 384.90625 133.5 384.90625 134.234375 L 384.90625 149.742188 C 384.90625 150.476562 384.90625 150.519531 385.640625 150.519531 L 387.191406 150.519531 C 387.921875 150.519531 387.921875 150.476562 387.921875 149.742188 Z M 387.921875 134.234375 "/>
<path style=" stroke:none;fill-rule:nonzero;fill:rgb(0%,0%,0%);fill-opacity:1;" d="M 387.921875 150.695312 C 387.921875 149.960938 387.921875 149.960938 387.191406 149.960938 L 385.640625 149.960938 C 384.90625 149.960938 384.90625 149.960938 384.90625 150.695312 L 384.90625 166.203125 C 384.90625 166.9375 384.90625 166.980469 385.640625 166.980469 L 387.191406 166.980469 C 387.921875 166.980469 387.921875 166.9375 387.921875 166.203125 Z M 387.921875 150.695312 "/>
<path style=" stroke:none;fill-rule:nonzero;fill:rgb(0%,0%,0%);fill-opacity:1;" d="M 387.921875 167.15625 C 387.921875 166.421875 387.921875 166.421875 387.191406 166.421875 L 385.640625 166.421875 C 384.90625 166.421875 384.90625 166.421875 384.90625 167.15625 L 384.90625 182.667969 C 384.90625 183.398438 384.90625 183.441406 385.640625 183.441406 L 387.191406 183.441406 C 387.921875 183.441406 387.921875 183.398438 387.921875 182.667969 Z M 387.921875 167.15625 "/>
<path style=" stroke:none;fill-rule:nonzero;fill:rgb(0%,0%,0%);fill-opacity:1;" d="M 387.921875 183.613281 C 387.921875 182.882812 387.921875 182.882812 387.191406 182.882812 L 385.640625 182.882812 C 384.90625 182.882812 384.90625 182.882812 384.90625 183.613281 L 384.90625 199.125 C 384.90625 199.855469 384.90625 199.898438 385.640625 199.898438 L 387.191406 199.898438 C 387.921875 199.898438 387.921875 199.855469 387.921875 199.125 Z M 387.921875 183.613281 "/>
<path style=" stroke:none;fill-rule:nonzero;fill:rgb(0%,0%,0%);fill-opacity:1;" d="M 387.921875 200.078125 C 387.921875 199.34375 387.921875 199.34375 387.191406 199.34375 L 385.640625 199.34375 C 384.90625 199.34375 384.90625 199.34375 384.90625 200.078125 L 384.90625 215.585938 C 384.90625 216.320312 384.90625 216.363281 385.640625 216.363281 L 387.191406 216.363281 C 387.921875 216.363281 387.921875 216.320312 387.921875 215.585938 Z M 387.921875 200.078125 "/>
<path style=" stroke:none;fill-rule:nonzero;fill:rgb(0%,0%,0%);fill-opacity:1;" d="M 387.921875 216.539062 C 387.921875 215.804688 387.921875 215.804688 387.191406 215.804688 L 385.640625 215.804688 C 384.90625 215.804688 384.90625 215.804688 384.90625 216.539062 L 384.90625 232.046875 C 384.90625 232.78125 384.90625 232.824219 385.640625 232.824219 L 387.191406 232.824219 C 387.921875 232.824219 387.921875 232.78125 387.921875 232.046875 Z M 387.921875 216.539062 "/>
<path style=" stroke:none;fill-rule:nonzero;fill:rgb(0%,0%,0%);fill-opacity:1;" d="M 387.921875 232.996094 C 387.921875 232.265625 387.921875 232.265625 387.191406 232.265625 L 385.640625 232.265625 C 384.90625 232.265625 384.90625 232.265625 384.90625 232.996094 L 384.90625 248.507812 C 384.90625 249.238281 384.90625 249.28125 385.640625 249.28125 L 387.191406 249.28125 C 387.921875 249.28125 387.921875 249.238281 387.921875 248.507812 Z M 387.921875 232.996094 "/>
<g clip-path="url(#clip3)" clip-rule="nonzero">
<path style=" stroke:none;fill-rule:nonzero;fill:rgb(0%,0%,0%);fill-opacity:1;" d="M 387.921875 249.003906 C 387.921875 248.703125 387.75 248.703125 387.191406 248.703125 L 385.640625 248.703125 C 385.039062 248.703125 384.90625 248.703125 384.90625 249.089844 C 384.90625 251.933594 384.863281 258.4375 384.132812 265.289062 C 382.667969 279.464844 379.007812 289.285156 373.019531 297.730469 C 372.804688 297.988281 372.804688 298.03125 372.804688 298.074219 C 372.804688 298.332031 373.019531 298.332031 373.449219 298.332031 C 373.878906 298.332031 373.964844 298.332031 374.007812 298.289062 C 374.09375 298.203125 377.585938 294.199219 380.386719 288.683594 C 384.003906 281.445312 386.285156 273.128906 387.277344 263.132812 C 387.363281 262.273438 387.921875 256.585938 387.921875 250.078125 Z M 387.921875 249.003906 "/>
</g>
<path style="fill:none;stroke-width:0.79701;stroke-linecap:butt;stroke-linejoin:miter;stroke:rgb(0%,0%,0%);stroke-opacity:1;stroke-dasharray:0.79701,1.99255;stroke-miterlimit:10;" d="M -47.77783 41.4254 L -28.615952 24.384267 " transform="matrix(2.753269,0,0,-2.753677,197.97102,150.220624)"/>
<path style=" stroke:none;fill-rule:nonzero;fill:rgb(0%,0%,0%);fill-opacity:1;" d="M 76.402344 67.828125 C 76.058594 68.085938 75.5 68.429688 75.457031 68.515625 C 75.15625 68.820312 75.285156 69.164062 75.542969 69.378906 C 75.800781 69.59375 76.230469 69.679688 76.359375 69.59375 C 76.574219 69.507812 77.136719 69.164062 77.4375 68.90625 C 77.78125 68.730469 78.472656 68.214844 78.945312 67.914062 C 79.246094 67.65625 79.632812 67.441406 79.980469 67.136719 C 80.753906 66.664062 80.753906 66.621094 81.445312 66.449219 C 82.519531 66.191406 83.984375 65.976562 85.105469 67.007812 C 85.921875 67.699219 85.363281 68.386719 85.0625 68.730469 C 84.285156 69.59375 82.21875 70.628906 81.488281 71.101562 C 80.96875 71.316406 80.796875 71.402344 80.582031 71.660156 C 79.894531 72.4375 80.109375 73.429688 80.839844 74.117188 C 82.304688 75.367188 84.675781 73.945312 84.890625 73.730469 C 85.0625 73.558594 84.847656 73.386719 84.847656 73.34375 C 84.632812 73.167969 84.503906 73.257812 84.328125 73.386719 C 82.910156 74.246094 81.789062 74.246094 81.226562 73.730469 C 80.925781 73.472656 81.054688 73.257812 81.359375 72.910156 C 81.660156 72.609375 81.875 72.4375 82.691406 72.050781 C 83.253906 71.792969 85.191406 70.800781 85.921875 69.980469 C 86.140625 69.722656 86.65625 69.121094 86.484375 68.214844 C 86.441406 67.828125 86.226562 67.222656 85.578125 66.621094 C 84.242188 65.457031 82.691406 65.628906 81.660156 65.800781 C 82.648438 64.511719 81.875 63.347656 81.097656 62.65625 C 79.9375 61.625 78.429688 61.625 77.480469 61.839844 C 78.257812 60.761719 77.738281 59.640625 77.179688 59.167969 C 76.53125 58.566406 75.757812 58.78125 75.285156 58.953125 C 74.464844 59.167969 73.558594 59.8125 73.515625 59.898438 C 73.34375 60.074219 73.515625 60.246094 73.605469 60.289062 C 73.777344 60.460938 73.820312 60.417969 74.292969 60.160156 C 75.242188 59.46875 76.144531 59.039062 76.707031 59.511719 C 77.09375 59.855469 76.878906 60.246094 76.53125 60.632812 C 76.316406 60.890625 75.714844 61.320312 75.285156 61.667969 C 74.851562 61.96875 74.121094 62.398438 73.820312 62.65625 L 71.707031 64.121094 C 71.492188 64.25 71.019531 64.511719 71.019531 64.554688 C 70.71875 64.855469 70.847656 65.242188 71.105469 65.414062 C 71.363281 65.671875 71.792969 65.714844 71.921875 65.628906 C 72.140625 65.542969 72.699219 65.199219 73 64.941406 C 73.300781 64.769531 74.035156 64.25 74.464844 63.949219 C 74.808594 63.691406 75.199219 63.476562 75.542969 63.21875 C 76.230469 62.742188 76.359375 62.699219 77.351562 62.398438 C 78.300781 62.226562 79.589844 62.097656 80.667969 63.046875 C 81.488281 63.777344 80.882812 64.554688 80.625 64.8125 C 80.28125 65.199219 80.109375 65.328125 79.160156 65.933594 Z M 76.402344 67.828125 "/>
<path style=" stroke:none;fill-rule:nonzero;fill:rgb(0%,0%,0%);fill-opacity:1;" d="M 91.855469 75.5625 C 92.113281 75.261719 92.070312 75.261719 91.769531 74.960938 C 90.390625 74.960938 89.269531 73.96875 89.054688 73.753906 L 88.882812 73.625 L 88.496094 74.054688 L 88.667969 74.183594 C 88.925781 74.398438 89.613281 75.003906 90.433594 75.261719 L 85.867188 80.390625 C 85.566406 80.734375 85.4375 80.863281 84.359375 79.914062 L 83.84375 79.441406 L 83.453125 79.871094 C 84.058594 80.347656 84.960938 81.121094 85.566406 81.679688 C 86.167969 82.199219 87.117188 83.015625 87.589844 83.578125 L 87.976562 83.144531 L 87.460938 82.671875 C 86.382812 81.679688 86.511719 81.550781 86.816406 81.207031 Z M 91.855469 75.5625 "/>
<g clip-path="url(#clip4)" clip-rule="nonzero">
<path style="fill:none;stroke-width:0.79701;stroke-linecap:butt;stroke-linejoin:miter;stroke:rgb(0%,0%,0%);stroke-opacity:1;stroke-dasharray:0.79701,1.99255;stroke-miterlimit:10;" d="M -34.932306 43.530539 L -27.571739 36.168225 " transform="matrix(2.753269,0,0,-2.753677,197.97102,150.220624)"/>
</g>
<g clip-path="url(#clip5)" clip-rule="nonzero">
<path style="fill:none;stroke-width:0.3985;stroke-linecap:butt;stroke-linejoin:miter;stroke:rgb(0%,0%,0%);stroke-opacity:1;stroke-miterlimit:10;" d="M -61.495895 53.99382 L -61.495895 13.947939 L -14.902142 13.947939 L -14.902142 53.99382 Z M -61.495895 53.99382 " transform="matrix(2.753269,0,0,-2.753677,197.97102,150.220624)"/>
</g>
<path style="fill:none;stroke-width:0.79701;stroke-linecap:butt;stroke-linejoin:miter;stroke:rgb(0%,0%,0%);stroke-opacity:1;stroke-dasharray:0.79701,1.99255;stroke-miterlimit:10;" d="M -12.626439 9.883771 L 10.459751 -11.336432 " transform="matrix(2.753269,0,0,-2.753677,197.97102,150.220624)"/>
<path style="fill:none;stroke-width:0.79701;stroke-linecap:butt;stroke-linejoin:miter;stroke:rgb(0%,0%,0%);stroke-opacity:1;stroke-dasharray:0.79701,1.99255;stroke-miterlimit:10;" d="M 27.348762 -26.485208 L 47.137736 -43.58592 " transform="matrix(2.753269,0,0,-2.753677,197.97102,150.220624)"/>
<path style=" stroke:none;fill-rule:nonzero;fill:rgb(0%,0%,0%);fill-opacity:1;" d="M 283.273438 254.25 C 282.929688 254.507812 282.371094 254.855469 282.328125 254.898438 C 282.023438 255.242188 282.152344 255.585938 282.414062 255.800781 C 282.671875 256.015625 283.058594 256.058594 283.1875 255.972656 C 283.445312 255.929688 283.964844 255.542969 284.265625 255.285156 C 284.609375 255.070312 285.386719 254.550781 285.730469 254.292969 C 286.074219 254.035156 286.503906 253.820312 286.804688 253.519531 C 287.539062 253.042969 287.539062 253 288.269531 252.785156 C 289.304688 252.484375 290.769531 252.269531 291.890625 253.214844 C 292.707031 253.949219 292.191406 254.679688 291.890625 255.027344 C 291.15625 255.886719 289.089844 256.964844 288.3125 257.351562 C 287.839844 257.609375 287.667969 257.742188 287.453125 258 C 286.804688 258.773438 286.980469 259.765625 287.753906 260.410156 C 289.21875 261.660156 291.542969 260.238281 291.761719 260.023438 C 291.933594 259.808594 291.761719 259.679688 291.71875 259.59375 C 291.5 259.421875 291.414062 259.507812 291.242188 259.636719 C 289.820312 260.496094 288.703125 260.539062 288.097656 260.066406 C 287.839844 259.808594 287.925781 259.507812 288.226562 259.207031 C 288.488281 258.859375 288.746094 258.773438 289.5625 258.34375 C 290.125 258.042969 292.0625 257.007812 292.75 256.234375 C 292.964844 255.972656 293.484375 255.371094 293.355469 254.464844 C 293.269531 254.035156 293.007812 253.476562 292.320312 252.914062 C 291.027344 251.792969 289.476562 251.925781 288.441406 252.140625 C 289.390625 250.761719 288.617188 249.683594 287.839844 249.039062 C 286.632812 248.003906 285.167969 248.046875 284.222656 248.21875 C 284.996094 247.183594 284.4375 246.109375 283.789062 245.546875 C 283.1875 245.03125 282.5 245.203125 281.980469 245.332031 C 281.164062 245.632812 280.300781 246.28125 280.214844 246.324219 C 280.042969 246.539062 280.214844 246.710938 280.300781 246.753906 C 280.472656 246.925781 280.515625 246.882812 280.992188 246.582031 C 281.980469 245.890625 282.886719 245.417969 283.445312 245.890625 C 283.835938 246.238281 283.617188 246.667969 283.316406 247.054688 C 283.058594 247.3125 282.457031 247.789062 282.023438 248.089844 C 281.59375 248.390625 280.90625 248.820312 280.558594 249.125 L 278.492188 250.589844 C 278.234375 250.71875 277.847656 251.019531 277.847656 251.019531 C 277.542969 251.363281 277.675781 251.707031 277.890625 251.925781 C 278.148438 252.140625 278.578125 252.140625 278.75 252.097656 C 278.921875 252.054688 279.484375 251.664062 279.828125 251.449219 C 280.085938 251.191406 280.863281 250.675781 281.25 250.417969 C 281.59375 250.113281 281.980469 249.898438 282.328125 249.640625 C 283.015625 249.167969 283.144531 249.082031 284.09375 248.863281 C 284.953125 248.605469 286.332031 248.433594 287.453125 249.382812 C 288.269531 250.113281 287.625 250.847656 287.367188 251.148438 C 287.066406 251.535156 286.890625 251.664062 285.988281 252.3125 Z M 283.273438 254.25 "/>
<path style=" stroke:none;fill-rule:nonzero;fill:rgb(0%,0%,0%);fill-opacity:1;" d="M 291.753906 265.554688 C 291.453125 265.730469 290.976562 266.074219 290.933594 266.117188 C 290.761719 266.332031 290.804688 266.675781 290.976562 266.847656 C 291.109375 266.976562 291.453125 267.0625 291.839844 266.933594 C 291.882812 266.847656 292.441406 266.503906 292.703125 266.289062 C 294.253906 265.167969 294.296875 265.167969 294.296875 265.125 C 294.726562 264.996094 296.75 264.175781 297.957031 265.253906 C 298.472656 265.730469 298.515625 266.160156 298.085938 266.632812 C 297.570312 267.238281 296.191406 267.925781 295.457031 268.3125 C 295.242188 268.355469 295.15625 268.484375 294.984375 268.660156 C 294.511719 269.21875 294.683594 270.035156 295.285156 270.554688 C 296.40625 271.546875 298.171875 270.640625 298.386719 270.382812 C 298.515625 270.253906 298.34375 270.125 298.300781 270.082031 C 298.128906 269.90625 298.085938 269.949219 297.828125 270.082031 C 297.136719 270.554688 296.148438 270.683594 295.671875 270.253906 C 295.457031 270.082031 295.457031 269.820312 295.628906 269.605469 C 295.847656 269.347656 296.019531 269.304688 296.320312 269.175781 C 296.835938 268.875 298.34375 268.140625 298.816406 267.539062 C 299.507812 266.761719 299.335938 265.816406 298.34375 264.953125 C 297.398438 264.132812 296.234375 264.132812 295.457031 264.308594 C 296.234375 263.402344 295.5 262.496094 295.113281 262.152344 C 294.078125 261.246094 292.398438 262.582031 292.398438 262.582031 C 292.269531 262.757812 292.441406 262.886719 292.484375 262.972656 C 292.660156 263.101562 292.746094 263.058594 292.917969 262.972656 C 293.5625 262.453125 294.339844 262.109375 294.769531 262.496094 C 295.113281 262.800781 294.898438 263.1875 294.726562 263.445312 C 294.597656 263.574219 294.121094 263.832031 293.863281 264.046875 C 293.519531 264.222656 293.089844 264.566406 292.832031 264.824219 Z M 291.753906 265.554688 "/>
<path style="fill:none;stroke-width:0.79701;stroke-linecap:butt;stroke-linejoin:miter;stroke:rgb(0%,0%,0%);stroke-opacity:1;stroke-dasharray:0.79701,1.99255;stroke-miterlimit:10;" d="M 40.527696 -24.282188 L 48.326663 -31.894169 " transform="matrix(2.753269,0,0,-2.753677,197.97102,150.220624)"/>
<path style="fill:none;stroke-width:0.3985;stroke-linecap:butt;stroke-linejoin:miter;stroke:rgb(0%,0%,0%);stroke-opacity:1;stroke-miterlimit:10;" d="M 12.99367 -13.949415 L 12.99367 -53.993878 L 61.492828 -53.993878 L 61.492828 -13.949415 Z M 12.99367 -13.949415 " transform="matrix(2.753269,0,0,-2.753677,197.97102,150.220624)"/>
</g>
</svg>
