<?xml version="1.0" encoding="UTF-8"?>
<svg xmlns="http://www.w3.org/2000/svg" xmlns:xlink="http://www.w3.org/1999/xlink" width="463px" height="300px" viewBox="0 0 463 300" version="1.1">
<defs>
<clipPath id="clip1">
  <path d="M 65.035156 1.796875 L 398 1.796875 L 398 293.878906 L 65.035156 293.878906 Z M 65.035156 1.796875 "/>
</clipPath>
</defs>
<g id="surface1">
<path style=" stroke:none;fill-rule:nonzero;fill:rgb(0%,0%,0%);fill-opacity:1;" d="M 130.292969 44.007812 C 130.292969 31.429688 122.796875 27.492188 116.953125 27.492188 C 106.03125 27.492188 95.488281 38.925781 95.488281 50.230469 C 95.488281 57.597656 100.1875 63.695312 108.316406 63.695312 C 113.398438 63.695312 119.113281 61.792969 125.210938 56.964844 C 126.226562 61.15625 128.894531 63.695312 132.449219 63.695312 C 136.644531 63.695312 139.183594 59.25 139.183594 57.980469 C 139.183594 57.472656 138.675781 57.21875 138.167969 57.21875 C 137.660156 57.21875 137.40625 57.472656 137.152344 57.980469 C 135.753906 61.917969 132.832031 61.917969 132.703125 61.917969 C 130.292969 61.917969 130.292969 55.695312 130.292969 53.789062 C 130.292969 52.136719 130.292969 52.011719 131.054688 50.992188 C 138.546875 41.59375 140.199219 32.320312 140.199219 32.191406 C 140.199219 32.066406 140.070312 31.429688 139.308594 31.429688 C 138.421875 31.429688 138.421875 31.683594 138.039062 33.082031 C 136.644531 38.164062 133.976562 44.261719 130.292969 48.960938 Z M 124.828125 54.933594 C 117.84375 61.03125 111.746094 61.917969 108.570312 61.917969 C 103.742188 61.917969 101.332031 58.363281 101.332031 53.28125 C 101.332031 49.34375 103.488281 40.703125 106.03125 36.640625 C 109.714844 30.796875 114.03125 29.269531 116.828125 29.269531 C 124.703125 29.269531 124.703125 39.816406 124.703125 45.914062 C 124.703125 48.960938 124.703125 53.535156 124.828125 54.933594 Z M 124.828125 54.933594 "/>
<path style=" stroke:none;fill-rule:nonzero;fill:rgb(0%,0%,0%);fill-opacity:1;" d="M 214.914062 11.742188 C 214.914062 9.835938 214.914062 9.707031 213.011719 9.707031 C 208.054688 14.789062 201.070312 14.789062 198.53125 14.789062 L 198.53125 17.203125 C 200.054688 17.203125 204.878906 17.203125 208.945312 15.171875 L 208.945312 56.457031 C 208.945312 59.378906 208.691406 60.394531 201.578125 60.394531 L 199.039062 60.394531 L 199.039062 62.808594 C 201.832031 62.554688 208.691406 62.554688 211.867188 62.554688 C 215.167969 62.554688 222.027344 62.554688 224.824219 62.808594 L 224.824219 60.394531 L 222.28125 60.394531 C 215.167969 60.394531 214.914062 59.503906 214.914062 56.457031 Z M 214.914062 11.742188 "/>
<path style=" stroke:none;fill-rule:nonzero;fill:rgb(0%,0%,0%);fill-opacity:1;" d="M 348.320312 150.964844 C 348.320312 149.058594 348.320312 148.933594 346.414062 148.933594 C 341.460938 154.011719 334.472656 154.011719 331.933594 154.011719 L 331.933594 156.425781 C 333.457031 156.425781 338.285156 156.425781 342.347656 154.394531 L 342.347656 195.679688 C 342.347656 198.601562 342.09375 199.617188 334.980469 199.617188 L 332.441406 199.617188 L 332.441406 202.03125 C 335.234375 201.777344 342.09375 201.777344 345.269531 201.777344 C 348.574219 201.777344 355.433594 201.777344 358.226562 202.03125 L 358.226562 199.617188 L 355.6875 199.617188 C 348.574219 199.617188 348.320312 198.730469 348.320312 195.679688 Z M 348.320312 150.964844 "/>
<path style=" stroke:none;fill-rule:nonzero;fill:rgb(0%,0%,0%);fill-opacity:1;" d="M 357.207031 265.480469 C 357.207031 252.902344 349.710938 248.964844 343.871094 248.964844 C 332.945312 248.964844 322.402344 260.398438 322.402344 271.703125 C 322.402344 279.074219 327.101562 285.171875 335.230469 285.171875 C 340.3125 285.171875 346.027344 283.265625 352.125 278.4375 C 353.140625 282.628906 355.808594 285.171875 359.367188 285.171875 C 363.558594 285.171875 366.097656 280.722656 366.097656 279.453125 C 366.097656 278.945312 365.589844 278.691406 365.082031 278.691406 C 364.574219 278.691406 364.320312 278.945312 364.066406 279.453125 C 362.667969 283.390625 359.746094 283.390625 359.621094 283.390625 C 357.207031 283.390625 357.207031 277.167969 357.207031 275.261719 C 357.207031 273.609375 357.207031 273.484375 357.96875 272.46875 C 365.464844 263.066406 367.113281 253.792969 367.113281 253.664062 C 367.113281 253.539062 366.988281 252.902344 366.226562 252.902344 C 365.335938 252.902344 365.335938 253.15625 364.957031 254.554688 C 363.558594 259.636719 360.890625 265.734375 357.207031 270.433594 Z M 351.746094 276.40625 C 344.757812 282.503906 338.660156 283.390625 335.484375 283.390625 C 330.660156 283.390625 328.246094 279.835938 328.246094 274.753906 C 328.246094 270.816406 330.40625 262.175781 332.945312 258.113281 C 336.628906 252.269531 340.949219 250.746094 343.742188 250.746094 C 351.617188 250.746094 351.617188 261.289062 351.617188 267.386719 C 351.617188 270.433594 351.617188 275.007812 351.746094 276.40625 Z M 351.746094 276.40625 "/>
<path style=" stroke:none;fill-rule:nonzero;fill:rgb(0%,0%,0%);fill-opacity:1;" d="M 33.058594 148.625 C 34.835938 148.625 35.214844 148.625 35.214844 147.480469 C 35.46875 91.585938 41.949219 45.09375 69.765625 6.09375 C 70.402344 5.332031 70.402344 5.203125 70.402344 5.078125 C 70.402344 4.316406 69.765625 4.316406 68.496094 4.316406 C 67.226562 4.316406 67.097656 4.316406 66.972656 4.441406 C 66.589844 4.695312 56.554688 16.253906 48.425781 32.390625 C 37.882812 53.347656 31.277344 77.613281 28.355469 106.578125 C 28.101562 109.117188 26.453125 125.632812 26.453125 144.558594 L 26.453125 147.734375 C 26.453125 148.625 26.960938 148.625 28.609375 148.625 Z M 33.058594 148.625 "/>
<path style=" stroke:none;fill-rule:nonzero;fill:rgb(0%,0%,0%);fill-opacity:1;" d="M 28.609375 147.085938 C 26.960938 147.085938 26.453125 147.085938 26.453125 147.976562 L 26.453125 151.027344 C 26.453125 199.804688 35.089844 228.390625 37.628906 236.390625 C 42.964844 254.050781 51.855469 272.722656 65.191406 289.238281 C 66.335938 290.636719 66.71875 291.015625 66.972656 291.144531 C 67.226562 291.269531 67.226562 291.398438 68.496094 291.398438 C 69.765625 291.398438 70.402344 291.398438 70.402344 290.507812 C 70.402344 290.382812 70.402344 290.253906 69.894531 289.492188 C 43.34375 252.652344 35.34375 208.316406 35.214844 148.105469 C 35.214844 147.085938 34.835938 147.085938 33.058594 147.085938 Z M 28.609375 147.085938 "/>
<path style=" stroke:none;fill-rule:nonzero;fill:rgb(0%,0%,0%);fill-opacity:1;" d="M 436.089844 144.558594 C 436.089844 95.777344 427.453125 67.324219 424.910156 59.191406 C 419.574219 41.535156 410.683594 22.863281 397.347656 6.347656 C 396.078125 4.949219 395.824219 4.570312 395.441406 4.441406 C 395.316406 4.316406 395.316406 4.316406 394.042969 4.316406 C 392.773438 4.316406 392.140625 4.316406 392.140625 5.078125 C 392.140625 5.203125 392.140625 5.332031 393.15625 6.855469 C 420.972656 45.601562 427.199219 93.492188 427.199219 147.480469 C 427.199219 148.625 427.707031 148.625 429.484375 148.625 L 433.929688 148.625 C 435.582031 148.625 435.960938 148.625 436.089844 147.734375 Z M 436.089844 144.558594 "/>
<path style=" stroke:none;fill-rule:nonzero;fill:rgb(0%,0%,0%);fill-opacity:1;" d="M 436.089844 147.976562 C 435.960938 147.085938 435.582031 147.085938 433.929688 147.085938 L 429.484375 147.085938 C 427.707031 147.085938 427.199219 147.085938 427.199219 148.105469 C 427.199219 156.359375 427.199219 175.414062 425.039062 195.234375 C 420.847656 236.519531 410.175781 264.972656 392.648438 289.492188 C 392.140625 290.253906 392.140625 290.382812 392.140625 290.507812 C 392.140625 291.398438 392.773438 291.398438 394.042969 291.398438 C 395.316406 291.398438 395.441406 291.398438 395.570312 291.144531 C 395.949219 291.015625 405.984375 279.328125 414.113281 263.324219 C 424.65625 242.234375 431.261719 218.097656 434.183594 189.007812 C 434.4375 186.46875 436.089844 169.953125 436.089844 151.027344 Z M 436.089844 147.976562 "/>
<g clip-path="url(#clip1)" clip-rule="nonzero">
<path style="fill:none;stroke-width:0.79701;stroke-linecap:butt;stroke-linejoin:miter;stroke:rgb(0%,0%,0%);stroke-opacity:1;stroke-dasharray:0.79701,1.99255;stroke-miterlimit:10;" d="M -9.463832 8.171458 L 9.465455 -10.302088 " transform="matrix(8.010281,0,0,-8.011033,231.315763,147.829005)"/>
</g>
<path style="fill:none;stroke-width:0.79701;stroke-linecap:butt;stroke-linejoin:miter;stroke:rgb(0%,0%,0%);stroke-opacity:1;stroke-dasharray:0.79701,1.99255;stroke-miterlimit:10;" d="M 2.429088 8.690761 L 9.243572 1.575086 " transform="matrix(8.010281,0,0,-8.011033,231.315763,147.829005)"/>
</g>
</svg>
