<?xml version="1.0" encoding="UTF-8"?>
<svg xmlns="http://www.w3.org/2000/svg" xmlns:xlink="http://www.w3.org/1999/xlink" width="434pt" height="300pt" viewBox="0 0 434 300" version="1.1">
<g id="surface1">
<path style=" stroke:none;fill-rule:nonzero;fill:rgb(0%,0%,0%);fill-opacity:1;" d="M 70.28125 44.234375 C 70.542969 42.832031 70.71875 42.308594 71.769531 42.132812 C 72.292969 42.132812 74.039062 42.132812 75.175781 42.132812 C 79.109375 42.132812 85.226562 42.132812 85.226562 47.554688 C 85.226562 49.480469 84.351562 53.242188 82.167969 55.425781 C 80.769531 56.828125 77.796875 58.574219 72.816406 58.574219 L 66.699219 58.574219 Z M 78.148438 59.273438 C 83.738281 58.136719 90.292969 54.203125 90.292969 48.691406 C 90.292969 43.882812 85.398438 40.386719 78.148438 40.386719 L 62.417969 40.386719 C 61.28125 40.386719 60.84375 40.386719 60.84375 41.523438 C 60.84375 42.132812 61.28125 42.132812 62.328125 42.132812 C 62.503906 42.132812 63.554688 42.132812 64.425781 42.222656 C 65.476562 42.308594 65.914062 42.398438 65.914062 43.097656 C 65.914062 43.269531 65.914062 43.445312 65.738281 44.144531 L 58.308594 73.792969 C 57.785156 75.890625 57.699219 76.328125 53.328125 76.328125 C 52.367188 76.328125 51.84375 76.328125 51.84375 77.464844 C 51.84375 78.078125 52.453125 78.078125 52.628906 78.078125 C 54.117188 78.078125 58.046875 77.902344 59.535156 77.902344 C 61.105469 77.902344 65.039062 78.078125 66.523438 78.078125 C 66.960938 78.078125 67.660156 78.078125 67.660156 76.941406 C 67.660156 76.328125 67.136719 76.328125 66.085938 76.328125 C 64.078125 76.328125 62.503906 76.328125 62.503906 75.367188 C 62.503906 75.015625 62.679688 74.753906 62.679688 74.40625 L 66.347656 59.800781 L 72.902344 59.800781 C 77.882812 59.800781 78.933594 62.859375 78.933594 64.871094 C 78.933594 65.660156 78.496094 67.410156 78.148438 68.632812 C 77.710938 70.207031 77.273438 72.21875 77.273438 73.355469 C 77.273438 79.300781 83.828125 79.300781 84.613281 79.300781 C 89.246094 79.300781 91.167969 73.703125 91.167969 72.917969 C 91.167969 72.304688 90.554688 72.304688 90.554688 72.304688 C 90.03125 72.304688 89.945312 72.65625 89.855469 73.09375 C 88.457031 77.117188 86.097656 78.078125 84.789062 78.078125 C 82.953125 78.078125 82.605469 76.851562 82.605469 74.753906 C 82.605469 73.003906 82.953125 70.207031 83.128906 68.457031 C 83.300781 67.671875 83.390625 66.621094 83.390625 65.835938 C 83.390625 61.550781 79.71875 59.886719 78.148438 59.273438 Z M 78.148438 59.273438 "/>
<path style=" stroke:none;fill-rule:nonzero;fill:rgb(0%,0%,0%);fill-opacity:1;" d="M 96.570312 55.609375 C 96.394531 56.136719 96.21875 57.097656 96.21875 57.183594 C 96.21875 58.058594 96.832031 58.410156 97.53125 58.410156 C 98.140625 58.410156 98.839844 57.972656 99.015625 57.621094 C 99.191406 57.273438 99.539062 56.046875 99.714844 55.175781 C 99.890625 54.472656 100.328125 52.726562 100.503906 51.761719 C 100.765625 50.886719 101.027344 50.015625 101.199219 49.140625 C 101.636719 47.566406 101.726562 47.214844 102.863281 45.640625 C 103.910156 44.066406 105.746094 42.054688 108.628906 42.054688 C 110.8125 42.054688 110.902344 44.066406 110.902344 44.765625 C 110.902344 47.128906 109.242188 51.414062 108.628906 53.074219 C 108.191406 54.125 108.015625 54.472656 108.015625 55.085938 C 108.015625 57.183594 109.765625 58.410156 111.6875 58.410156 C 115.53125 58.410156 117.28125 53.074219 117.28125 52.550781 C 117.28125 52.027344 116.757812 52.027344 116.667969 52.027344 C 116.144531 52.027344 116.058594 52.289062 115.882812 52.726562 C 115.007812 55.785156 113.347656 57.359375 111.863281 57.359375 C 110.988281 57.359375 110.8125 56.835938 110.8125 56.046875 C 110.8125 55.085938 111.074219 54.648438 111.773438 52.898438 C 112.210938 51.675781 113.785156 47.566406 113.785156 45.378906 C 113.785156 41.707031 110.8125 41.007812 108.804688 41.007812 C 105.570312 41.007812 103.386719 43.019531 102.25 44.503906 C 101.988281 41.882812 99.714844 41.007812 98.140625 41.007812 C 96.480469 41.007812 95.519531 42.230469 95.082031 43.105469 C 94.210938 44.503906 93.6875 46.691406 93.6875 46.953125 C 93.6875 47.390625 94.210938 47.390625 94.296875 47.390625 C 94.820312 47.390625 94.910156 47.304688 95.171875 46.253906 C 95.78125 43.980469 96.480469 42.054688 97.96875 42.054688 C 99.015625 42.054688 99.277344 42.929688 99.277344 43.980469 C 99.277344 44.765625 98.929688 46.167969 98.667969 47.214844 C 98.40625 48.265625 97.96875 49.839844 97.792969 50.714844 Z M 96.570312 55.609375 "/>
<path style=" stroke:none;fill-rule:nonzero;fill:rgb(0%,0%,0%);fill-opacity:1;" d="M 322.34375 44.234375 C 322.605469 42.832031 322.78125 42.308594 323.828125 42.132812 C 324.351562 42.132812 326.101562 42.132812 327.238281 42.132812 C 331.167969 42.132812 337.285156 42.132812 337.285156 47.554688 C 337.285156 49.480469 336.414062 53.242188 334.226562 55.425781 C 332.828125 56.828125 329.859375 58.574219 324.878906 58.574219 L 318.761719 58.574219 Z M 330.207031 59.273438 C 335.800781 58.136719 342.355469 54.203125 342.355469 48.691406 C 342.355469 43.882812 337.460938 40.386719 330.207031 40.386719 L 314.476562 40.386719 C 313.34375 40.386719 312.90625 40.386719 312.90625 41.523438 C 312.90625 42.132812 313.34375 42.132812 314.390625 42.132812 C 314.566406 42.132812 315.613281 42.132812 316.488281 42.222656 C 317.535156 42.308594 317.972656 42.398438 317.972656 43.097656 C 317.972656 43.269531 317.972656 43.445312 317.796875 44.144531 L 310.371094 73.792969 C 309.847656 75.890625 309.757812 76.328125 305.390625 76.328125 C 304.429688 76.328125 303.902344 76.328125 303.902344 77.464844 C 303.902344 78.078125 304.515625 78.078125 304.691406 78.078125 C 306.175781 78.078125 310.109375 77.902344 311.59375 77.902344 C 313.167969 77.902344 317.097656 78.078125 318.585938 78.078125 C 319.023438 78.078125 319.722656 78.078125 319.722656 76.941406 C 319.722656 76.328125 319.195312 76.328125 318.148438 76.328125 C 316.136719 76.328125 314.566406 76.328125 314.566406 75.367188 C 314.566406 75.015625 314.738281 74.753906 314.738281 74.40625 L 318.410156 59.800781 L 324.964844 59.800781 C 329.945312 59.800781 330.992188 62.859375 330.992188 64.871094 C 330.992188 65.660156 330.558594 67.410156 330.207031 68.632812 C 329.769531 70.207031 329.332031 72.21875 329.332031 73.355469 C 329.332031 79.300781 335.886719 79.300781 336.675781 79.300781 C 341.304688 79.300781 343.226562 73.703125 343.226562 72.917969 C 343.226562 72.304688 342.617188 72.304688 342.617188 72.304688 C 342.09375 72.304688 342.003906 72.65625 341.917969 73.09375 C 340.519531 77.117188 338.160156 78.078125 336.847656 78.078125 C 335.015625 78.078125 334.664062 76.851562 334.664062 74.753906 C 334.664062 73.003906 335.015625 70.207031 335.1875 68.457031 C 335.363281 67.671875 335.449219 66.621094 335.449219 65.835938 C 335.449219 61.550781 331.78125 59.886719 330.207031 59.273438 Z M 330.207031 59.273438 "/>
<path style=" stroke:none;fill-rule:nonzero;fill:rgb(0%,0%,0%);fill-opacity:1;" d="M 360.691406 54.910156 C 360.515625 55.699219 360.164062 57.011719 360.164062 57.183594 C 360.164062 58.058594 360.863281 58.410156 361.476562 58.410156 C 362.175781 58.410156 362.785156 57.972656 362.960938 57.621094 C 363.136719 57.273438 363.484375 56.046875 363.660156 55.175781 C 363.835938 54.472656 364.273438 52.726562 364.535156 51.761719 C 364.710938 50.886719 364.972656 50.015625 365.148438 49.140625 C 365.582031 47.476562 365.582031 47.390625 366.371094 46.167969 C 367.59375 44.328125 369.515625 42.054688 372.574219 42.054688 C 374.671875 42.054688 374.847656 43.890625 374.847656 44.765625 C 374.847656 47.128906 373.1875 51.414062 372.574219 53.074219 C 372.136719 54.125 371.960938 54.472656 371.960938 55.085938 C 371.960938 57.183594 373.625 58.410156 375.632812 58.410156 C 379.476562 58.410156 381.226562 53.074219 381.226562 52.550781 C 381.226562 52.027344 380.703125 52.027344 380.527344 52.027344 C 380.003906 52.027344 380.003906 52.289062 379.828125 52.726562 C 378.953125 55.785156 377.292969 57.359375 375.71875 57.359375 C 374.933594 57.359375 374.757812 56.835938 374.757812 56.046875 C 374.757812 55.085938 374.933594 54.648438 375.632812 52.898438 C 376.15625 51.675781 377.730469 47.566406 377.730469 45.378906 C 377.730469 44.765625 377.730469 43.191406 376.246094 42.054688 C 375.632812 41.53125 374.496094 41.007812 372.660156 41.007812 C 369.253906 41.007812 367.070312 43.28125 365.84375 44.941406 C 365.582031 41.617188 362.785156 41.007812 360.863281 41.007812 C 357.632812 41.007812 355.445312 43.019531 354.308594 44.503906 C 354.046875 41.882812 351.777344 41.007812 350.203125 41.007812 C 348.542969 41.007812 347.582031 42.230469 347.144531 43.105469 C 346.269531 44.503906 345.746094 46.691406 345.746094 46.953125 C 345.746094 47.390625 346.269531 47.390625 346.359375 47.390625 C 346.882812 47.390625 346.96875 47.304688 347.230469 46.253906 C 347.84375 43.980469 348.542969 42.054688 350.027344 42.054688 C 351.078125 42.054688 351.339844 42.929688 351.339844 43.980469 C 351.339844 44.765625 350.988281 46.167969 350.726562 47.214844 C 350.464844 48.265625 350.027344 49.839844 349.855469 50.714844 L 348.628906 55.609375 C 348.457031 56.136719 348.28125 57.097656 348.28125 57.183594 C 348.28125 58.058594 348.890625 58.410156 349.589844 58.410156 C 350.203125 58.410156 350.902344 57.972656 351.078125 57.621094 C 351.253906 57.273438 351.601562 56.046875 351.777344 55.175781 C 351.949219 54.472656 352.386719 52.726562 352.5625 51.761719 C 352.824219 50.886719 353.085938 50.015625 353.261719 49.140625 C 353.699219 47.566406 353.785156 47.214844 354.921875 45.640625 C 355.972656 44.066406 357.804688 42.054688 360.691406 42.054688 C 362.875 42.054688 362.960938 44.066406 362.960938 44.765625 C 362.960938 45.730469 362.875 46.253906 362.261719 48.441406 Z M 360.691406 54.910156 "/>
<path style=" stroke:none;fill-rule:nonzero;fill:rgb(0%,0%,0%);fill-opacity:1;" d="M 70.28125 221.613281 C 70.542969 220.214844 70.71875 219.6875 71.769531 219.515625 C 72.292969 219.515625 74.039062 219.515625 75.175781 219.515625 C 79.109375 219.515625 85.226562 219.515625 85.226562 224.9375 C 85.226562 226.859375 84.351562 230.621094 82.167969 232.808594 C 80.769531 234.207031 77.796875 235.957031 72.816406 235.957031 L 66.699219 235.957031 Z M 78.148438 236.65625 C 83.738281 235.519531 90.292969 231.582031 90.292969 226.074219 C 90.292969 221.261719 85.398438 217.765625 78.148438 217.765625 L 62.417969 217.765625 C 61.28125 217.765625 60.84375 217.765625 60.84375 218.902344 C 60.84375 219.515625 61.28125 219.515625 62.328125 219.515625 C 62.503906 219.515625 63.554688 219.515625 64.425781 219.601562 C 65.476562 219.6875 65.914062 219.777344 65.914062 220.476562 C 65.914062 220.652344 65.914062 220.824219 65.738281 221.527344 L 58.308594 251.171875 C 57.785156 253.269531 57.699219 253.707031 53.328125 253.707031 C 52.367188 253.707031 51.84375 253.707031 51.84375 254.84375 C 51.84375 255.457031 52.453125 255.457031 52.628906 255.457031 C 54.117188 255.457031 58.046875 255.28125 59.535156 255.28125 C 61.105469 255.28125 65.039062 255.457031 66.523438 255.457031 C 66.960938 255.457031 67.660156 255.457031 67.660156 254.320312 C 67.660156 253.707031 67.136719 253.707031 66.085938 253.707031 C 64.078125 253.707031 62.503906 253.707031 62.503906 252.746094 C 62.503906 252.398438 62.679688 252.132812 62.679688 251.785156 L 66.347656 237.179688 L 72.902344 237.179688 C 77.882812 237.179688 78.933594 240.242188 78.933594 242.253906 C 78.933594 243.039062 78.496094 244.789062 78.148438 246.011719 C 77.710938 247.585938 77.273438 249.597656 77.273438 250.734375 C 77.273438 256.683594 83.828125 256.683594 84.613281 256.683594 C 89.246094 256.683594 91.167969 251.085938 91.167969 250.296875 C 91.167969 249.6875 90.554688 249.6875 90.554688 249.6875 C 90.03125 249.6875 89.945312 250.035156 89.855469 250.472656 C 88.457031 254.496094 86.097656 255.457031 84.789062 255.457031 C 82.953125 255.457031 82.605469 254.234375 82.605469 252.132812 C 82.605469 250.386719 82.953125 247.585938 83.128906 245.835938 C 83.300781 245.050781 83.390625 244 83.390625 243.214844 C 83.390625 238.929688 79.71875 237.265625 78.148438 236.65625 Z M 78.148438 236.65625 "/>
<path style=" stroke:none;fill-rule:nonzero;fill:rgb(0%,0%,0%);fill-opacity:1;" d="M 96.570312 232.992188 C 96.394531 233.515625 96.21875 234.476562 96.21875 234.566406 C 96.21875 235.441406 96.832031 235.789062 97.53125 235.789062 C 98.140625 235.789062 98.839844 235.351562 99.015625 235.003906 C 99.191406 234.652344 99.539062 233.429688 99.714844 232.554688 C 99.890625 231.855469 100.328125 230.105469 100.503906 229.144531 C 100.765625 228.269531 101.027344 227.394531 101.199219 226.519531 C 101.636719 224.945312 101.726562 224.59375 102.863281 223.023438 C 103.910156 221.449219 105.746094 219.4375 108.628906 219.4375 C 110.8125 219.4375 110.902344 221.449219 110.902344 222.148438 C 110.902344 224.507812 109.242188 228.792969 108.628906 230.453125 C 108.191406 231.503906 108.015625 231.855469 108.015625 232.464844 C 108.015625 234.566406 109.765625 235.789062 111.6875 235.789062 C 115.53125 235.789062 117.28125 230.453125 117.28125 229.929688 C 117.28125 229.40625 116.757812 229.40625 116.667969 229.40625 C 116.144531 229.40625 116.058594 229.667969 115.882812 230.105469 C 115.007812 233.167969 113.347656 234.742188 111.863281 234.742188 C 110.988281 234.742188 110.8125 234.214844 110.8125 233.429688 C 110.8125 232.464844 111.074219 232.027344 111.773438 230.28125 C 112.210938 229.054688 113.785156 224.945312 113.785156 222.757812 C 113.785156 219.085938 110.8125 218.386719 108.804688 218.386719 C 105.570312 218.386719 103.386719 220.398438 102.25 221.882812 C 101.988281 219.261719 99.714844 218.386719 98.140625 218.386719 C 96.480469 218.386719 95.519531 219.609375 95.082031 220.484375 C 94.210938 221.882812 93.6875 224.070312 93.6875 224.332031 C 93.6875 224.769531 94.210938 224.769531 94.296875 224.769531 C 94.820312 224.769531 94.910156 224.683594 95.171875 223.632812 C 95.78125 221.359375 96.480469 219.4375 97.96875 219.4375 C 99.015625 219.4375 99.277344 220.308594 99.277344 221.359375 C 99.277344 222.148438 98.929688 223.546875 98.667969 224.59375 C 98.40625 225.644531 97.96875 227.21875 97.792969 228.09375 Z M 96.570312 232.992188 "/>
<path style=" stroke:none;fill-rule:nonzero;fill:rgb(0%,0%,0%);fill-opacity:1;" d="M 322.34375 221.613281 C 322.605469 220.214844 322.78125 219.6875 323.828125 219.515625 C 324.351562 219.515625 326.101562 219.515625 327.238281 219.515625 C 331.167969 219.515625 337.285156 219.515625 337.285156 224.9375 C 337.285156 226.859375 336.414062 230.621094 334.226562 232.808594 C 332.828125 234.207031 329.859375 235.957031 324.878906 235.957031 L 318.761719 235.957031 Z M 330.207031 236.65625 C 335.800781 235.519531 342.355469 231.582031 342.355469 226.074219 C 342.355469 221.261719 337.460938 217.765625 330.207031 217.765625 L 314.476562 217.765625 C 313.34375 217.765625 312.90625 217.765625 312.90625 218.902344 C 312.90625 219.515625 313.34375 219.515625 314.390625 219.515625 C 314.566406 219.515625 315.613281 219.515625 316.488281 219.601562 C 317.535156 219.6875 317.972656 219.777344 317.972656 220.476562 C 317.972656 220.652344 317.972656 220.824219 317.796875 221.527344 L 310.371094 251.171875 C 309.847656 253.269531 309.757812 253.707031 305.390625 253.707031 C 304.429688 253.707031 303.902344 253.707031 303.902344 254.84375 C 303.902344 255.457031 304.515625 255.457031 304.691406 255.457031 C 306.175781 255.457031 310.109375 255.28125 311.59375 255.28125 C 313.167969 255.28125 317.097656 255.457031 318.585938 255.457031 C 319.023438 255.457031 319.722656 255.457031 319.722656 254.320312 C 319.722656 253.707031 319.195312 253.707031 318.148438 253.707031 C 316.136719 253.707031 314.566406 253.707031 314.566406 252.746094 C 314.566406 252.398438 314.738281 252.132812 314.738281 251.785156 L 318.410156 237.179688 L 324.964844 237.179688 C 329.945312 237.179688 330.992188 240.242188 330.992188 242.253906 C 330.992188 243.039062 330.558594 244.789062 330.207031 246.011719 C 329.769531 247.585938 329.332031 249.597656 329.332031 250.734375 C 329.332031 256.683594 335.886719 256.683594 336.675781 256.683594 C 341.304688 256.683594 343.226562 251.085938 343.226562 250.296875 C 343.226562 249.6875 342.617188 249.6875 342.617188 249.6875 C 342.09375 249.6875 342.003906 250.035156 341.917969 250.472656 C 340.519531 254.496094 338.160156 255.457031 336.847656 255.457031 C 335.015625 255.457031 334.664062 254.234375 334.664062 252.132812 C 334.664062 250.386719 335.015625 247.585938 335.1875 245.835938 C 335.363281 245.050781 335.449219 244 335.449219 243.214844 C 335.449219 238.929688 331.78125 237.265625 330.207031 236.65625 Z M 330.207031 236.65625 "/>
<path style=" stroke:none;fill-rule:nonzero;fill:rgb(0%,0%,0%);fill-opacity:1;" d="M 360.691406 232.292969 C 360.515625 233.078125 360.164062 234.390625 360.164062 234.566406 C 360.164062 235.441406 360.863281 235.789062 361.476562 235.789062 C 362.175781 235.789062 362.785156 235.351562 362.960938 235.003906 C 363.136719 234.652344 363.484375 233.429688 363.660156 232.554688 C 363.835938 231.855469 364.273438 230.105469 364.535156 229.144531 C 364.710938 228.269531 364.972656 227.394531 365.148438 226.519531 C 365.582031 224.859375 365.582031 224.769531 366.371094 223.546875 C 367.59375 221.710938 369.515625 219.4375 372.574219 219.4375 C 374.671875 219.4375 374.847656 221.273438 374.847656 222.148438 C 374.847656 224.507812 373.1875 228.792969 372.574219 230.453125 C 372.136719 231.503906 371.960938 231.855469 371.960938 232.464844 C 371.960938 234.566406 373.625 235.789062 375.632812 235.789062 C 379.476562 235.789062 381.226562 230.453125 381.226562 229.929688 C 381.226562 229.40625 380.703125 229.40625 380.527344 229.40625 C 380.003906 229.40625 380.003906 229.667969 379.828125 230.105469 C 378.953125 233.167969 377.292969 234.742188 375.71875 234.742188 C 374.933594 234.742188 374.757812 234.214844 374.757812 233.429688 C 374.757812 232.464844 374.933594 232.027344 375.632812 230.28125 C 376.15625 229.054688 377.730469 224.945312 377.730469 222.757812 C 377.730469 222.148438 377.730469 220.574219 376.246094 219.4375 C 375.632812 218.910156 374.496094 218.386719 372.660156 218.386719 C 369.253906 218.386719 367.070312 220.660156 365.84375 222.320312 C 365.582031 219 362.785156 218.386719 360.863281 218.386719 C 357.632812 218.386719 355.445312 220.398438 354.308594 221.882812 C 354.046875 219.261719 351.777344 218.386719 350.203125 218.386719 C 348.542969 218.386719 347.582031 219.609375 347.144531 220.484375 C 346.269531 221.882812 345.746094 224.070312 345.746094 224.332031 C 345.746094 224.769531 346.269531 224.769531 346.359375 224.769531 C 346.882812 224.769531 346.96875 224.683594 347.230469 223.632812 C 347.84375 221.359375 348.542969 219.4375 350.027344 219.4375 C 351.078125 219.4375 351.339844 220.308594 351.339844 221.359375 C 351.339844 222.148438 350.988281 223.546875 350.726562 224.59375 C 350.464844 225.644531 350.027344 227.21875 349.855469 228.09375 L 348.628906 232.992188 C 348.457031 233.515625 348.28125 234.476562 348.28125 234.566406 C 348.28125 235.441406 348.890625 235.789062 349.589844 235.789062 C 350.203125 235.789062 350.902344 235.351562 351.078125 235.003906 C 351.253906 234.652344 351.601562 233.429688 351.777344 232.554688 C 351.949219 231.855469 352.386719 230.105469 352.5625 229.144531 C 352.824219 228.269531 353.085938 227.394531 353.261719 226.519531 C 353.699219 224.945312 353.785156 224.59375 354.921875 223.023438 C 355.972656 221.449219 357.804688 219.4375 360.691406 219.4375 C 362.875 219.4375 362.960938 221.449219 362.960938 222.148438 C 362.960938 223.109375 362.875 223.632812 362.261719 225.820312 Z M 360.691406 232.292969 "/>
<path style="fill:none;stroke-width:0.39848;stroke-linecap:butt;stroke-linejoin:miter;stroke:rgb(0%,0%,0%);stroke-opacity:1;stroke-miterlimit:10;" d="M -12.826716 32.034175 L 10.286473 32.034175 " transform="matrix(5.533232,0,0,-5.537418,217.676313,241.663959)"/>
<path style="fill:none;stroke-width:0.39848;stroke-linecap:round;stroke-linejoin:round;stroke:rgb(0%,0%,0%);stroke-opacity:1;stroke-miterlimit:10;" d="M -2.073686 2.389659 C -1.694584 0.956229 -0.849548 0.277608 -0.000981718 0.00107975 C -0.849548 -0.279681 -1.694584 -0.954775 -2.073686 -2.391732 " transform="matrix(5.533232,0,0,-5.537418,275.689026,64.283323)"/>
<path style=" stroke:none;fill-rule:nonzero;fill:rgb(0%,0%,0%);fill-opacity:1;" d="M 214.566406 28.496094 L 218.324219 28.496094 C 219.109375 28.496094 219.632812 28.496094 219.632812 27.710938 C 219.632812 27.097656 219.109375 27.097656 218.410156 27.097656 L 214.828125 27.097656 C 215.703125 22.199219 216.050781 20.449219 216.3125 19.3125 C 216.488281 18.441406 217.363281 17.652344 218.324219 17.652344 C 218.324219 17.652344 219.371094 17.652344 220.15625 18.175781 C 218.496094 18.613281 218.410156 20.011719 218.410156 20.277344 C 218.410156 21.152344 219.109375 21.675781 219.984375 21.675781 C 221.03125 21.675781 222.167969 20.800781 222.167969 19.3125 C 222.167969 17.566406 220.246094 16.601562 218.324219 16.601562 C 216.574219 16.601562 214.738281 17.566406 213.691406 19.488281 C 212.90625 20.886719 212.554688 22.636719 211.769531 27.097656 L 208.710938 27.097656 C 207.925781 27.097656 207.488281 27.097656 207.488281 27.972656 C 207.488281 28.496094 207.925781 28.496094 208.621094 28.496094 L 211.507812 28.496094 C 211.507812 28.757812 209.058594 42.664062 208.097656 46.773438 C 207.925781 47.648438 207.226562 50.621094 205.390625 50.621094 C 205.390625 50.621094 204.429688 50.621094 203.730469 50.097656 C 205.300781 49.660156 205.390625 48.261719 205.390625 48 C 205.390625 47.125 204.777344 46.597656 203.816406 46.597656 C 202.855469 46.597656 201.632812 47.472656 201.632812 48.960938 C 201.632812 50.710938 203.46875 51.671875 205.390625 51.671875 C 207.835938 51.671875 209.585938 49.136719 210.019531 48.261719 C 211.417969 45.726562 212.292969 40.914062 212.378906 40.476562 Z M 214.566406 28.496094 "/>
<path style="fill:none;stroke-width:0.39848;stroke-linecap:butt;stroke-linejoin:miter;stroke:rgb(0%,0%,0%);stroke-opacity:1;stroke-miterlimit:10;" d="M -23.851015 25.697315 L -23.851015 8.561762 " transform="matrix(5.533232,0,0,-5.537418,217.676313,241.663959)"/>
<path style="fill:none;stroke-width:0.39848;stroke-linecap:round;stroke-linejoin:round;stroke:rgb(0%,0%,0%);stroke-opacity:1;stroke-miterlimit:10;" d="M -2.071493 2.391712 C -1.691973 0.95861 -0.851103 0.279475 0.00175982 -0.00149822 C -0.851103 -0.277529 -1.691973 -0.956665 -2.071493 -2.389767 " transform="matrix(0,5.537418,5.533232,0,85.711415,195.361349)"/>
<path style=" stroke:none;fill-rule:nonzero;fill:rgb(0%,0%,0%);fill-opacity:1;" d="M 51.945312 149.128906 L 58.933594 149.128906 C 65.402344 149.128906 70.992188 144.933594 70.992188 140.734375 C 70.992188 137.5 67.761719 134.699219 62.515625 134.699219 L 48.972656 134.699219 C 48.1875 134.699219 47.75 134.699219 47.75 135.574219 C 47.75 136.097656 48.1875 136.097656 49.058594 136.097656 C 49.671875 136.097656 49.757812 136.097656 50.457031 136.1875 C 51.246094 136.273438 51.332031 136.363281 51.332031 136.710938 C 51.332031 136.800781 51.332031 136.972656 51.15625 137.585938 L 46.089844 157.960938 C 45.738281 159.449219 45.652344 159.710938 42.679688 159.710938 C 41.980469 159.710938 41.457031 159.710938 41.457031 160.585938 C 41.457031 160.585938 41.457031 161.109375 42.070312 161.109375 C 43.203125 161.109375 46 160.9375 47.136719 160.9375 C 47.75 160.9375 49.148438 160.9375 49.757812 161.023438 C 50.546875 161.023438 51.507812 161.109375 52.292969 161.109375 C 52.46875 161.109375 53.078125 161.109375 53.078125 160.238281 C 53.078125 159.710938 52.644531 159.710938 51.855469 159.710938 C 51.769531 159.710938 51.070312 159.710938 50.371094 159.625 C 49.496094 159.535156 49.496094 159.449219 49.496094 159.101562 C 49.496094 159.011719 49.496094 158.75 49.671875 158.226562 Z M 54.738281 137.410156 C 55.003906 136.1875 55.089844 136.097656 56.664062 136.097656 L 61.207031 136.097656 C 64.789062 136.097656 67.0625 137.148438 67.0625 139.949219 C 67.0625 141.085938 66.539062 144.144531 64.613281 145.894531 C 63.214844 147.117188 61.03125 147.90625 58.234375 147.90625 L 52.03125 147.90625 Z M 54.738281 137.410156 "/>
<path style="fill:none;stroke-width:0.39848;stroke-linecap:butt;stroke-linejoin:miter;stroke:rgb(0%,0%,0%);stroke-opacity:1;stroke-miterlimit:10;" d="M -12.826716 0.00139216 L 10.286473 0.00139216 " transform="matrix(5.533232,0,0,-5.537418,217.676313,241.663959)"/>
<path style="fill:none;stroke-width:0.39848;stroke-linecap:round;stroke-linejoin:round;stroke:rgb(0%,0%,0%);stroke-opacity:1;stroke-miterlimit:10;" d="M -2.073686 2.389972 C -1.694584 0.957247 -0.849548 0.27792 -0.000981718 0.00139216 C -0.849548 -0.278663 -1.694584 -0.95799 -2.073686 -2.39142 " transform="matrix(5.533232,0,0,-5.537418,275.689026,241.663959)"/>
<path style=" stroke:none;fill-rule:nonzero;fill:rgb(0%,0%,0%);fill-opacity:1;" d="M 200.472656 278.0625 C 200.121094 279.375 200.035156 279.636719 197.0625 279.636719 C 196.363281 279.636719 195.839844 279.636719 195.839844 280.511719 C 195.839844 281.035156 196.363281 281.035156 197.0625 281.035156 L 210.78125 281.035156 C 219.433594 281.035156 227.648438 273.164062 227.648438 264.679688 C 227.648438 259.085938 223.714844 254.625 217.425781 254.625 L 203.355469 254.625 C 202.570312 254.625 202.132812 254.625 202.132812 255.5 C 202.132812 256.023438 202.570312 256.023438 203.441406 256.023438 C 204.054688 256.023438 204.140625 256.023438 204.839844 256.109375 C 205.628906 256.199219 205.714844 256.285156 205.714844 256.636719 C 205.714844 256.722656 205.714844 256.898438 205.539062 257.511719 Z M 209.121094 257.335938 C 209.386719 256.109375 209.472656 256.023438 211.046875 256.023438 L 216.027344 256.023438 C 220.308594 256.023438 223.980469 258.210938 223.980469 263.457031 C 223.980469 264.332031 223.542969 271.066406 219.695312 275.4375 C 218.210938 277.1875 214.890625 279.636719 210.085938 279.636719 L 204.839844 279.636719 C 203.703125 279.636719 203.617188 279.636719 203.617188 279.285156 C 203.617188 279.199219 203.617188 279.023438 203.792969 278.410156 Z M 209.121094 257.335938 "/>
<path style="fill:none;stroke-width:0.39848;stroke-linecap:butt;stroke-linejoin:miter;stroke:rgb(0%,0%,0%);stroke-opacity:1;stroke-miterlimit:10;" d="M 22.778467 25.697315 L 22.778467 8.561762 " transform="matrix(5.533232,0,0,-5.537418,217.676313,241.663959)"/>
<path style="fill:none;stroke-width:0.39848;stroke-linecap:round;stroke-linejoin:round;stroke:rgb(0%,0%,0%);stroke-opacity:1;stroke-miterlimit:10;" d="M -2.071493 2.390315 C -1.691973 0.957212 -0.851103 0.278077 0.00175982 0.00133991 C -0.851103 -0.278927 -1.691973 -0.958062 -2.071493 -2.391165 " transform="matrix(0,5.537418,5.533232,0,343.70743,195.361349)"/>
<path style=" stroke:none;fill-rule:nonzero;fill:rgb(0%,0%,0%);fill-opacity:1;" d="M 314.023438 159.71875 C 314.023438 162.167969 314.460938 164.878906 317.695312 164.878906 C 322.324219 164.878906 324.597656 158.230469 324.597656 157.355469 C 324.597656 157.09375 324.335938 156.832031 323.984375 156.832031 C 323.636719 156.832031 323.546875 157.183594 323.460938 157.355469 C 322.585938 159.980469 319.964844 160.765625 318.65625 160.765625 C 317.167969 160.765625 316.296875 160.15625 315.683594 157.007812 C 322.5 154.644531 328.003906 147.738281 328.003906 140.914062 C 328.003906 134.882812 323.636719 130.160156 316.820312 130.160156 C 307.644531 130.160156 298.644531 138.816406 298.644531 147.5625 C 298.644531 153.769531 303.273438 158.144531 309.914062 158.144531 C 310.703125 158.144531 312.011719 158.054688 314.023438 157.621094 Z M 307.292969 156.394531 C 305.285156 155.695312 302.402344 153.683594 302.402344 148.523438 C 302.402344 145.988281 303.273438 140.914062 306.769531 136.542969 C 309.21875 133.570312 312.972656 131.382812 316.558594 131.382812 C 320.75 131.382812 324.335938 134.269531 324.335938 139.867188 C 324.335938 143.714844 322.414062 152.023438 315.332031 155.609375 C 314.722656 153.160156 313.671875 151.496094 311.402344 151.496094 C 309.304688 151.496094 307.121094 153.332031 307.121094 155.34375 C 307.121094 156.046875 307.207031 156.132812 307.292969 156.394531 Z M 314.023438 156.21875 C 313.148438 156.480469 311.664062 156.917969 310.179688 156.917969 C 309.566406 156.917969 308.253906 156.917969 308.253906 155.34375 C 308.253906 153.945312 309.828125 152.632812 311.402344 152.632812 C 312.800781 152.632812 313.847656 153.246094 314.023438 156.21875 Z M 314.023438 156.21875 "/>
</g>
</svg>
