<?xml version="1.0" encoding="UTF-8"?>
<svg xmlns="http://www.w3.org/2000/svg" xmlns:xlink="http://www.w3.org/1999/xlink" width="434px" height="300px" viewBox="0 0 434 300" version="1.1">
<g id="surface1">
<path style=" stroke:none;fill-rule:nonzero;fill:rgb(0%,0%,0%);fill-opacity:1;" d="M 69.992188 45.15625 C 70.253906 43.761719 70.425781 43.242188 71.472656 43.066406 C 71.992188 43.066406 73.734375 43.066406 74.867188 43.066406 C 78.78125 43.066406 84.875 43.066406 84.875 48.464844 C 84.875 50.382812 84.003906 54.128906 81.828125 56.304688 C 80.4375 57.699219 77.476562 59.441406 72.515625 59.441406 L 66.425781 59.441406 Z M 77.824219 60.136719 C 83.394531 59.003906 89.921875 55.085938 89.921875 49.597656 C 89.921875 44.808594 85.046875 41.324219 77.824219 41.324219 L 62.160156 41.324219 C 61.027344 41.324219 60.59375 41.324219 60.59375 42.457031 C 60.59375 43.066406 61.027344 43.066406 62.074219 43.066406 C 62.246094 43.066406 63.292969 43.066406 64.160156 43.152344 C 65.207031 43.242188 65.640625 43.328125 65.640625 44.023438 C 65.640625 44.199219 65.640625 44.371094 65.46875 45.070312 L 58.070312 74.59375 C 57.546875 76.683594 57.460938 77.121094 53.109375 77.121094 C 52.152344 77.121094 51.628906 77.121094 51.628906 78.25 C 51.628906 78.863281 52.238281 78.863281 52.414062 78.863281 C 53.890625 78.863281 57.808594 78.6875 59.289062 78.6875 C 60.855469 78.6875 64.769531 78.863281 66.25 78.863281 C 66.683594 78.863281 67.382812 78.863281 67.382812 77.730469 C 67.382812 77.121094 66.859375 77.121094 65.816406 77.121094 C 63.8125 77.121094 62.246094 77.121094 62.246094 76.160156 C 62.246094 75.8125 62.421875 75.550781 62.421875 75.203125 L 66.078125 60.660156 L 72.601562 60.660156 C 77.5625 60.660156 78.609375 63.707031 78.609375 65.710938 C 78.609375 66.496094 78.171875 68.234375 77.824219 69.457031 C 77.390625 71.023438 76.953125 73.027344 76.953125 74.160156 C 76.953125 80.082031 83.480469 80.082031 84.265625 80.082031 C 88.878906 80.082031 90.792969 74.507812 90.792969 73.722656 C 90.792969 73.113281 90.183594 73.113281 90.183594 73.113281 C 89.660156 73.113281 89.574219 73.460938 89.488281 73.898438 C 88.09375 77.902344 85.746094 78.863281 84.4375 78.863281 C 82.613281 78.863281 82.261719 77.640625 82.261719 75.550781 C 82.261719 73.808594 82.613281 71.023438 82.785156 69.28125 C 82.960938 68.496094 83.046875 67.453125 83.046875 66.667969 C 83.046875 62.402344 79.390625 60.746094 77.824219 60.136719 Z M 77.824219 60.136719 "/>
<path style=" stroke:none;fill-rule:nonzero;fill:rgb(0%,0%,0%);fill-opacity:1;" d="M 96.171875 56.488281 C 95.996094 57.011719 95.824219 57.96875 95.824219 58.054688 C 95.824219 58.925781 96.433594 59.273438 97.128906 59.273438 C 97.738281 59.273438 98.433594 58.839844 98.609375 58.492188 C 98.78125 58.140625 99.128906 56.921875 99.304688 56.050781 C 99.480469 55.355469 99.914062 53.613281 100.089844 52.65625 C 100.347656 51.785156 100.609375 50.914062 100.785156 50.042969 C 101.21875 48.476562 101.304688 48.125 102.4375 46.558594 C 103.480469 44.992188 105.308594 42.988281 108.179688 42.988281 C 110.355469 42.988281 110.445312 44.992188 110.445312 45.6875 C 110.445312 48.039062 108.789062 52.308594 108.179688 53.960938 C 107.746094 55.007812 107.574219 55.355469 107.574219 55.964844 C 107.574219 58.054688 109.3125 59.273438 111.226562 59.273438 C 115.058594 59.273438 116.796875 53.960938 116.796875 53.4375 C 116.796875 52.917969 116.273438 52.917969 116.1875 52.917969 C 115.664062 52.917969 115.578125 53.179688 115.40625 53.613281 C 114.535156 56.660156 112.882812 58.230469 111.402344 58.230469 C 110.53125 58.230469 110.355469 57.707031 110.355469 56.921875 C 110.355469 55.964844 110.617188 55.53125 111.316406 53.789062 C 111.75 52.570312 113.316406 48.476562 113.316406 46.296875 C 113.316406 42.640625 110.355469 41.941406 108.355469 41.941406 C 105.136719 41.941406 102.960938 43.945312 101.828125 45.425781 C 101.566406 42.8125 99.304688 41.941406 97.738281 41.941406 C 96.085938 41.941406 95.128906 43.164062 94.691406 44.035156 C 93.820312 45.425781 93.300781 47.605469 93.300781 47.867188 C 93.300781 48.300781 93.820312 48.300781 93.910156 48.300781 C 94.429688 48.300781 94.519531 48.214844 94.78125 47.167969 C 95.386719 44.90625 96.085938 42.988281 97.5625 42.988281 C 98.609375 42.988281 98.871094 43.859375 98.871094 44.90625 C 98.871094 45.6875 98.519531 47.082031 98.261719 48.125 C 98 49.171875 97.5625 50.738281 97.390625 51.609375 Z M 96.171875 56.488281 "/>
<path style=" stroke:none;fill-rule:nonzero;fill:rgb(0%,0%,0%);fill-opacity:1;" d="M 321.015625 45.15625 C 321.277344 43.761719 321.449219 43.242188 322.496094 43.066406 C 323.015625 43.066406 324.757812 43.066406 325.886719 43.066406 C 329.804688 43.066406 335.898438 43.066406 335.898438 48.464844 C 335.898438 50.382812 335.027344 54.128906 332.851562 56.304688 C 331.457031 57.699219 328.5 59.441406 323.539062 59.441406 L 317.445312 59.441406 Z M 328.847656 60.136719 C 334.417969 59.003906 340.945312 55.085938 340.945312 49.597656 C 340.945312 44.808594 336.070312 41.324219 328.847656 41.324219 L 313.183594 41.324219 C 312.050781 41.324219 311.617188 41.324219 311.617188 42.457031 C 311.617188 43.066406 312.050781 43.066406 313.09375 43.066406 C 313.269531 43.066406 314.3125 43.066406 315.183594 43.152344 C 316.226562 43.242188 316.664062 43.328125 316.664062 44.023438 C 316.664062 44.199219 316.664062 44.371094 316.488281 45.070312 L 309.09375 74.59375 C 308.570312 76.683594 308.484375 77.121094 304.132812 77.121094 C 303.175781 77.121094 302.652344 77.121094 302.652344 78.25 C 302.652344 78.863281 303.261719 78.863281 303.433594 78.863281 C 304.914062 78.863281 308.832031 78.6875 310.3125 78.6875 C 311.878906 78.6875 315.792969 78.863281 317.273438 78.863281 C 317.707031 78.863281 318.402344 78.863281 318.402344 77.730469 C 318.402344 77.121094 317.882812 77.121094 316.835938 77.121094 C 314.835938 77.121094 313.269531 77.121094 313.269531 76.160156 C 313.269531 75.8125 313.445312 75.550781 313.445312 75.203125 L 317.097656 60.660156 L 323.625 60.660156 C 328.585938 60.660156 329.628906 63.707031 329.628906 65.710938 C 329.628906 66.496094 329.195312 68.234375 328.847656 69.457031 C 328.414062 71.023438 327.976562 73.027344 327.976562 74.160156 C 327.976562 80.082031 334.503906 80.082031 335.289062 80.082031 C 339.898438 80.082031 341.8125 74.507812 341.8125 73.722656 C 341.8125 73.113281 341.207031 73.113281 341.207031 73.113281 C 340.683594 73.113281 340.597656 73.460938 340.507812 73.898438 C 339.117188 77.902344 336.765625 78.863281 335.460938 78.863281 C 333.632812 78.863281 333.285156 77.640625 333.285156 75.550781 C 333.285156 73.808594 333.632812 71.023438 333.808594 69.28125 C 333.980469 68.496094 334.070312 67.453125 334.070312 66.667969 C 334.070312 62.402344 330.414062 60.746094 328.847656 60.136719 Z M 328.847656 60.136719 "/>
<path style=" stroke:none;fill-rule:nonzero;fill:rgb(0%,0%,0%);fill-opacity:1;" d="M 359.203125 55.789062 C 359.03125 56.574219 358.683594 57.882812 358.683594 58.054688 C 358.683594 58.925781 359.378906 59.273438 359.988281 59.273438 C 360.683594 59.273438 361.292969 58.839844 361.464844 58.492188 C 361.640625 58.140625 361.988281 56.921875 362.164062 56.050781 C 362.335938 55.355469 362.773438 53.613281 363.03125 52.65625 C 363.207031 51.785156 363.46875 50.914062 363.640625 50.042969 C 364.078125 48.386719 364.078125 48.300781 364.859375 47.082031 C 366.078125 45.253906 367.992188 42.988281 371.039062 42.988281 C 373.128906 42.988281 373.300781 44.816406 373.300781 45.6875 C 373.300781 48.039062 371.648438 52.308594 371.039062 53.960938 C 370.605469 55.007812 370.429688 55.355469 370.429688 55.964844 C 370.429688 58.054688 372.082031 59.273438 374.085938 59.273438 C 377.914062 59.273438 379.65625 53.960938 379.65625 53.4375 C 379.65625 52.917969 379.132812 52.917969 378.960938 52.917969 C 378.4375 52.917969 378.4375 53.179688 378.261719 53.613281 C 377.394531 56.660156 375.738281 58.230469 374.171875 58.230469 C 373.390625 58.230469 373.214844 57.707031 373.214844 56.921875 C 373.214844 55.964844 373.390625 55.53125 374.085938 53.789062 C 374.609375 52.570312 376.175781 48.476562 376.175781 46.296875 C 376.175781 45.6875 376.175781 44.121094 374.695312 42.988281 C 374.085938 42.464844 372.953125 41.941406 371.125 41.941406 C 367.734375 41.941406 365.558594 44.207031 364.339844 45.863281 C 364.078125 42.554688 361.292969 41.941406 359.378906 41.941406 C 356.15625 41.941406 353.980469 43.945312 352.851562 45.425781 C 352.589844 42.8125 350.328125 41.941406 348.761719 41.941406 C 347.105469 41.941406 346.148438 43.164062 345.714844 44.035156 C 344.84375 45.425781 344.324219 47.605469 344.324219 47.867188 C 344.324219 48.300781 344.84375 48.300781 344.929688 48.300781 C 345.453125 48.300781 345.539062 48.214844 345.800781 47.167969 C 346.410156 44.90625 347.105469 42.988281 348.585938 42.988281 C 349.632812 42.988281 349.890625 43.859375 349.890625 44.90625 C 349.890625 45.6875 349.542969 47.082031 349.28125 48.125 C 349.023438 49.171875 348.585938 50.738281 348.414062 51.609375 L 347.195312 56.488281 C 347.019531 57.011719 346.847656 57.96875 346.847656 58.054688 C 346.847656 58.925781 347.457031 59.273438 348.152344 59.273438 C 348.761719 59.273438 349.457031 58.839844 349.632812 58.492188 C 349.804688 58.140625 350.152344 56.921875 350.328125 56.050781 C 350.5 55.355469 350.9375 53.613281 351.109375 52.65625 C 351.371094 51.785156 351.632812 50.914062 351.804688 50.042969 C 352.242188 48.476562 352.328125 48.125 353.460938 46.558594 C 354.503906 44.992188 356.332031 42.988281 359.203125 42.988281 C 361.378906 42.988281 361.464844 44.992188 361.464844 45.6875 C 361.464844 46.644531 361.378906 47.167969 360.769531 49.347656 Z M 359.203125 55.789062 "/>
<path style=" stroke:none;fill-rule:nonzero;fill:rgb(0%,0%,0%);fill-opacity:1;" d="M 69.992188 221.804688 C 70.253906 220.414062 70.425781 219.890625 71.472656 219.714844 C 71.992188 219.714844 73.734375 219.714844 74.867188 219.714844 C 78.78125 219.714844 84.875 219.714844 84.875 225.117188 C 84.875 227.03125 84.003906 230.777344 81.828125 232.953125 C 80.4375 234.347656 77.476562 236.089844 72.515625 236.089844 L 66.425781 236.089844 Z M 77.824219 236.785156 C 83.394531 235.652344 89.921875 231.734375 89.921875 226.246094 C 89.921875 221.457031 85.046875 217.972656 77.824219 217.972656 L 62.160156 217.972656 C 61.027344 217.972656 60.59375 217.972656 60.59375 219.105469 C 60.59375 219.714844 61.027344 219.714844 62.074219 219.714844 C 62.246094 219.714844 63.292969 219.714844 64.160156 219.804688 C 65.207031 219.890625 65.640625 219.976562 65.640625 220.671875 C 65.640625 220.847656 65.640625 221.023438 65.46875 221.71875 L 58.070312 251.242188 C 57.546875 253.332031 57.460938 253.769531 53.109375 253.769531 C 52.152344 253.769531 51.628906 253.769531 51.628906 254.902344 C 51.628906 255.511719 52.238281 255.511719 52.414062 255.511719 C 53.890625 255.511719 57.808594 255.335938 59.289062 255.335938 C 60.855469 255.335938 64.769531 255.511719 66.25 255.511719 C 66.683594 255.511719 67.382812 255.511719 67.382812 254.378906 C 67.382812 253.769531 66.859375 253.769531 65.816406 253.769531 C 63.8125 253.769531 62.246094 253.769531 62.246094 252.8125 C 62.246094 252.460938 62.421875 252.203125 62.421875 251.851562 L 66.078125 237.308594 L 72.601562 237.308594 C 77.5625 237.308594 78.609375 240.355469 78.609375 242.359375 C 78.609375 243.144531 78.171875 244.886719 77.824219 246.105469 C 77.390625 247.671875 76.953125 249.675781 76.953125 250.808594 C 76.953125 256.730469 83.480469 256.730469 84.265625 256.730469 C 88.878906 256.730469 90.792969 251.15625 90.792969 250.371094 C 90.792969 249.761719 90.183594 249.761719 90.183594 249.761719 C 89.660156 249.761719 89.574219 250.109375 89.488281 250.546875 C 88.09375 254.554688 85.746094 255.511719 84.4375 255.511719 C 82.613281 255.511719 82.261719 254.292969 82.261719 252.203125 C 82.261719 250.460938 82.613281 247.671875 82.785156 245.929688 C 82.960938 245.148438 83.046875 244.101562 83.046875 243.316406 C 83.046875 239.050781 79.390625 237.394531 77.824219 236.785156 Z M 77.824219 236.785156 "/>
<path style=" stroke:none;fill-rule:nonzero;fill:rgb(0%,0%,0%);fill-opacity:1;" d="M 96.171875 233.136719 C 95.996094 233.660156 95.824219 234.617188 95.824219 234.703125 C 95.824219 235.574219 96.433594 235.925781 97.128906 235.925781 C 97.738281 235.925781 98.433594 235.488281 98.609375 235.140625 C 98.78125 234.792969 99.128906 233.574219 99.304688 232.703125 C 99.480469 232.003906 99.914062 230.261719 100.089844 229.304688 C 100.347656 228.433594 100.609375 227.5625 100.785156 226.691406 C 101.21875 225.125 101.304688 224.777344 102.4375 223.207031 C 103.480469 221.640625 105.308594 219.636719 108.179688 219.636719 C 110.355469 219.636719 110.445312 221.640625 110.445312 222.335938 C 110.445312 224.6875 108.789062 228.957031 108.179688 230.613281 C 107.746094 231.65625 107.574219 232.003906 107.574219 232.613281 C 107.574219 234.703125 109.3125 235.925781 111.226562 235.925781 C 115.058594 235.925781 116.796875 230.613281 116.796875 230.089844 C 116.796875 229.566406 116.273438 229.566406 116.1875 229.566406 C 115.664062 229.566406 115.578125 229.828125 115.40625 230.261719 C 114.535156 233.3125 112.882812 234.878906 111.402344 234.878906 C 110.53125 234.878906 110.355469 234.355469 110.355469 233.574219 C 110.355469 232.613281 110.617188 232.179688 111.316406 230.4375 C 111.75 229.21875 113.316406 225.125 113.316406 222.945312 C 113.316406 219.289062 110.355469 218.59375 108.355469 218.59375 C 105.136719 218.59375 102.960938 220.59375 101.828125 222.078125 C 101.566406 219.464844 99.304688 218.59375 97.738281 218.59375 C 96.085938 218.59375 95.128906 219.8125 94.691406 220.683594 C 93.820312 222.078125 93.300781 224.253906 93.300781 224.515625 C 93.300781 224.949219 93.820312 224.949219 93.910156 224.949219 C 94.429688 224.949219 94.519531 224.863281 94.78125 223.816406 C 95.386719 221.554688 96.085938 219.636719 97.5625 219.636719 C 98.609375 219.636719 98.871094 220.507812 98.871094 221.554688 C 98.871094 222.335938 98.519531 223.730469 98.261719 224.777344 C 98 225.820312 97.5625 227.390625 97.390625 228.261719 Z M 96.171875 233.136719 "/>
<path style=" stroke:none;fill-rule:nonzero;fill:rgb(0%,0%,0%);fill-opacity:1;" d="M 321.015625 221.804688 C 321.277344 220.414062 321.449219 219.890625 322.496094 219.714844 C 323.015625 219.714844 324.757812 219.714844 325.886719 219.714844 C 329.804688 219.714844 335.898438 219.714844 335.898438 225.117188 C 335.898438 227.03125 335.027344 230.777344 332.851562 232.953125 C 331.457031 234.347656 328.5 236.089844 323.539062 236.089844 L 317.445312 236.089844 Z M 328.847656 236.785156 C 334.417969 235.652344 340.945312 231.734375 340.945312 226.246094 C 340.945312 221.457031 336.070312 217.972656 328.847656 217.972656 L 313.183594 217.972656 C 312.050781 217.972656 311.617188 217.972656 311.617188 219.105469 C 311.617188 219.714844 312.050781 219.714844 313.09375 219.714844 C 313.269531 219.714844 314.3125 219.714844 315.183594 219.804688 C 316.226562 219.890625 316.664062 219.976562 316.664062 220.671875 C 316.664062 220.847656 316.664062 221.023438 316.488281 221.71875 L 309.09375 251.242188 C 308.570312 253.332031 308.484375 253.769531 304.132812 253.769531 C 303.175781 253.769531 302.652344 253.769531 302.652344 254.902344 C 302.652344 255.511719 303.261719 255.511719 303.433594 255.511719 C 304.914062 255.511719 308.832031 255.335938 310.3125 255.335938 C 311.878906 255.335938 315.792969 255.511719 317.273438 255.511719 C 317.707031 255.511719 318.402344 255.511719 318.402344 254.378906 C 318.402344 253.769531 317.882812 253.769531 316.835938 253.769531 C 314.835938 253.769531 313.269531 253.769531 313.269531 252.8125 C 313.269531 252.460938 313.445312 252.203125 313.445312 251.851562 L 317.097656 237.308594 L 323.625 237.308594 C 328.585938 237.308594 329.628906 240.355469 329.628906 242.359375 C 329.628906 243.144531 329.195312 244.886719 328.847656 246.105469 C 328.414062 247.671875 327.976562 249.675781 327.976562 250.808594 C 327.976562 256.730469 334.503906 256.730469 335.289062 256.730469 C 339.898438 256.730469 341.8125 251.15625 341.8125 250.371094 C 341.8125 249.761719 341.207031 249.761719 341.207031 249.761719 C 340.683594 249.761719 340.597656 250.109375 340.507812 250.546875 C 339.117188 254.554688 336.765625 255.511719 335.460938 255.511719 C 333.632812 255.511719 333.285156 254.292969 333.285156 252.203125 C 333.285156 250.460938 333.632812 247.671875 333.808594 245.929688 C 333.980469 245.148438 334.070312 244.101562 334.070312 243.316406 C 334.070312 239.050781 330.414062 237.394531 328.847656 236.785156 Z M 328.847656 236.785156 "/>
<path style=" stroke:none;fill-rule:nonzero;fill:rgb(0%,0%,0%);fill-opacity:1;" d="M 359.203125 232.441406 C 359.03125 233.222656 358.683594 234.53125 358.683594 234.703125 C 358.683594 235.574219 359.378906 235.925781 359.988281 235.925781 C 360.683594 235.925781 361.292969 235.488281 361.464844 235.140625 C 361.640625 234.792969 361.988281 233.574219 362.164062 232.703125 C 362.335938 232.003906 362.773438 230.261719 363.03125 229.304688 C 363.207031 228.433594 363.46875 227.5625 363.640625 226.691406 C 364.078125 225.039062 364.078125 224.949219 364.859375 223.730469 C 366.078125 221.902344 367.992188 219.636719 371.039062 219.636719 C 373.128906 219.636719 373.300781 221.464844 373.300781 222.335938 C 373.300781 224.6875 371.648438 228.957031 371.039062 230.613281 C 370.605469 231.65625 370.429688 232.003906 370.429688 232.613281 C 370.429688 234.703125 372.082031 235.925781 374.085938 235.925781 C 377.914062 235.925781 379.65625 230.613281 379.65625 230.089844 C 379.65625 229.566406 379.132812 229.566406 378.960938 229.566406 C 378.4375 229.566406 378.4375 229.828125 378.261719 230.261719 C 377.394531 233.3125 375.738281 234.878906 374.171875 234.878906 C 373.390625 234.878906 373.214844 234.355469 373.214844 233.574219 C 373.214844 232.613281 373.390625 232.179688 374.085938 230.4375 C 374.609375 229.21875 376.175781 225.125 376.175781 222.945312 C 376.175781 222.335938 376.175781 220.769531 374.695312 219.636719 C 374.085938 219.113281 372.953125 218.59375 371.125 218.59375 C 367.734375 218.59375 365.558594 220.855469 364.339844 222.511719 C 364.078125 219.203125 361.292969 218.59375 359.378906 218.59375 C 356.15625 218.59375 353.980469 220.59375 352.851562 222.078125 C 352.589844 219.464844 350.328125 218.59375 348.761719 218.59375 C 347.105469 218.59375 346.148438 219.8125 345.714844 220.683594 C 344.84375 222.078125 344.324219 224.253906 344.324219 224.515625 C 344.324219 224.949219 344.84375 224.949219 344.929688 224.949219 C 345.453125 224.949219 345.539062 224.863281 345.800781 223.816406 C 346.410156 221.554688 347.105469 219.636719 348.585938 219.636719 C 349.632812 219.636719 349.890625 220.507812 349.890625 221.554688 C 349.890625 222.335938 349.542969 223.730469 349.28125 224.777344 C 349.023438 225.820312 348.585938 227.390625 348.414062 228.261719 L 347.195312 233.136719 C 347.019531 233.660156 346.847656 234.617188 346.847656 234.703125 C 346.847656 235.574219 347.457031 235.925781 348.152344 235.925781 C 348.761719 235.925781 349.457031 235.488281 349.632812 235.140625 C 349.804688 234.792969 350.152344 233.574219 350.328125 232.703125 C 350.5 232.003906 350.9375 230.261719 351.109375 229.304688 C 351.371094 228.433594 351.632812 227.5625 351.804688 226.691406 C 352.242188 225.125 352.328125 224.777344 353.460938 223.207031 C 354.503906 221.640625 356.332031 219.636719 359.203125 219.636719 C 361.378906 219.636719 361.464844 221.640625 361.464844 222.335938 C 361.464844 223.296875 361.378906 223.816406 360.769531 225.996094 Z M 359.203125 232.441406 "/>
<path style="fill:none;stroke-width:0.39848;stroke-linecap:butt;stroke-linejoin:miter;stroke:rgb(0%,0%,0%);stroke-opacity:1;stroke-miterlimit:10;" d="M -12.826918 32.034362 L 10.286181 32.034362 " transform="matrix(5.510437,0,0,-5.514606,216.779585,241.77408)"/>
<path style="fill:none;stroke-width:0.39848;stroke-linecap:round;stroke-linejoin:round;stroke:rgb(0%,0%,0%);stroke-opacity:1;stroke-miterlimit:10;" d="M -2.073939 2.389807 C -1.694687 0.956114 -0.8497 0.277519 -0.000459249 0.00126378 C -0.8497 -0.279241 -1.694687 -0.954295 -2.073939 -2.391529 " transform="matrix(5.510437,0,0,-5.514606,274.553312,65.124157)"/>
<path style=" stroke:none;fill-rule:nonzero;fill:rgb(0%,0%,0%);fill-opacity:1;" d="M 202.28125 47.589844 C 200.976562 49.679688 199.671875 50.636719 197.410156 50.808594 C 197.0625 50.898438 196.539062 50.898438 196.539062 51.59375 C 196.539062 52.03125 196.886719 52.203125 197.0625 52.203125 C 198.105469 52.203125 199.324219 52.03125 200.367188 52.03125 C 201.671875 52.03125 203.238281 52.203125 204.371094 52.203125 C 204.546875 52.203125 205.15625 52.203125 205.15625 51.332031 C 205.15625 50.898438 204.632812 50.808594 204.457031 50.808594 C 204.195312 50.808594 202.804688 50.722656 202.804688 49.679688 C 202.804688 49.242188 203.152344 48.546875 203.328125 48.199219 L 206.460938 43.40625 L 217.425781 43.40625 L 218.382812 49.851562 C 218.207031 50.199219 217.949219 50.808594 215.683594 50.808594 C 215.25 50.808594 214.726562 50.808594 214.726562 51.679688 C 214.726562 51.855469 214.816406 52.203125 215.335938 52.203125 C 216.46875 52.203125 219.164062 52.03125 220.296875 52.03125 C 220.992188 52.03125 221.863281 52.117188 222.558594 52.117188 C 223.257812 52.117188 224.039062 52.203125 224.734375 52.203125 C 225.257812 52.203125 225.519531 51.855469 225.519531 51.421875 C 225.519531 50.808594 225.082031 50.808594 224.472656 50.808594 C 222.210938 50.808594 222.125 50.550781 222.039062 49.589844 L 218.644531 25.816406 C 218.558594 25.03125 218.46875 24.769531 217.6875 24.769531 C 216.988281 24.769531 216.730469 25.117188 216.382812 25.640625 Z M 207.332031 42.015625 L 215.421875 29.472656 L 217.25 42.015625 Z M 207.332031 42.015625 "/>
<path style="fill:none;stroke-width:0.39848;stroke-linecap:butt;stroke-linejoin:miter;stroke:rgb(0%,0%,0%);stroke-opacity:1;stroke-miterlimit:10;" d="M -23.850743 25.696789 L -23.850743 8.561188 " transform="matrix(5.510437,0,0,-5.514606,216.779585,241.77408)"/>
<path style="fill:none;stroke-width:0.39848;stroke-linecap:round;stroke-linejoin:round;stroke:rgb(0%,0%,0%);stroke-opacity:1;stroke-miterlimit:10;" d="M -2.070866 2.391249 C -1.691901 0.958599 -0.851094 0.27949 0.00175444 -0.00122749 C -0.851094 -0.277691 -1.691901 -0.9568 -2.070866 -2.39016 " transform="matrix(0,5.514606,5.510437,0,85.358326,195.6622)"/>
<path style=" stroke:none;fill-rule:nonzero;fill:rgb(0%,0%,0%);fill-opacity:1;" d="M 51.722656 149.621094 L 58.6875 149.621094 C 65.125 149.621094 70.695312 145.441406 70.695312 141.261719 C 70.695312 138.039062 67.476562 135.25 62.253906 135.25 L 48.765625 135.25 C 47.980469 135.25 47.546875 135.25 47.546875 136.121094 C 47.546875 136.644531 47.980469 136.644531 48.851562 136.644531 C 49.460938 136.644531 49.546875 136.644531 50.246094 136.730469 C 51.027344 136.820312 51.113281 136.90625 51.113281 137.253906 C 51.113281 137.339844 51.113281 137.515625 50.941406 138.125 L 45.894531 158.417969 C 45.546875 159.898438 45.457031 160.160156 42.5 160.160156 C 41.804688 160.160156 41.28125 160.160156 41.28125 161.03125 C 41.28125 161.03125 41.28125 161.554688 41.890625 161.554688 C 43.023438 161.554688 45.804688 161.378906 46.9375 161.378906 C 47.546875 161.378906 48.9375 161.378906 49.546875 161.464844 C 50.332031 161.464844 51.289062 161.554688 52.074219 161.554688 C 52.246094 161.554688 52.855469 161.554688 52.855469 160.683594 C 52.855469 160.160156 52.421875 160.160156 51.636719 160.160156 C 51.550781 160.160156 50.855469 160.160156 50.15625 160.074219 C 49.289062 159.984375 49.289062 159.898438 49.289062 159.550781 C 49.289062 159.460938 49.289062 159.203125 49.460938 158.679688 Z M 54.507812 137.949219 C 54.769531 136.730469 54.855469 136.644531 56.421875 136.644531 L 60.949219 136.644531 C 64.515625 136.644531 66.78125 137.691406 66.78125 140.476562 C 66.78125 141.609375 66.257812 144.65625 64.34375 146.398438 C 62.949219 147.617188 60.773438 148.402344 57.988281 148.402344 L 51.8125 148.402344 Z M 54.507812 137.949219 "/>
<path style="fill:none;stroke-width:0.39848;stroke-linecap:butt;stroke-linejoin:miter;stroke:rgb(0%,0%,0%);stroke-opacity:1;stroke-miterlimit:10;" d="M -12.826918 0.00153314 L 10.286181 0.00153314 " transform="matrix(5.510437,0,0,-5.514606,216.779585,241.77408)"/>
<path style="fill:none;stroke-width:0.39848;stroke-linecap:round;stroke-linejoin:round;stroke:rgb(0%,0%,0%);stroke-opacity:1;stroke-miterlimit:10;" d="M -2.073939 2.390076 C -1.694687 0.957092 -0.8497 0.277788 -0.000459249 0.00153314 C -0.8497 -0.278972 -1.694687 -0.957568 -2.073939 -2.39126 " transform="matrix(5.510437,0,0,-5.514606,274.553312,241.77408)"/>
<path style=" stroke:none;fill-rule:nonzero;fill:rgb(0%,0%,0%);fill-opacity:1;" d="M 199.644531 278.023438 C 199.296875 279.328125 199.210938 279.589844 196.25 279.589844 C 195.554688 279.589844 195.03125 279.589844 195.03125 280.460938 C 195.03125 280.984375 195.554688 280.984375 196.25 280.984375 L 209.914062 280.984375 C 218.53125 280.984375 226.710938 273.144531 226.710938 264.695312 C 226.710938 259.121094 222.792969 254.679688 216.527344 254.679688 L 202.515625 254.679688 C 201.734375 254.679688 201.300781 254.679688 201.300781 255.550781 C 201.300781 256.074219 201.734375 256.074219 202.605469 256.074219 C 203.214844 256.074219 203.300781 256.074219 203.996094 256.160156 C 204.78125 256.25 204.867188 256.335938 204.867188 256.683594 C 204.867188 256.769531 204.867188 256.945312 204.691406 257.554688 Z M 208.261719 257.378906 C 208.523438 256.160156 208.609375 256.074219 210.175781 256.074219 L 215.136719 256.074219 C 219.402344 256.074219 223.054688 258.25 223.054688 263.476562 C 223.054688 264.347656 222.621094 271.054688 218.792969 275.410156 C 217.3125 277.152344 214.003906 279.589844 209.21875 279.589844 L 203.996094 279.589844 C 202.867188 279.589844 202.777344 279.589844 202.777344 279.242188 C 202.777344 279.152344 202.777344 278.980469 202.953125 278.371094 Z M 208.261719 257.378906 "/>
<path style="fill:none;stroke-width:0.39848;stroke-linecap:butt;stroke-linejoin:miter;stroke:rgb(0%,0%,0%);stroke-opacity:1;stroke-miterlimit:10;" d="M 22.778809 25.696789 L 22.778809 8.561188 " transform="matrix(5.510437,0,0,-5.514606,216.779585,241.77408)"/>
<path style="fill:none;stroke-width:0.39848;stroke-linecap:round;stroke-linejoin:round;stroke:rgb(0%,0%,0%);stroke-opacity:1;stroke-miterlimit:10;" d="M -2.070866 2.389906 C -1.691901 0.957255 -0.851094 0.278146 0.00175444 0.00168245 C -0.851094 -0.279035 -1.691901 -0.958144 -2.070866 -2.390794 " transform="matrix(0,5.514606,5.510437,0,342.29151,195.6622)"/>
<path style=" stroke:none;fill-rule:nonzero;fill:rgb(0%,0%,0%);fill-opacity:1;" d="M 312.730469 160.164062 C 312.730469 162.605469 313.164062 165.304688 316.382812 165.304688 C 320.996094 165.304688 323.257812 158.683594 323.257812 157.8125 C 323.257812 157.554688 323 157.292969 322.652344 157.292969 C 322.300781 157.292969 322.214844 157.640625 322.128906 157.8125 C 321.257812 160.425781 318.648438 161.210938 317.34375 161.210938 C 315.863281 161.210938 314.992188 160.601562 314.382812 157.464844 C 321.171875 155.113281 326.652344 148.234375 326.652344 141.441406 C 326.652344 135.429688 322.300781 130.726562 315.515625 130.726562 C 306.375 130.726562 297.414062 139.351562 297.414062 148.058594 C 297.414062 154.242188 302.023438 158.597656 308.640625 158.597656 C 309.421875 158.597656 310.726562 158.511719 312.730469 158.074219 Z M 306.027344 156.855469 C 304.027344 156.160156 301.15625 154.15625 301.15625 149.019531 C 301.15625 146.492188 302.023438 141.441406 305.507812 137.085938 C 307.941406 134.125 311.683594 131.949219 315.253906 131.949219 C 319.429688 131.949219 323 134.820312 323 140.394531 C 323 144.226562 321.085938 152.5 314.035156 156.074219 C 313.425781 153.632812 312.382812 151.980469 310.117188 151.980469 C 308.03125 151.980469 305.855469 153.808594 305.855469 155.8125 C 305.855469 156.507812 305.941406 156.59375 306.027344 156.855469 Z M 312.730469 156.683594 C 311.859375 156.941406 310.378906 157.378906 308.898438 157.378906 C 308.292969 157.378906 306.984375 157.378906 306.984375 155.8125 C 306.984375 154.417969 308.550781 153.109375 310.117188 153.109375 C 311.511719 153.109375 312.554688 153.722656 312.730469 156.683594 Z M 312.730469 156.683594 "/>
</g>
</svg>
