<?xml version="1.0" encoding="UTF-8"?>
<svg xmlns="http://www.w3.org/2000/svg" xmlns:xlink="http://www.w3.org/1999/xlink" width="416pt" height="300pt" viewBox="0 0 416 300" version="1.1">
<g id="surface1">
<path style="fill:none;stroke-width:0.3985;stroke-linecap:butt;stroke-linejoin:miter;stroke:rgb(0%,0%,0%);stroke-opacity:1;stroke-miterlimit:10;" d="M -99.214822 0.000739933 L 99.213447 0.000739933 " transform="matrix(2.030213,0,0,-2.029046,207.177176,149.599158)"/>
<path style="fill-rule:nonzero;fill:rgb(0%,0%,0%);fill-opacity:1;stroke-width:0.3985;stroke-linecap:butt;stroke-linejoin:miter;stroke:rgb(0%,0%,0%);stroke-opacity:1;stroke-miterlimit:10;" d="M -26.231392 0.000739933 C -26.231392 1.165466 -27.181878 2.112647 -28.345934 2.112647 C -29.515762 2.112647 -30.462399 1.165466 -30.462399 0.000739933 C -30.462399 -1.167836 -29.515762 -2.113093 -28.345934 -2.113093 C -27.181878 -2.113093 -26.231392 -1.167836 -26.231392 0.000739933 Z M -26.231392 0.000739933 " transform="matrix(2.030213,0,0,-2.029046,207.177176,149.599158)"/>
<path style="fill-rule:nonzero;fill:rgb(0%,0%,0%);fill-opacity:1;stroke-width:0.3985;stroke-linecap:butt;stroke-linejoin:miter;stroke:rgb(0%,0%,0%);stroke-opacity:1;stroke-miterlimit:10;" d="M 30.459101 0.000739933 C 30.459101 1.165466 29.514387 2.112647 28.344559 2.112647 C 27.180503 2.112647 26.233866 1.165466 26.233866 0.000739933 C 26.233866 -1.167836 27.180503 -2.113093 28.344559 -2.113093 C 29.514387 -2.113093 30.459101 -1.167836 30.459101 0.000739933 Z M 30.459101 0.000739933 " transform="matrix(2.030213,0,0,-2.029046,207.177176,149.599158)"/>
<path style="fill:none;stroke-width:0.3985;stroke-linecap:butt;stroke-linejoin:miter;stroke:rgb(0%,0%,100%);stroke-opacity:1;stroke-miterlimit:10;" d="M 85.040824 0.000739933 C 85.040824 31.311644 59.65863 56.693036 28.344559 56.693036 C -2.965663 56.693036 -28.345934 31.311644 -28.345934 0.000739933 C -28.345934 -31.31209 -2.965663 -56.695407 28.344559 -56.695407 C 59.65863 -56.695407 85.040824 -31.31209 85.040824 0.000739933 Z M 85.040824 0.000739933 " transform="matrix(2.030213,0,0,-2.029046,207.177176,149.599158)"/>
<path style="fill:none;stroke-width:0.3985;stroke-linecap:butt;stroke-linejoin:miter;stroke:rgb(0%,0%,100%);stroke-opacity:1;stroke-miterlimit:10;" d="M 28.344559 0.000739933 C 28.344559 31.311644 2.964289 56.693036 -28.345934 56.693036 C -59.656156 56.693036 -85.042199 31.311644 -85.042199 0.000739933 C -85.042199 -31.31209 -59.656156 -56.695407 -28.345934 -56.695407 C 2.964289 -56.695407 28.344559 -31.31209 28.344559 0.000739933 Z M 28.344559 0.000739933 " transform="matrix(2.030213,0,0,-2.029046,207.177176,149.599158)"/>
<path style="fill:none;stroke-width:0.3985;stroke-linecap:butt;stroke-linejoin:miter;stroke:rgb(55.294118%,52.54902%,0%);stroke-opacity:1;stroke-miterlimit:10;" d="M 0.00123683 70.868036 L 0.00123683 -70.866556 " transform="matrix(2.030213,0,0,-2.029046,207.177176,149.599158)"/>
<path style="fill-rule:nonzero;fill:rgb(100%,0%,0%);fill-opacity:1;stroke-width:0.3985;stroke-linecap:butt;stroke-linejoin:miter;stroke:rgb(100%,0%,0%);stroke-opacity:1;stroke-miterlimit:10;" d="M 2.11193 0.000739933 C 2.11193 1.165466 1.167217 2.112647 0.00123683 2.112647 C -1.168591 2.112647 -2.113305 1.165466 -2.113305 0.000739933 C -2.113305 -1.167836 -1.168591 -2.113093 0.00123683 -2.113093 C 1.167217 -2.113093 2.11193 -1.167836 2.11193 0.000739933 Z M 2.11193 0.000739933 " transform="matrix(2.030213,0,0,-2.029046,207.177176,149.599158)"/>
</g>
</svg>
