<?xml version="1.0" encoding="UTF-8"?>
<svg xmlns="http://www.w3.org/2000/svg" xmlns:xlink="http://www.w3.org/1999/xlink" width="526pt" height="300pt" viewBox="0 0 526 300" version="1.1">
<g id="surface1">
<path style="fill:none;stroke-width:1.19553;stroke-linecap:butt;stroke-linejoin:miter;stroke:rgb(0%,0%,0%);stroke-opacity:1;stroke-miterlimit:10;" d="M -42.521846 0.0000169709 L 99.212278 0.0000169709 " transform="matrix(3.310087,0,0,-3.307971,188.07134,243.800837)"/>
<path style="fill-rule:nonzero;fill:rgb(0%,0%,0%);fill-opacity:1;stroke-width:0.3985;stroke-linecap:butt;stroke-linejoin:miter;stroke:rgb(0%,0%,0%);stroke-opacity:1;stroke-miterlimit:10;" d="M 2.113257 56.693092 C 2.113257 57.860963 1.169173 58.80565 0.000869736 58.80565 C -1.167434 58.80565 -2.115058 57.860963 -2.115058 56.693092 C -2.115058 55.525222 -1.167434 54.581715 0.000869736 54.581715 C 1.169173 54.581715 2.113257 55.525222 2.113257 56.693092 Z M 2.113257 56.693092 " transform="matrix(3.310087,0,0,-3.307971,188.07134,243.800837)"/>
<path style="fill:none;stroke-width:0.3985;stroke-linecap:butt;stroke-linejoin:miter;stroke:rgb(55.294118%,52.54902%,0%);stroke-opacity:1;stroke-miterlimit:10;" d="M 0.000869736 -14.173842 L 0.000869736 70.868132 " transform="matrix(3.310087,0,0,-3.307971,188.07134,243.800837)"/>
<path style="fill:none;stroke-width:1.19553;stroke-linecap:butt;stroke-linejoin:miter;stroke:rgb(100%,0%,0%);stroke-opacity:1;stroke-miterlimit:10;" d="M -42.521846 56.693092 L 99.212278 56.693092 " transform="matrix(3.310087,0,0,-3.307971,188.07134,243.800837)"/>
</g>
</svg>
