<?xml version="1.0" encoding="UTF-8"?>
<svg xmlns="http://www.w3.org/2000/svg" xmlns:xlink="http://www.w3.org/1999/xlink" width="526px" height="300px" viewBox="0 0 526 300" version="1.1">
<g id="surface1">
<path style="fill:none;stroke-width:1.19553;stroke-linecap:butt;stroke-linejoin:miter;stroke:rgb(0%,0%,0%);stroke-opacity:1;stroke-miterlimit:10;" d="M -42.521917 0.00047745 L 99.212364 0.00047745 " transform="matrix(3.298812,0,0,-3.296703,187.763981,242.970324)"/>
<path style="fill-rule:nonzero;fill:rgb(0%,0%,0%);fill-opacity:1;stroke-width:0.3985;stroke-linecap:butt;stroke-linejoin:miter;stroke:rgb(0%,0%,0%);stroke-opacity:1;stroke-miterlimit:10;" d="M 2.113002 56.693016 C 2.113002 57.861324 1.168059 58.805686 0.000498467 58.805686 C -1.167062 58.805686 -2.115557 57.861324 -2.115557 56.693016 C -2.115557 55.525893 -1.167062 54.581531 0.000498467 54.581531 C 1.168059 54.581531 2.113002 55.525893 2.113002 56.693016 Z M 2.113002 56.693016 " transform="matrix(3.298812,0,0,-3.296703,187.763981,242.970324)"/>
<path style="fill:none;stroke-width:0.3985;stroke-linecap:butt;stroke-linejoin:miter;stroke:rgb(55.29412%,52.549022%,0%);stroke-opacity:1;stroke-miterlimit:10;" d="M 0.000498467 -14.17325 L 0.000498467 70.867928 " transform="matrix(3.298812,0,0,-3.296703,187.763981,242.970324)"/>
<path style="fill:none;stroke-width:1.19553;stroke-linecap:butt;stroke-linejoin:miter;stroke:rgb(100%,0%,0%);stroke-opacity:1;stroke-miterlimit:10;" d="M -42.521917 56.693016 L 99.212364 56.693016 " transform="matrix(3.298812,0,0,-3.296703,187.763981,242.970324)"/>
</g>
</svg>
