<?xml version="1.0" encoding="UTF-8"?>
<svg xmlns="http://www.w3.org/2000/svg" xmlns:xlink="http://www.w3.org/1999/xlink" width="300px" height="300px" viewBox="0 0 300 300" version="1.1">
<defs>
<clipPath id="clip1">
  <path d="M 0 189 L 298.191406 189 L 298.191406 192 L 0 192 Z M 0 189 "/>
</clipPath>
<clipPath id="clip2">
  <path d="M 147 0 L 150.910156 0 L 150.910156 298.191406 L 147 298.191406 Z M 147 0 "/>
</clipPath>
</defs>
<g id="surface1">
<g clip-path="url(#clip1)" clip-rule="nonzero">
<path style="fill:none;stroke-width:1.19553;stroke-linecap:butt;stroke-linejoin:miter;stroke:rgb(0%,0%,0%);stroke-opacity:1;stroke-miterlimit:10;" d="M -92.130464 0.00099053 L 92.130045 0.00099053 " transform="matrix(1.948053,0,0,-1.948053,149.096112,190.509742)"/>
</g>
<path style="fill-rule:nonzero;fill:rgb(0%,0%,0%);fill-opacity:1;stroke-width:0.3985;stroke-linecap:butt;stroke-linejoin:miter;stroke:rgb(0%,0%,0%);stroke-opacity:1;stroke-miterlimit:10;" d="M -19.150943 0.00099053 C -19.150943 1.170026 -20.09339 2.112474 -21.260421 2.112474 C -22.427451 2.112474 -23.375915 1.170026 -23.375915 0.00099053 C -23.375915 -1.16604 -22.427451 -2.112498 -21.260421 -2.112498 C -20.09339 -2.112498 -19.150943 -1.16604 -19.150943 0.00099053 Z M -19.150943 0.00099053 " transform="matrix(1.948053,0,0,-1.948053,149.096112,190.509742)"/>
<path style="fill-rule:nonzero;fill:rgb(0%,0%,0%);fill-opacity:1;stroke-width:0.3985;stroke-linecap:butt;stroke-linejoin:miter;stroke:rgb(0%,0%,0%);stroke-opacity:1;stroke-miterlimit:10;" d="M 2.114281 42.523418 C 2.114281 43.690448 1.167823 44.638912 0.000792817 44.638912 C -1.168243 44.638912 -2.114701 43.690448 -2.114701 42.523418 C -2.114701 41.356387 -1.168243 40.41394 0.000792817 40.41394 C 1.167823 40.41394 2.114281 41.356387 2.114281 42.523418 Z M 2.114281 42.523418 " transform="matrix(1.948053,0,0,-1.948053,149.096112,190.509742)"/>
<path style="fill:none;stroke-width:0.3985;stroke-linecap:butt;stroke-linejoin:miter;stroke:rgb(0%,0%,100%);stroke-opacity:1;stroke-miterlimit:10;" d="M 47.528218 42.523418 C 47.528218 68.775593 26.252968 90.056858 0.000792817 90.056858 C -26.251382 90.056858 -47.528637 68.775593 -47.528637 42.523418 C -47.528637 16.275253 -26.251382 -5.004007 0.000792817 -5.004007 C 26.252968 -5.004007 47.528218 16.275253 47.528218 42.523418 Z M 47.528218 42.523418 " transform="matrix(1.948053,0,0,-1.948053,149.096112,190.509742)"/>
<path style="fill:none;stroke-width:0.3985;stroke-linecap:butt;stroke-linejoin:miter;stroke:rgb(55.29412%,52.549022%,0%);stroke-opacity:1;stroke-miterlimit:10;" d="M 63.786439 0.00099053 C 63.786439 23.487984 44.751005 42.523418 21.260001 42.523418 C -2.224987 42.523418 -21.260421 23.487984 -21.260421 0.00099053 C -21.260421 -23.488008 -2.224987 -42.523442 21.260001 -42.523442 C 44.751005 -42.523442 63.786439 -23.488008 63.786439 0.00099053 Z M 63.786439 0.00099053 " transform="matrix(1.948053,0,0,-1.948053,149.096112,190.509742)"/>
<path style="fill:none;stroke-width:0.3985;stroke-linecap:butt;stroke-linejoin:miter;stroke:rgb(55.29412%,52.549022%,0%);stroke-opacity:1;stroke-miterlimit:10;" d="M 21.260001 0.00099053 C 21.260001 23.487984 2.224568 42.523418 -21.260421 42.523418 C -44.751425 42.523418 -63.786858 23.487984 -63.786858 0.00099053 C -63.786858 -23.488008 -44.751425 -42.523442 -21.260421 -42.523442 C 2.224568 -42.523442 21.260001 -23.488008 21.260001 0.00099053 Z M 21.260001 0.00099053 " transform="matrix(1.948053,0,0,-1.948053,149.096112,190.509742)"/>
<g clip-path="url(#clip2)" clip-rule="nonzero">
<path style="fill:none;stroke-width:1.19553;stroke-linecap:butt;stroke-linejoin:miter;stroke:rgb(100%,0%,0%);stroke-opacity:1;stroke-miterlimit:10;" d="M 0.000792817 -56.696248 L 0.000792817 99.216645 " transform="matrix(1.948053,0,0,-1.948053,149.096112,190.509742)"/>
</g>
</g>
</svg>
