<?xml version="1.0" encoding="UTF-8"?>
<svg xmlns="http://www.w3.org/2000/svg" xmlns:xlink="http://www.w3.org/1999/xlink" width="416px" height="300px" viewBox="0 0 416 300" version="1.1">
<g id="surface1">
<path style="fill:none;stroke-width:1.19553;stroke-linecap:butt;stroke-linejoin:miter;stroke:rgb(0%,0%,0%);stroke-opacity:1;stroke-miterlimit:10;" d="M -99.213252 0.0017419 L 99.211784 0.0017419 " transform="matrix(2.02743,0,0,-2.026265,207.081566,149.394155)"/>
<path style="fill-rule:nonzero;fill:rgb(0%,0%,0%);fill-opacity:1;stroke-width:0.3985;stroke-linecap:butt;stroke-linejoin:miter;stroke:rgb(0%,0%,0%);stroke-opacity:1;stroke-miterlimit:10;" d="M -26.231789 0.0017419 C -26.231789 1.166138 -27.181652 2.112692 -28.347305 2.112692 C -29.516812 2.112692 -30.460895 1.166138 -30.460895 0.0017419 C -30.460895 -1.168438 -29.516812 -2.113063 -28.347305 -2.113063 C -27.181652 -2.113063 -26.231789 -1.168438 -26.231789 0.0017419 Z M -26.231789 0.0017419 " transform="matrix(2.02743,0,0,-2.026265,207.081566,149.394155)"/>
<path style="fill-rule:nonzero;fill:rgb(0%,0%,0%);fill-opacity:1;stroke-width:0.3985;stroke-linecap:butt;stroke-linejoin:miter;stroke:rgb(0%,0%,0%);stroke-opacity:1;stroke-miterlimit:10;" d="M 2.111893 0.0017419 C 2.111893 1.166138 1.165883 2.112692 0.000229568 2.112692 C -1.167351 2.112692 -2.11336 1.166138 -2.11336 0.0017419 C -2.11336 -1.168438 -1.167351 -2.113063 0.000229568 -2.113063 C 1.165883 -2.113063 2.111893 -1.168438 2.111893 0.0017419 Z M 2.111893 0.0017419 " transform="matrix(2.02743,0,0,-2.026265,207.081566,149.394155)"/>
<path style="fill:none;stroke-width:0.3985;stroke-linecap:butt;stroke-linejoin:miter;stroke:rgb(0%,0%,100%);stroke-opacity:1;stroke-miterlimit:10;" d="M 28.345838 0.0017419 C 28.345838 15.655543 15.656592 28.344375 0.000229568 28.344375 C -15.654207 28.344375 -28.347305 15.655543 -28.347305 0.0017419 C -28.347305 -15.653987 -15.654207 -28.346675 0.000229568 -28.346675 C 15.656592 -28.346675 28.345838 -15.653987 28.345838 0.0017419 Z M 28.345838 0.0017419 " transform="matrix(2.02743,0,0,-2.026265,207.081566,149.394155)"/>
<path style="fill:none;stroke-width:0.3985;stroke-linecap:butt;stroke-linejoin:miter;stroke:rgb(55.29412%,52.549022%,0%);stroke-opacity:1;stroke-miterlimit:10;" d="M 85.040907 0.0017419 C 85.040907 31.311272 59.658563 56.692792 28.345838 56.692792 C -2.964961 56.692792 -28.347305 31.311272 -28.347305 0.0017419 C -28.347305 -31.313571 -2.964961 -56.695092 28.345838 -56.695092 C 59.658563 -56.695092 85.040907 -31.313571 85.040907 0.0017419 Z M 85.040907 0.0017419 " transform="matrix(2.02743,0,0,-2.026265,207.081566,149.394155)"/>
<path style="fill:none;stroke-width:0.3985;stroke-linecap:butt;stroke-linejoin:miter;stroke:rgb(55.29412%,52.549022%,0%);stroke-opacity:1;stroke-miterlimit:10;" d="M 28.345838 0.0017419 C 28.345838 31.311272 2.963494 56.692792 -28.347305 56.692792 C -59.656178 56.692792 -85.042375 31.311272 -85.042375 0.0017419 C -85.042375 -31.313571 -59.656178 -56.695092 -28.347305 -56.695092 C 2.963494 -56.695092 28.345838 -31.313571 28.345838 0.0017419 Z M 28.345838 0.0017419 " transform="matrix(2.02743,0,0,-2.026265,207.081566,149.394155)"/>
<path style="fill:none;stroke-width:1.19553;stroke-linecap:butt;stroke-linejoin:miter;stroke:rgb(100%,0%,0%);stroke-opacity:1;stroke-miterlimit:10;" d="M 0.000229568 70.867964 L 0.000229568 -70.866408 " transform="matrix(2.02743,0,0,-2.026265,207.081566,149.394155)"/>
</g>
</svg>
