<?xml version="1.0" encoding="UTF-8"?>
<svg xmlns="http://www.w3.org/2000/svg" xmlns:xlink="http://www.w3.org/1999/xlink" width="502pt" height="300pt" viewBox="0 0 502 300" version="1.1">
<defs>
<clipPath id="clip1">
  <path d="M 0.386719 199 L 500.1875 199 L 500.1875 200.472656 L 0.386719 200.472656 Z M 0.386719 199 "/>
</clipPath>
</defs>
<g id="surface1">
<g clip-path="url(#clip1)" clip-rule="nonzero">
<path style="fill:none;stroke-width:0.3985;stroke-linecap:butt;stroke-linejoin:miter;stroke:rgb(0%,0%,0%);stroke-opacity:1;stroke-miterlimit:10;" d="M -42.521987 0.000672567 L 170.081485 0.000672567 " transform="matrix(2.350896,0,0,-2.350366,100.351477,199.872675)"/>
</g>
<path style="fill-rule:nonzero;fill:rgb(0%,0%,0%);fill-opacity:1;stroke-width:0.3985;stroke-linecap:butt;stroke-linejoin:miter;stroke:rgb(0%,0%,0%);stroke-opacity:1;stroke-miterlimit:10;" d="M 2.111931 0.000672567 C 2.111931 1.167379 1.168142 2.113043 0.0000362564 2.113043 C -1.168069 2.113043 -2.11352 1.167379 -2.11352 0.000672567 C -2.11352 -1.167696 -1.168069 -2.11336 0.0000362564 -2.11336 C 1.168142 -2.11336 2.111931 -1.167696 2.111931 0.000672567 Z M 2.111931 0.000672567 " transform="matrix(2.350896,0,0,-2.350366,100.351477,199.872675)"/>
<path style="fill-rule:nonzero;fill:rgb(0%,0%,0%);fill-opacity:1;stroke-width:0.3985;stroke-linecap:butt;stroke-linejoin:miter;stroke:rgb(0%,0%,0%);stroke-opacity:1;stroke-miterlimit:10;" d="M 87.162625 0.000672567 C 87.162625 1.167379 86.218835 2.113043 85.05073 2.113043 C 83.882625 2.113043 82.937174 1.167379 82.937174 0.000672567 C 82.937174 -1.167696 83.882625 -2.11336 85.05073 -2.11336 C 86.218835 -2.11336 87.162625 -1.167696 87.162625 0.000672567 Z M 87.162625 0.000672567 " transform="matrix(2.350896,0,0,-2.350366,100.351477,199.872675)"/>
<path style="fill:none;stroke-width:0.3985;stroke-linecap:butt;stroke-linejoin:miter;stroke:rgb(0%,0%,0%);stroke-opacity:1;stroke-miterlimit:10;" d="M 85.05073 0.000672567 L 85.05073 42.52564 " transform="matrix(2.350896,0,0,-2.350366,100.351477,199.872675)"/>
<path style="fill:none;stroke-width:0.3985;stroke-linecap:butt;stroke-linejoin:miter;stroke:rgb(0%,0%,0%);stroke-opacity:1;stroke-miterlimit:10;" d="M -12.727825 -6.366356 L 148.688376 74.345823 " transform="matrix(2.350896,0,0,-2.350366,100.351477,199.872675)"/>
<path style="fill:none;stroke-width:0.3985;stroke-linecap:butt;stroke-linejoin:miter;stroke:rgb(0%,0%,0%);stroke-opacity:1;stroke-miterlimit:10;" d="M 3.233511 -4.252323 L 81.817255 -4.252323 " transform="matrix(2.350896,0,0,-2.350366,100.351477,199.872675)"/>
<path style="fill:none;stroke-width:0.3985;stroke-linecap:round;stroke-linejoin:round;stroke:rgb(0%,0%,0%);stroke-opacity:1;stroke-miterlimit:10;" d="M -2.073707 2.391646 C -1.693201 0.957362 -0.850769 0.279276 -0.0000297119 0.0000637195 C -0.850769 -0.277486 -1.693201 -0.955572 -2.073707 -2.389857 " transform="matrix(-2.350896,0,0,2.350366,107.484305,209.867038)"/>
<path style="fill:none;stroke-width:0.3985;stroke-linecap:round;stroke-linejoin:round;stroke:rgb(0%,0%,0%);stroke-opacity:1;stroke-miterlimit:10;" d="M -2.073705 2.389857 C -1.693198 0.955572 -0.850767 0.277486 -0.0000272173 -0.0000637195 C -0.850767 -0.279276 -1.693198 -0.957362 -2.073705 -2.391646 " transform="matrix(2.350896,0,0,-2.350366,293.164126,209.867038)"/>
<path style=" stroke:none;fill-rule:nonzero;fill:rgb(0%,0%,0%);fill-opacity:1;" d="M 201.148438 218.277344 C 201.148438 217.832031 201.109375 217.832031 200.667969 217.832031 C 199.597656 218.867188 198.125 218.867188 197.460938 218.867188 L 197.460938 219.453125 C 197.828125 219.453125 198.933594 219.453125 199.820312 219.011719 L 199.820312 227.378906 C 199.820312 227.894531 199.820312 228.113281 198.199219 228.113281 L 197.570312 228.113281 L 197.570312 228.703125 C 197.867188 228.703125 199.855469 228.632812 200.484375 228.632812 C 201 228.632812 203.0625 228.703125 203.394531 228.703125 L 203.394531 228.113281 L 202.804688 228.113281 C 201.148438 228.113281 201.148438 227.894531 201.148438 227.378906 Z M 201.148438 218.277344 "/>
<path style="fill:none;stroke-width:0.3985;stroke-linecap:butt;stroke-linejoin:miter;stroke:rgb(0%,0%,0%);stroke-opacity:1;stroke-miterlimit:10;" d="M 89.302766 3.233215 L 89.302766 39.291435 " transform="matrix(2.350896,0,0,-2.350366,100.351477,199.872675)"/>
<path style="fill:none;stroke-width:0.3985;stroke-linecap:round;stroke-linejoin:round;stroke:rgb(0%,0%,0%);stroke-opacity:1;stroke-miterlimit:10;" d="M -2.073834 2.390768 C -1.693241 0.956806 -0.85062 0.278873 0.000311573 -0.000275647 C -0.85062 -0.277763 -1.693241 -0.955696 -2.073834 -2.391319 " transform="matrix(0,2.350366,2.350896,0,310.293617,192.741455)"/>
<path style="fill:none;stroke-width:0.3985;stroke-linecap:round;stroke-linejoin:round;stroke:rgb(0%,0%,0%);stroke-opacity:1;stroke-miterlimit:10;" d="M -2.072888 2.391319 C -1.693958 0.955696 -0.849674 0.277763 -0.000404895 0.000275647 C -0.849674 -0.278873 -1.693958 -0.956806 -2.072888 -2.390768 " transform="matrix(0,-2.350366,-2.350896,0,310.293617,107.053736)"/>
<path style=" stroke:none;fill-rule:nonzero;fill:rgb(0%,0%,0%);fill-opacity:1;" d="M 325.492188 147.164062 C 325.125 146.609375 324.570312 146.203125 323.796875 146.203125 C 321.695312 146.203125 319.558594 148.488281 319.558594 150.882812 C 319.558594 152.46875 320.628906 153.574219 322.027344 153.574219 C 322.914062 153.574219 323.722656 153.09375 324.386719 152.433594 C 324.683594 153.425781 325.640625 153.574219 326.046875 153.574219 C 326.636719 153.574219 327.078125 153.242188 327.375 152.726562 C 327.707031 152.101562 327.925781 151.140625 327.925781 151.070312 C 327.925781 150.882812 327.707031 150.882812 327.667969 150.882812 C 327.445312 150.882812 327.410156 150.921875 327.300781 151.363281 C 327.117188 152.175781 326.785156 153.132812 326.121094 153.132812 C 325.679688 153.132812 325.566406 152.765625 325.566406 152.320312 C 325.566406 152.0625 325.714844 151.472656 325.824219 151.03125 C 325.9375 150.589844 326.082031 149.925781 326.15625 149.558594 L 326.488281 148.304688 C 326.597656 147.898438 326.785156 147.125 326.785156 147.015625 C 326.785156 146.683594 326.488281 146.5 326.230469 146.5 C 325.972656 146.5 325.566406 146.71875 325.492188 147.164062 Z M 324.425781 151.363281 C 324.3125 151.84375 323.945312 152.175781 323.613281 152.46875 C 323.464844 152.617188 322.804688 153.132812 322.101562 153.132812 C 321.476562 153.132812 320.886719 152.691406 320.886719 151.546875 C 320.886719 150.664062 321.367188 148.859375 321.734375 148.195312 C 322.507812 146.90625 323.320312 146.644531 323.796875 146.644531 C 324.941406 146.644531 325.273438 147.898438 325.273438 148.082031 C 325.273438 148.15625 325.234375 148.269531 325.199219 148.304688 Z M 324.425781 151.363281 "/>
<path style="fill-rule:nonzero;fill:rgb(0%,0%,100%);fill-opacity:1;stroke-width:0.3985;stroke-linecap:butt;stroke-linejoin:miter;stroke:rgb(0%,0%,100%);stroke-opacity:1;stroke-miterlimit:10;" d="M 129.687972 0.000672567 C 129.687972 1.167379 128.744182 2.113043 127.576077 2.113043 C 126.407972 2.113043 125.462521 1.167379 125.462521 0.000672567 C 125.462521 -1.167696 126.407972 -2.11336 127.576077 -2.11336 C 128.744182 -2.11336 129.687972 -1.167696 129.687972 0.000672567 Z M 129.687972 0.000672567 " transform="matrix(2.350896,0,0,-2.350366,100.351477,199.872675)"/>
<path style="fill:none;stroke-width:0.3985;stroke-linecap:butt;stroke-linejoin:miter;stroke:rgb(0%,0%,100%);stroke-opacity:1;stroke-miterlimit:10;" d="M 3.233511 -21.26098 L 124.342602 -21.26098 " transform="matrix(2.350896,0,0,-2.350366,100.351477,199.872675)"/>
<path style="fill:none;stroke-width:0.3985;stroke-linecap:round;stroke-linejoin:round;stroke:rgb(0%,0%,100%);stroke-opacity:1;stroke-miterlimit:10;" d="M -2.073707 2.39248 C -1.693201 0.956533 -0.850769 0.278447 -0.0000297119 0.00089709 C -0.850769 -0.278315 -1.693201 -0.956401 -2.073707 -2.390686 " transform="matrix(-2.350896,0,0,2.350366,107.484305,249.841642)"/>
<path style="fill:none;stroke-width:0.3985;stroke-linecap:round;stroke-linejoin:round;stroke:rgb(0%,0%,100%);stroke-opacity:1;stroke-miterlimit:10;" d="M -2.073725 2.390686 C -1.693218 0.956401 -0.850787 0.278315 -0.0000471745 -0.00089709 C -0.850787 -0.278447 -1.693218 -0.956533 -2.073725 -2.39248 " transform="matrix(2.350896,0,0,-2.350366,393.13683,249.841642)"/>
<path style=" stroke:none;fill-rule:nonzero;fill:rgb(0%,0%,100%);fill-opacity:1;" d="M 250.5 258.625 C 250.539062 258.589844 250.574219 258.367188 250.574219 258.332031 C 250.574219 258.257812 250.5 258.109375 250.316406 258.109375 C 249.984375 258.109375 248.621094 258.257812 248.214844 258.292969 C 248.105469 258.292969 247.847656 258.332031 247.847656 258.664062 C 247.847656 258.882812 248.105469 258.882812 248.289062 258.882812 C 249.0625 258.882812 249.0625 258.996094 249.0625 259.140625 C 249.0625 259.253906 248.917969 259.917969 248.804688 260.285156 L 248.4375 261.796875 C 248.289062 262.347656 247.367188 265.921875 247.367188 266.144531 C 247.257812 266.550781 247.257812 266.769531 247.257812 266.953125 C 247.257812 268.613281 248.328125 269.644531 249.691406 269.644531 C 251.71875 269.644531 253.929688 267.433594 253.929688 265 C 253.929688 263.085938 252.601562 262.273438 251.460938 262.273438 C 250.613281 262.273438 249.875 262.753906 249.394531 263.160156 Z M 249.691406 269.203125 C 248.878906 269.203125 248.4375 268.503906 248.4375 267.542969 C 248.4375 266.917969 248.585938 266.363281 249.027344 264.523438 C 249.136719 264.191406 249.136719 264.152344 249.46875 263.824219 C 250.058594 263.085938 250.796875 262.71875 251.421875 262.71875 C 252.050781 262.71875 252.601562 263.195312 252.601562 264.300781 C 252.601562 265 252.234375 266.660156 251.753906 267.617188 C 251.351562 268.429688 250.539062 269.203125 249.691406 269.203125 Z M 249.691406 269.203125 "/>
<path style="fill:none;stroke-width:0.3985;stroke-linecap:butt;stroke-linejoin:miter;stroke:rgb(0%,0%,0%);stroke-opacity:1;stroke-miterlimit:10;" d="M 127.576077 0.000672567 L 127.559461 63.782307 " transform="matrix(2.350896,0,0,-2.350366,100.351477,199.872675)"/>
<path style="fill:none;stroke-width:0.3985;stroke-linecap:butt;stroke-linejoin:miter;stroke:rgb(100%,0%,0%);stroke-opacity:1;stroke-miterlimit:10;" d="M 131.828113 3.233215 L 131.813159 60.548102 " transform="matrix(2.350896,0,0,-2.350366,100.351477,199.872675)"/>
<path style="fill:none;stroke-width:0.3985;stroke-linecap:round;stroke-linejoin:round;stroke:rgb(100%,0%,0%);stroke-opacity:1;stroke-miterlimit:10;" d="M -2.073284 2.391905 C -1.693021 0.957856 -0.850556 0.279729 0.000311662 0.000384668 C -0.850684 -0.276907 -1.693461 -0.954646 -2.074384 -2.390182 " transform="matrix(0.000540707,2.350366,2.350896,-0.000540585,410.264721,192.741455)"/>
<path style="fill:none;stroke-width:0.3985;stroke-linecap:round;stroke-linejoin:round;stroke:rgb(100%,0%,0%);stroke-opacity:1;stroke-miterlimit:10;" d="M -2.070643 2.391858 C -1.695337 0.957818 -0.847872 0.279707 -0.00198526 0.000380199 C -0.847989 -0.276929 -1.695739 -0.956346 -2.071647 -2.390229 " transform="matrix(-0.000493687,-2.350366,-2.350896,0.000493575,410.231362,57.096896)"/>
<path style=" stroke:none;fill-rule:nonzero;fill:rgb(100%,0%,0%);fill-opacity:1;" d="M 425.445312 124.347656 C 425.078125 123.792969 424.523438 123.390625 423.75 123.390625 C 421.648438 123.390625 419.511719 125.675781 419.511719 128.070312 C 419.511719 129.652344 420.582031 130.757812 421.980469 130.757812 C 422.867188 130.757812 423.675781 130.28125 424.339844 129.617188 C 424.636719 130.613281 425.59375 130.757812 426 130.757812 C 426.589844 130.757812 427.03125 130.429688 427.328125 129.910156 C 427.65625 129.285156 427.878906 128.328125 427.878906 128.253906 C 427.878906 128.070312 427.65625 128.070312 427.621094 128.070312 C 427.398438 128.070312 427.363281 128.105469 427.253906 128.546875 C 427.066406 129.359375 426.738281 130.316406 426.074219 130.316406 C 425.628906 130.316406 425.519531 129.949219 425.519531 129.507812 C 425.519531 129.25 425.667969 128.660156 425.777344 128.214844 C 425.890625 127.773438 426.035156 127.109375 426.109375 126.742188 L 426.441406 125.488281 C 426.550781 125.085938 426.738281 124.308594 426.738281 124.199219 C 426.738281 123.867188 426.441406 123.683594 426.183594 123.683594 C 425.925781 123.683594 425.519531 123.90625 425.445312 124.347656 Z M 424.378906 128.546875 C 424.265625 129.027344 423.898438 129.359375 423.566406 129.652344 C 423.417969 129.800781 422.753906 130.316406 422.054688 130.316406 C 421.429688 130.316406 420.839844 129.875 420.839844 128.734375 C 420.839844 127.847656 421.316406 126.042969 421.6875 125.378906 C 422.460938 124.089844 423.273438 123.832031 423.75 123.832031 C 424.894531 123.832031 425.226562 125.085938 425.226562 125.269531 C 425.226562 125.34375 425.1875 125.453125 425.152344 125.488281 Z M 424.378906 128.546875 "/>
<path style=" stroke:none;fill-rule:nonzero;fill:rgb(100%,0%,0%);fill-opacity:1;" d="M 432.988281 119.742188 C 433.027344 119.703125 433.0625 119.484375 433.0625 119.445312 C 433.0625 119.371094 432.988281 119.226562 432.804688 119.226562 C 432.472656 119.226562 431.109375 119.371094 430.703125 119.410156 C 430.59375 119.410156 430.335938 119.445312 430.335938 119.777344 C 430.335938 120 430.59375 120 430.777344 120 C 431.550781 120 431.550781 120.109375 431.550781 120.257812 C 431.550781 120.367188 431.40625 121.03125 431.292969 121.398438 L 430.925781 122.910156 C 430.777344 123.464844 429.855469 127.039062 429.855469 127.257812 C 429.746094 127.664062 429.746094 127.886719 429.746094 128.070312 C 429.746094 129.726562 430.816406 130.757812 432.179688 130.757812 C 434.207031 130.757812 436.417969 128.546875 436.417969 126.117188 C 436.417969 124.199219 435.089844 123.390625 433.949219 123.390625 C 433.101562 123.390625 432.363281 123.867188 431.882812 124.273438 Z M 432.179688 130.316406 C 431.367188 130.316406 430.925781 129.617188 430.925781 128.660156 C 430.925781 128.03125 431.074219 127.480469 431.515625 125.636719 C 431.625 125.304688 431.625 125.269531 431.957031 124.9375 C 432.546875 124.199219 433.285156 123.832031 433.910156 123.832031 C 434.539062 123.832031 435.089844 124.308594 435.089844 125.417969 C 435.089844 126.117188 434.722656 127.773438 434.242188 128.734375 C 433.835938 129.542969 433.027344 130.316406 432.179688 130.316406 Z M 432.179688 130.316406 "/>
</g>
</svg>
