<?xml version="1.0" encoding="UTF-8"?>
<svg xmlns="http://www.w3.org/2000/svg" xmlns:xlink="http://www.w3.org/1999/xlink" width="502px" height="300px" viewBox="0 0 502 300" version="1.1">
<defs>
<clipPath id="clip1">
  <path d="M 1.328125 198 L 499.722656 198 L 499.722656 199.90625 L 1.328125 199.90625 Z M 1.328125 198 "/>
</clipPath>
</defs>
<g id="surface1">
<g clip-path="url(#clip1)" clip-rule="nonzero">
<path style="fill:none;stroke-width:0.3985;stroke-linecap:butt;stroke-linejoin:miter;stroke:rgb(0%,0%,0%);stroke-opacity:1;stroke-miterlimit:10;" d="M -42.522628 0.000671325 L 170.08102 0.000671325 " transform="matrix(2.344279,0,0,-2.343751,101.013044,199.310167)"/>
</g>
<path style="fill-rule:nonzero;fill:rgb(0%,0%,0%);fill-opacity:1;stroke-width:0.3985;stroke-linecap:butt;stroke-linejoin:miter;stroke:rgb(0%,0%,0%);stroke-opacity:1;stroke-miterlimit:10;" d="M 2.112291 0.000671325 C 2.112291 1.167338 1.167504 2.112337 -0.000565167 2.112337 C -1.168635 2.112337 -2.113421 1.167338 -2.113421 0.000671325 C -2.113421 -1.167662 -1.168635 -2.112661 -0.000565167 -2.112661 C 1.167504 -2.112661 2.112291 -1.167662 2.112291 0.000671325 Z M 2.112291 0.000671325 " transform="matrix(2.344279,0,0,-2.343751,101.013044,199.310167)"/>
<path style="fill-rule:nonzero;fill:rgb(0%,0%,0%);fill-opacity:1;stroke-width:0.3985;stroke-linecap:butt;stroke-linejoin:miter;stroke:rgb(0%,0%,0%);stroke-opacity:1;stroke-miterlimit:10;" d="M 87.163081 0.000671325 C 87.163081 1.167338 86.218295 2.112337 85.050225 2.112337 C 83.882155 2.112337 82.937369 1.167338 82.937369 0.000671325 C 82.937369 -1.167662 83.882155 -2.112661 85.050225 -2.112661 C 86.218295 -2.112661 87.163081 -1.167662 87.163081 0.000671325 Z M 87.163081 0.000671325 " transform="matrix(2.344279,0,0,-2.343751,101.013044,199.310167)"/>
<path style="fill:none;stroke-width:0.3985;stroke-linecap:butt;stroke-linejoin:miter;stroke:rgb(0%,0%,0%);stroke-opacity:1;stroke-miterlimit:10;" d="M 85.050225 0.000671325 L 85.050225 42.525659 " transform="matrix(2.344279,0,0,-2.343751,101.013044,199.310167)"/>
<path style="fill:none;stroke-width:0.3985;stroke-linecap:butt;stroke-linejoin:miter;stroke:rgb(0%,0%,0%);stroke-opacity:1;stroke-miterlimit:10;" d="M -12.727691 -6.365993 L 148.687518 74.345649 " transform="matrix(2.344279,0,0,-2.343751,101.013044,199.310167)"/>
<path style="fill:none;stroke-width:0.3985;stroke-linecap:butt;stroke-linejoin:miter;stroke:rgb(0%,0%,0%);stroke-opacity:1;stroke-miterlimit:10;" d="M 3.233704 -4.252661 L 81.815956 -4.252661 " transform="matrix(2.344279,0,0,-2.343751,101.013044,199.310167)"/>
<path style="fill:none;stroke-width:0.3985;stroke-linecap:round;stroke-linejoin:round;stroke:rgb(0%,0%,0%);stroke-opacity:1;stroke-miterlimit:10;" d="M -2.072526 2.392068 C -1.692612 0.957068 -0.849469 0.278735 0.000338894 0.000401716 C -0.849469 -0.277932 -1.692612 -0.956265 -2.072526 -2.389598 " transform="matrix(-2.344279,0,0,2.343751,108.125794,209.276402)"/>
<path style="fill:none;stroke-width:0.3985;stroke-linecap:round;stroke-linejoin:round;stroke:rgb(0%,0%,0%);stroke-opacity:1;stroke-miterlimit:10;" d="M -2.073632 2.389598 C -1.693718 0.956265 -0.850575 0.277932 -0.000766553 -0.000401716 C -0.850575 -0.278735 -1.693718 -0.957068 -2.073632 -2.392068 " transform="matrix(2.344279,0,0,-2.343751,293.283047,209.276402)"/>
<path style=" stroke:none;fill-rule:nonzero;fill:rgb(0%,0%,0%);fill-opacity:1;" d="M 201.523438 217.660156 C 201.523438 217.21875 201.488281 217.21875 201.046875 217.21875 C 199.980469 218.25 198.511719 218.25 197.847656 218.25 L 197.847656 218.835938 C 198.214844 218.835938 199.320312 218.835938 200.203125 218.394531 L 200.203125 226.738281 C 200.203125 227.253906 200.203125 227.472656 198.582031 227.472656 L 197.960938 227.472656 L 197.960938 228.0625 C 198.253906 228.0625 200.238281 227.988281 200.863281 227.988281 C 201.378906 227.988281 203.4375 228.0625 203.765625 228.0625 L 203.765625 227.472656 L 203.179688 227.472656 C 201.523438 227.472656 201.523438 227.253906 201.523438 226.738281 Z M 201.523438 217.660156 "/>
<path style="fill:none;stroke-width:0.3985;stroke-linecap:butt;stroke-linejoin:miter;stroke:rgb(0%,0%,0%);stroke-opacity:1;stroke-miterlimit:10;" d="M 89.302598 3.234004 L 89.302598 39.292326 " transform="matrix(2.344279,0,0,-2.343751,101.013044,199.310167)"/>
<path style="fill:none;stroke-width:0.3985;stroke-linecap:round;stroke-linejoin:round;stroke:rgb(0%,0%,0%);stroke-opacity:1;stroke-miterlimit:10;" d="M -2.07324 2.390685 C -1.693241 0.956009 -0.849907 0.277829 0.0000922918 -0.000441732 C -0.849907 -0.278712 -1.693241 -0.956892 -2.07324 -2.389902 " transform="matrix(0,2.343751,2.344279,0,310.364317,192.199002)"/>
<path style="fill:none;stroke-width:0.3985;stroke-linecap:round;stroke-linejoin:round;stroke:rgb(0%,0%,0%);stroke-opacity:1;stroke-miterlimit:10;" d="M -2.073954 2.389902 C -1.693954 0.956892 -0.850621 0.278712 -0.000621341 0.000441732 C -0.850621 -0.277829 -1.693954 -0.956009 -2.073954 -2.390685 " transform="matrix(0,-2.343751,-2.344279,0,310.364317,106.75245)"/>
<path style=" stroke:none;fill-rule:nonzero;fill:rgb(0%,0%,0%);fill-opacity:1;" d="M 325.519531 146.75 C 325.152344 146.195312 324.601562 145.792969 323.832031 145.792969 C 321.734375 145.792969 319.605469 148.070312 319.605469 150.460938 C 319.605469 152.039062 320.667969 153.140625 322.066406 153.140625 C 322.949219 153.140625 323.757812 152.664062 324.417969 152.003906 C 324.710938 152.996094 325.667969 153.140625 326.074219 153.140625 C 326.660156 153.140625 327.101562 152.8125 327.394531 152.296875 C 327.726562 151.671875 327.949219 150.71875 327.949219 150.644531 C 327.949219 150.460938 327.726562 150.460938 327.691406 150.460938 C 327.46875 150.460938 327.433594 150.496094 327.324219 150.9375 C 327.140625 151.746094 326.808594 152.703125 326.144531 152.703125 C 325.707031 152.703125 325.59375 152.332031 325.59375 151.894531 C 325.59375 151.636719 325.742188 151.046875 325.851562 150.605469 C 325.960938 150.164062 326.109375 149.503906 326.183594 149.136719 L 326.515625 147.886719 C 326.625 147.484375 326.808594 146.710938 326.808594 146.601562 C 326.808594 146.269531 326.515625 146.085938 326.257812 146.085938 C 326 146.085938 325.59375 146.308594 325.519531 146.75 Z M 324.457031 150.9375 C 324.34375 151.414062 323.976562 151.746094 323.648438 152.039062 C 323.5 152.1875 322.839844 152.703125 322.140625 152.703125 C 321.515625 152.703125 320.925781 152.261719 320.925781 151.121094 C 320.925781 150.238281 321.40625 148.4375 321.773438 147.777344 C 322.542969 146.492188 323.351562 146.234375 323.832031 146.234375 C 324.96875 146.234375 325.300781 147.484375 325.300781 147.667969 C 325.300781 147.742188 325.265625 147.851562 325.226562 147.886719 Z M 324.457031 150.9375 "/>
<path style="fill-rule:nonzero;fill:rgb(0%,0%,100%);fill-opacity:1;stroke-width:0.3985;stroke-linecap:butt;stroke-linejoin:miter;stroke:rgb(0%,0%,100%);stroke-opacity:1;stroke-miterlimit:10;" d="M 129.688476 0.000671325 C 129.688476 1.167338 128.74369 2.112337 127.57562 2.112337 C 126.407551 2.112337 125.462764 1.167338 125.462764 0.000671325 C 125.462764 -1.167662 126.407551 -2.112661 127.57562 -2.112661 C 128.74369 -2.112661 129.688476 -1.167662 129.688476 0.000671325 Z M 129.688476 0.000671325 " transform="matrix(2.344279,0,0,-2.343751,101.013044,199.310167)"/>
<path style="fill:none;stroke-width:0.3985;stroke-linecap:butt;stroke-linejoin:miter;stroke:rgb(0%,0%,100%);stroke-opacity:1;stroke-miterlimit:10;" d="M 3.233704 -21.260989 L 124.341351 -21.260989 " transform="matrix(2.344279,0,0,-2.343751,101.013044,199.310167)"/>
<path style="fill:none;stroke-width:0.3985;stroke-linecap:round;stroke-linejoin:round;stroke:rgb(0%,0%,100%);stroke-opacity:1;stroke-miterlimit:10;" d="M -2.072526 2.392577 C -1.692612 0.957578 -0.849469 0.279244 0.000338894 0.00091115 C -0.849469 -0.277422 -1.692612 -0.955755 -2.072526 -2.390755 " transform="matrix(-2.344279,0,0,2.343751,108.125794,249.138489)"/>
<path style="fill:none;stroke-width:0.3985;stroke-linecap:round;stroke-linejoin:round;stroke:rgb(0%,0%,100%);stroke-opacity:1;stroke-miterlimit:10;" d="M -2.073598 2.390755 C -1.693684 0.955755 -0.850541 0.277422 -0.000733056 -0.00091115 C -0.850541 -0.279244 -1.693684 -0.957578 -2.073598 -2.392577 " transform="matrix(2.344279,0,0,-2.343751,392.974375,249.138489)"/>
<path style=" stroke:none;fill-rule:nonzero;fill:rgb(0%,0%,100%);fill-opacity:1;" d="M 250.742188 257.898438 C 250.777344 257.863281 250.8125 257.640625 250.8125 257.605469 C 250.8125 257.53125 250.742188 257.382812 250.558594 257.382812 C 250.226562 257.382812 248.867188 257.53125 248.460938 257.566406 C 248.351562 257.566406 248.09375 257.605469 248.09375 257.933594 C 248.09375 258.15625 248.351562 258.15625 248.535156 258.15625 C 249.308594 258.15625 249.308594 258.265625 249.308594 258.414062 C 249.308594 258.523438 249.160156 259.183594 249.050781 259.550781 L 248.683594 261.058594 C 248.535156 261.609375 247.617188 265.175781 247.617188 265.394531 C 247.507812 265.800781 247.507812 266.019531 247.507812 266.203125 C 247.507812 267.855469 248.570312 268.886719 249.933594 268.886719 C 251.953125 268.886719 254.160156 266.679688 254.160156 264.253906 C 254.160156 262.34375 252.835938 261.535156 251.695312 261.535156 C 250.851562 261.535156 250.117188 262.015625 249.636719 262.417969 Z M 249.933594 268.445312 C 249.125 268.445312 248.683594 267.746094 248.683594 266.792969 C 248.683594 266.167969 248.828125 265.617188 249.269531 263.777344 C 249.378906 263.449219 249.378906 263.410156 249.710938 263.078125 C 250.300781 262.34375 251.035156 261.976562 251.660156 261.976562 C 252.285156 261.976562 252.835938 262.457031 252.835938 263.558594 C 252.835938 264.253906 252.46875 265.910156 251.992188 266.863281 C 251.585938 267.671875 250.777344 268.445312 249.933594 268.445312 Z M 249.933594 268.445312 "/>
<path style="fill:none;stroke-width:0.3985;stroke-linecap:butt;stroke-linejoin:miter;stroke:rgb(0%,0%,0%);stroke-opacity:1;stroke-miterlimit:10;" d="M 127.57562 0.000671325 L 127.560623 63.782319 " transform="matrix(2.344279,0,0,-2.343751,101.013044,199.310167)"/>
<path style="fill:none;stroke-width:0.3985;stroke-linecap:butt;stroke-linejoin:miter;stroke:rgb(100%,0%,0%);stroke-opacity:1;stroke-miterlimit:10;" d="M 131.827993 3.234004 L 131.812996 60.548987 " transform="matrix(2.344279,0,0,-2.343751,101.013044,199.310167)"/>
<path style="fill:none;stroke-width:0.3985;stroke-linecap:round;stroke-linejoin:round;stroke:rgb(100%,0%,0%);stroke-opacity:1;stroke-miterlimit:10;" d="M -2.07269 2.391869 C -1.69302 0.957106 -0.849843 0.278731 0.0000923528 0.000265451 C -0.849971 -0.27781 -1.69346 -0.955796 -2.07379 -2.388718 " transform="matrix(0.000539185,2.343751,2.344279,-0.000539064,410.054065,192.199002)"/>
<path style="fill:none;stroke-width:0.3985;stroke-linecap:round;stroke-linejoin:round;stroke:rgb(100%,0%,0%);stroke-opacity:1;stroke-miterlimit:10;" d="M -2.071717 2.392099 C -1.695352 0.957344 -0.848828 0.278986 -0.00221975 0.000537811 C -0.848945 -0.277555 -1.695753 -0.955557 -2.072721 -2.390154 " transform="matrix(-0.000492297,-2.343751,-2.344279,0.000492186,410.020791,56.936203)"/>
<path style=" stroke:none;fill-rule:nonzero;fill:rgb(100%,0%,0%);fill-opacity:1;" d="M 425.191406 123.996094 C 424.824219 123.445312 424.273438 123.042969 423.503906 123.042969 C 421.40625 123.042969 419.277344 125.320312 419.277344 127.707031 C 419.277344 129.289062 420.339844 130.390625 421.738281 130.390625 C 422.621094 130.390625 423.429688 129.914062 424.089844 129.253906 C 424.382812 130.246094 425.339844 130.390625 425.746094 130.390625 C 426.332031 130.390625 426.773438 130.0625 427.066406 129.546875 C 427.398438 128.921875 427.617188 127.964844 427.617188 127.894531 C 427.617188 127.707031 427.398438 127.707031 427.363281 127.707031 C 427.140625 127.707031 427.105469 127.746094 426.996094 128.1875 C 426.808594 128.996094 426.480469 129.949219 425.816406 129.949219 C 425.375 129.949219 425.265625 129.582031 425.265625 129.140625 C 425.265625 128.886719 425.414062 128.296875 425.523438 127.855469 C 425.632812 127.414062 425.78125 126.753906 425.855469 126.386719 L 426.1875 125.136719 C 426.296875 124.730469 426.480469 123.960938 426.480469 123.851562 C 426.480469 123.519531 426.1875 123.335938 425.929688 123.335938 C 425.671875 123.335938 425.265625 123.554688 425.191406 123.996094 Z M 424.128906 128.1875 C 424.015625 128.664062 423.648438 128.996094 423.320312 129.289062 C 423.171875 129.4375 422.511719 129.949219 421.8125 129.949219 C 421.1875 129.949219 420.597656 129.507812 420.597656 128.371094 C 420.597656 127.488281 421.078125 125.6875 421.445312 125.027344 C 422.214844 123.738281 423.023438 123.484375 423.503906 123.484375 C 424.640625 123.484375 424.972656 124.730469 424.972656 124.917969 C 424.972656 124.988281 424.9375 125.101562 424.898438 125.136719 Z M 424.128906 128.1875 "/>
<path style=" stroke:none;fill-rule:nonzero;fill:rgb(100%,0%,0%);fill-opacity:1;" d="M 432.714844 119.402344 C 432.75 119.367188 432.789062 119.148438 432.789062 119.109375 C 432.789062 119.035156 432.714844 118.890625 432.53125 118.890625 C 432.199219 118.890625 430.839844 119.035156 430.4375 119.074219 C 430.324219 119.074219 430.066406 119.109375 430.066406 119.441406 C 430.066406 119.660156 430.324219 119.660156 430.507812 119.660156 C 431.28125 119.660156 431.28125 119.769531 431.28125 119.917969 C 431.28125 120.027344 431.132812 120.691406 431.023438 121.058594 L 430.65625 122.5625 C 430.507812 123.117188 429.589844 126.679688 429.589844 126.902344 C 429.480469 127.304688 429.480469 127.523438 429.480469 127.707031 C 429.480469 129.363281 430.546875 130.390625 431.90625 130.390625 C 433.925781 130.390625 436.132812 128.1875 436.132812 125.761719 C 436.132812 123.851562 434.808594 123.042969 433.671875 123.042969 C 432.824219 123.042969 432.089844 123.519531 431.613281 123.925781 Z M 431.90625 129.949219 C 431.097656 129.949219 430.65625 129.253906 430.65625 128.296875 C 430.65625 127.671875 430.804688 127.121094 431.246094 125.285156 C 431.355469 124.953125 431.355469 124.917969 431.683594 124.585938 C 432.273438 123.851562 433.007812 123.484375 433.632812 123.484375 C 434.257812 123.484375 434.808594 123.960938 434.808594 125.0625 C 434.808594 125.761719 434.441406 127.414062 433.964844 128.371094 C 433.558594 129.179688 432.75 129.949219 431.90625 129.949219 Z M 431.90625 129.949219 "/>
</g>
</svg>
