<?xml version="1.0" encoding="UTF-8"?>
<svg xmlns="http://www.w3.org/2000/svg" xmlns:xlink="http://www.w3.org/1999/xlink" width="1011px" height="300px" viewBox="0 0 1011 300" version="1.1">
<g id="surface1">
<path style="fill-rule:nonzero;fill:rgb(100%,0%,0%);fill-opacity:1;stroke-width:0.3985;stroke-linecap:butt;stroke-linejoin:miter;stroke:rgb(100%,0%,0%);stroke-opacity:1;stroke-miterlimit:10;" d="M 1.407262 -0.000958303 C 1.407262 0.777167 0.779015 1.409458 0.00104635 1.409458 C -0.777131 1.409458 -1.409334 0.777167 -1.409334 -0.000958303 C -1.409334 -0.779083 -0.777131 -1.407208 0.00104635 -1.407208 C 0.779015 -1.407208 1.407262 -0.779083 1.407262 -0.000958303 Z M 1.407262 -0.000958303 " transform="matrix(18.758789,0,0,-18.75,235.14834,30.150001)"/>
<path style=" stroke:none;fill-rule:nonzero;fill:rgb(0%,0%,0%);fill-opacity:1;" d="M 126.59375 96.339844 C 101.660156 113.667969 94.96875 141.324219 94.96875 161.386719 C 94.96875 179.925781 100.746094 208.5 126.59375 226.734375 C 127.507812 226.734375 129.027344 226.734375 129.027344 225.214844 C 129.027344 224.304688 128.722656 224 127.8125 223.085938 C 110.480469 207.585938 104.09375 185.398438 104.09375 161.691406 C 104.09375 126.128906 117.472656 109.105469 128.117188 99.378906 C 128.722656 98.773438 129.027344 98.46875 129.027344 97.859375 C 129.027344 96.339844 127.507812 96.339844 126.59375 96.339844 Z M 126.59375 96.339844 "/>
<path style=" stroke:none;fill-rule:nonzero;fill:rgb(0%,0%,0%);fill-opacity:1;" d="M 205.976562 152.570312 C 205.976562 138.285156 204.152344 127.953125 198.375 118.527344 C 194.117188 112.753906 186.210938 107.28125 175.566406 107.28125 C 145.15625 107.28125 145.15625 143.148438 145.15625 152.570312 C 145.15625 161.992188 145.15625 196.949219 175.566406 196.949219 C 205.976562 196.949219 205.976562 161.992188 205.976562 152.570312 Z M 175.566406 193.300781 C 169.484375 193.300781 161.578125 189.652344 159.144531 179.015625 C 157.015625 171.113281 157.015625 160.472656 157.015625 150.746094 C 157.015625 141.324219 157.015625 131.296875 159.144531 124.304688 C 161.882812 113.96875 170.09375 111.234375 175.566406 111.234375 C 182.5625 111.234375 189.554688 115.488281 191.683594 123.089844 C 193.8125 130.078125 194.117188 139.5 194.117188 150.746094 C 194.117188 160.472656 194.117188 170.199219 192.292969 178.40625 C 189.859375 190.261719 180.734375 193.300781 175.566406 193.300781 Z M 175.566406 193.300781 "/>
<path style=" stroke:none;fill-rule:nonzero;fill:rgb(0%,0%,0%);fill-opacity:1;" d="M 240.628906 192.085938 C 240.628906 199.378906 239.109375 207.585938 230.289062 216.097656 C 229.683594 216.703125 229.378906 217.007812 229.378906 217.617188 C 229.378906 218.527344 230.59375 219.441406 231.203125 219.441406 C 233.027344 219.441406 244.277344 209.105469 244.277344 193.300781 C 244.277344 185.398438 240.933594 179.320312 235.15625 179.320312 C 230.59375 179.320312 227.554688 182.664062 227.554688 186.613281 C 227.554688 190.867188 230.59375 194.210938 235.15625 194.210938 C 238.195312 194.210938 240.324219 192.085938 240.628906 192.085938 Z M 240.628906 192.085938 "/>
<path style=" stroke:none;fill-rule:nonzero;fill:rgb(0%,0%,0%);fill-opacity:1;" d="M 324.847656 152.570312 C 324.847656 138.285156 323.023438 127.953125 317.246094 118.527344 C 312.988281 112.753906 305.082031 107.28125 294.4375 107.28125 C 264.03125 107.28125 264.03125 143.148438 264.03125 152.570312 C 264.03125 161.992188 264.03125 196.949219 294.4375 196.949219 C 324.847656 196.949219 324.847656 161.992188 324.847656 152.570312 Z M 294.4375 193.300781 C 288.355469 193.300781 280.449219 189.652344 278.019531 179.015625 C 275.890625 171.113281 275.890625 160.472656 275.890625 150.746094 C 275.890625 141.324219 275.890625 131.296875 278.019531 124.304688 C 280.753906 113.96875 288.964844 111.234375 294.4375 111.234375 C 301.433594 111.234375 308.425781 115.488281 310.554688 123.089844 C 312.683594 130.078125 312.988281 139.5 312.988281 150.746094 C 312.988281 160.472656 312.988281 170.199219 311.164062 178.40625 C 308.730469 190.261719 299.609375 193.300781 294.4375 193.300781 Z M 294.4375 193.300781 "/>
<path style=" stroke:none;fill-rule:nonzero;fill:rgb(0%,0%,0%);fill-opacity:1;" d="M 343.703125 96.339844 C 342.789062 96.339844 341.269531 96.339844 341.269531 97.859375 C 341.269531 98.46875 341.574219 98.773438 342.179688 99.683594 C 353.433594 110.019531 366.203125 127.648438 366.203125 161.386719 C 366.203125 188.742188 357.691406 209.410156 343.398438 222.175781 C 341.269531 224.304688 341.269531 224.605469 341.269531 225.214844 C 341.269531 225.824219 341.574219 226.734375 342.789062 226.734375 C 344.308594 226.734375 356.777344 218.222656 365.597656 201.8125 C 371.070312 190.867188 375.023438 176.886719 375.023438 161.691406 C 375.023438 143.148438 369.550781 114.578125 343.703125 96.339844 Z M 343.703125 96.339844 "/>
<path style="fill-rule:nonzero;fill:rgb(100%,0%,0%);fill-opacity:1;stroke-width:0.3985;stroke-linecap:butt;stroke-linejoin:miter;stroke:rgb(100%,0%,0%);stroke-opacity:1;stroke-miterlimit:10;" d="M 29.755641 -0.000958303 C 29.755641 0.777167 29.123437 1.409458 28.34526 1.409458 C 27.567083 1.409458 26.939044 0.777167 26.939044 -0.000958303 C 26.939044 -0.779083 27.567083 -1.407208 28.34526 -1.407208 C 29.123437 -1.407208 29.755641 -0.779083 29.755641 -0.000958303 Z M 29.755641 -0.000958303 " transform="matrix(18.758789,0,0,-18.75,235.14834,30.150001)"/>
<path style=" stroke:none;fill-rule:nonzero;fill:rgb(0%,0%,0%);fill-opacity:1;" d="M 658.332031 96.339844 C 633.398438 113.667969 626.707031 141.324219 626.707031 161.386719 C 626.707031 179.925781 632.484375 208.5 658.332031 226.734375 C 659.246094 226.734375 660.765625 226.734375 660.765625 225.214844 C 660.765625 224.304688 660.460938 224 659.546875 223.085938 C 642.214844 207.585938 635.828125 185.398438 635.828125 161.691406 C 635.828125 126.128906 649.210938 109.105469 659.851562 99.378906 C 660.460938 98.773438 660.765625 98.46875 660.765625 97.859375 C 660.765625 96.339844 659.246094 96.339844 658.332031 96.339844 Z M 658.332031 96.339844 "/>
<path style=" stroke:none;fill-rule:nonzero;fill:rgb(0%,0%,0%);fill-opacity:1;" d="M 713.992188 111.234375 C 713.992188 107.585938 713.6875 107.28125 710.039062 107.28125 C 701.828125 115.792969 689.664062 115.792969 684.496094 115.792969 L 684.496094 120.351562 C 687.539062 120.351562 696.355469 120.351562 703.351562 116.707031 L 703.351562 183.574219 C 703.351562 187.828125 703.351562 189.652344 690.273438 189.652344 L 685.410156 189.652344 L 685.410156 194.210938 C 687.839844 194.210938 703.957031 193.605469 708.519531 193.605469 C 712.777344 193.605469 729.199219 194.210938 731.933594 194.210938 L 731.933594 189.652344 L 727.070312 189.652344 C 713.992188 189.652344 713.992188 187.828125 713.992188 183.574219 Z M 713.992188 111.234375 "/>
<path style=" stroke:none;fill-rule:nonzero;fill:rgb(0%,0%,0%);fill-opacity:1;" d="M 772.382812 192.085938 C 772.382812 199.378906 770.863281 207.585938 762.046875 216.097656 C 761.4375 216.703125 761.132812 217.007812 761.132812 217.617188 C 761.132812 218.527344 762.347656 219.441406 762.957031 219.441406 C 764.78125 219.441406 776.035156 209.105469 776.035156 193.300781 C 776.035156 185.398438 772.6875 179.320312 766.910156 179.320312 C 762.347656 179.320312 759.308594 182.664062 759.308594 186.613281 C 759.308594 190.867188 762.347656 194.210938 766.910156 194.210938 C 769.953125 194.210938 772.082031 192.085938 772.382812 192.085938 Z M 772.382812 192.085938 "/>
<path style=" stroke:none;fill-rule:nonzero;fill:rgb(0%,0%,0%);fill-opacity:1;" d="M 856.605469 152.570312 C 856.605469 138.285156 854.777344 127.953125 849 118.527344 C 844.742188 112.753906 836.835938 107.28125 826.195312 107.28125 C 795.785156 107.28125 795.785156 143.148438 795.785156 152.570312 C 795.785156 161.992188 795.785156 196.949219 826.195312 196.949219 C 856.605469 196.949219 856.605469 161.992188 856.605469 152.570312 Z M 826.195312 193.300781 C 820.113281 193.300781 812.207031 189.652344 809.773438 179.015625 C 807.644531 171.113281 807.644531 160.472656 807.644531 150.746094 C 807.644531 141.324219 807.644531 131.296875 809.773438 124.304688 C 812.511719 113.96875 820.722656 111.234375 826.195312 111.234375 C 833.1875 111.234375 840.183594 115.488281 842.3125 123.089844 C 844.441406 130.078125 844.742188 139.5 844.742188 150.746094 C 844.742188 160.472656 844.742188 170.199219 842.917969 178.40625 C 840.488281 190.261719 831.363281 193.300781 826.195312 193.300781 Z M 826.195312 193.300781 "/>
<path style=" stroke:none;fill-rule:nonzero;fill:rgb(0%,0%,0%);fill-opacity:1;" d="M 875.457031 96.339844 C 874.542969 96.339844 873.023438 96.339844 873.023438 97.859375 C 873.023438 98.46875 873.328125 98.773438 873.9375 99.683594 C 885.1875 110.019531 897.960938 127.648438 897.960938 161.386719 C 897.960938 188.742188 889.445312 209.410156 875.152344 222.175781 C 873.023438 224.304688 873.023438 224.605469 873.023438 225.214844 C 873.023438 225.824219 873.328125 226.734375 874.542969 226.734375 C 876.066406 226.734375 888.53125 218.222656 897.351562 201.8125 C 902.824219 190.867188 906.777344 176.886719 906.777344 161.691406 C 906.777344 143.148438 901.304688 114.578125 875.457031 96.339844 Z M 875.457031 96.339844 "/>
</g>
</svg>
