<?xml version="1.0" encoding="UTF-8"?>
<svg xmlns="http://www.w3.org/2000/svg" xmlns:xlink="http://www.w3.org/1999/xlink" width="1011pt" height="300pt" viewBox="0 0 1011 300" version="1.1">
<g id="surface1">
<path style="fill-rule:nonzero;fill:rgb(100%,0%,0%);fill-opacity:1;stroke-width:0.3985;stroke-linecap:butt;stroke-linejoin:miter;stroke:rgb(100%,0%,0%);stroke-opacity:1;stroke-miterlimit:10;" d="M 1.407211 -0.00100013 C 1.407211 0.777217 0.779182 1.409442 0.000918992 1.409442 C -0.777139 1.409442 -1.409272 0.777217 -1.409272 -0.00100013 C -1.409272 -0.779012 -0.777139 -1.40713 0.000918992 -1.40713 C 0.779182 -1.40713 1.407211 -0.779012 1.407211 -0.00100013 Z M 1.407211 -0.00100013 " transform="matrix(19.032766,0,0,-19.023849,234.388759,30.590349)"/>
<path style=" stroke:none;fill-rule:nonzero;fill:rgb(0%,0%,0%);fill-opacity:1;" d="M 124.25 97.746094 C 98.949219 115.324219 92.164062 143.390625 92.164062 163.742188 C 92.164062 182.554688 98.023438 211.542969 124.25 230.046875 C 125.175781 230.046875 126.71875 230.046875 126.71875 228.503906 C 126.71875 227.578125 126.410156 227.269531 125.484375 226.347656 C 107.898438 210.617188 101.417969 188.105469 101.417969 164.050781 C 101.417969 127.96875 114.996094 110.699219 125.792969 100.832031 C 126.410156 100.214844 126.71875 99.90625 126.71875 99.289062 C 126.71875 97.746094 125.175781 97.746094 124.25 97.746094 Z M 124.25 97.746094 "/>
<path style=" stroke:none;fill-rule:nonzero;fill:rgb(0%,0%,0%);fill-opacity:1;" d="M 204.789062 154.800781 C 204.789062 140.304688 202.9375 129.820312 197.078125 120.261719 C 192.757812 114.402344 184.734375 108.851562 173.9375 108.851562 C 143.082031 108.851562 143.082031 145.238281 143.082031 154.800781 C 143.082031 164.359375 143.082031 199.824219 173.9375 199.824219 C 204.789062 199.824219 204.789062 164.359375 204.789062 154.800781 Z M 173.9375 196.125 C 167.765625 196.125 159.746094 192.421875 157.277344 181.628906 C 155.117188 173.613281 155.117188 162.816406 155.117188 152.949219 C 155.117188 143.390625 155.117188 133.210938 157.277344 126.121094 C 160.054688 115.632812 168.382812 112.859375 173.9375 112.859375 C 181.03125 112.859375 188.128906 117.175781 190.289062 124.886719 C 192.449219 131.980469 192.757812 141.539062 192.757812 152.949219 C 192.757812 162.816406 192.757812 172.6875 190.90625 181.011719 C 188.4375 193.039062 179.183594 196.125 173.9375 196.125 Z M 173.9375 196.125 "/>
<path style=" stroke:none;fill-rule:nonzero;fill:rgb(0%,0%,0%);fill-opacity:1;" d="M 239.949219 194.890625 C 239.949219 202.292969 238.40625 210.617188 229.460938 219.253906 C 228.84375 219.871094 228.535156 220.179688 228.535156 220.792969 C 228.535156 221.71875 229.769531 222.644531 230.386719 222.644531 C 232.234375 222.644531 243.652344 212.160156 243.652344 196.125 C 243.652344 188.105469 240.257812 181.9375 234.394531 181.9375 C 229.769531 181.9375 226.683594 185.332031 226.683594 189.339844 C 226.683594 193.65625 229.769531 197.050781 234.394531 197.050781 C 237.480469 197.050781 239.640625 194.890625 239.949219 194.890625 Z M 239.949219 194.890625 "/>
<path style=" stroke:none;fill-rule:nonzero;fill:rgb(0%,0%,0%);fill-opacity:1;" d="M 325.398438 154.800781 C 325.398438 140.304688 323.546875 129.820312 317.683594 120.261719 C 313.367188 114.402344 305.34375 108.851562 294.546875 108.851562 C 263.691406 108.851562 263.691406 145.238281 263.691406 154.800781 C 263.691406 164.359375 263.691406 199.824219 294.546875 199.824219 C 325.398438 199.824219 325.398438 164.359375 325.398438 154.800781 Z M 294.546875 196.125 C 288.375 196.125 280.351562 192.421875 277.882812 181.628906 C 275.726562 173.613281 275.726562 162.816406 275.726562 152.949219 C 275.726562 143.390625 275.726562 133.210938 277.882812 126.121094 C 280.660156 115.632812 288.992188 112.859375 294.546875 112.859375 C 301.640625 112.859375 308.738281 117.175781 310.898438 124.886719 C 313.058594 131.980469 313.367188 141.539062 313.367188 152.949219 C 313.367188 162.816406 313.367188 172.6875 311.515625 181.011719 C 309.046875 193.039062 299.789062 196.125 294.546875 196.125 Z M 294.546875 196.125 "/>
<path style=" stroke:none;fill-rule:nonzero;fill:rgb(0%,0%,0%);fill-opacity:1;" d="M 344.527344 97.746094 C 343.601562 97.746094 342.058594 97.746094 342.058594 99.289062 C 342.058594 99.90625 342.367188 100.214844 342.984375 101.140625 C 354.402344 111.625 367.359375 129.511719 367.359375 163.742188 C 367.359375 191.496094 358.71875 212.46875 344.21875 225.421875 C 342.058594 227.578125 342.058594 227.886719 342.058594 228.503906 C 342.058594 229.121094 342.367188 230.046875 343.601562 230.046875 C 345.144531 230.046875 357.792969 221.410156 366.742188 204.757812 C 372.296875 193.65625 376.304688 179.472656 376.304688 164.050781 C 376.304688 145.238281 370.753906 116.25 344.527344 97.746094 Z M 344.527344 97.746094 "/>
<path style="fill-rule:nonzero;fill:rgb(100%,0%,0%);fill-opacity:1;stroke-width:0.3985;stroke-linecap:butt;stroke-linejoin:miter;stroke:rgb(100%,0%,0%);stroke-opacity:1;stroke-miterlimit:10;" d="M 29.755527 -0.00100013 C 29.755527 0.777217 29.123394 1.409442 28.345336 1.409442 C 27.567073 1.409442 26.939044 0.777217 26.939044 -0.00100013 C 26.939044 -0.779012 27.567073 -1.40713 28.345336 -1.40713 C 29.123394 -1.40713 29.755527 -0.779012 29.755527 -0.00100013 Z M 29.755527 -0.00100013 " transform="matrix(19.032766,0,0,-19.023849,234.388759,30.590349)"/>
<path style=" stroke:none;fill-rule:nonzero;fill:rgb(0%,0%,0%);fill-opacity:1;" d="M 663.753906 97.746094 C 638.453125 115.324219 631.664062 143.390625 631.664062 163.742188 C 631.664062 182.554688 637.527344 211.542969 663.753906 230.046875 C 664.679688 230.046875 666.222656 230.046875 666.222656 228.503906 C 666.222656 227.578125 665.914062 227.269531 664.988281 226.347656 C 647.402344 210.617188 640.921875 188.105469 640.921875 164.050781 C 640.921875 127.96875 654.496094 110.699219 665.296875 100.832031 C 665.914062 100.214844 666.222656 99.90625 666.222656 99.289062 C 666.222656 97.746094 664.679688 97.746094 663.753906 97.746094 Z M 663.753906 97.746094 "/>
<path style=" stroke:none;fill-rule:nonzero;fill:rgb(0%,0%,0%);fill-opacity:1;" d="M 720.226562 112.859375 C 720.226562 109.160156 719.917969 108.851562 716.214844 108.851562 C 707.886719 117.484375 695.542969 117.484375 690.300781 117.484375 L 690.300781 122.109375 C 693.386719 122.109375 702.332031 122.109375 709.429688 118.410156 L 709.429688 186.253906 C 709.429688 190.574219 709.429688 192.421875 696.160156 192.421875 L 691.226562 192.421875 L 691.226562 197.050781 C 693.695312 197.050781 710.046875 196.433594 714.671875 196.433594 C 718.992188 196.433594 735.652344 197.050781 738.429688 197.050781 L 738.429688 192.421875 L 733.496094 192.421875 C 720.226562 192.421875 720.226562 190.574219 720.226562 186.253906 Z M 720.226562 112.859375 "/>
<path style=" stroke:none;fill-rule:nonzero;fill:rgb(0%,0%,0%);fill-opacity:1;" d="M 779.472656 194.890625 C 779.472656 202.292969 777.929688 210.617188 768.980469 219.253906 C 768.363281 219.871094 768.054688 220.179688 768.054688 220.792969 C 768.054688 221.71875 769.289062 222.644531 769.90625 222.644531 C 771.757812 222.644531 783.171875 212.160156 783.171875 196.125 C 783.171875 188.105469 779.78125 181.9375 773.917969 181.9375 C 769.289062 181.9375 766.203125 185.332031 766.203125 189.339844 C 766.203125 193.65625 769.289062 197.050781 773.917969 197.050781 C 777.003906 197.050781 779.164062 194.890625 779.472656 194.890625 Z M 779.472656 194.890625 "/>
<path style=" stroke:none;fill-rule:nonzero;fill:rgb(0%,0%,0%);fill-opacity:1;" d="M 864.921875 154.800781 C 864.921875 140.304688 863.070312 129.820312 857.207031 120.261719 C 852.886719 114.402344 844.867188 108.851562 834.066406 108.851562 C 803.214844 108.851562 803.214844 145.238281 803.214844 154.800781 C 803.214844 164.359375 803.214844 199.824219 834.066406 199.824219 C 864.921875 199.824219 864.921875 164.359375 864.921875 154.800781 Z M 834.066406 196.125 C 827.898438 196.125 819.875 192.421875 817.40625 181.628906 C 815.246094 173.613281 815.246094 162.816406 815.246094 152.949219 C 815.246094 143.390625 815.246094 133.210938 817.40625 126.121094 C 820.183594 115.632812 828.515625 112.859375 834.066406 112.859375 C 841.164062 112.859375 848.261719 117.175781 850.417969 124.886719 C 852.578125 131.980469 852.886719 141.539062 852.886719 152.949219 C 852.886719 162.816406 852.886719 172.6875 851.035156 181.011719 C 848.570312 193.039062 839.3125 196.125 834.066406 196.125 Z M 834.066406 196.125 "/>
<path style=" stroke:none;fill-rule:nonzero;fill:rgb(0%,0%,0%);fill-opacity:1;" d="M 884.050781 97.746094 C 883.125 97.746094 881.582031 97.746094 881.582031 99.289062 C 881.582031 99.90625 881.890625 100.214844 882.507812 101.140625 C 893.921875 111.625 906.878906 129.511719 906.878906 163.742188 C 906.878906 191.496094 898.242188 212.46875 883.742188 225.421875 C 881.582031 227.578125 881.582031 227.886719 881.582031 228.503906 C 881.582031 229.121094 881.890625 230.046875 883.125 230.046875 C 884.667969 230.046875 897.316406 221.410156 906.261719 204.757812 C 911.816406 193.65625 915.828125 179.472656 915.828125 164.050781 C 915.828125 145.238281 910.273438 116.25 884.050781 97.746094 Z M 884.050781 97.746094 "/>
</g>
</svg>
