<?xml version="1.0" encoding="UTF-8"?>
<svg xmlns="http://www.w3.org/2000/svg" xmlns:xlink="http://www.w3.org/1999/xlink" width="449pt" height="300pt" viewBox="0 0 449 300" version="1.1">
<defs>
<clipPath id="clip1">
  <path d="M 0 149 L 447.792969 149 L 447.792969 150 L 0 150 Z M 0 149 "/>
</clipPath>
<clipPath id="clip2">
  <path d="M 63 0.132812 L 384.972656 0.132812 L 384.972656 299.058594 L 63 299.058594 Z M 63 0.132812 "/>
</clipPath>
</defs>
<g id="surface1">
<g clip-path="url(#clip1)" clip-rule="nonzero">
<path style="fill:none;stroke-width:0.3985;stroke-linecap:butt;stroke-linejoin:miter;stroke:rgb(0%,0%,0%);stroke-opacity:1;stroke-miterlimit:10;" d="M -110.552008 -0.00128831 L 110.550236 -0.00128831 " transform="matrix(2.021618,0,0,-2.02247,223.896322,149.595051)"/>
</g>
<path style="fill-rule:nonzero;fill:rgb(0%,0%,0%);fill-opacity:1;stroke-width:0.3985;stroke-linecap:butt;stroke-linejoin:miter;stroke:rgb(0%,0%,0%);stroke-opacity:1;stroke-miterlimit:10;" d="M 38.983968 -0.00128831 C 38.983968 1.165292 38.037171 2.113622 36.870099 2.113622 C 35.703026 2.113622 34.756229 1.165292 34.756229 -0.00128831 C 34.756229 -1.167869 35.703026 -2.114267 36.870099 -2.114267 C 38.037171 -2.114267 38.983968 -1.167869 38.983968 -0.00128831 Z M 38.983968 -0.00128831 " transform="matrix(2.021618,0,0,-2.02247,223.896322,149.595051)"/>
<path style="fill:none;stroke-width:0.3985;stroke-linecap:butt;stroke-linejoin:miter;stroke:rgb(0%,0%,100%);stroke-opacity:1;stroke-miterlimit:10;" d="M 40.104667 -3.684516 L 70.485261 -3.684516 " transform="matrix(2.021618,0,0,-2.02247,223.896322,149.595051)"/>
<path style="fill:none;stroke-width:0.3985;stroke-linecap:round;stroke-linejoin:round;stroke:rgb(0%,0%,100%);stroke-opacity:1;stroke-miterlimit:10;" d="M -2.070844 2.392251 C -1.69599 0.955271 -0.849669 0.277341 0.000515725 -0.00078443 C -0.849669 -0.27891 -1.69599 -0.95684 -2.070844 -2.391889 " transform="matrix(-2.021618,0,0,2.02247,304.567449,157.048461)"/>
<path style="fill:none;stroke-width:0.3985;stroke-linecap:round;stroke-linejoin:round;stroke:rgb(0%,0%,100%);stroke-opacity:1;stroke-miterlimit:10;" d="M -2.073061 2.391889 C -1.69241 0.95684 -0.851886 0.27891 -0.00170069 0.00078443 C -0.851886 -0.277341 -1.69241 -0.955271 -2.073061 -2.392251 " transform="matrix(2.021618,0,0,-2.02247,366.788594,157.048461)"/>
<path style=" stroke:none;fill-rule:nonzero;fill:rgb(0%,0%,100%);fill-opacity:1;" d="M 336.378906 164.292969 C 336.378906 163.914062 336.347656 163.914062 335.964844 163.914062 C 335.046875 164.800781 333.78125 164.800781 333.210938 164.800781 L 333.210938 165.304688 C 333.527344 165.304688 334.476562 165.304688 335.238281 164.925781 L 335.238281 172.117188 C 335.238281 172.558594 335.238281 172.75 333.84375 172.75 L 333.308594 172.75 L 333.308594 173.257812 C 333.558594 173.257812 335.269531 173.191406 335.808594 173.191406 C 336.25 173.191406 338.023438 173.257812 338.308594 173.257812 L 338.308594 172.75 L 337.800781 172.75 C 336.378906 172.75 336.378906 172.558594 336.378906 172.117188 Z M 336.378906 164.292969 "/>
<path style="fill:none;stroke-width:0.3985;stroke-linecap:butt;stroke-linejoin:miter;stroke:rgb(0%,0%,100%);stroke-opacity:1;stroke-miterlimit:10;" d="M 33.635531 -3.684516 L -70.4851 -3.684516 " transform="matrix(2.021618,0,0,-2.02247,223.896322,149.595051)"/>
<path style="fill:none;stroke-width:0.3985;stroke-linecap:round;stroke-linejoin:round;stroke:rgb(0%,0%,100%);stroke-opacity:1;stroke-miterlimit:10;" d="M -2.070915 2.391889 C -1.696061 0.95684 -0.84974 0.27891 0.000445121 0.00078443 C -0.84974 -0.277341 -1.696061 -0.955271 -2.070915 -2.392251 " transform="matrix(2.021618,0,0,-2.02247,292.299881,157.048461)"/>
<path style="fill:none;stroke-width:0.3985;stroke-linecap:round;stroke-linejoin:round;stroke:rgb(0%,0%,100%);stroke-opacity:1;stroke-miterlimit:10;" d="M -2.073223 2.392251 C -1.692572 0.955271 -0.852048 0.277341 -0.00186239 -0.00078443 C -0.852048 -0.27891 -1.692572 -0.95684 -2.073223 -2.391889 " transform="matrix(-2.021618,0,0,2.02247,81.004047,157.048461)"/>
<path style=" stroke:none;fill-rule:nonzero;fill:rgb(0%,0%,100%);fill-opacity:1;" d="M 188.234375 164.855469 C 187.917969 164.378906 187.445312 164.03125 186.777344 164.03125 C 184.972656 164.03125 183.136719 165.996094 183.136719 168.054688 C 183.136719 169.414062 184.054688 170.363281 185.257812 170.363281 C 186.019531 170.363281 186.714844 169.953125 187.285156 169.382812 C 187.539062 170.238281 188.363281 170.363281 188.710938 170.363281 C 189.214844 170.363281 189.597656 170.078125 189.851562 169.636719 C 190.132812 169.097656 190.324219 168.273438 190.324219 168.210938 C 190.324219 168.054688 190.132812 168.054688 190.101562 168.054688 C 189.914062 168.054688 189.882812 168.085938 189.785156 168.464844 C 189.628906 169.160156 189.34375 169.984375 188.773438 169.984375 C 188.394531 169.984375 188.296875 169.667969 188.296875 169.289062 C 188.296875 169.066406 188.425781 168.558594 188.519531 168.179688 C 188.613281 167.800781 188.742188 167.230469 188.804688 166.914062 L 189.089844 165.835938 C 189.183594 165.488281 189.34375 164.824219 189.34375 164.726562 C 189.34375 164.441406 189.089844 164.285156 188.867188 164.285156 C 188.648438 164.285156 188.296875 164.472656 188.234375 164.855469 Z M 187.316406 168.464844 C 187.222656 168.875 186.90625 169.160156 186.621094 169.414062 C 186.492188 169.542969 185.925781 169.984375 185.324219 169.984375 C 184.785156 169.984375 184.277344 169.605469 184.277344 168.625 C 184.277344 167.863281 184.6875 166.3125 185.007812 165.742188 C 185.671875 164.632812 186.367188 164.410156 186.777344 164.410156 C 187.761719 164.410156 188.046875 165.488281 188.046875 165.644531 C 188.046875 165.710938 188.011719 165.804688 187.980469 165.835938 Z M 187.316406 168.464844 "/>
<path style="fill-rule:nonzero;fill:rgb(74.901961%,0%,25.098039%);fill-opacity:1;stroke-width:0.3985;stroke-linecap:butt;stroke-linejoin:miter;stroke:rgb(74.901961%,0%,25.098039%);stroke-opacity:1;stroke-miterlimit:10;" d="M 2.112984 -0.00128831 C 2.112984 1.165292 1.168119 2.113622 0.00104647 2.113622 C -1.167958 2.113622 -2.112823 1.165292 -2.112823 -0.00128831 C -2.112823 -1.167869 -1.167958 -2.114267 0.00104647 -2.114267 C 1.168119 -2.114267 2.112984 -1.167869 2.112984 -0.00128831 Z M 2.112984 -0.00128831 " transform="matrix(2.021618,0,0,-2.02247,223.896322,149.595051)"/>
<g clip-path="url(#clip2)" clip-rule="nonzero">
<path style="fill:none;stroke-width:0.3985;stroke-linecap:butt;stroke-linejoin:miter;stroke:rgb(55.294118%,52.54902%,0%);stroke-opacity:1;stroke-miterlimit:10;" d="M 73.702439 -0.00128831 C 73.702439 40.703497 40.707525 73.699965 0.00104647 73.699965 C -40.707365 73.699965 -73.702278 40.703497 -73.702278 -0.00128831 C -73.702278 -40.706074 -40.707365 -73.70061 0.00104647 -73.70061 C 40.707525 -73.70061 73.702439 -40.706074 73.702439 -0.00128831 Z M 73.702439 -0.00128831 " transform="matrix(2.021618,0,0,-2.02247,223.896322,149.595051)"/>
</g>
<path style="fill:none;stroke-width:0.3985;stroke-linecap:butt;stroke-linejoin:miter;stroke:rgb(74.901961%,50.196078%,25.098039%);stroke-opacity:1;stroke-miterlimit:10;" d="M 36.870099 -0.00128831 L 36.858505 63.841971 " transform="matrix(2.021618,0,0,-2.02247,223.896322,149.595051)"/>
<path style="fill:none;stroke-width:0.3985;stroke-linecap:butt;stroke-linejoin:miter;stroke:rgb(100%,0%,0%);stroke-opacity:1;stroke-miterlimit:10;" d="M 33.185319 3.233849 L 33.173726 60.608765 " transform="matrix(2.021618,0,0,-2.02247,223.896322,149.595051)"/>
<path style="fill:none;stroke-width:0.3985;stroke-linecap:round;stroke-linejoin:round;stroke:rgb(100%,0%,0%);stroke-opacity:1;stroke-miterlimit:10;" d="M -2.074766 2.389601 C -1.694518 0.957747 -0.84867 0.279387 0.00111017 0.00100046 C -0.848765 -0.280962 -1.694844 -0.957102 -2.071716 -2.390759 " transform="matrix(0.000343675,2.02247,2.021618,-0.00034382,290.982352,143.458693)"/>
<path style="fill:none;stroke-width:0.3985;stroke-linecap:round;stroke-linejoin:round;stroke:rgb(100%,0%,0%);stroke-opacity:1;stroke-miterlimit:10;" d="M -2.072427 2.392007 C -1.694112 0.954357 -0.852126 0.27793 0.00151658 -0.00045731 C -0.852221 -0.278555 -1.694437 -0.956627 -2.073241 -2.392216 " transform="matrix(-0.000343675,-2.02247,-2.021618,0.00034382,290.960014,26.616349)"/>
<path style=" stroke:none;fill-rule:nonzero;fill:rgb(100%,0%,0%);fill-opacity:1;" d="M 268.125 90.890625 L 265.367188 85.410156 C 265.304688 85.253906 265.242188 85.15625 265.148438 85.15625 C 265.085938 85.15625 265.050781 85.15625 264.925781 85.285156 L 263.40625 86.296875 C 263.214844 86.425781 263.214844 86.488281 263.214844 86.519531 C 263.214844 86.613281 263.28125 86.710938 263.40625 86.710938 C 263.46875 86.710938 263.5 86.710938 263.691406 86.582031 C 263.816406 86.488281 264.230469 86.203125 264.417969 86.074219 L 267.488281 92.1875 C 267.585938 92.378906 267.617188 92.410156 267.808594 92.410156 C 267.933594 92.410156 268.089844 92.410156 268.25 92.15625 L 275.339844 78.949219 C 275.4375 78.757812 275.4375 78.757812 275.4375 78.664062 C 275.4375 78.441406 275.246094 78.316406 275.089844 78.316406 C 274.898438 78.316406 274.835938 78.441406 274.738281 78.632812 Z M 268.125 90.890625 "/>
<path style="fill:none;stroke-width:0.339;stroke-linecap:butt;stroke-linejoin:miter;stroke:rgb(100%,0%,0%);stroke-opacity:1;stroke-miterlimit:10;" d="M -0.0004424 -0.00234168 L 4.321976 -0.00234168 " transform="matrix(2.021618,0,0,-2.02247,275.118082,78.671045)"/>
<path style=" stroke:none;fill-rule:nonzero;fill:rgb(100%,0%,0%);fill-opacity:1;" d="M 281.070312 83.804688 C 280.753906 83.328125 280.277344 82.980469 279.613281 82.980469 C 277.808594 82.980469 275.972656 84.945312 275.972656 87.003906 C 275.972656 88.363281 276.890625 89.316406 278.09375 89.316406 C 278.855469 89.316406 279.550781 88.902344 280.121094 88.332031 C 280.375 89.1875 281.195312 89.316406 281.542969 89.316406 C 282.050781 89.316406 282.429688 89.03125 282.683594 88.585938 C 282.96875 88.046875 283.160156 87.222656 283.160156 87.160156 C 283.160156 87.003906 282.96875 87.003906 282.9375 87.003906 C 282.746094 87.003906 282.714844 87.035156 282.621094 87.414062 C 282.464844 88.109375 282.179688 88.933594 281.609375 88.933594 C 281.226562 88.933594 281.132812 88.617188 281.132812 88.238281 C 281.132812 88.015625 281.261719 87.507812 281.355469 87.128906 C 281.449219 86.75 281.578125 86.179688 281.640625 85.863281 L 281.925781 84.785156 C 282.019531 84.4375 282.179688 83.773438 282.179688 83.675781 C 282.179688 83.390625 281.925781 83.234375 281.703125 83.234375 C 281.480469 83.234375 281.132812 83.421875 281.070312 83.804688 Z M 280.152344 87.414062 C 280.058594 87.824219 279.742188 88.109375 279.457031 88.363281 C 279.328125 88.492188 278.757812 88.933594 278.15625 88.933594 C 277.617188 88.933594 277.113281 88.554688 277.113281 87.574219 C 277.113281 86.8125 277.523438 85.261719 277.839844 84.691406 C 278.503906 83.582031 279.203125 83.359375 279.613281 83.359375 C 280.59375 83.359375 280.878906 84.4375 280.878906 84.59375 C 280.878906 84.660156 280.847656 84.753906 280.816406 84.785156 Z M 280.152344 87.414062 "/>
</g>
</svg>
