<?xml version="1.0" encoding="UTF-8"?>
<svg xmlns="http://www.w3.org/2000/svg" xmlns:xlink="http://www.w3.org/1999/xlink" width="449px" height="300px" viewBox="0 0 449 300" version="1.1">
<defs>
<clipPath id="clip1">
  <path d="M 0 149 L 447.992188 149 L 447.992188 150.203125 L 0 150.203125 Z M 0 149 "/>
</clipPath>
<clipPath id="clip2">
  <path d="M 63 0.269531 L 385 0.269531 L 385 299.328125 L 63 299.328125 Z M 63 0.269531 "/>
</clipPath>
</defs>
<g id="surface1">
<g clip-path="url(#clip1)" clip-rule="nonzero">
<path style="fill:none;stroke-width:0.3985;stroke-linecap:butt;stroke-linejoin:miter;stroke:rgb(0%,0%,0%);stroke-opacity:1;stroke-miterlimit:10;" d="M -110.552095 0.000387217 L 110.551807 0.000387217 " transform="matrix(2.022522,0,0,-2.023374,223.996385,149.797658)"/>
</g>
<path style="fill-rule:nonzero;fill:rgb(0%,0%,0%);fill-opacity:1;stroke-width:0.3985;stroke-linecap:butt;stroke-linejoin:miter;stroke:rgb(0%,0%,0%);stroke-opacity:1;stroke-miterlimit:10;" d="M 38.984677 0.000387217 C 38.984677 1.166447 38.036371 2.114353 36.86982 2.114353 C 35.703269 2.114353 34.754964 1.166447 34.754964 0.000387217 C 34.754964 -1.167603 35.703269 -2.115509 36.86982 -2.115509 C 38.036371 -2.115509 38.984677 -1.167603 38.984677 0.000387217 Z M 38.984677 0.000387217 " transform="matrix(2.022522,0,0,-2.023374,223.996385,149.797658)"/>
<path style="fill:none;stroke-width:0.3985;stroke-linecap:butt;stroke-linejoin:miter;stroke:rgb(0%,0%,100%);stroke-opacity:1;stroke-miterlimit:10;" d="M 40.102943 -3.685056 L 70.485416 -3.685056 " transform="matrix(2.022522,0,0,-2.023374,223.996385,149.797658)"/>
<path style="fill:none;stroke-width:0.3985;stroke-linecap:round;stroke-linejoin:round;stroke:rgb(0%,0%,100%);stroke-opacity:1;stroke-miterlimit:10;" d="M -2.070213 2.391721 C -1.695526 0.955383 -0.849583 0.277756 0.000222265 -0.000245418 C -0.849583 -0.278246 -1.695526 -0.955874 -2.070213 -2.392212 " transform="matrix(-2.022522,0,0,2.023374,304.703575,157.254403)"/>
<path style="fill:none;stroke-width:0.3985;stroke-linecap:round;stroke-linejoin:round;stroke:rgb(0%,0%,100%);stroke-opacity:1;stroke-miterlimit:10;" d="M -2.072066 2.392212 C -1.693517 0.955874 -0.851437 0.278246 -0.00163158 0.000245418 C -0.851437 -0.277756 -1.693517 -0.955383 -2.072066 -2.391721 " transform="matrix(2.022522,0,0,-2.023374,366.952519,157.254403)"/>
<path style=" stroke:none;fill-rule:nonzero;fill:rgb(0%,0%,100%);fill-opacity:1;" d="M 336.527344 164.5 C 336.527344 164.121094 336.496094 164.121094 336.117188 164.121094 C 335.199219 165.007812 333.929688 165.007812 333.359375 165.007812 L 333.359375 165.515625 C 333.675781 165.515625 334.628906 165.515625 335.386719 165.136719 L 335.386719 172.328125 C 335.386719 172.773438 335.386719 172.960938 333.996094 172.960938 L 333.457031 172.960938 L 333.457031 173.46875 C 333.710938 173.46875 335.417969 173.40625 335.957031 173.40625 C 336.402344 173.40625 338.175781 173.46875 338.460938 173.46875 L 338.460938 172.960938 L 337.953125 172.960938 C 336.527344 172.960938 336.527344 172.773438 336.527344 172.328125 Z M 336.527344 164.5 "/>
<path style="fill:none;stroke-width:0.3985;stroke-linecap:butt;stroke-linejoin:miter;stroke:rgb(0%,0%,100%);stroke-opacity:1;stroke-miterlimit:10;" d="M 33.636697 -3.685056 L -70.483773 -3.685056 " transform="matrix(2.022522,0,0,-2.023374,223.996385,149.797658)"/>
<path style="fill:none;stroke-width:0.3985;stroke-linecap:round;stroke-linejoin:round;stroke:rgb(0%,0%,100%);stroke-opacity:1;stroke-miterlimit:10;" d="M -2.070849 2.392212 C -1.696162 0.955874 -0.850219 0.278246 -0.000413653 0.000245418 C -0.850219 -0.277756 -1.696162 -0.955383 -2.070849 -2.391721 " transform="matrix(2.022522,0,0,-2.023374,292.430524,157.254403)"/>
<path style="fill:none;stroke-width:0.3985;stroke-linecap:round;stroke-linejoin:round;stroke:rgb(0%,0%,100%);stroke-opacity:1;stroke-miterlimit:10;" d="M -2.071778 2.391721 C -1.693229 0.955383 -0.851149 0.277756 -0.00134334 -0.000245418 C -0.851149 -0.278246 -1.693229 -0.955874 -2.071778 -2.392212 " transform="matrix(-2.022522,0,0,2.023374,81.040252,157.254403)"/>
<path style=" stroke:none;fill-rule:nonzero;fill:rgb(0%,0%,100%);fill-opacity:1;" d="M 188.320312 165.0625 C 188.003906 164.589844 187.527344 164.238281 186.863281 164.238281 C 185.058594 164.238281 183.21875 166.203125 183.21875 168.265625 C 183.21875 169.625 184.136719 170.578125 185.34375 170.578125 C 186.101562 170.578125 186.800781 170.164062 187.367188 169.59375 C 187.621094 170.449219 188.445312 170.578125 188.792969 170.578125 C 189.300781 170.578125 189.679688 170.292969 189.933594 169.847656 C 190.21875 169.308594 190.410156 168.484375 190.410156 168.421875 C 190.410156 168.265625 190.21875 168.265625 190.1875 168.265625 C 189.996094 168.265625 189.964844 168.296875 189.871094 168.675781 C 189.714844 169.371094 189.429688 170.195312 188.859375 170.195312 C 188.476562 170.195312 188.382812 169.878906 188.382812 169.5 C 188.382812 169.277344 188.507812 168.769531 188.605469 168.390625 C 188.699219 168.011719 188.824219 167.441406 188.890625 167.125 L 189.175781 166.046875 C 189.269531 165.699219 189.429688 165.03125 189.429688 164.9375 C 189.429688 164.652344 189.175781 164.492188 188.953125 164.492188 C 188.730469 164.492188 188.382812 164.683594 188.320312 165.0625 Z M 187.402344 168.675781 C 187.304688 169.085938 186.988281 169.371094 186.703125 169.625 C 186.578125 169.753906 186.007812 170.195312 185.40625 170.195312 C 184.867188 170.195312 184.359375 169.816406 184.359375 168.835938 C 184.359375 168.074219 184.773438 166.519531 185.089844 165.949219 C 185.753906 164.839844 186.449219 164.621094 186.863281 164.621094 C 187.84375 164.621094 188.128906 165.699219 188.128906 165.855469 C 188.128906 165.917969 188.097656 166.015625 188.066406 166.046875 Z M 187.402344 168.675781 "/>
<path style="fill-rule:nonzero;fill:rgb(74.901962%,0%,25.098041%);fill-opacity:1;stroke-width:0.3985;stroke-linecap:butt;stroke-linejoin:miter;stroke:rgb(74.901962%,0%,25.098041%);stroke-opacity:1;stroke-miterlimit:10;" d="M 2.112781 0.000387217 C 2.112781 1.166447 1.168338 2.114353 0.00178726 2.114353 C -1.168626 2.114353 -2.113069 1.166447 -2.113069 0.000387217 C -2.113069 -1.167603 -1.168626 -2.115509 0.00178726 -2.115509 C 1.168338 -2.115509 2.112781 -1.167603 2.112781 0.000387217 Z M 2.112781 0.000387217 " transform="matrix(2.022522,0,0,-2.023374,223.996385,149.797658)"/>
<g clip-path="url(#clip2)" clip-rule="nonzero">
<path style="fill:none;stroke-width:0.3985;stroke-linecap:butt;stroke-linejoin:miter;stroke:rgb(55.29412%,52.549022%,0%);stroke-opacity:1;stroke-miterlimit:10;" d="M 73.703088 0.000387217 C 73.703088 40.704364 40.707464 73.699605 0.00178726 73.699605 C -40.707752 73.699605 -73.703376 40.704364 -73.703376 0.000387217 C -73.703376 -40.70552 -40.707752 -73.700761 0.00178726 -73.700761 C 40.707464 -73.700761 73.703088 -40.70552 73.703088 0.000387217 Z M 73.703088 0.000387217 " transform="matrix(2.022522,0,0,-2.023374,223.996385,149.797658)"/>
</g>
<path style="fill:none;stroke-width:0.3985;stroke-linecap:butt;stroke-linejoin:miter;stroke:rgb(74.901962%,50.196081%,25.098041%);stroke-opacity:1;stroke-miterlimit:10;" d="M 36.86982 0.000387217 L 36.858232 63.842154 " transform="matrix(2.022522,0,0,-2.023374,223.996385,149.797658)"/>
<path style="fill:none;stroke-width:0.3985;stroke-linecap:butt;stroke-linejoin:miter;stroke:rgb(100%,0%,0%);stroke-opacity:1;stroke-miterlimit:10;" d="M 33.186686 3.234079 L 33.173167 60.608462 " transform="matrix(2.022522,0,0,-2.023374,223.996385,149.797658)"/>
<path style="fill:none;stroke-width:0.3985;stroke-linecap:round;stroke-linejoin:round;stroke:rgb(100%,0%,0%);stroke-opacity:1;stroke-miterlimit:10;" d="M -2.074161 2.389896 C -1.694084 0.95675 -0.848613 0.278693 0.000787783 0.00236229 C -0.848708 -0.279474 -1.694409 -0.957243 -2.071112 -2.39026 " transform="matrix(0.000343829,2.023374,2.022522,-0.000343974,291.112409,143.658563)"/>
<path style="fill:none;stroke-width:0.3985;stroke-linecap:round;stroke-linejoin:round;stroke:rgb(100%,0%,0%);stroke-opacity:1;stroke-miterlimit:10;" d="M -2.071892 2.391496 C -1.693746 0.954488 -0.852136 0.276432 0.00112527 0.000100051 C -0.852231 -0.277873 -1.694071 -0.955643 -2.072705 -2.392522 " transform="matrix(-0.000343829,-2.023374,-2.022522,0.000343974,291.090046,26.763996)"/>
<path style=" stroke:none;fill-rule:nonzero;fill:rgb(100%,0%,0%);fill-opacity:1;" d="M 268.242188 91.066406 L 265.488281 85.585938 C 265.425781 85.425781 265.359375 85.332031 265.265625 85.332031 C 265.203125 85.332031 265.171875 85.332031 265.042969 85.457031 L 263.523438 86.472656 C 263.332031 86.597656 263.332031 86.660156 263.332031 86.695312 C 263.332031 86.789062 263.398438 86.882812 263.523438 86.882812 C 263.585938 86.882812 263.617188 86.882812 263.808594 86.757812 C 263.9375 86.660156 264.347656 86.375 264.539062 86.25 L 267.609375 92.367188 C 267.703125 92.554688 267.738281 92.585938 267.925781 92.585938 C 268.054688 92.585938 268.210938 92.585938 268.371094 92.332031 L 275.464844 79.121094 C 275.558594 78.929688 275.558594 78.929688 275.558594 78.835938 C 275.558594 78.613281 275.371094 78.488281 275.210938 78.488281 C 275.019531 78.488281 274.957031 78.613281 274.863281 78.804688 Z M 268.242188 91.066406 "/>
<path style="fill:none;stroke-width:0.339;stroke-linecap:butt;stroke-linejoin:miter;stroke:rgb(100%,0%,0%);stroke-opacity:1;stroke-miterlimit:10;" d="M -0.00135814 -0.00088461 L 4.321061 -0.00088461 " transform="matrix(2.022522,0,0,-2.023374,275.241028,78.84196)"/>
<path style=" stroke:none;fill-rule:nonzero;fill:rgb(100%,0%,0%);fill-opacity:1;" d="M 281.195312 83.976562 C 280.878906 83.5 280.402344 83.152344 279.738281 83.152344 C 277.933594 83.152344 276.097656 85.117188 276.097656 87.175781 C 276.097656 88.539062 277.015625 89.492188 278.21875 89.492188 C 278.976562 89.492188 279.675781 89.078125 280.246094 88.507812 C 280.5 89.363281 281.320312 89.492188 281.671875 89.492188 C 282.175781 89.492188 282.558594 89.203125 282.8125 88.761719 C 283.097656 88.222656 283.285156 87.398438 283.285156 87.335938 C 283.285156 87.175781 283.097656 87.175781 283.0625 87.175781 C 282.875 87.175781 282.84375 87.207031 282.746094 87.589844 C 282.589844 88.285156 282.304688 89.109375 281.734375 89.109375 C 281.355469 89.109375 281.257812 88.792969 281.257812 88.414062 C 281.257812 88.191406 281.386719 87.683594 281.480469 87.304688 C 281.574219 86.921875 281.703125 86.351562 281.765625 86.035156 L 282.050781 84.960938 C 282.144531 84.609375 282.304688 83.945312 282.304688 83.851562 C 282.304688 83.566406 282.050781 83.40625 281.828125 83.40625 C 281.605469 83.40625 281.257812 83.597656 281.195312 83.976562 Z M 280.277344 87.589844 C 280.183594 88 279.867188 88.285156 279.582031 88.539062 C 279.453125 88.667969 278.882812 89.109375 278.28125 89.109375 C 277.742188 89.109375 277.238281 88.730469 277.238281 87.746094 C 277.238281 86.988281 277.648438 85.433594 277.964844 84.863281 C 278.628906 83.753906 279.328125 83.53125 279.738281 83.53125 C 280.71875 83.53125 281.003906 84.609375 281.003906 84.769531 C 281.003906 84.832031 280.972656 84.925781 280.941406 84.960938 Z M 280.277344 87.589844 "/>
</g>
</svg>
