<?xml version="1.0" encoding="UTF-8"?>
<svg xmlns="http://www.w3.org/2000/svg" xmlns:xlink="http://www.w3.org/1999/xlink" width="479px" height="300px" viewBox="0 0 479 300" version="1.1">
<defs>
<clipPath id="clip1">
  <path d="M 0 0.949219 L 458 0.949219 L 458 270 L 0 270 Z M 0 0.949219 "/>
</clipPath>
</defs>
<g id="surface1">
<path style="fill-rule:nonzero;fill:rgb(0%,0%,0%);fill-opacity:1;stroke-width:0.3985;stroke-linecap:butt;stroke-linejoin:miter;stroke:rgb(0%,0%,0%);stroke-opacity:1;stroke-miterlimit:10;" d="M 1.408127 0.00145925 C 1.408127 0.7783 0.77967 1.407215 -0.00218378 1.407215 C -0.779389 1.407215 -1.407847 0.7783 -1.407847 0.00145925 C -1.407847 -0.776311 -0.779389 -1.408948 -0.00218378 -1.408948 C 0.77967 -1.408948 1.408127 -0.776311 1.408127 0.00145925 Z M 1.408127 0.00145925 " transform="matrix(4.201754,0,0,-4.198699,119.102926,179.474877)"/>
<path style="fill-rule:nonzero;fill:rgb(0%,0%,0%);fill-opacity:1;stroke-width:0.3985;stroke-linecap:butt;stroke-linejoin:miter;stroke:rgb(0%,0%,0%);stroke-opacity:1;stroke-miterlimit:10;" d="M 58.104128 28.345434 C 58.104128 29.126926 57.471951 29.754911 56.693816 29.754911 C 55.916611 29.754911 55.284435 29.126926 55.284435 28.345434 C 55.284435 27.567663 55.916611 26.938748 56.693816 26.938748 C 57.471951 26.938748 58.104128 27.567663 58.104128 28.345434 Z M 58.104128 28.345434 " transform="matrix(4.201754,0,0,-4.198699,119.102926,179.474877)"/>
<g clip-path="url(#clip1)" clip-rule="nonzero">
<path style="fill:none;stroke-width:0.79701;stroke-linecap:butt;stroke-linejoin:miter;stroke:rgb(100%,0%,0%);stroke-opacity:1;stroke-miterlimit:10;" d="M -20.282962 -10.143053 L 69.371743 34.683893 " transform="matrix(4.201754,0,0,-4.198699,119.102926,179.474877)"/>
</g>
</g>
</svg>
