<?xml version="1.0" encoding="UTF-8"?>
<svg xmlns="http://www.w3.org/2000/svg" xmlns:xlink="http://www.w3.org/1999/xlink" width="2046px" height="300px" viewBox="0 0 2046 300" version="1.1">
<defs>
<clipPath id="clip1">
  <path d="M 4.578125 160 L 2041.414062 160 L 2041.414062 165 L 4.578125 165 Z M 4.578125 160 "/>
</clipPath>
</defs>
<g id="surface1">
<g clip-path="url(#clip1)" clip-rule="nonzero">
<path style="fill:none;stroke-width:0.3985;stroke-linecap:butt;stroke-linejoin:miter;stroke:rgb(0%,0%,0%);stroke-opacity:1;stroke-miterlimit:10;" d="M -42.518275 -0.000627703 L 170.079467 -0.000627703 " transform="matrix(9.562697,0,0,-9.563416,413.081574,162.107278)"/>
</g>
<path style="fill-rule:nonzero;fill:rgb(0%,0%,0%);fill-opacity:1;stroke-width:0.3985;stroke-linecap:butt;stroke-linejoin:miter;stroke:rgb(0%,0%,0%);stroke-opacity:1;stroke-miterlimit:10;" d="M 2.1152 -0.000627703 C 2.1152 1.168786 1.165873 2.114366 0.000456253 2.114366 C -1.169046 2.114366 -2.114696 1.168786 -2.114696 -0.000627703 C -2.114696 -1.165957 -1.169046 -2.111537 0.000456253 -2.111537 C 1.165873 -2.111537 2.1152 -1.165957 2.1152 -0.000627703 Z M 2.1152 -0.000627703 " transform="matrix(9.562697,0,0,-9.563416,413.081574,162.107278)"/>
<path style="fill-rule:nonzero;fill:rgb(0%,0%,100%);fill-opacity:1;stroke-width:0.3985;stroke-linecap:butt;stroke-linejoin:miter;stroke:rgb(0%,0%,100%);stroke-opacity:1;stroke-miterlimit:10;" d="M 129.69141 -0.000627703 C 129.69141 1.168786 128.741675 2.114366 127.576258 2.114366 C 126.407164 2.114366 125.461514 1.168786 125.461514 -0.000627703 C 125.461514 -1.165957 126.407164 -2.111537 127.576258 -2.111537 C 128.741675 -2.111537 129.69141 -1.165957 129.69141 -0.000627703 Z M 129.69141 -0.000627703 " transform="matrix(9.562697,0,0,-9.563416,413.081574,162.107278)"/>
<path style="fill-rule:nonzero;fill:rgb(55.29412%,52.549022%,0%);fill-opacity:1;stroke-width:0.3985;stroke-linecap:butt;stroke-linejoin:miter;stroke:rgb(55.29412%,52.549022%,0%);stroke-opacity:1;stroke-miterlimit:10;" d="M 87.164509 -0.000627703 C 87.164509 1.168786 86.218859 2.114366 85.049765 2.114366 C 83.884348 2.114366 82.938698 1.168786 82.938698 -0.000627703 C 82.938698 -1.165957 83.884348 -2.111537 85.049765 -2.111537 C 86.218859 -2.111537 87.164509 -1.165957 87.164509 -0.000627703 Z M 87.164509 -0.000627703 " transform="matrix(9.562697,0,0,-9.563416,413.081574,162.107278)"/>
<path style="fill:none;stroke-width:0.3985;stroke-linecap:butt;stroke-linejoin:miter;stroke:rgb(0%,0%,100%);stroke-opacity:1;stroke-miterlimit:10;" d="M 3.233641 -4.253897 L 124.343073 -4.253897 " transform="matrix(9.562697,0,0,-9.563416,413.081574,162.107278)"/>
<path style="fill:none;stroke-width:0.3985;stroke-linecap:round;stroke-linejoin:round;stroke:rgb(0%,0%,100%);stroke-opacity:1;stroke-miterlimit:10;" d="M -2.071245 2.391521 C -1.694619 0.955384 -0.85109 0.280203 0.000607809 0.00163519 C -0.85109 -0.280609 -1.694619 -0.955789 -2.071245 -2.391926 " transform="matrix(-9.562697,0,0,9.563416,442.095656,202.773424)"/>
<path style="fill:none;stroke-width:0.3985;stroke-linecap:round;stroke-linejoin:round;stroke:rgb(0%,0%,100%);stroke-opacity:1;stroke-miterlimit:10;" d="M -2.070717 2.391926 C -1.694091 0.955789 -0.850154 0.280609 0.00113543 -0.00163519 C -0.850154 -0.280203 -1.694091 -0.955384 -2.070717 -2.391521 " transform="matrix(9.562697,0,0,-9.563416,1604.039923,202.773424)"/>
<path style=" stroke:none;fill-rule:nonzero;fill:rgb(0%,0%,100%);fill-opacity:1;" d="M 1030.460938 239.625 C 1029.109375 237.523438 1026.855469 235.722656 1023.707031 235.722656 C 1015.148438 235.722656 1006.445312 245.179688 1006.445312 254.785156 C 1006.445312 261.242188 1010.796875 265.742188 1016.5 265.742188 C 1020.101562 265.742188 1023.253906 263.792969 1025.957031 261.089844 C 1027.308594 265.144531 1031.058594 265.742188 1032.859375 265.742188 C 1035.261719 265.742188 1036.914062 264.394531 1038.113281 262.292969 C 1039.613281 259.738281 1040.515625 255.835938 1040.515625 255.6875 C 1040.515625 254.785156 1039.613281 254.785156 1039.316406 254.785156 C 1038.414062 254.785156 1038.414062 255.085938 1037.964844 256.738281 C 1037.0625 260.039062 1035.863281 263.941406 1033.011719 263.941406 C 1031.359375 263.941406 1030.910156 262.441406 1030.910156 260.640625 C 1030.910156 259.589844 1031.359375 257.1875 1031.808594 255.386719 C 1032.261719 253.585938 1033.011719 250.882812 1033.3125 249.382812 L 1034.660156 244.28125 C 1035.113281 242.628906 1035.863281 239.476562 1035.863281 239.175781 C 1035.863281 237.675781 1034.660156 237.074219 1033.609375 237.074219 C 1032.410156 237.074219 1030.910156 237.824219 1030.460938 239.625 Z M 1026.257812 256.738281 C 1025.804688 258.6875 1024.304688 260.039062 1022.804688 261.242188 C 1022.203125 261.839844 1019.652344 263.941406 1016.652344 263.941406 C 1014.25 263.941406 1011.847656 262.140625 1011.847656 257.488281 C 1011.847656 253.886719 1013.800781 246.679688 1015.300781 243.980469 C 1018.453125 238.574219 1021.753906 237.675781 1023.707031 237.675781 C 1028.359375 237.675781 1029.558594 242.628906 1029.558594 243.378906 C 1029.558594 243.679688 1029.410156 244.128906 1029.410156 244.28125 Z M 1026.257812 256.738281 "/>
<path style="fill:none;stroke-width:0.3985;stroke-linecap:butt;stroke-linejoin:miter;stroke:rgb(55.29412%,52.549022%,0%);stroke-opacity:1;stroke-miterlimit:10;" d="M 124.343073 4.25305 L 88.28295 4.25305 " transform="matrix(9.562697,0,0,-9.563416,413.081574,162.107278)"/>
<path style="fill:none;stroke-width:0.3985;stroke-linecap:round;stroke-linejoin:round;stroke:rgb(55.29412%,52.549022%,0%);stroke-opacity:1;stroke-miterlimit:10;" d="M -2.070717 2.390267 C -1.694091 0.958215 -0.850154 0.279358 0.00113543 0.000790159 C -0.850154 -0.278186 -1.694091 -0.956634 -2.070717 -2.392771 " transform="matrix(9.562697,0,0,-9.563416,1604.039923,121.44115)"/>
<path style="fill:none;stroke-width:0.3985;stroke-linecap:round;stroke-linejoin:round;stroke:rgb(55.29412%,52.549022%,0%);stroke-opacity:1;stroke-miterlimit:10;" d="M -2.073838 2.392771 C -1.693126 0.956634 -0.849598 0.278186 -0.0019848 -0.000790159 C -0.849598 -0.279358 -1.693126 -0.958215 -2.073838 -2.390267 " transform="matrix(-9.562697,0,0,9.563416,1255.410707,121.44115)"/>
<path style=" stroke:none;fill-rule:nonzero;fill:rgb(55.29412%,52.549022%,0%);fill-opacity:1;" d="M 1430.519531 43.5 C 1430.667969 43.351562 1430.816406 42.601562 1430.816406 42.449219 C 1430.816406 42.148438 1430.519531 41.550781 1429.765625 41.550781 C 1428.417969 41.550781 1422.863281 42 1421.210938 42.148438 C 1420.761719 42.300781 1419.710938 42.300781 1419.710938 43.800781 C 1419.710938 44.703125 1420.761719 44.703125 1421.511719 44.703125 C 1424.664062 44.703125 1424.664062 45.152344 1424.664062 45.601562 C 1424.664062 46.050781 1424.0625 48.753906 1423.613281 50.253906 L 1422.113281 56.410156 C 1421.511719 58.660156 1417.761719 73.371094 1417.761719 74.121094 C 1417.308594 75.773438 1417.308594 76.671875 1417.308594 77.421875 C 1417.308594 84.179688 1421.664062 88.378906 1427.214844 88.378906 C 1435.472656 88.378906 1444.324219 79.375 1444.324219 69.46875 C 1444.324219 61.664062 1438.921875 58.359375 1434.421875 58.359375 C 1430.816406 58.359375 1427.964844 60.3125 1426.015625 62.113281 Z M 1427.214844 86.578125 C 1423.914062 86.578125 1422.113281 83.726562 1422.113281 79.824219 C 1422.113281 77.273438 1422.714844 75.023438 1424.515625 67.515625 C 1424.964844 66.316406 1424.964844 66.164062 1426.164062 64.664062 C 1428.714844 61.664062 1431.71875 60.3125 1434.121094 60.3125 C 1436.820312 60.3125 1439.074219 62.261719 1439.074219 66.765625 C 1439.074219 69.46875 1437.570312 76.222656 1435.621094 80.125 C 1433.96875 83.425781 1430.667969 86.578125 1427.214844 86.578125 Z M 1427.214844 86.578125 "/>
<path style="fill:none;stroke-width:0.3985;stroke-linecap:butt;stroke-linejoin:miter;stroke:rgb(100%,0%,0%);stroke-opacity:1;stroke-miterlimit:10;" d="M 3.233641 4.25305 L 81.81658 4.25305 " transform="matrix(9.562697,0,0,-9.563416,413.081574,162.107278)"/>
<path style="fill:none;stroke-width:0.3985;stroke-linecap:round;stroke-linejoin:round;stroke:rgb(100%,0%,0%);stroke-opacity:1;stroke-miterlimit:10;" d="M -2.071245 2.392771 C -1.694619 0.956634 -0.85109 0.278186 0.000607809 -0.000790159 C -0.85109 -0.279358 -1.694619 -0.958215 -2.071245 -2.390267 " transform="matrix(-9.562697,0,0,9.563416,442.095656,121.44115)"/>
<path style="fill:none;stroke-width:0.3985;stroke-linecap:round;stroke-linejoin:round;stroke:rgb(100%,0%,0%);stroke-opacity:1;stroke-miterlimit:10;" d="M -2.071825 2.390267 C -1.695198 0.958215 -0.85167 0.279358 0.0000280449 0.000790159 C -0.85167 -0.278186 -1.695198 -0.956634 -2.071825 -2.392771 " transform="matrix(9.562697,0,0,-9.563416,1197.382544,121.44115)"/>
<path style=" stroke:none;fill-rule:nonzero;fill:rgb(100%,0%,0%);fill-opacity:1;" d="M 780.613281 54.324219 C 779.265625 52.222656 777.011719 50.421875 773.859375 50.421875 C 765.304688 50.421875 756.601562 59.878906 756.601562 69.484375 C 756.601562 75.941406 760.953125 80.441406 766.65625 80.441406 C 770.257812 80.441406 773.410156 78.492188 776.113281 75.789062 C 777.460938 79.84375 781.214844 80.441406 783.015625 80.441406 C 785.417969 80.441406 787.070312 79.09375 788.269531 76.992188 C 789.769531 74.4375 790.671875 70.535156 790.671875 70.386719 C 790.671875 69.484375 789.769531 69.484375 789.46875 69.484375 C 788.570312 69.484375 788.570312 69.785156 788.121094 71.4375 C 787.21875 74.738281 786.019531 78.640625 783.167969 78.640625 C 781.515625 78.640625 781.066406 77.140625 781.066406 75.339844 C 781.066406 74.289062 781.515625 71.886719 781.964844 70.085938 C 782.414062 68.285156 783.167969 65.582031 783.464844 64.082031 L 784.816406 58.980469 C 785.265625 57.328125 786.019531 54.175781 786.019531 53.875 C 786.019531 52.375 784.816406 51.773438 783.765625 51.773438 C 782.566406 51.773438 781.066406 52.523438 780.613281 54.324219 Z M 776.414062 71.4375 C 775.960938 73.386719 774.460938 74.738281 772.960938 75.941406 C 772.359375 76.539062 769.808594 78.640625 766.804688 78.640625 C 764.40625 78.640625 762.003906 76.839844 762.003906 72.1875 C 762.003906 68.585938 763.953125 61.378906 765.457031 58.679688 C 768.609375 53.273438 771.910156 52.375 773.859375 52.375 C 778.511719 52.375 779.714844 57.328125 779.714844 58.078125 C 779.714844 58.378906 779.5625 58.828125 779.5625 58.980469 Z M 776.414062 71.4375 "/>
<path style=" stroke:none;fill-rule:nonzero;fill:rgb(100%,0%,0%);fill-opacity:1;" d="M 843.398438 64.832031 C 844.449219 64.832031 846.097656 64.832031 846.097656 63.179688 C 846.097656 61.53125 844.597656 61.53125 843.398438 61.53125 L 803.773438 61.53125 C 802.722656 61.53125 801.074219 61.53125 801.074219 63.179688 C 801.074219 64.832031 802.574219 64.832031 803.773438 64.832031 Z M 843.398438 64.832031 "/>
<path style=" stroke:none;fill-rule:nonzero;fill:rgb(100%,0%,0%);fill-opacity:1;" d="M 870.976562 35.5625 C 871.125 35.414062 871.277344 34.664062 871.277344 34.511719 C 871.277344 34.210938 870.976562 33.613281 870.226562 33.613281 C 868.875 33.613281 863.320312 34.0625 861.671875 34.210938 C 861.21875 34.363281 860.167969 34.363281 860.167969 35.863281 C 860.167969 36.761719 861.21875 36.761719 861.96875 36.761719 C 865.121094 36.761719 865.121094 37.214844 865.121094 37.664062 C 865.121094 38.113281 864.523438 40.816406 864.070312 42.316406 L 862.570312 48.472656 C 861.96875 50.722656 858.21875 65.433594 858.21875 66.183594 C 857.769531 67.835938 857.769531 68.734375 857.769531 69.484375 C 857.769531 76.242188 862.121094 80.441406 867.671875 80.441406 C 875.929688 80.441406 884.785156 71.4375 884.785156 61.53125 C 884.785156 53.726562 879.378906 50.421875 874.878906 50.421875 C 871.277344 50.421875 868.425781 52.375 866.472656 54.175781 Z M 867.671875 78.640625 C 864.371094 78.640625 862.570312 75.789062 862.570312 71.886719 C 862.570312 69.335938 863.171875 67.085938 864.972656 59.578125 C 865.421875 58.378906 865.421875 58.226562 866.625 56.726562 C 869.175781 53.726562 872.175781 52.375 874.578125 52.375 C 877.28125 52.375 879.53125 54.324219 879.53125 58.828125 C 879.53125 61.53125 878.03125 68.285156 876.078125 72.1875 C 874.429688 75.488281 871.125 78.640625 867.671875 78.640625 Z M 867.671875 78.640625 "/>
</g>
</svg>
