<?xml version="1.0" encoding="UTF-8"?>
<svg xmlns="http://www.w3.org/2000/svg" xmlns:xlink="http://www.w3.org/1999/xlink" width="2046pt" height="300pt" viewBox="0 0 2046 300" version="1.1">
<defs>
<clipPath id="clip1">
  <path d="M 4.582031 158 L 2043.304688 158 L 2043.304688 163 L 4.582031 163 Z M 4.582031 158 "/>
</clipPath>
</defs>
<g id="surface1">
<g clip-path="url(#clip1)" clip-rule="nonzero">
<path style="fill:none;stroke-width:0.3985;stroke-linecap:butt;stroke-linejoin:miter;stroke:rgb(0%,0%,0%);stroke-opacity:1;stroke-miterlimit:10;" d="M -42.518494 -0.000774222 L 170.079332 -0.000774222 " transform="matrix(9.57155,0,0,-9.572269,413.463968,160.488683)"/>
</g>
<path style="fill-rule:nonzero;fill:rgb(0%,0%,0%);fill-opacity:1;stroke-width:0.3985;stroke-linecap:butt;stroke-linejoin:miter;stroke:rgb(0%,0%,0%);stroke-opacity:1;stroke-miterlimit:10;" d="M 2.115328 -0.000774222 C 2.115328 1.168783 1.165655 2.114304 0.000499623 2.114304 C -1.168737 2.114304 -2.114329 1.168783 -2.114329 -0.000774222 C -2.114329 -1.165842 -1.168737 -2.111771 0.000499623 -2.111771 C 1.165655 -2.111771 2.115328 -1.165842 2.115328 -0.000774222 Z M 2.115328 -0.000774222 " transform="matrix(9.57155,0,0,-9.572269,413.463968,160.488683)"/>
<path style="fill-rule:nonzero;fill:rgb(0%,0%,100%);fill-opacity:1;stroke-width:0.3985;stroke-linecap:butt;stroke-linejoin:miter;stroke:rgb(0%,0%,100%);stroke-opacity:1;stroke-miterlimit:10;" d="M 129.691492 -0.000774222 C 129.691492 1.168783 128.741818 2.114304 127.576255 2.114304 C 126.407018 2.114304 125.461426 1.168783 125.461426 -0.000774222 C 125.461426 -1.165842 126.407018 -2.111771 127.576255 -2.111771 C 128.741818 -2.111771 129.691492 -1.165842 129.691492 -0.000774222 Z M 129.691492 -0.000774222 " transform="matrix(9.57155,0,0,-9.572269,413.463968,160.488683)"/>
<path style="fill-rule:nonzero;fill:rgb(55.294118%,52.54902%,0%);fill-opacity:1;stroke-width:0.3985;stroke-linecap:butt;stroke-linejoin:miter;stroke:rgb(55.294118%,52.54902%,0%);stroke-opacity:1;stroke-miterlimit:10;" d="M 87.164743 -0.000774222 C 87.164743 1.168783 86.219151 2.114304 85.049915 2.114304 C 83.884351 2.114304 82.938759 1.168783 82.938759 -0.000774222 C 82.938759 -1.165842 83.884351 -2.111771 85.049915 -2.111771 C 86.219151 -2.111771 87.164743 -1.165842 87.164743 -0.000774222 Z M 87.164743 -0.000774222 " transform="matrix(9.57155,0,0,-9.572269,413.463968,160.488683)"/>
<path style="fill:none;stroke-width:0.3985;stroke-linecap:butt;stroke-linejoin:miter;stroke:rgb(0%,0%,100%);stroke-opacity:1;stroke-miterlimit:10;" d="M 3.233551 -4.25419 L 124.343203 -4.25419 " transform="matrix(9.57155,0,0,-9.572269,413.463968,160.488683)"/>
<path style="fill:none;stroke-width:0.3985;stroke-linecap:round;stroke-linejoin:round;stroke:rgb(0%,0%,100%);stroke-opacity:1;stroke-miterlimit:10;" d="M -2.071056 2.391237 C -1.69437 0.955204 -0.850806 0.28024 0.000512889 0.00192915 C -0.850806 -0.28087 -1.69437 -0.955834 -2.071056 -2.391867 " transform="matrix(-9.57155,0,0,9.572269,442.504909,201.192471)"/>
<path style="fill:none;stroke-width:0.3985;stroke-linecap:round;stroke-linejoin:round;stroke:rgb(0%,0%,100%);stroke-opacity:1;stroke-miterlimit:10;" d="M -2.070487 2.391867 C -1.693801 0.955834 -0.850237 0.28087 0.0010816 -0.00192915 C -0.850237 -0.28024 -1.693801 -0.955204 -2.070487 -2.391237 " transform="matrix(9.57155,0,0,-9.572269,1605.524804,201.192471)"/>
<path style=" stroke:none;fill-rule:nonzero;fill:rgb(0%,0%,100%);fill-opacity:1;" d="M 1031.414062 238.078125 C 1030.0625 235.976562 1027.808594 234.171875 1024.652344 234.171875 C 1016.089844 234.171875 1007.375 243.636719 1007.375 253.253906 C 1007.375 259.714844 1011.734375 264.222656 1017.441406 264.222656 C 1021.046875 264.222656 1024.203125 262.269531 1026.90625 259.5625 C 1028.257812 263.621094 1032.015625 264.222656 1033.816406 264.222656 C 1036.21875 264.222656 1037.871094 262.867188 1039.074219 260.765625 C 1040.578125 258.210938 1041.480469 254.304688 1041.480469 254.15625 C 1041.480469 253.253906 1040.578125 253.253906 1040.277344 253.253906 C 1039.375 253.253906 1039.375 253.554688 1038.925781 255.207031 C 1038.023438 258.511719 1036.820312 262.417969 1033.96875 262.417969 C 1032.316406 262.417969 1031.863281 260.914062 1031.863281 259.113281 C 1031.863281 258.0625 1032.316406 255.65625 1032.765625 253.855469 C 1033.214844 252.050781 1033.96875 249.347656 1034.265625 247.84375 L 1035.621094 242.738281 C 1036.070312 241.085938 1036.820312 237.929688 1036.820312 237.628906 C 1036.820312 236.125 1035.621094 235.523438 1034.566406 235.523438 C 1033.367188 235.523438 1031.863281 236.277344 1031.414062 238.078125 Z M 1027.207031 255.207031 C 1026.757812 257.160156 1025.253906 258.511719 1023.75 259.714844 C 1023.152344 260.316406 1020.597656 262.417969 1017.59375 262.417969 C 1015.1875 262.417969 1012.785156 260.617188 1012.785156 255.957031 C 1012.785156 252.351562 1014.738281 245.140625 1016.238281 242.4375 C 1019.394531 237.027344 1022.699219 236.125 1024.652344 236.125 C 1029.308594 236.125 1030.511719 241.085938 1030.511719 241.835938 C 1030.511719 242.136719 1030.363281 242.585938 1030.363281 242.738281 Z M 1027.207031 255.207031 "/>
<path style="fill:none;stroke-width:0.3985;stroke-linecap:butt;stroke-linejoin:miter;stroke:rgb(55.294118%,52.54902%,0%);stroke-opacity:1;stroke-miterlimit:10;" d="M 124.343203 4.25305 L 88.282966 4.25305 " transform="matrix(9.57155,0,0,-9.572269,413.463968,160.488683)"/>
<path style="fill:none;stroke-width:0.3985;stroke-linecap:round;stroke-linejoin:round;stroke:rgb(55.294118%,52.54902%,0%);stroke-opacity:1;stroke-miterlimit:10;" d="M -2.070487 2.390097 C -1.693801 0.958145 -0.850237 0.2791 0.0010816 0.000789791 C -0.850237 -0.277929 -1.693801 -0.956974 -2.070487 -2.393006 " transform="matrix(9.57155,0,0,-9.572269,1605.524804,119.784904)"/>
<path style="fill:none;stroke-width:0.3985;stroke-linecap:round;stroke-linejoin:round;stroke:rgb(55.294118%,52.54902%,0%);stroke-opacity:1;stroke-miterlimit:10;" d="M -2.07375 2.393006 C -1.692983 0.956974 -0.849419 0.277929 -0.00177341 -0.000789791 C -0.849419 -0.2791 -1.692983 -0.958145 -2.07375 -2.390097 " transform="matrix(-9.57155,0,0,9.572269,1256.57287,119.784904)"/>
<path style=" stroke:none;fill-rule:nonzero;fill:rgb(55.294118%,52.54902%,0%);fill-opacity:1;" d="M 1431.84375 41.773438 C 1431.992188 41.621094 1432.140625 40.871094 1432.140625 40.71875 C 1432.140625 40.421875 1431.84375 39.820312 1431.089844 39.820312 C 1429.738281 39.820312 1424.179688 40.269531 1422.527344 40.421875 C 1422.078125 40.570312 1421.027344 40.570312 1421.027344 42.074219 C 1421.027344 42.972656 1422.078125 42.972656 1422.828125 42.972656 C 1425.984375 42.972656 1425.984375 43.425781 1425.984375 43.875 C 1425.984375 44.328125 1425.382812 47.03125 1424.929688 48.53125 L 1423.429688 54.691406 C 1422.828125 56.945312 1419.074219 71.671875 1419.074219 72.421875 C 1418.621094 74.074219 1418.621094 74.976562 1418.621094 75.726562 C 1418.621094 82.488281 1422.980469 86.695312 1428.535156 86.695312 C 1436.800781 86.695312 1445.664062 77.679688 1445.664062 67.765625 C 1445.664062 59.953125 1440.253906 56.644531 1435.75 56.644531 C 1432.140625 56.644531 1429.289062 58.597656 1427.335938 60.402344 Z M 1428.535156 84.890625 C 1425.230469 84.890625 1423.429688 82.035156 1423.429688 78.128906 C 1423.429688 75.578125 1424.03125 73.324219 1425.832031 65.8125 C 1426.285156 64.609375 1426.285156 64.457031 1427.484375 62.957031 C 1430.039062 59.953125 1433.042969 58.597656 1435.449219 58.597656 C 1438.152344 58.597656 1440.40625 60.550781 1440.40625 65.058594 C 1440.40625 67.765625 1438.902344 74.523438 1436.949219 78.429688 C 1435.296875 81.734375 1431.992188 84.890625 1428.535156 84.890625 Z M 1428.535156 84.890625 "/>
<path style="fill:none;stroke-width:0.3985;stroke-linecap:butt;stroke-linejoin:miter;stroke:rgb(100%,0%,0%);stroke-opacity:1;stroke-miterlimit:10;" d="M 3.233551 4.25305 L 81.816455 4.25305 " transform="matrix(9.57155,0,0,-9.572269,413.463968,160.488683)"/>
<path style="fill:none;stroke-width:0.3985;stroke-linecap:round;stroke-linejoin:round;stroke:rgb(100%,0%,0%);stroke-opacity:1;stroke-miterlimit:10;" d="M -2.071056 2.393006 C -1.69437 0.956974 -0.850806 0.277929 0.000512889 -0.000789791 C -0.850806 -0.2791 -1.69437 -0.958145 -2.071056 -2.390097 " transform="matrix(-9.57155,0,0,9.572269,442.504909,119.784904)"/>
<path style="fill:none;stroke-width:0.3985;stroke-linecap:round;stroke-linejoin:round;stroke:rgb(100%,0%,0%);stroke-opacity:1;stroke-miterlimit:10;" d="M -2.07185 2.390097 C -1.695164 0.958145 -0.851599 0.2791 -0.000280666 0.000789791 C -0.851599 -0.277929 -1.695164 -0.956974 -2.07185 -2.393006 " transform="matrix(9.57155,0,0,-9.572269,1198.490968,119.784904)"/>
<path style=" stroke:none;fill-rule:nonzero;fill:rgb(100%,0%,0%);fill-opacity:1;" d="M 781.335938 52.605469 C 779.984375 50.503906 777.730469 48.699219 774.578125 48.699219 C 766.015625 48.699219 757.300781 58.167969 757.300781 67.78125 C 757.300781 74.242188 761.65625 78.75 767.367188 78.75 C 770.972656 78.75 774.125 76.796875 776.832031 74.089844 C 778.183594 78.148438 781.9375 78.75 783.742188 78.75 C 786.144531 78.75 787.796875 77.398438 789 75.292969 C 790.5 72.738281 791.402344 68.832031 791.402344 68.683594 C 791.402344 67.78125 790.5 67.78125 790.199219 67.78125 C 789.300781 67.78125 789.300781 68.082031 788.847656 69.734375 C 787.949219 73.039062 786.746094 76.945312 783.890625 76.945312 C 782.238281 76.945312 781.789062 75.445312 781.789062 73.640625 C 781.789062 72.589844 782.238281 70.183594 782.6875 68.382812 C 783.140625 66.578125 783.890625 63.875 784.191406 62.371094 L 785.542969 57.265625 C 785.996094 55.613281 786.746094 52.457031 786.746094 52.15625 C 786.746094 50.652344 785.542969 50.054688 784.492188 50.054688 C 783.289062 50.054688 781.789062 50.804688 781.335938 52.605469 Z M 777.132812 69.734375 C 776.679688 71.6875 775.179688 73.039062 773.675781 74.242188 C 773.074219 74.84375 770.519531 76.945312 767.515625 76.945312 C 765.113281 76.945312 762.707031 75.144531 762.707031 70.484375 C 762.707031 66.878906 764.660156 59.667969 766.164062 56.964844 C 769.320312 51.554688 772.625 50.652344 774.578125 50.652344 C 779.234375 50.652344 780.4375 55.613281 780.4375 56.363281 C 780.4375 56.664062 780.285156 57.113281 780.285156 57.265625 Z M 777.132812 69.734375 "/>
<path style=" stroke:none;fill-rule:nonzero;fill:rgb(100%,0%,0%);fill-opacity:1;" d="M 844.179688 63.125 C 845.230469 63.125 846.882812 63.125 846.882812 61.472656 C 846.882812 59.820312 845.378906 59.820312 844.179688 59.820312 L 804.519531 59.820312 C 803.464844 59.820312 801.8125 59.820312 801.8125 61.472656 C 801.8125 63.125 803.316406 63.125 804.519531 63.125 Z M 844.179688 63.125 "/>
<path style=" stroke:none;fill-rule:nonzero;fill:rgb(100%,0%,0%);fill-opacity:1;" d="M 871.78125 33.828125 C 871.933594 33.675781 872.082031 32.925781 872.082031 32.777344 C 872.082031 32.476562 871.78125 31.875 871.03125 31.875 C 869.679688 31.875 864.121094 32.324219 862.46875 32.476562 C 862.015625 32.625 860.964844 32.625 860.964844 34.128906 C 860.964844 35.027344 862.015625 35.027344 862.769531 35.027344 C 865.921875 35.027344 865.921875 35.480469 865.921875 35.929688 C 865.921875 36.382812 865.320312 39.085938 864.871094 40.589844 L 863.367188 46.746094 C 862.769531 49 859.011719 63.726562 859.011719 64.476562 C 858.5625 66.128906 858.5625 67.03125 858.5625 67.78125 C 858.5625 74.542969 862.917969 78.75 868.476562 78.75 C 876.738281 78.75 885.601562 69.734375 885.601562 59.820312 C 885.601562 52.007812 880.195312 48.699219 875.6875 48.699219 C 872.082031 48.699219 869.226562 50.652344 867.273438 52.457031 Z M 868.476562 76.945312 C 865.171875 76.945312 863.367188 74.089844 863.367188 70.183594 C 863.367188 67.632812 863.96875 65.378906 865.773438 57.867188 C 866.222656 56.664062 866.222656 56.511719 867.425781 55.011719 C 869.980469 52.007812 872.984375 50.652344 875.386719 50.652344 C 878.089844 50.652344 880.34375 52.605469 880.34375 57.113281 C 880.34375 59.820312 878.84375 66.578125 876.890625 70.484375 C 875.238281 73.792969 871.933594 76.945312 868.476562 76.945312 Z M 868.476562 76.945312 "/>
</g>
</svg>
