<?xml version="1.0" encoding="UTF-8"?>
<svg xmlns="http://www.w3.org/2000/svg" xmlns:xlink="http://www.w3.org/1999/xlink" width="1946px" height="300px" viewBox="0 0 1946 300" version="1.1">
<defs>
<clipPath id="clip1">
  <path d="M 8.816406 150 L 1937.175781 150 L 1937.175781 155 L 8.816406 155 Z M 8.816406 150 "/>
</clipPath>
</defs>
<g id="surface1">
<g clip-path="url(#clip1)" clip-rule="nonzero">
<path style="fill:none;stroke-width:0.3985;stroke-linecap:butt;stroke-linejoin:miter;stroke:rgb(0%,0%,0%);stroke-opacity:1;stroke-miterlimit:10;" d="M -42.52029 0.000696775 L 170.081468 0.000696775 " transform="matrix(9.053496,0,0,-9.055084,395.558815,152.408653)"/>
</g>
<path style="fill-rule:nonzero;fill:rgb(0%,0%,0%);fill-opacity:1;stroke-width:0.3985;stroke-linecap:butt;stroke-linejoin:miter;stroke:rgb(0%,0%,0%);stroke-opacity:1;stroke-miterlimit:10;" d="M 2.114577 0.000696775 C 2.114577 1.1676 1.168378 2.113633 0.00170146 2.113633 C -1.165406 2.113633 -2.115488 1.1676 -2.115488 0.000696775 C -2.115488 -1.166206 -1.165406 -2.112239 0.00170146 -2.112239 C 1.168378 -2.112239 2.114577 -1.166206 2.114577 0.000696775 Z M 2.114577 0.000696775 " transform="matrix(9.053496,0,0,-9.055084,395.558815,152.408653)"/>
<path style="fill-rule:nonzero;fill:rgb(0%,0%,100%);fill-opacity:1;stroke-width:0.3985;stroke-linecap:butt;stroke-linejoin:miter;stroke:rgb(0%,0%,100%);stroke-opacity:1;stroke-miterlimit:10;" d="M 87.162442 0.000696775 C 87.162442 1.1676 86.216243 2.113633 85.049567 2.113633 C 83.882459 2.113633 82.936692 1.1676 82.936692 0.000696775 C 82.936692 -1.166206 83.882459 -2.112239 85.049567 -2.112239 C 86.216243 -2.112239 87.162442 -1.166206 87.162442 0.000696775 Z M 87.162442 0.000696775 " transform="matrix(9.053496,0,0,-9.055084,395.558815,152.408653)"/>
<path style="fill-rule:nonzero;fill:rgb(55.29412%,52.549022%,0%);fill-opacity:1;stroke-width:0.3985;stroke-linecap:butt;stroke-linejoin:miter;stroke:rgb(55.29412%,52.549022%,0%);stroke-opacity:1;stroke-miterlimit:10;" d="M 129.688316 0.000696775 C 129.688316 1.1676 128.742117 2.113633 127.575441 2.113633 C 126.408333 2.113633 125.462566 1.1676 125.462566 0.000696775 C 125.462566 -1.166206 126.408333 -2.112239 127.575441 -2.112239 C 128.742117 -2.112239 129.688316 -1.166206 129.688316 0.000696775 Z M 129.688316 0.000696775 " transform="matrix(9.053496,0,0,-9.055084,395.558815,152.408653)"/>
<path style="fill:none;stroke-width:0.3985;stroke-linecap:butt;stroke-linejoin:miter;stroke:rgb(0%,0%,100%);stroke-opacity:1;stroke-miterlimit:10;" d="M 3.233792 -4.252352 L 81.817045 -4.252352 " transform="matrix(9.053496,0,0,-9.055084,395.558815,152.408653)"/>
<path style="fill:none;stroke-width:0.3985;stroke-linecap:round;stroke-linejoin:round;stroke:rgb(0%,0%,100%);stroke-opacity:1;stroke-miterlimit:10;" d="M -2.072251 2.389115 C -1.693858 0.958203 -0.850347 0.280062 0.00136095 0.0000910467 C -0.850347 -0.279448 -1.693858 -0.957589 -2.072251 -2.392384 " transform="matrix(-9.053496,0,0,9.055084,423.027946,190.913238)"/>
<path style="fill:none;stroke-width:0.3985;stroke-linecap:round;stroke-linejoin:round;stroke:rgb(0%,0%,100%);stroke-opacity:1;stroke-miterlimit:10;" d="M -2.07224 2.392384 C -1.693847 0.957589 -0.849905 0.279448 0.00137204 -0.0000910467 C -0.849905 -0.280062 -1.693847 -0.958203 -2.07224 -2.389115 " transform="matrix(9.053496,0,0,-9.055084,1138.096953,190.913238)"/>
<path style=" stroke:none;fill-rule:nonzero;fill:rgb(0%,0%,100%);fill-opacity:1;" d="M 787.6875 225.839844 C 786.261719 223.839844 784.121094 222.125 781.121094 222.125 C 772.984375 222.125 764.847656 230.976562 764.847656 240.117188 C 764.847656 246.257812 768.988281 250.539062 774.414062 250.539062 C 777.839844 250.539062 780.835938 248.683594 783.265625 246.113281 C 784.546875 249.96875 788.261719 250.539062 789.832031 250.539062 C 792.113281 250.539062 793.683594 249.253906 794.828125 247.253906 C 796.253906 244.828125 796.96875 241.257812 796.96875 240.972656 C 796.96875 240.117188 796.253906 240.117188 795.96875 240.117188 C 795.113281 240.117188 795.113281 240.402344 794.683594 242.117188 C 793.828125 245.113281 792.6875 248.824219 789.972656 248.824219 C 788.402344 248.824219 787.976562 247.398438 787.976562 245.683594 C 787.976562 244.683594 788.402344 242.402344 788.832031 240.6875 C 789.257812 239.117188 789.972656 236.402344 790.257812 235.117188 L 791.542969 230.265625 C 791.972656 228.695312 792.6875 225.695312 792.6875 225.410156 C 792.6875 223.980469 791.542969 223.269531 790.542969 223.269531 C 789.402344 223.269531 787.976562 224.125 787.6875 225.839844 Z M 783.550781 242.117188 C 783.121094 243.828125 781.695312 245.113281 780.410156 246.257812 C 779.835938 246.828125 777.269531 248.824219 774.554688 248.824219 C 772.273438 248.824219 769.988281 247.253906 769.988281 242.6875 C 769.988281 239.402344 771.84375 232.40625 773.269531 229.835938 C 776.125 224.839844 779.410156 223.839844 781.121094 223.839844 C 785.546875 223.839844 786.691406 228.695312 786.691406 229.40625 C 786.691406 229.695312 786.546875 230.121094 786.546875 230.265625 Z M 783.550781 242.117188 "/>
<path style="fill:none;stroke-width:0.3985;stroke-linecap:butt;stroke-linejoin:miter;stroke:rgb(55.29412%,52.549022%,0%);stroke-opacity:1;stroke-miterlimit:10;" d="M 88.285972 -4.252352 L 124.342919 -4.252352 " transform="matrix(9.053496,0,0,-9.055084,395.558815,152.408653)"/>
<path style="fill:none;stroke-width:0.3985;stroke-linecap:round;stroke-linejoin:round;stroke:rgb(55.29412%,52.549022%,0%);stroke-opacity:1;stroke-miterlimit:10;" d="M -2.073182 2.389115 C -1.694788 0.958203 -0.851278 0.280062 -0.00000102925 0.0000910467 C -0.851278 -0.279448 -1.694788 -0.957589 -2.073182 -2.392384 " transform="matrix(-9.053496,0,0,9.055084,1193.035147,190.913238)"/>
<path style="fill:none;stroke-width:0.3985;stroke-linecap:round;stroke-linejoin:round;stroke:rgb(55.29412%,52.549022%,0%);stroke-opacity:1;stroke-miterlimit:10;" d="M -2.071756 2.392384 C -1.692931 0.957589 -0.84942 0.279448 0.00185655 -0.0000910467 C -0.84942 -0.280062 -1.692931 -0.958203 -2.071756 -2.389115 " transform="matrix(9.053496,0,0,-9.055084,1523.100379,190.913238)"/>
<path style=" stroke:none;fill-rule:nonzero;fill:rgb(55.29412%,52.549022%,0%);fill-opacity:1;" d="M 1358.894531 224.796875 C 1358.894531 224.652344 1359.039062 223.796875 1359.039062 223.652344 C 1359.039062 223.367188 1358.894531 222.796875 1358.039062 222.796875 C 1356.894531 222.796875 1351.613281 223.367188 1350.042969 223.511719 C 1349.472656 223.511719 1348.617188 223.652344 1348.617188 224.9375 C 1348.617188 225.792969 1349.472656 225.792969 1350.328125 225.792969 C 1353.328125 225.792969 1353.328125 226.222656 1353.328125 226.792969 C 1353.328125 227.222656 1352.613281 229.648438 1352.328125 231.21875 L 1350.902344 236.929688 C 1350.328125 239.074219 1346.761719 252.921875 1346.617188 253.78125 C 1346.332031 255.207031 1346.332031 256.0625 1346.332031 256.777344 C 1346.332031 263.203125 1350.328125 267.199219 1355.613281 267.199219 C 1363.464844 267.199219 1371.886719 258.632812 1371.886719 249.351562 C 1371.886719 241.929688 1366.746094 238.789062 1362.464844 238.789062 C 1359.179688 238.789062 1356.324219 240.644531 1354.46875 242.214844 Z M 1355.753906 265.488281 C 1352.613281 265.488281 1350.902344 262.773438 1350.902344 259.0625 C 1350.902344 256.777344 1351.472656 254.636719 1353.183594 247.496094 C 1353.613281 246.210938 1353.613281 246.070312 1354.753906 244.785156 C 1357.183594 241.929688 1360.035156 240.5 1362.320312 240.5 C 1364.746094 240.5 1366.890625 242.355469 1366.890625 246.640625 C 1366.890625 249.210938 1365.460938 255.777344 1363.605469 259.347656 C 1362.035156 262.488281 1358.894531 265.488281 1355.753906 265.488281 Z M 1355.753906 265.488281 "/>
<path style="fill:none;stroke-width:0.3985;stroke-linecap:butt;stroke-linejoin:miter;stroke:rgb(100%,0%,0%);stroke-opacity:1;stroke-miterlimit:10;" d="M 3.233792 4.254177 L 124.342919 4.254177 " transform="matrix(9.053496,0,0,-9.055084,395.558815,152.408653)"/>
<path style="fill:none;stroke-width:0.3985;stroke-linecap:round;stroke-linejoin:round;stroke:rgb(100%,0%,0%);stroke-opacity:1;stroke-miterlimit:10;" d="M -2.072251 2.39099 C -1.693858 0.955764 -0.850347 0.278054 0.00136095 -0.00191598 C -0.850347 -0.278004 -1.693858 -0.955714 -2.072251 -2.39094 " transform="matrix(-9.053496,0,0,9.055084,423.027946,113.904068)"/>
<path style="fill:none;stroke-width:0.3985;stroke-linecap:round;stroke-linejoin:round;stroke:rgb(100%,0%,0%);stroke-opacity:1;stroke-miterlimit:10;" d="M -2.071756 2.39094 C -1.692931 0.955714 -0.84942 0.278004 0.00185655 0.00191598 C -0.84942 -0.278054 -1.692931 -0.955764 -2.071756 -2.39099 " transform="matrix(9.053496,0,0,-9.055084,1523.100379,113.904068)"/>
<path style=" stroke:none;fill-rule:nonzero;fill:rgb(100%,0%,0%);fill-opacity:1;" d="M 936.648438 50.378906 C 935.21875 48.378906 933.078125 46.664062 930.078125 46.664062 C 921.941406 46.664062 913.804688 55.519531 913.804688 64.65625 C 913.804688 70.796875 917.945312 75.078125 923.371094 75.078125 C 926.796875 75.078125 929.792969 73.222656 932.222656 70.652344 C 933.507812 74.507812 937.21875 75.078125 938.789062 75.078125 C 941.070312 75.078125 942.640625 73.792969 943.785156 71.792969 C 945.210938 69.367188 945.925781 65.796875 945.925781 65.511719 C 945.925781 64.65625 945.210938 64.65625 944.925781 64.65625 C 944.070312 64.65625 944.070312 64.941406 943.640625 66.65625 C 942.785156 69.652344 941.644531 73.367188 938.929688 73.367188 C 937.359375 73.367188 936.933594 71.9375 936.933594 70.222656 C 936.933594 69.226562 937.359375 66.941406 937.789062 65.226562 C 938.21875 63.65625 938.929688 60.945312 939.214844 59.660156 L 940.5 54.804688 C 940.929688 53.234375 941.644531 50.234375 941.644531 49.949219 C 941.644531 48.523438 940.5 47.808594 939.5 47.808594 C 938.359375 47.808594 936.933594 48.664062 936.648438 50.378906 Z M 932.507812 66.65625 C 932.078125 68.367188 930.652344 69.652344 929.367188 70.796875 C 928.796875 71.367188 926.226562 73.367188 923.511719 73.367188 C 921.230469 73.367188 918.945312 71.792969 918.945312 67.226562 C 918.945312 63.941406 920.800781 56.945312 922.226562 54.375 C 925.082031 49.378906 928.367188 48.378906 930.078125 48.378906 C 934.503906 48.378906 935.648438 53.234375 935.648438 53.949219 C 935.648438 54.234375 935.503906 54.660156 935.503906 54.804688 Z M 932.507812 66.65625 "/>
<path style=" stroke:none;fill-rule:nonzero;fill:rgb(100%,0%,0%);fill-opacity:1;" d="M 978.335938 60.230469 L 997.609375 60.230469 C 998.464844 60.230469 999.890625 60.230469 999.890625 58.660156 C 999.890625 57.089844 998.464844 57.089844 997.609375 57.089844 L 978.335938 57.089844 L 978.335938 37.8125 C 978.335938 36.957031 978.335938 35.386719 976.765625 35.386719 C 975.195312 35.386719 975.195312 36.957031 975.195312 37.8125 L 975.195312 57.089844 L 955.78125 57.089844 C 955.066406 57.089844 953.496094 57.089844 953.496094 58.660156 C 953.496094 60.230469 954.925781 60.230469 955.78125 60.230469 L 975.195312 60.230469 L 975.195312 79.648438 C 975.195312 80.503906 975.195312 81.933594 976.765625 81.933594 C 978.335938 81.933594 978.335938 80.503906 978.335938 79.648438 Z M 978.335938 60.230469 "/>
<path style=" stroke:none;fill-rule:nonzero;fill:rgb(100%,0%,0%);fill-opacity:1;" d="M 1021.144531 32.671875 C 1021.144531 32.53125 1021.289062 31.675781 1021.289062 31.53125 C 1021.289062 31.246094 1021.144531 30.675781 1020.289062 30.675781 C 1019.148438 30.675781 1013.863281 31.246094 1012.292969 31.386719 C 1011.722656 31.386719 1010.867188 31.53125 1010.867188 32.816406 C 1010.867188 33.671875 1011.722656 33.671875 1012.578125 33.671875 C 1015.578125 33.671875 1015.578125 34.101562 1015.578125 34.671875 C 1015.578125 35.101562 1014.863281 37.527344 1014.578125 39.097656 L 1013.152344 44.808594 C 1012.578125 46.953125 1009.011719 60.800781 1008.867188 61.65625 C 1008.582031 63.085938 1008.582031 63.941406 1008.582031 64.65625 C 1008.582031 71.082031 1012.578125 75.078125 1017.863281 75.078125 C 1025.714844 75.078125 1034.136719 66.511719 1034.136719 57.230469 C 1034.136719 49.808594 1028.996094 46.664062 1024.714844 46.664062 C 1021.429688 46.664062 1018.574219 48.523438 1016.71875 50.09375 Z M 1018.003906 73.367188 C 1014.863281 73.367188 1013.152344 70.652344 1013.152344 66.941406 C 1013.152344 64.65625 1013.722656 62.515625 1015.433594 55.375 C 1015.863281 54.089844 1015.863281 53.949219 1017.003906 52.664062 C 1019.433594 49.808594 1022.289062 48.378906 1024.570312 48.378906 C 1026.996094 48.378906 1029.140625 50.234375 1029.140625 54.519531 C 1029.140625 57.089844 1027.710938 63.65625 1025.855469 67.226562 C 1024.285156 70.367188 1021.144531 73.367188 1018.003906 73.367188 Z M 1018.003906 73.367188 "/>
</g>
</svg>
