<?xml version="1.0" encoding="UTF-8"?>
<svg xmlns="http://www.w3.org/2000/svg" xmlns:xlink="http://www.w3.org/1999/xlink" width="1946pt" height="300pt" viewBox="0 0 1946 300" version="1.1">
<defs>
<clipPath id="clip1">
  <path d="M 8.824219 150 L 1938.96875 150 L 1938.96875 154 L 8.824219 154 Z M 8.824219 150 "/>
</clipPath>
</defs>
<g id="surface1">
<g clip-path="url(#clip1)" clip-rule="nonzero">
<path style="fill:none;stroke-width:0.3985;stroke-linecap:butt;stroke-linejoin:miter;stroke:rgb(0%,0%,0%);stroke-opacity:1;stroke-miterlimit:10;" d="M -42.520511 0.000984336 L 170.081618 0.000984336 " transform="matrix(9.061876,0,0,-9.063466,395.924994,151.95814)"/>
</g>
<path style="fill-rule:nonzero;fill:rgb(0%,0%,0%);fill-opacity:1;stroke-width:0.3985;stroke-linecap:butt;stroke-linejoin:miter;stroke:rgb(0%,0%,0%);stroke-opacity:1;stroke-miterlimit:10;" d="M 2.114457 0.000984336 C 2.114457 1.16767 1.168271 2.11369 0.00138009 2.11369 C -1.165511 2.11369 -2.115145 1.16767 -2.115145 0.000984336 C -2.115145 -1.166133 -1.165511 -2.112152 0.00138009 -2.112152 C 1.168271 -2.112152 2.114457 -1.166133 2.114457 0.000984336 Z M 2.114457 0.000984336 " transform="matrix(9.061876,0,0,-9.063466,395.924994,151.95814)"/>
<path style="fill-rule:nonzero;fill:rgb(0%,0%,100%);fill-opacity:1;stroke-width:0.3985;stroke-linecap:butt;stroke-linejoin:miter;stroke:rgb(0%,0%,100%);stroke-opacity:1;stroke-miterlimit:10;" d="M 87.162119 0.000984336 C 87.162119 1.16767 86.216365 2.11369 85.049474 2.11369 C 83.882583 2.11369 82.936397 1.16767 82.936397 0.000984336 C 82.936397 -1.166133 83.882583 -2.112152 85.049474 -2.112152 C 86.216365 -2.112152 87.162119 -1.166133 87.162119 0.000984336 Z M 87.162119 0.000984336 " transform="matrix(9.061876,0,0,-9.063466,395.924994,151.95814)"/>
<path style="fill-rule:nonzero;fill:rgb(55.294118%,52.54902%,0%);fill-opacity:1;stroke-width:0.3985;stroke-linecap:butt;stroke-linejoin:miter;stroke:rgb(55.294118%,52.54902%,0%);stroke-opacity:1;stroke-miterlimit:10;" d="M 129.688321 0.000984336 C 129.688321 1.16767 128.742136 2.11369 127.575245 2.11369 C 126.408354 2.11369 125.4626 1.16767 125.4626 0.000984336 C 125.4626 -1.166133 126.408354 -2.112152 127.575245 -2.112152 C 128.742136 -2.112152 129.688321 -1.166133 129.688321 0.000984336 Z M 129.688321 0.000984336 " transform="matrix(9.061876,0,0,-9.063466,395.924994,151.95814)"/>
<path style="fill:none;stroke-width:0.3985;stroke-linecap:butt;stroke-linejoin:miter;stroke:rgb(0%,0%,100%);stroke-opacity:1;stroke-miterlimit:10;" d="M 3.23393 -4.252441 L 81.816924 -4.252441 " transform="matrix(9.061876,0,0,-9.063466,395.924994,151.95814)"/>
<path style="fill:none;stroke-width:0.3985;stroke-linecap:round;stroke-linejoin:round;stroke:rgb(0%,0%,100%);stroke-opacity:1;stroke-miterlimit:10;" d="M -2.072382 2.389149 C -1.693908 0.958267 -0.850315 0.280322 0.00103667 0.000179628 C -0.850315 -0.279532 -1.693908 -0.957477 -2.072382 -2.392669 " transform="matrix(-9.061876,0,0,9.063466,423.41955,190.498372)"/>
<path style="fill:none;stroke-width:0.3985;stroke-linecap:round;stroke-linejoin:round;stroke:rgb(0%,0%,100%);stroke-opacity:1;stroke-miterlimit:10;" d="M -2.07192 2.392669 C -1.693877 0.957477 -0.850285 0.279532 0.00149821 -0.000179628 C -0.850285 -0.280322 -1.693877 -0.958267 -2.07192 -2.389149 " transform="matrix(9.061876,0,0,-9.063466,1139.150486,190.498372)"/>
<path style=" stroke:none;fill-rule:nonzero;fill:rgb(0%,0%,100%);fill-opacity:1;" d="M 788.417969 225.457031 C 786.988281 223.457031 784.847656 221.738281 781.847656 221.738281 C 773.703125 221.738281 765.558594 230.601562 765.558594 239.746094 C 765.558594 245.890625 769.699219 250.179688 775.128906 250.179688 C 778.558594 250.179688 781.558594 248.320312 783.988281 245.75 C 785.273438 249.609375 788.988281 250.179688 790.5625 250.179688 C 792.847656 250.179688 794.417969 248.894531 795.5625 246.894531 C 796.992188 244.464844 797.707031 240.890625 797.707031 240.605469 C 797.707031 239.746094 796.992188 239.746094 796.707031 239.746094 C 795.847656 239.746094 795.847656 240.03125 795.421875 241.746094 C 794.5625 244.75 793.417969 248.464844 790.703125 248.464844 C 789.132812 248.464844 788.703125 247.035156 788.703125 245.320312 C 788.703125 244.320312 789.132812 242.035156 789.5625 240.320312 C 789.992188 238.746094 790.703125 236.03125 790.992188 234.746094 L 792.277344 229.886719 C 792.707031 228.3125 793.417969 225.3125 793.417969 225.027344 C 793.417969 223.597656 792.277344 222.882812 791.277344 222.882812 C 790.132812 222.882812 788.703125 223.742188 788.417969 225.457031 Z M 784.273438 241.746094 C 783.847656 243.460938 782.417969 244.75 781.132812 245.890625 C 780.558594 246.464844 777.988281 248.464844 775.273438 248.464844 C 772.988281 248.464844 770.699219 246.894531 770.699219 242.320312 C 770.699219 239.03125 772.558594 232.03125 773.988281 229.457031 C 776.84375 224.457031 780.132812 223.457031 781.847656 223.457031 C 786.273438 223.457031 787.417969 228.3125 787.417969 229.027344 C 787.417969 229.316406 787.277344 229.742188 787.277344 229.886719 Z M 784.273438 241.746094 "/>
<path style="fill:none;stroke-width:0.3985;stroke-linecap:butt;stroke-linejoin:miter;stroke:rgb(55.294118%,52.54902%,0%);stroke-opacity:1;stroke-miterlimit:10;" d="M 88.285903 -4.252441 L 124.343126 -4.252441 " transform="matrix(9.061876,0,0,-9.063466,395.924994,151.95814)"/>
<path style="fill:none;stroke-width:0.3985;stroke-linecap:round;stroke-linejoin:round;stroke:rgb(55.294118%,52.54902%,0%);stroke-opacity:1;stroke-miterlimit:10;" d="M -2.073532 2.389149 C -1.695057 0.958267 -0.851465 0.280322 0.000317866 0.000179628 C -0.851465 -0.279532 -1.695057 -0.957477 -2.073532 -2.392669 " transform="matrix(-9.061876,0,0,9.063466,1194.139599,190.498372)"/>
<path style="fill:none;stroke-width:0.3985;stroke-linecap:round;stroke-linejoin:round;stroke:rgb(55.294118%,52.54902%,0%);stroke-opacity:1;stroke-miterlimit:10;" d="M -2.071546 2.392669 C -1.693071 0.957477 -0.849479 0.279532 0.00187275 -0.000179628 C -0.849479 -0.280322 -1.693071 -0.958267 -2.071546 -2.389149 " transform="matrix(9.061876,0,0,-9.063466,1524.510373,190.498372)"/>
<path style=" stroke:none;fill-rule:nonzero;fill:rgb(55.294118%,52.54902%,0%);fill-opacity:1;" d="M 1360.152344 224.410156 C 1360.152344 224.269531 1360.296875 223.410156 1360.296875 223.269531 C 1360.296875 222.984375 1360.152344 222.410156 1359.296875 222.410156 C 1358.152344 222.410156 1352.867188 222.984375 1351.292969 223.125 C 1350.722656 223.125 1349.863281 223.269531 1349.863281 224.554688 C 1349.863281 225.410156 1350.722656 225.410156 1351.578125 225.410156 C 1354.582031 225.410156 1354.582031 225.839844 1354.582031 226.414062 C 1354.582031 226.839844 1353.867188 229.269531 1353.582031 230.84375 L 1352.152344 236.558594 C 1351.578125 238.703125 1348.007812 252.566406 1347.863281 253.421875 C 1347.578125 254.851562 1347.578125 255.710938 1347.578125 256.425781 C 1347.578125 262.855469 1351.578125 266.855469 1356.867188 266.855469 C 1364.726562 266.855469 1373.15625 258.28125 1373.15625 248.992188 C 1373.15625 241.5625 1368.011719 238.417969 1363.726562 238.417969 C 1360.4375 238.417969 1357.582031 240.273438 1355.722656 241.847656 Z M 1357.007812 265.140625 C 1353.867188 265.140625 1352.152344 262.425781 1352.152344 258.710938 C 1352.152344 256.425781 1352.722656 254.28125 1354.4375 247.132812 C 1354.867188 245.847656 1354.867188 245.707031 1356.007812 244.417969 C 1358.4375 241.5625 1361.296875 240.132812 1363.582031 240.132812 C 1366.011719 240.132812 1368.15625 241.988281 1368.15625 246.277344 C 1368.15625 248.847656 1366.726562 255.421875 1364.867188 258.996094 C 1363.296875 262.140625 1360.152344 265.140625 1357.007812 265.140625 Z M 1357.007812 265.140625 "/>
<path style="fill:none;stroke-width:0.3985;stroke-linecap:butt;stroke-linejoin:miter;stroke:rgb(100%,0%,0%);stroke-opacity:1;stroke-miterlimit:10;" d="M 3.23393 4.25441 L 124.343126 4.25441 " transform="matrix(9.061876,0,0,-9.063466,395.924994,151.95814)"/>
<path style="fill:none;stroke-width:0.3985;stroke-linecap:round;stroke-linejoin:round;stroke:rgb(100%,0%,0%);stroke-opacity:1;stroke-miterlimit:10;" d="M -2.072382 2.3907 C -1.693908 0.955939 -0.850315 0.277994 0.00103667 -0.0021483 C -0.850315 -0.277981 -1.693908 -0.955926 -2.072382 -2.390687 " transform="matrix(-9.061876,0,0,9.063466,423.41955,113.417909)"/>
<path style="fill:none;stroke-width:0.3985;stroke-linecap:round;stroke-linejoin:round;stroke:rgb(100%,0%,0%);stroke-opacity:1;stroke-miterlimit:10;" d="M -2.071546 2.390687 C -1.693071 0.955926 -0.849479 0.277981 0.00187275 0.0021483 C -0.849479 -0.277994 -1.693071 -0.955939 -2.071546 -2.3907 " transform="matrix(9.061876,0,0,-9.063466,1524.510373,113.417909)"/>
<path style=" stroke:none;fill-rule:nonzero;fill:rgb(100%,0%,0%);fill-opacity:1;" d="M 937.511719 49.832031 C 936.085938 47.832031 933.941406 46.117188 930.941406 46.117188 C 922.796875 46.117188 914.652344 54.976562 914.652344 64.125 C 914.652344 70.269531 918.796875 74.558594 924.226562 74.558594 C 927.65625 74.558594 930.65625 72.699219 933.085938 70.125 C 934.371094 73.984375 938.085938 74.558594 939.65625 74.558594 C 941.941406 74.558594 943.515625 73.269531 944.65625 71.269531 C 946.085938 68.839844 946.800781 65.265625 946.800781 64.980469 C 946.800781 64.125 946.085938 64.125 945.800781 64.125 C 944.945312 64.125 944.945312 64.410156 944.515625 66.125 C 943.65625 69.125 942.515625 72.84375 939.800781 72.84375 C 938.226562 72.84375 937.800781 71.414062 937.800781 69.699219 C 937.800781 68.699219 938.226562 66.410156 938.65625 64.695312 C 939.085938 63.125 939.800781 60.410156 940.085938 59.121094 L 941.371094 54.261719 C 941.800781 52.691406 942.515625 49.691406 942.515625 49.40625 C 942.515625 47.976562 941.371094 47.261719 940.371094 47.261719 C 939.226562 47.261719 937.800781 48.117188 937.511719 49.832031 Z M 933.371094 66.125 C 932.941406 67.839844 931.511719 69.125 930.226562 70.269531 C 929.65625 70.839844 927.082031 72.84375 924.367188 72.84375 C 922.082031 72.84375 919.796875 71.269531 919.796875 66.695312 C 919.796875 63.410156 921.652344 56.40625 923.082031 53.835938 C 925.941406 48.832031 929.226562 47.832031 930.941406 47.832031 C 935.371094 47.832031 936.511719 52.691406 936.511719 53.40625 C 936.511719 53.691406 936.371094 54.121094 936.371094 54.261719 Z M 933.371094 66.125 "/>
<path style=" stroke:none;fill-rule:nonzero;fill:rgb(100%,0%,0%);fill-opacity:1;" d="M 979.242188 59.695312 L 998.53125 59.695312 C 999.390625 59.695312 1000.816406 59.695312 1000.816406 58.121094 C 1000.816406 56.550781 999.390625 56.550781 998.53125 56.550781 L 979.242188 56.550781 L 979.242188 37.257812 C 979.242188 36.398438 979.242188 34.828125 977.671875 34.828125 C 976.097656 34.828125 976.097656 36.398438 976.097656 37.257812 L 976.097656 56.550781 L 956.664062 56.550781 C 955.953125 56.550781 954.378906 56.550781 954.378906 58.121094 C 954.378906 59.695312 955.808594 59.695312 956.664062 59.695312 L 976.097656 59.695312 L 976.097656 79.128906 C 976.097656 79.988281 976.097656 81.417969 977.671875 81.417969 C 979.242188 81.417969 979.242188 79.988281 979.242188 79.128906 Z M 979.242188 59.695312 "/>
<path style=" stroke:none;fill-rule:nonzero;fill:rgb(100%,0%,0%);fill-opacity:1;" d="M 1022.089844 32.113281 C 1022.089844 31.96875 1022.234375 31.113281 1022.234375 30.96875 C 1022.234375 30.683594 1022.089844 30.109375 1021.234375 30.109375 C 1020.089844 30.109375 1014.804688 30.683594 1013.230469 30.824219 C 1012.660156 30.824219 1011.800781 30.96875 1011.800781 32.253906 C 1011.800781 33.113281 1012.660156 33.113281 1013.515625 33.113281 C 1016.519531 33.113281 1016.519531 33.542969 1016.519531 34.113281 C 1016.519531 34.542969 1015.804688 36.972656 1015.519531 38.542969 L 1014.089844 44.257812 C 1013.515625 46.402344 1009.945312 60.265625 1009.800781 61.125 C 1009.515625 62.550781 1009.515625 63.410156 1009.515625 64.125 C 1009.515625 70.554688 1013.515625 74.558594 1018.804688 74.558594 C 1026.664062 74.558594 1035.09375 65.980469 1035.09375 56.691406 C 1035.09375 49.261719 1029.949219 46.117188 1025.664062 46.117188 C 1022.375 46.117188 1019.519531 47.976562 1017.660156 49.546875 Z M 1018.945312 72.84375 C 1015.804688 72.84375 1014.089844 70.125 1014.089844 66.410156 C 1014.089844 64.125 1014.660156 61.980469 1016.375 54.835938 C 1016.804688 53.546875 1016.804688 53.40625 1017.945312 52.121094 C 1020.375 49.261719 1023.234375 47.832031 1025.519531 47.832031 C 1027.949219 47.832031 1030.09375 49.691406 1030.09375 53.976562 C 1030.09375 56.550781 1028.664062 63.125 1026.804688 66.695312 C 1025.234375 69.839844 1022.089844 72.84375 1018.945312 72.84375 Z M 1018.945312 72.84375 "/>
</g>
</svg>
